<svg xmlns="http://www.w3.org/2000/svg" xmlns:xlink="http://www.w3.org/1999/xlink" width="400" zoomAndPan="magnify" viewBox="0 0 300 299.999988" height="400" preserveAspectRatio="xMidYMid meet" version="1.0"><defs><clipPath id="946c22996c"><path d="M 34.351562 77 L 47 77 L 47 90 L 34.351562 90 Z M 34.351562 77 " clip-rule="nonzero"/></clipPath><clipPath id="342006a612"><path d="M 253 63 L 265.351562 63 L 265.351562 75 L 253 75 Z M 253 63 " clip-rule="nonzero"/></clipPath><clipPath id="12a99bc110"><path d="M 34.351562 172 L 248 172 L 248 229 L 34.351562 229 Z M 34.351562 172 " clip-rule="nonzero"/></clipPath></defs><g clip-path="url(#946c22996c)"><path fill="#ee3e54" d="M 40.839844 77.777344 C 40.453125 77.777344 40.070312 77.8125 39.6875 77.890625 C 39.308594 77.964844 38.941406 78.078125 38.582031 78.226562 C 38.222656 78.375 37.882812 78.554688 37.5625 78.773438 C 37.238281 78.988281 36.941406 79.230469 36.667969 79.507812 C 36.394531 79.78125 36.148438 80.078125 35.933594 80.402344 C 35.71875 80.722656 35.539062 81.066406 35.390625 81.421875 C 35.242188 81.78125 35.128906 82.152344 35.054688 82.53125 C 34.976562 82.910156 34.941406 83.296875 34.941406 83.683594 C 34.941406 84.070312 34.976562 84.457031 35.054688 84.835938 C 35.128906 85.21875 35.242188 85.585938 35.390625 85.945312 C 35.539062 86.304688 35.71875 86.644531 35.933594 86.964844 C 36.148438 87.289062 36.394531 87.585938 36.667969 87.863281 C 36.941406 88.136719 37.238281 88.382812 37.5625 88.597656 C 37.882812 88.8125 38.222656 88.992188 38.582031 89.140625 C 38.941406 89.289062 39.308594 89.402344 39.6875 89.480469 C 40.070312 89.554688 40.453125 89.59375 40.839844 89.59375 C 41.226562 89.59375 41.613281 89.554688 41.992188 89.480469 C 42.371094 89.402344 42.742188 89.289062 43.097656 89.140625 C 43.457031 88.992188 43.796875 88.8125 44.117188 88.597656 C 44.441406 88.382812 44.738281 88.136719 45.011719 87.863281 C 45.285156 87.585938 45.53125 87.289062 45.746094 86.964844 C 45.960938 86.644531 46.144531 86.304688 46.292969 85.945312 C 46.441406 85.585938 46.550781 85.21875 46.628906 84.835938 C 46.703125 84.457031 46.742188 84.070312 46.742188 83.683594 C 46.742188 83.296875 46.703125 82.910156 46.628906 82.53125 C 46.550781 82.152344 46.441406 81.78125 46.292969 81.421875 C 46.144531 81.066406 45.960938 80.722656 45.746094 80.402344 C 45.53125 80.078125 45.285156 79.78125 45.011719 79.507812 C 44.738281 79.230469 44.441406 78.988281 44.117188 78.773438 C 43.796875 78.554688 43.457031 78.375 43.097656 78.226562 C 42.742188 78.078125 42.371094 77.964844 41.992188 77.890625 C 41.613281 77.8125 41.226562 77.777344 40.839844 77.777344 Z M 40.839844 77.777344 " fill-opacity="1" fill-rule="nonzero"/></g><path fill="#f1bc19" d="M 229.652344 33.46875 C 229.261719 33.46875 228.886719 33.542969 228.523438 33.691406 C 228.164062 33.84375 227.84375 34.054688 227.566406 34.332031 C 227.289062 34.609375 227.078125 34.929688 226.925781 35.289062 C 226.777344 35.652344 226.703125 36.03125 226.703125 36.421875 C 226.703125 36.8125 226.777344 37.191406 226.925781 37.550781 C 227.078125 37.914062 227.289062 38.234375 227.566406 38.511719 C 227.84375 38.785156 228.164062 39 228.523438 39.148438 C 228.886719 39.300781 229.261719 39.375 229.652344 39.375 C 230.042969 39.375 230.421875 39.300781 230.78125 39.148438 C 231.144531 39 231.460938 38.785156 231.738281 38.511719 C 232.015625 38.234375 232.230469 37.914062 232.378906 37.550781 C 232.527344 37.191406 232.601562 36.8125 232.601562 36.421875 C 232.601562 36.03125 232.527344 35.652344 232.378906 35.289062 C 232.230469 34.929688 232.015625 34.609375 231.738281 34.332031 C 231.460938 34.054688 231.144531 33.84375 230.78125 33.691406 C 230.421875 33.542969 230.042969 33.46875 229.652344 33.46875 Z M 229.652344 33.46875 " fill-opacity="1" fill-rule="nonzero"/><path fill="#fce0a2" d="M 149.996094 36.421875 C 148.210938 36.421875 146.425781 36.464844 144.640625 36.554688 C 142.855469 36.640625 141.074219 36.773438 139.296875 36.949219 C 137.519531 37.121094 135.746094 37.339844 133.980469 37.605469 C 132.214844 37.867188 130.453125 38.171875 128.703125 38.519531 C 126.949219 38.871094 125.207031 39.261719 123.472656 39.695312 C 121.742188 40.132812 120.019531 40.609375 118.3125 41.128906 C 116.601562 41.648438 114.90625 42.207031 113.222656 42.808594 C 111.542969 43.414062 109.875 44.054688 108.226562 44.742188 C 106.574219 45.425781 104.941406 46.148438 103.328125 46.914062 C 101.710938 47.679688 100.117188 48.484375 98.542969 49.328125 C 96.964844 50.167969 95.410156 51.050781 93.878906 51.972656 C 92.347656 52.890625 90.839844 53.847656 89.351562 54.839844 C 87.867188 55.835938 86.40625 56.863281 84.972656 57.929688 C 83.539062 58.996094 82.128906 60.09375 80.75 61.230469 C 79.367188 62.363281 78.015625 63.53125 76.691406 64.734375 C 75.367188 65.933594 74.074219 67.167969 72.8125 68.433594 C 71.546875 69.699219 70.316406 70.992188 69.117188 72.320312 C 67.917969 73.644531 66.75 74.996094 65.617188 76.378906 C 64.484375 77.761719 63.386719 79.171875 62.320312 80.609375 C 61.257812 82.046875 60.230469 83.507812 59.238281 84.996094 C 58.246094 86.484375 57.289062 87.992188 56.371094 89.527344 C 55.453125 91.0625 54.570312 92.617188 53.730469 94.195312 C 52.886719 95.773438 52.085938 97.371094 51.320312 98.988281 C 50.558594 100.605469 49.832031 102.238281 49.148438 103.890625 C 48.464844 105.542969 47.824219 107.210938 47.222656 108.894531 C 46.621094 110.582031 46.058594 112.277344 45.539062 113.988281 C 45.023438 115.703125 44.546875 117.425781 44.113281 119.160156 C 43.675781 120.894531 43.285156 122.640625 42.9375 124.394531 C 42.589844 126.148438 42.285156 127.910156 42.023438 129.679688 C 41.757812 131.449219 41.542969 133.222656 41.367188 135.003906 C 41.191406 136.785156 41.058594 138.566406 40.972656 140.355469 C 40.882812 142.140625 40.839844 143.929688 40.839844 145.714844 C 40.839844 147.503906 40.882812 149.292969 40.972656 151.078125 C 41.058594 152.867188 41.191406 154.648438 41.367188 156.429688 C 41.542969 158.210938 41.757812 159.984375 42.023438 161.753906 C 42.285156 163.523438 42.589844 165.285156 42.9375 167.039062 C 43.285156 168.792969 43.675781 170.539062 44.113281 172.273438 C 44.546875 174.007812 45.023438 175.730469 45.539062 177.445312 C 46.058594 179.15625 46.621094 180.851562 47.222656 182.539062 C 47.824219 184.222656 48.464844 185.890625 49.148438 187.542969 C 49.832031 189.195312 50.558594 190.828125 51.320312 192.445312 C 52.085938 194.0625 52.886719 195.660156 53.730469 197.238281 C 54.570312 198.816406 55.453125 200.371094 56.371094 201.90625 C 57.289062 203.441406 58.246094 204.949219 59.238281 206.4375 C 60.230469 207.925781 61.257812 209.386719 62.320312 210.824219 C 63.386719 212.261719 64.484375 213.671875 65.617188 215.054688 C 66.75 216.4375 67.917969 217.789062 69.117188 219.113281 C 70.316406 220.441406 71.546875 221.734375 72.8125 223 C 74.074219 224.265625 75.367188 225.5 76.691406 226.699219 C 78.015625 227.902344 79.367188 229.070312 80.75 230.203125 C 82.128906 231.339844 83.539062 232.4375 84.972656 233.503906 C 86.40625 234.570312 87.867188 235.597656 89.351562 236.59375 C 90.839844 237.585938 92.347656 238.542969 93.878906 239.460938 C 95.410156 240.382812 96.964844 241.261719 98.542969 242.105469 C 100.117188 242.949219 101.710938 243.753906 103.328125 244.519531 C 104.941406 245.285156 106.574219 246.007812 108.226562 246.691406 C 109.875 247.378906 111.542969 248.019531 113.222656 248.625 C 114.90625 249.226562 116.601562 249.785156 118.3125 250.304688 C 120.019531 250.824219 121.742188 251.300781 123.472656 251.738281 C 125.207031 252.171875 126.949219 252.5625 128.703125 252.914062 C 130.453125 253.261719 132.214844 253.566406 133.980469 253.828125 C 135.746094 254.089844 137.519531 254.3125 139.296875 254.484375 C 141.074219 254.660156 142.855469 254.792969 144.640625 254.878906 C 146.425781 254.96875 148.210938 255.011719 149.996094 255.011719 C 151.785156 255.011719 153.570312 254.96875 155.355469 254.878906 C 157.136719 254.792969 158.917969 254.660156 160.695312 254.484375 C 162.472656 254.3125 164.246094 254.089844 166.015625 253.828125 C 167.78125 253.566406 169.539062 253.261719 171.292969 252.914062 C 173.046875 252.5625 174.789062 252.171875 176.519531 251.738281 C 178.253906 251.300781 179.972656 250.824219 181.683594 250.304688 C 183.394531 249.785156 185.089844 249.226562 186.769531 248.625 C 188.453125 248.019531 190.121094 247.378906 191.769531 246.691406 C 193.421875 246.007812 195.054688 245.285156 196.667969 244.519531 C 198.28125 243.753906 199.878906 242.949219 201.453125 242.105469 C 203.027344 241.261719 204.582031 240.382812 206.117188 239.460938 C 207.648438 238.542969 209.15625 237.585938 210.640625 236.59375 C 212.128906 235.597656 213.585938 234.570312 215.023438 233.503906 C 216.457031 232.4375 217.863281 231.339844 219.246094 230.203125 C 220.625 229.070312 221.980469 227.902344 223.304688 226.699219 C 224.625 225.5 225.921875 224.265625 227.183594 223 C 228.445312 221.734375 229.679688 220.441406 230.878906 219.113281 C 232.078125 217.789062 233.242188 216.4375 234.378906 215.054688 C 235.511719 213.671875 236.609375 212.261719 237.671875 210.824219 C 238.738281 209.386719 239.765625 207.925781 240.757812 206.4375 C 241.75 204.949219 242.707031 203.441406 243.625 201.90625 C 244.542969 200.371094 245.421875 198.816406 246.265625 197.238281 C 247.109375 195.660156 247.910156 194.0625 248.675781 192.445312 C 249.4375 190.828125 250.160156 189.195312 250.84375 187.542969 C 251.527344 185.890625 252.171875 184.222656 252.773438 182.539062 C 253.375 180.851562 253.9375 179.15625 254.453125 177.445312 C 254.972656 175.730469 255.449219 174.007812 255.882812 172.273438 C 256.316406 170.539062 256.707031 168.792969 257.058594 167.039062 C 257.40625 165.285156 257.710938 163.523438 257.972656 161.753906 C 258.234375 159.984375 258.453125 158.210938 258.628906 156.429688 C 258.804688 154.648438 258.933594 152.867188 259.023438 151.078125 C 259.109375 149.292969 259.15625 147.503906 259.15625 145.714844 C 259.15625 143.929688 259.109375 142.140625 259.023438 140.355469 C 258.933594 138.566406 258.804688 136.785156 258.628906 135.003906 C 258.453125 133.222656 258.234375 131.449219 257.972656 129.679688 C 257.710938 127.910156 257.40625 126.148438 257.058594 124.394531 C 256.707031 122.640625 256.316406 120.894531 255.882812 119.160156 C 255.449219 117.425781 254.972656 115.703125 254.453125 113.988281 C 253.9375 112.277344 253.375 110.582031 252.773438 108.894531 C 252.171875 107.210938 251.527344 105.542969 250.84375 103.890625 C 250.160156 102.238281 249.4375 100.605469 248.675781 98.988281 C 247.910156 97.371094 247.109375 95.773438 246.265625 94.195312 C 245.421875 92.617188 244.542969 91.0625 243.625 89.527344 C 242.707031 87.992188 241.75 86.484375 240.757812 84.996094 C 239.765625 83.507812 238.738281 82.046875 237.671875 80.609375 C 236.609375 79.171875 235.511719 77.761719 234.378906 76.378906 C 233.242188 74.996094 232.078125 73.644531 230.878906 72.320312 C 229.679688 70.992188 228.445312 69.699219 227.183594 68.433594 C 225.921875 67.167969 224.625 65.933594 223.304688 64.734375 C 221.980469 63.53125 220.625 62.363281 219.246094 61.230469 C 217.863281 60.09375 216.457031 58.996094 215.023438 57.929688 C 213.585938 56.863281 212.128906 55.835938 210.640625 54.839844 C 209.15625 53.847656 207.648438 52.890625 206.117188 51.972656 C 204.582031 51.050781 203.027344 50.167969 201.453125 49.328125 C 199.878906 48.484375 198.28125 47.679688 196.667969 46.914062 C 195.054688 46.148438 193.421875 45.425781 191.769531 44.742188 C 190.121094 44.054688 188.453125 43.414062 186.769531 42.808594 C 185.089844 42.207031 183.394531 41.648438 181.683594 41.128906 C 179.972656 40.609375 178.253906 40.132812 176.519531 39.695312 C 174.789062 39.261719 173.046875 38.871094 171.292969 38.519531 C 169.539062 38.171875 167.78125 37.867188 166.015625 37.605469 C 164.246094 37.339844 162.472656 37.121094 160.695312 36.949219 C 158.917969 36.773438 157.136719 36.640625 155.355469 36.554688 C 153.570312 36.464844 151.785156 36.421875 149.996094 36.421875 Z M 149.996094 36.421875 " fill-opacity="1" fill-rule="nonzero"/><path fill="#f1bc19" d="M 247.355469 30.511719 C 246.578125 30.511719 245.8125 30.589844 245.050781 30.742188 C 244.292969 30.890625 243.554688 31.117188 242.835938 31.414062 C 242.121094 31.710938 241.441406 32.074219 240.796875 32.503906 C 240.152344 32.9375 239.558594 33.425781 239.007812 33.972656 C 238.460938 34.523438 237.972656 35.121094 237.542969 35.765625 C 237.109375 36.410156 236.746094 37.089844 236.453125 37.808594 C 236.15625 38.523438 235.929688 39.261719 235.78125 40.023438 C 235.628906 40.785156 235.554688 41.554688 235.554688 42.328125 C 235.554688 43.105469 235.628906 43.875 235.78125 44.632812 C 235.929688 45.394531 236.15625 46.132812 236.453125 46.851562 C 236.746094 47.566406 237.109375 48.25 237.542969 48.894531 C 237.972656 49.539062 238.460938 50.136719 239.007812 50.683594 C 239.558594 51.234375 240.152344 51.722656 240.796875 52.152344 C 241.441406 52.585938 242.121094 52.949219 242.835938 53.246094 C 243.554688 53.542969 244.292969 53.765625 245.050781 53.917969 C 245.8125 54.070312 246.578125 54.144531 247.355469 54.144531 C 248.128906 54.144531 248.894531 54.070312 249.65625 53.917969 C 250.414062 53.765625 251.152344 53.542969 251.871094 53.246094 C 252.585938 52.949219 253.265625 52.585938 253.910156 52.152344 C 254.554688 51.722656 255.148438 51.234375 255.699219 50.683594 C 256.246094 50.136719 256.734375 49.539062 257.164062 48.894531 C 257.597656 48.25 257.960938 47.566406 258.257812 46.851562 C 258.554688 46.132812 258.777344 45.394531 258.929688 44.632812 C 259.078125 43.875 259.15625 43.105469 259.15625 42.328125 C 259.15625 41.554688 259.078125 40.785156 258.929688 40.023438 C 258.777344 39.261719 258.554688 38.523438 258.257812 37.808594 C 257.960938 37.089844 257.597656 36.410156 257.164062 35.765625 C 256.734375 35.121094 256.246094 34.523438 255.699219 33.972656 C 255.148438 33.425781 254.554688 32.9375 253.910156 32.503906 C 253.265625 32.074219 252.585938 31.710938 251.871094 31.414062 C 251.152344 31.117188 250.414062 30.890625 249.65625 30.742188 C 248.894531 30.589844 248.128906 30.511719 247.355469 30.511719 Z M 247.355469 30.511719 " fill-opacity="1" fill-rule="nonzero"/><g clip-path="url(#342006a612)"><path fill="#ee3e54" d="M 259.15625 63.007812 C 258.765625 63.007812 258.382812 63.042969 258.003906 63.121094 C 257.625 63.195312 257.253906 63.308594 256.898438 63.457031 C 256.539062 63.605469 256.199219 63.785156 255.875 64.003906 C 255.554688 64.21875 255.257812 64.460938 254.980469 64.738281 C 254.707031 65.011719 254.464844 65.308594 254.25 65.632812 C 254.035156 65.953125 253.851562 66.296875 253.703125 66.652344 C 253.554688 67.011719 253.441406 67.382812 253.367188 67.761719 C 253.292969 68.140625 253.253906 68.527344 253.253906 68.914062 C 253.253906 69.300781 253.292969 69.6875 253.367188 70.066406 C 253.441406 70.449219 253.554688 70.816406 253.703125 71.175781 C 253.851562 71.535156 254.035156 71.875 254.25 72.195312 C 254.464844 72.519531 254.707031 72.816406 254.980469 73.09375 C 255.257812 73.367188 255.554688 73.609375 255.875 73.828125 C 256.199219 74.042969 256.539062 74.222656 256.898438 74.371094 C 257.253906 74.519531 257.625 74.632812 258.003906 74.707031 C 258.382812 74.785156 258.765625 74.824219 259.15625 74.824219 C 259.542969 74.824219 259.925781 74.785156 260.304688 74.707031 C 260.6875 74.632812 261.054688 74.519531 261.414062 74.371094 C 261.769531 74.222656 262.109375 74.042969 262.433594 73.828125 C 262.753906 73.609375 263.054688 73.367188 263.328125 73.09375 C 263.601562 72.816406 263.84375 72.519531 264.058594 72.195312 C 264.277344 71.875 264.457031 71.535156 264.605469 71.175781 C 264.753906 70.816406 264.867188 70.449219 264.941406 70.066406 C 265.015625 69.6875 265.054688 69.300781 265.054688 68.914062 C 265.054688 68.527344 265.015625 68.140625 264.941406 67.761719 C 264.867188 67.382812 264.753906 67.011719 264.605469 66.652344 C 264.457031 66.296875 264.277344 65.953125 264.058594 65.632812 C 263.84375 65.308594 263.601562 65.011719 263.328125 64.738281 C 263.054688 64.460938 262.753906 64.21875 262.433594 64.003906 C 262.109375 63.785156 261.769531 63.605469 261.414062 63.457031 C 261.054688 63.308594 260.6875 63.195312 260.304688 63.121094 C 259.925781 63.042969 259.542969 63.007812 259.15625 63.007812 Z M 259.15625 63.007812 " fill-opacity="1" fill-rule="nonzero"/></g><g clip-path="url(#12a99bc110)"><path fill="#fbcd59" d="M 241.453125 216.609375 C 241.066406 216.609375 240.683594 216.648438 240.300781 216.726562 C 239.921875 216.800781 239.554688 216.914062 239.195312 217.0625 C 238.835938 217.210938 238.496094 217.390625 238.175781 217.605469 C 237.851562 217.824219 237.554688 218.066406 237.28125 218.339844 C 237.007812 218.617188 236.761719 218.914062 236.546875 219.238281 C 236.332031 219.558594 236.152344 219.898438 236.003906 220.257812 C 235.855469 220.617188 235.742188 220.984375 235.667969 221.367188 C 235.589844 221.746094 235.554688 222.132812 235.554688 222.519531 C 235.554688 222.90625 235.589844 223.292969 235.667969 223.671875 C 235.742188 224.050781 235.855469 224.421875 236.003906 224.78125 C 236.152344 225.136719 236.332031 225.480469 236.546875 225.800781 C 236.761719 226.125 237.007812 226.421875 237.28125 226.695312 C 237.554688 226.972656 237.851562 227.214844 238.175781 227.429688 C 238.496094 227.648438 238.835938 227.828125 239.195312 227.976562 C 239.554688 228.125 239.921875 228.238281 240.300781 228.3125 C 240.683594 228.390625 241.066406 228.425781 241.453125 228.425781 C 241.839844 228.425781 242.222656 228.390625 242.605469 228.3125 C 242.984375 228.238281 243.351562 228.125 243.710938 227.976562 C 244.070312 227.828125 244.410156 227.648438 244.730469 227.429688 C 245.054688 227.214844 245.351562 226.972656 245.625 226.695312 C 245.898438 226.421875 246.144531 226.125 246.359375 225.800781 C 246.574219 225.480469 246.757812 225.136719 246.90625 224.78125 C 247.054688 224.421875 247.164062 224.050781 247.242188 223.671875 C 247.316406 223.292969 247.355469 222.90625 247.355469 222.519531 C 247.355469 222.132812 247.316406 221.746094 247.242188 221.367188 C 247.164062 220.984375 247.054688 220.617188 246.90625 220.257812 C 246.757812 219.898438 246.574219 219.558594 246.359375 219.238281 C 246.144531 218.914062 245.898438 218.617188 245.625 218.339844 C 245.351562 218.066406 245.054688 217.824219 244.730469 217.605469 C 244.410156 217.390625 244.070312 217.210938 243.710938 217.0625 C 243.351562 216.914062 242.984375 216.800781 242.605469 216.726562 C 242.222656 216.648438 241.839844 216.609375 241.453125 216.609375 Z M 46.742188 172.300781 C 45.964844 172.300781 45.199219 172.378906 44.4375 172.527344 C 43.679688 172.679688 42.941406 172.90625 42.226562 173.203125 C 41.507812 173.5 40.828125 173.863281 40.183594 174.292969 C 39.539062 174.722656 38.945312 175.214844 38.394531 175.761719 C 37.847656 176.3125 37.359375 176.910156 36.929688 177.554688 C 36.5 178.199219 36.136719 178.878906 35.839844 179.597656 C 35.542969 180.3125 35.316406 181.050781 35.167969 181.8125 C 35.015625 182.574219 34.941406 183.34375 34.941406 184.117188 C 34.941406 184.894531 35.015625 185.660156 35.167969 186.421875 C 35.316406 187.183594 35.542969 187.921875 35.839844 188.640625 C 36.136719 189.355469 36.5 190.039062 36.929688 190.683594 C 37.359375 191.328125 37.847656 191.925781 38.394531 192.472656 C 38.945312 193.019531 39.539062 193.511719 40.183594 193.941406 C 40.828125 194.375 41.507812 194.738281 42.226562 195.035156 C 42.941406 195.332031 43.679688 195.554688 44.4375 195.707031 C 45.199219 195.859375 45.964844 195.933594 46.742188 195.933594 C 47.515625 195.933594 48.28125 195.859375 49.042969 195.707031 C 49.804688 195.554688 50.539062 195.332031 51.257812 195.035156 C 51.972656 194.738281 52.652344 194.375 53.296875 193.941406 C 53.941406 193.511719 54.539062 193.019531 55.085938 192.472656 C 55.632812 191.925781 56.121094 191.328125 56.554688 190.683594 C 56.984375 190.039062 57.347656 189.355469 57.644531 188.640625 C 57.941406 187.921875 58.164062 187.183594 58.316406 186.421875 C 58.464844 185.660156 58.542969 184.894531 58.542969 184.117188 C 58.542969 183.34375 58.464844 182.574219 58.316406 181.8125 C 58.164062 181.050781 57.941406 180.3125 57.644531 179.597656 C 57.347656 178.878906 56.984375 178.199219 56.554688 177.554688 C 56.121094 176.910156 55.632812 176.3125 55.085938 175.761719 C 54.539062 175.214844 53.941406 174.722656 53.296875 174.292969 C 52.652344 173.863281 51.972656 173.5 51.257812 173.203125 C 50.539062 172.90625 49.804688 172.679688 49.042969 172.527344 C 48.28125 172.378906 47.515625 172.300781 46.742188 172.300781 Z M 46.742188 172.300781 " fill-opacity="1" fill-rule="nonzero"/></g><path fill="#ee3e54" d="M 76.242188 249.105469 C 75.855469 249.105469 75.472656 249.140625 75.089844 249.21875 C 74.710938 249.292969 74.34375 249.40625 73.984375 249.554688 C 73.625 249.703125 73.285156 249.882812 72.964844 250.101562 C 72.640625 250.316406 72.34375 250.558594 72.070312 250.835938 C 71.796875 251.109375 71.550781 251.40625 71.335938 251.730469 C 71.121094 252.050781 70.941406 252.394531 70.792969 252.75 C 70.644531 253.109375 70.53125 253.480469 70.457031 253.859375 C 70.378906 254.238281 70.34375 254.625 70.34375 255.011719 C 70.34375 255.398438 70.378906 255.785156 70.457031 256.164062 C 70.53125 256.546875 70.644531 256.914062 70.792969 257.273438 C 70.941406 257.632812 71.121094 257.972656 71.335938 258.292969 C 71.550781 258.617188 71.796875 258.914062 72.070312 259.191406 C 72.34375 259.464844 72.640625 259.707031 72.964844 259.925781 C 73.285156 260.140625 73.625 260.320312 73.984375 260.46875 C 74.34375 260.617188 74.710938 260.730469 75.089844 260.804688 C 75.472656 260.882812 75.855469 260.921875 76.242188 260.921875 C 76.628906 260.921875 77.015625 260.882812 77.394531 260.804688 C 77.773438 260.730469 78.144531 260.617188 78.5 260.46875 C 78.859375 260.320312 79.199219 260.140625 79.519531 259.925781 C 79.84375 259.707031 80.140625 259.464844 80.414062 259.191406 C 80.6875 258.914062 80.933594 258.617188 81.148438 258.292969 C 81.363281 257.972656 81.546875 257.632812 81.695312 257.273438 C 81.84375 256.914062 81.953125 256.546875 82.03125 256.164062 C 82.105469 255.785156 82.144531 255.398438 82.144531 255.011719 C 82.144531 254.625 82.105469 254.238281 82.03125 253.859375 C 81.953125 253.480469 81.84375 253.109375 81.695312 252.75 C 81.546875 252.394531 81.363281 252.050781 81.148438 251.730469 C 80.933594 251.40625 80.6875 251.109375 80.414062 250.835938 C 80.140625 250.558594 79.84375 250.316406 79.519531 250.101562 C 79.199219 249.882812 78.859375 249.703125 78.5 249.554688 C 78.144531 249.40625 77.773438 249.292969 77.394531 249.21875 C 77.015625 249.140625 76.628906 249.105469 76.242188 249.105469 Z M 76.242188 249.105469 " fill-opacity="1" fill-rule="nonzero"/><path fill="#ffffff" d="M 57.066406 148.671875 C 56.582031 148.671875 56.101562 148.71875 55.628906 148.8125 C 55.152344 148.90625 54.691406 149.046875 54.242188 149.234375 C 53.796875 149.417969 53.371094 149.644531 52.96875 149.914062 C 52.566406 150.183594 52.195312 150.492188 51.851562 150.832031 C 51.507812 151.175781 51.203125 151.550781 50.933594 151.953125 C 50.664062 152.355469 50.4375 152.78125 50.253906 153.230469 C 50.066406 153.675781 49.925781 154.140625 49.832031 154.613281 C 49.738281 155.089844 49.691406 155.570312 49.691406 156.054688 C 49.691406 156.539062 49.738281 157.019531 49.832031 157.496094 C 49.925781 157.972656 50.066406 158.433594 50.253906 158.882812 C 50.4375 159.328125 50.664062 159.753906 50.933594 160.160156 C 51.203125 160.5625 51.507812 160.933594 51.851562 161.277344 C 52.195312 161.621094 52.566406 161.925781 52.96875 162.195312 C 53.371094 162.464844 53.796875 162.691406 54.242188 162.878906 C 54.691406 163.0625 55.152344 163.203125 55.628906 163.296875 C 56.101562 163.394531 56.582031 163.441406 57.066406 163.441406 C 57.550781 163.441406 58.03125 163.394531 58.503906 163.296875 C 58.980469 163.203125 59.441406 163.0625 59.890625 162.878906 C 60.335938 162.691406 60.761719 162.464844 61.164062 162.195312 C 61.566406 161.925781 61.9375 161.621094 62.28125 161.277344 C 62.625 160.933594 62.929688 160.5625 63.199219 160.160156 C 63.46875 159.753906 63.695312 159.328125 63.878906 158.882812 C 64.066406 158.433594 64.207031 157.972656 64.300781 157.496094 C 64.394531 157.019531 64.441406 156.539062 64.441406 156.054688 C 64.441406 155.570312 64.394531 155.089844 64.300781 154.613281 C 64.207031 154.140625 64.066406 153.675781 63.878906 153.230469 C 63.695312 152.78125 63.46875 152.355469 63.199219 151.953125 C 62.929688 151.550781 62.625 151.175781 62.28125 150.832031 C 61.9375 150.492188 61.566406 150.183594 61.164062 149.914062 C 60.761719 149.644531 60.335938 149.417969 59.890625 149.234375 C 59.441406 149.046875 58.980469 148.90625 58.503906 148.8125 C 58.03125 148.71875 57.550781 148.671875 57.066406 148.671875 Z M 57.066406 148.671875 " fill-opacity="1" fill-rule="nonzero"/><path fill="#f1bc19" d="M 64.441406 192.980469 C 64.050781 192.980469 63.675781 193.054688 63.3125 193.203125 C 62.953125 193.355469 62.632812 193.566406 62.355469 193.84375 C 62.078125 194.121094 61.867188 194.441406 61.714844 194.804688 C 61.566406 195.164062 61.492188 195.542969 61.492188 195.933594 C 61.492188 196.324219 61.566406 196.703125 61.714844 197.0625 C 61.867188 197.425781 62.078125 197.746094 62.355469 198.023438 C 62.632812 198.300781 62.953125 198.511719 63.3125 198.664062 C 63.675781 198.8125 64.050781 198.886719 64.441406 198.886719 C 64.832031 198.886719 65.210938 198.8125 65.570312 198.664062 C 65.933594 198.511719 66.25 198.300781 66.527344 198.023438 C 66.804688 197.746094 67.019531 197.425781 67.167969 197.0625 C 67.316406 196.703125 67.390625 196.324219 67.390625 195.933594 C 67.390625 195.542969 67.316406 195.164062 67.167969 194.804688 C 67.019531 194.441406 66.804688 194.121094 66.527344 193.84375 C 66.25 193.566406 65.933594 193.355469 65.570312 193.203125 C 65.210938 193.054688 64.832031 192.980469 64.441406 192.980469 Z M 64.441406 192.980469 " fill-opacity="1" fill-rule="nonzero"/><path fill="#ffffff" d="M 238.503906 95.5 C 238.113281 95.5 237.734375 95.574219 237.375 95.726562 C 237.011719 95.875 236.695312 96.089844 236.417969 96.363281 C 236.140625 96.640625 235.925781 96.960938 235.777344 97.324219 C 235.628906 97.683594 235.554688 98.0625 235.554688 98.453125 C 235.554688 98.84375 235.628906 99.222656 235.777344 99.585938 C 235.925781 99.945312 236.140625 100.265625 236.417969 100.542969 C 236.695312 100.820312 237.011719 101.03125 237.375 101.183594 C 237.734375 101.332031 238.113281 101.40625 238.503906 101.40625 C 238.894531 101.40625 239.269531 101.332031 239.632812 101.183594 C 239.992188 101.03125 240.3125 100.820312 240.589844 100.542969 C 240.867188 100.265625 241.078125 99.945312 241.230469 99.585938 C 241.378906 99.222656 241.453125 98.84375 241.453125 98.453125 C 241.453125 98.0625 241.378906 97.683594 241.230469 97.324219 C 241.078125 96.960938 240.867188 96.640625 240.589844 96.363281 C 240.3125 96.089844 239.992188 95.875 239.632812 95.726562 C 239.269531 95.574219 238.894531 95.5 238.503906 95.5 Z M 238.503906 95.5 " fill-opacity="1" fill-rule="nonzero"/><path fill="#e5ac80" d="M 203.457031 206.347656 C 202.261719 200.011719 199.683594 196.296875 193.597656 194.457031 C 193.332031 194.375 192.980469 194.246094 192.582031 194.09375 C 192.121094 193.890625 191.535156 193.65625 190.851562 193.390625 C 187.167969 191.832031 165.265625 183.738281 165.265625 183.738281 C 163.460938 183.28125 162.285156 181.992188 161.605469 180.542969 C 160.484375 178.148438 160.917969 171.9375 160.917969 171.9375 C 160.917969 171.9375 151.761719 175.074219 146.046875 176.140625 C 140.441406 176.6875 128.394531 169.429688 128.394531 169.429688 C 128.394531 169.429688 128.113281 178.402344 127.730469 180.394531 C 127.429688 181.960938 125.75 183.285156 123.945312 183.742188 L 102.925781 191.371094 C 100.601562 191.980469 98.371094 192.851562 96.410156 194.0625 C 91.121094 197.332031 88.441406 202.242188 87.078125 206.351562 C 87.078125 206.351562 85.695312 216.148438 85.75 216.5 C 85.621094 217.871094 85.484375 219.378906 85.347656 220.964844 C 108.253906 236.492188 126.648438 240.84375 158.214844 239.460938 C 172.554688 238.832031 193.90625 231.742188 205.09375 226.089844 C 204.503906 213.609375 203.457031 206.347656 203.457031 206.347656 Z M 203.457031 206.347656 " fill-opacity="1" fill-rule="nonzero"/><path fill="#fdfcef" d="M 193.597656 194.984375 C 193.332031 194.902344 192.980469 194.773438 192.582031 194.617188 C 192.121094 194.417969 191.535156 194.183594 190.851562 193.917969 C 188.570312 192.949219 179.332031 189.492188 172.609375 186.988281 L 172.292969 186.90625 C 164.871094 190.71875 154.308594 196.4375 144.609375 196.4375 C 134.90625 196.4375 125.179688 191.265625 116.921875 186.90625 L 115.996094 187.152344 L 102.925781 191.894531 C 100.597656 192.503906 98.371094 193.371094 96.40625 194.585938 C 91.117188 197.855469 88.4375 202.765625 87.074219 206.875 C 87.074219 206.875 85.691406 216.671875 85.75 217.023438 C 85.617188 218.390625 85.484375 233.101562 85.34375 234.6875 C 108.25 250.21875 126.648438 254.570312 158.210938 253.1875 C 172.550781 252.558594 193.90625 245.46875 205.09375 239.8125 C 204.5 227.335938 203.457031 206.875 203.457031 206.875 C 202.261719 200.535156 199.683594 196.824219 193.597656 194.984375 Z M 193.597656 194.984375 " fill-opacity="1" fill-rule="nonzero"/><path fill="#e1e0d8" d="M 105.457031 247.1875 C 104.96875 247.1875 104.574219 246.792969 104.574219 246.300781 L 104.574219 234.636719 C 104.574219 234.144531 104.96875 233.75 105.457031 233.75 C 105.949219 233.75 106.34375 234.144531 106.34375 234.636719 L 106.34375 246.300781 C 106.34375 246.792969 105.949219 247.1875 105.457031 247.1875 Z M 183.132812 249.238281 C 182.640625 249.238281 182.246094 248.839844 182.246094 248.351562 L 182.246094 234.632812 C 182.246094 234.144531 182.640625 233.746094 183.132812 233.746094 C 183.621094 233.746094 184.015625 234.144531 184.015625 234.632812 L 184.015625 248.351562 C 184.015625 248.839844 183.621094 249.238281 183.132812 249.238281 Z M 183.132812 249.238281 " fill-opacity="1" fill-rule="nonzero"/><path fill="#66798f" d="M 150.332031 213.042969 L 156.554688 253.425781 L 131.636719 253.425781 L 137.859375 213.042969 C 140.632812 208.007812 147.5625 208.007812 150.332031 213.042969 Z M 150.332031 213.042969 " fill-opacity="1" fill-rule="nonzero"/><path fill="#97aec7" d="M 138.332031 207.398438 L 132.578125 194.828125 L 155.613281 194.828125 L 149.863281 207.398438 C 147.300781 211.839844 140.894531 211.839844 138.332031 207.398438 Z M 138.332031 207.398438 " fill-opacity="1" fill-rule="nonzero"/><path fill="#eaeae8" d="M 123.257812 183.160156 L 116.210938 188.03125 L 131.316406 210.855469 L 145.328125 193.457031 C 145.328125 193.457031 124.292969 188.03125 123.257812 183.160156 Z M 123.257812 183.160156 " fill-opacity="1" fill-rule="nonzero"/><path fill="#eaeae8" d="M 164.9375 183.160156 L 171.980469 188.03125 L 156.878906 210.855469 L 142.867188 193.457031 C 142.867188 193.457031 163.902344 188.03125 164.9375 183.160156 Z M 164.9375 183.160156 " fill-opacity="1" fill-rule="nonzero"/><path fill="#edbc94" d="M 180.734375 128.507812 C 180.386719 128.484375 180.035156 128.480469 179.671875 128.480469 C 176.824219 128.34375 176.011719 129.46875 176.140625 127.722656 C 176.371094 124.632812 175.9375 112.097656 175.9375 111.464844 C 175.9375 98.472656 162.207031 87.882812 145.058594 87.292969 L 145.058594 87.253906 C 144.945312 87.257812 144.832031 87.269531 144.714844 87.273438 C 144.597656 87.269531 144.488281 87.253906 144.367188 87.253906 L 144.367188 87.292969 C 127.214844 87.882812 113.492188 98.472656 113.492188 111.464844 C 113.492188 112.097656 113.054688 124.632812 113.285156 127.722656 C 113.414062 129.464844 112.605469 128.339844 109.757812 128.480469 C 109.390625 128.480469 109.039062 128.484375 108.695312 128.507812 C 105.574219 128.714844 103.046875 130.675781 102.507812 133.105469 C 102.890625 133.335938 104.3125 143.984375 106.613281 148.175781 C 107.898438 150.519531 109.90625 150.84375 111.964844 152.355469 C 113.109375 153.195312 113.328125 154.136719 113.640625 155.390625 C 114.796875 160.027344 118.011719 163.964844 121.53125 167.332031 C 123.269531 168.992188 134.804688 181.140625 144.714844 180.527344 C 154.671875 180.15625 166.160156 168.992188 167.894531 167.332031 C 171.414062 163.964844 174.628906 160.027344 175.785156 155.390625 C 176.097656 154.136719 176.316406 153.191406 177.460938 152.355469 C 179.523438 150.84375 181.527344 150.519531 182.816406 148.175781 C 185.117188 143.984375 186.539062 133.335938 186.917969 133.105469 C 186.378906 130.675781 183.855469 128.710938 180.734375 128.507812 Z M 180.734375 128.507812 " fill-opacity="1" fill-rule="nonzero"/><path fill="#512c2b" d="M 144.890625 151.800781 C 146.90625 151.800781 148.859375 150.917969 150.117188 149.445312 C 150.242188 149.296875 150.226562 149.074219 150.078125 148.945312 C 149.929688 148.820312 149.707031 148.832031 149.578125 148.980469 C 148.554688 150.152344 146.84375 150.828125 144.890625 150.828125 C 142.933594 150.828125 141.226562 150.152344 140.203125 148.980469 C 140.132812 148.902344 140.035156 148.859375 139.933594 148.859375 C 139.851562 148.859375 139.769531 148.890625 139.703125 148.945312 C 139.558594 149.074219 139.539062 149.296875 139.664062 149.445312 C 140.921875 150.917969 142.875 151.800781 144.890625 151.800781 Z M 138.464844 121.59375 L 139.742188 119.132812 C 134.335938 117.867188 128.117188 118.066406 122.980469 119.664062 L 124.589844 122.058594 C 128.8125 120.664062 134.003906 120.488281 138.464844 121.59375 Z M 165.519531 121.59375 L 166.800781 119.132812 C 161.394531 117.867188 155.171875 118.066406 150.035156 119.664062 L 151.648438 122.058594 C 155.871094 120.664062 161.0625 120.488281 165.519531 121.59375 Z M 130.683594 125.058594 C 129.386719 125.058594 128.25 125.917969 127.589844 127.21875 C 127.757812 127.167969 127.925781 127.132812 128.105469 127.132812 C 129.167969 127.132812 130.03125 128.097656 130.03125 129.285156 C 130.03125 130.476562 129.167969 131.441406 128.105469 131.441406 C 127.757812 131.441406 127.433594 131.328125 127.152344 131.148438 C 127.605469 133.101562 129.015625 134.519531 130.6875 134.519531 C 132.726562 134.519531 134.382812 132.402344 134.382812 129.789062 C 134.378906 127.179688 132.722656 125.058594 130.683594 125.058594 Z M 158.941406 125.058594 C 157.832031 125.058594 156.839844 125.6875 156.164062 126.679688 C 156.375 126.589844 156.601562 126.535156 156.84375 126.535156 C 157.90625 126.535156 158.769531 127.5 158.769531 128.6875 C 158.769531 129.878906 157.902344 130.839844 156.84375 130.839844 C 156.179688 130.839844 155.601562 130.46875 155.25 129.902344 C 155.300781 132.460938 156.929688 134.519531 158.941406 134.519531 C 160.976562 134.519531 162.632812 132.402344 162.632812 129.785156 C 162.628906 127.179688 160.976562 125.058594 158.941406 125.058594 Z M 160.507812 157.28125 C 160.65625 157.15625 160.679688 156.9375 160.558594 156.785156 C 160.4375 156.632812 160.214844 156.609375 160.0625 156.730469 C 156.734375 159.386719 151.203125 160.910156 144.894531 160.910156 C 138.582031 160.910156 133.054688 159.386719 129.722656 156.730469 C 129.660156 156.675781 129.582031 156.652344 129.503906 156.652344 C 129.398438 156.652344 129.296875 156.695312 129.226562 156.785156 C 129.105469 156.9375 129.125 157.160156 129.273438 157.285156 C 133.035156 160.359375 138.871094 162.195312 144.890625 162.195312 C 150.910156 162.195312 156.746094 160.359375 160.507812 157.28125 Z M 160.507812 157.28125 " fill-opacity="1" fill-rule="nonzero"/><path fill="#472b29" d="M 148.011719 254.605469 C 121.792969 254.605469 104.878906 249.359375 84.683594 235.667969 C 84.328125 235.425781 84.132812 235.015625 84.167969 234.589844 C 84.195312 234.265625 84.210938 233.175781 84.234375 231.59375 C 84.328125 225.160156 84.53125 211.777344 85.941406 206.566406 C 87.847656 199.519531 90.632812 196.765625 95.789062 193.578125 C 97.71875 192.390625 100.019531 191.4375 102.628906 190.753906 L 123.539062 183.15625 C 125.125 182.746094 126.378906 181.707031 126.570312 180.699219 C 126.660156 180.25 126.828125 178.839844 127.035156 174.476562 C 123.9375 172.292969 121.417969 170.320312 120.703125 169.621094 C 116.140625 165.152344 113.53125 161.082031 112.496094 156.820312 C 112.175781 155.511719 112.011719 154.9375 111.257812 154.371094 C 110.640625 153.90625 110.019531 153.5625 109.429688 153.230469 C 108.039062 152.441406 106.601562 151.632812 105.574219 149.707031 C 103.117188 145.121094 101.328125 136.46875 101.328125 133.703125 C 102.023438 130.375 105.007812 128.054688 108.613281 127.808594 C 108.984375 127.785156 109.363281 127.78125 109.753906 127.78125 C 110.738281 127.734375 111.519531 127.832031 112.085938 127.917969 C 111.9375 124.9375 112.167969 116.679688 112.269531 113.070312 C 112.292969 112.214844 112.3125 111.652344 112.3125 111.53125 C 112.3125 97.683594 126.226562 86.328125 144.042969 85.585938 C 144.148438 85.554688 144.257812 85.535156 144.367188 85.535156 C 144.398438 85.535156 144.644531 85.550781 144.675781 85.554688 L 145.058594 85.535156 C 145.175781 85.535156 145.292969 85.554688 145.398438 85.589844 C 163.207031 86.332031 177.117188 97.6875 177.117188 111.53125 C 177.117188 111.652344 177.128906 112.214844 177.15625 113.070312 C 177.257812 116.683594 177.488281 124.9375 177.34375 127.917969 C 177.910156 127.835938 178.707031 127.734375 179.734375 127.785156 C 180.058594 127.789062 180.441406 127.785156 180.8125 127.808594 C 184.421875 128.054688 187.40625 130.375 188.074219 133.453125 C 188.097656 136.890625 186.195312 145.328125 183.855469 149.703125 C 182.820312 151.632812 181.386719 152.445312 179.996094 153.230469 C 179.40625 153.558594 178.789062 153.90625 178.164062 154.375 C 177.414062 154.9375 177.246094 155.519531 176.945312 156.761719 C 175.890625 161.085938 173.285156 165.152344 168.71875 169.621094 C 167.964844 170.363281 165.257812 172.566406 162.015625 174.902344 C 162 177.582031 162.230469 179.632812 162.675781 180.574219 C 163.113281 181.515625 163.972656 182.726562 165.558594 183.125 C 166.570312 183.492188 187.644531 191.277344 191.316406 192.835938 C 191.980469 193.09375 192.578125 193.335938 193.046875 193.539062 C 193.371094 193.660156 193.703125 193.78125 193.945312 193.855469 C 200.085938 195.710938 203.277344 199.539062 204.621094 206.65625 C 204.628906 206.710938 204.636719 206.761719 204.636719 206.816406 C 204.636719 206.816406 205.683594 227.28125 206.273438 239.757812 C 206.296875 240.222656 206.042969 240.660156 205.625 240.867188 C 193.726562 246.882812 172.234375 253.753906 158.265625 254.367188 C 154.683594 254.523438 151.273438 254.605469 148.011719 254.605469 Z M 86.550781 234.078125 C 108.53125 248.851562 126.695312 253.382812 158.160156 252.003906 C 171.558594 251.417969 192.074219 244.917969 203.878906 239.097656 C 203.308594 227.039062 202.355469 208.390625 202.285156 207.015625 C 201.09375 200.773438 198.558594 197.71875 193.257812 196.117188 C 192.972656 196.03125 192.589844 195.890625 192.160156 195.726562 C 191.664062 195.515625 191.09375 195.285156 190.425781 195.023438 C 186.773438 193.476562 165.074219 185.457031 164.859375 185.375 C 163.042969 184.925781 161.46875 183.558594 160.539062 181.574219 C 159.890625 180.1875 159.597656 177.730469 159.667969 174.261719 C 159.675781 173.886719 159.859375 173.542969 160.164062 173.324219 C 163.757812 170.761719 166.476562 168.511719 167.074219 167.929688 C 171.308594 163.785156 173.710938 160.078125 174.640625 156.261719 C 174.980469 154.855469 175.289062 153.585938 176.753906 152.488281 C 177.464844 151.953125 178.164062 151.554688 178.839844 151.171875 C 180.085938 150.46875 181.070312 149.914062 181.777344 148.589844 C 184.066406 144.3125 185.742188 136.265625 185.742188 133.707031 C 185.332031 131.929688 183.179688 130.339844 180.65625 130.171875 C 180.335938 130.148438 180.011719 130.148438 179.671875 130.148438 C 178.691406 130.105469 178.023438 130.207031 177.492188 130.292969 C 176.800781 130.402344 176.082031 130.515625 175.488281 129.972656 C 174.875 129.40625 174.9375 128.53125 174.96875 128.109375 C 175.148438 125.609375 174.894531 116.550781 174.800781 113.140625 C 174.777344 112.25 174.757812 111.660156 174.757812 111.535156 C 174.757812 98.890625 161.695312 88.527344 145.015625 87.941406 C 144.949219 87.941406 144.882812 87.933594 144.8125 87.917969 C 144.730469 87.921875 144.65625 87.914062 144.65625 87.921875 L 144.65625 87.90625 C 144.578125 87.925781 144.496094 87.9375 144.414062 87.941406 C 127.734375 88.527344 114.671875 98.890625 114.671875 111.535156 C 114.671875 111.660156 114.65625 112.25 114.628906 113.140625 C 114.535156 116.550781 114.28125 125.613281 114.460938 128.109375 C 114.492188 128.53125 114.558594 129.402344 113.941406 129.972656 C 113.347656 130.519531 112.632812 130.402344 111.9375 130.292969 C 111.402344 130.207031 110.75 130.105469 109.8125 130.148438 C 109.417969 130.148438 109.089844 130.148438 108.773438 130.171875 C 106.246094 130.34375 104.097656 131.9375 103.660156 133.957031 C 103.683594 136.203125 105.398438 144.386719 107.652344 148.59375 C 108.359375 149.914062 109.339844 150.46875 110.585938 151.171875 C 111.257812 151.554688 111.960938 151.957031 112.671875 152.484375 C 114.132812 153.582031 114.441406 154.851562 114.765625 156.199219 C 115.714844 160.078125 118.117188 163.785156 122.351562 167.933594 C 122.933594 168.507812 125.542969 170.558594 128.914062 172.917969 C 129.242188 173.148438 129.433594 173.535156 129.414062 173.9375 C 129.242188 177.769531 129.0625 180.195312 128.882812 181.148438 C 128.453125 183.390625 126.234375 184.90625 124.222656 185.417969 L 103.324219 193.007812 C 100.839844 193.667969 98.753906 194.523438 97.027344 195.59375 C 92.222656 198.5625 89.933594 200.828125 88.21875 207.183594 C 86.882812 212.109375 86.679688 225.789062 86.59375 231.628906 C 86.578125 232.671875 86.566406 233.511719 86.550781 234.078125 Z M 86.550781 234.078125 " fill-opacity="1" fill-rule="nonzero"/><path fill="#d3a47d" d="M 180.914062 142.410156 L 179.152344 142.214844 L 179.746094 136.960938 L 176.765625 138.253906 L 176.0625 136.628906 L 180.445312 134.726562 C 180.734375 134.601562 181.070312 134.640625 181.324219 134.824219 C 181.578125 135.011719 181.710938 135.320312 181.675781 135.636719 Z M 109.46875 141.398438 L 108.707031 134.621094 C 108.671875 134.308594 108.808594 134 109.0625 133.8125 C 109.3125 133.625 109.652344 133.578125 109.941406 133.710938 L 114.324219 135.613281 L 113.621094 137.242188 L 110.640625 135.949219 L 111.230469 141.203125 Z M 109.46875 141.398438 " fill-opacity="1" fill-rule="nonzero"/><path fill="#472b29" d="M 113.421875 154.519531 C 113.417969 154.519531 113.414062 154.519531 113.410156 154.519531 C 113.085938 154.511719 112.824219 154.242188 112.832031 153.917969 L 113.316406 128.375 C 113.324219 128.050781 113.527344 127.757812 113.917969 127.796875 C 114.242188 127.800781 114.503906 128.074219 114.496094 128.398438 L 114.011719 153.941406 C 114.003906 154.265625 113.738281 154.519531 113.421875 154.519531 Z M 113.421875 154.519531 " fill-opacity="1" fill-rule="nonzero"/><path fill="#472b29" d="M 176.492188 154.519531 C 176.171875 154.519531 175.910156 154.261719 175.902344 153.941406 L 175.417969 128.398438 C 175.414062 128.074219 175.671875 127.800781 175.996094 127.796875 C 176 127.796875 176.007812 127.796875 176.007812 127.796875 C 176.332031 127.796875 176.59375 128.050781 176.597656 128.375 L 177.082031 153.917969 C 177.089844 154.242188 176.828125 154.511719 176.503906 154.519531 C 176.5 154.519531 176.496094 154.519531 176.492188 154.519531 Z M 176.492188 154.519531 " fill-opacity="1" fill-rule="nonzero"/><path fill="#472b29" d="M 163.953125 170.53125 C 158.664062 174.152344 148.699219 176.160156 146.777344 173.023438 C 145.367188 170.722656 143.328125 170.722656 141.917969 173.023438 C 139.820312 176.445312 129.144531 172.90625 123.671875 168.988281 C 122.136719 169.066406 123.636719 169.507812 122.429688 170.578125 C 129.578125 176.722656 143.546875 185.082031 144.304688 184.816406 C 144.304688 184.816406 144.34375 184.839844 144.347656 184.839844 L 144.390625 184.816406 C 145.101562 184.832031 157.1875 177.832031 164.640625 171.871094 C 163.59375 170.59375 165.632812 170.558594 163.953125 170.53125 Z M 163.953125 170.53125 " fill-opacity="1" fill-rule="nonzero"/><path fill="#472b29" d="M 175.003906 95.21875 C 175.003906 95.21875 181.445312 96.527344 181.253906 102.882812 C 181.066406 109.242188 176.652344 136.867188 176.652344 136.867188 L 167.613281 108.492188 Z M 175.003906 95.21875 " fill-opacity="1" fill-rule="nonzero"/><path fill="#472b29" d="M 140.898438 77.460938 L 137.488281 72.789062 C 137.488281 72.789062 175.816406 68.59375 175.761719 89.421875 C 175.691406 117.09375 150.75 122.882812 150.75 122.882812 L 152.644531 115.40625 L 137.675781 123.257812 L 139.570312 118.769531 L 127.070312 123.257812 L 131.613281 112.976562 L 120.4375 117.089844 C 120.4375 117.089844 116.054688 128.015625 114.445312 136.867188 C 114.445312 136.867188 105.746094 107.585938 111.339844 105.3125 L 109.257812 104.191406 L 111.910156 98.957031 L 107.929688 97.273438 L 111.339844 92.414062 L 109.824219 90.355469 L 117.402344 86.058594 L 113.425781 84.003906 C 113.425781 84.003906 126.117188 73.535156 140.898438 77.460938 Z M 140.898438 77.460938 " fill-opacity="1" fill-rule="nonzero"/><path fill="#66798f" d="M 140.828125 126.445312 C 134.953125 119.277344 112.8125 124.359375 112.789062 124.355469 C 113.195312 125.976562 113.546875 127.574219 113.871094 129.152344 C 115.511719 129.324219 115.609375 133.023438 115.773438 134.375 C 116.570312 140.910156 120.9375 145.730469 130.132812 145.5 C 139.347656 145.023438 141.5 138.34375 141.882812 134.140625 C 142.292969 129.554688 140.824219 126.460938 140.828125 126.445312 Z M 139.777344 134.472656 C 139.304688 140.332031 135.710938 143.757812 129.90625 144.039062 C 129.320312 144.070312 128.746094 144.074219 128.203125 144.050781 C 119.050781 144.03125 117.488281 136.015625 117.304688 130.945312 C 117.1875 128.039062 119.257812 125.554688 122.179688 125.265625 C 123.859375 125.101562 125.75 125.101562 127.9375 125.101562 C 134.773438 125.101562 137.75 126.734375 138.542969 128.046875 C 139.003906 128.828125 140.042969 131.292969 139.777344 134.472656 Z M 147.3125 134.140625 C 147.695312 138.34375 149.847656 145.023438 159.058594 145.5 C 168.257812 145.730469 172.621094 140.910156 173.417969 134.375 C 173.582031 133.023438 173.679688 129.324219 175.324219 129.152344 C 175.644531 127.574219 175.996094 125.976562 176.40625 124.355469 C 176.382812 124.359375 154.238281 119.277344 148.367188 126.445312 C 148.363281 126.460938 146.898438 129.554688 147.3125 134.140625 Z M 150.648438 128.050781 C 151.441406 126.738281 154.417969 125.105469 161.253906 125.105469 C 163.4375 125.105469 165.328125 125.105469 167.011719 125.269531 C 169.933594 125.558594 172.003906 128.042969 171.886719 130.945312 C 171.703125 136.019531 170.136719 144.035156 160.988281 144.054688 C 160.445312 144.078125 159.871094 144.070312 159.285156 144.042969 C 153.476562 143.761719 149.886719 140.332031 149.414062 134.476562 C 149.148438 131.292969 150.183594 128.828125 150.648438 128.050781 Z M 150.648438 128.050781 " fill-opacity="1" fill-rule="nonzero"/><path fill="#66798f" d="M 148.566406 132.074219 C 148.566406 132.074219 147.066406 130.886719 144.4375 130.890625 C 141.980469 130.890625 140.621094 132.074219 140.621094 132.074219 C 140.21875 130.964844 139.820312 129.855469 139.414062 128.746094 C 142.867188 128.746094 146.320312 128.746094 149.769531 128.746094 C 149.367188 129.855469 148.96875 130.964844 148.566406 132.074219 Z M 148.566406 132.074219 " fill-opacity="1" fill-rule="nonzero"/><path fill="#ffffff" d="M 197.199219 219.566406 L 226.703125 219.566406 L 226.703125 249.105469 L 197.199219 249.105469 Z M 197.199219 219.566406 " fill-opacity="1" fill-rule="nonzero"/><path fill="#afabd4" d="M 203.347656 267.171875 C 200.933594 266.492188 198.609375 265.539062 196.398438 264.339844 C 197.632812 260.207031 196.679688 256.480469 193.589844 253.472656 C 191.480469 251.417969 189.035156 250.375 186.324219 250.375 C 185.195312 250.375 184.027344 250.5625 182.832031 250.929688 C 181.605469 248.738281 180.632812 246.433594 179.925781 244.046875 C 183.828125 241.96875 185.820312 238.601562 185.71875 234.214844 C 185.617188 230.011719 183.578125 226.8125 179.792969 224.878906 C 180.46875 222.476562 181.40625 220.160156 182.597656 217.957031 C 183.839844 218.355469 185.050781 218.558594 186.21875 218.558594 C 189.003906 218.558594 191.503906 217.449219 193.644531 215.273438 C 196.679688 212.183594 197.527344 208.40625 196.148438 204.265625 C 198.304688 203.066406 200.609375 202.105469 203.03125 201.382812 C 205.035156 205.304688 208.300781 207.367188 212.578125 207.367188 C 212.90625 207.367188 213.242188 207.355469 213.589844 207.328125 C 217.5625 207.03125 220.558594 204.972656 222.34375 201.335938 C 224.730469 202.023438 227.035156 202.980469 229.238281 204.1875 C 227.875 208.394531 228.769531 212.191406 231.878906 215.261719 C 234.007812 217.367188 236.46875 218.4375 239.203125 218.4375 C 240.394531 218.433594 241.628906 218.226562 242.886719 217.808594 C 243.839844 219.570312 245.128906 222.652344 245.722656 224.703125 C 241.765625 226.765625 239.738281 230.148438 239.832031 234.566406 C 239.917969 238.71875 241.917969 241.90625 245.65625 243.882812 C 244.957031 246.273438 243.992188 248.585938 242.773438 250.78125 C 241.582031 250.429688 240.421875 250.25 239.3125 250.25 C 236.226562 250.25 233.535156 251.566406 231.3125 254.15625 C 228.835938 257.046875 228.148438 260.507812 229.285156 264.253906 C 227.089844 265.460938 224.765625 266.421875 222.351562 267.125 C 220.414062 263.507812 216.910156 261.394531 212.75 261.394531 C 208.753906 261.449219 205.25 263.671875 203.347656 267.171875 Z M 212.738281 225.964844 C 208.1875 225.964844 204.46875 229.660156 204.445312 234.203125 C 204.425781 238.769531 208.132812 242.503906 212.707031 242.527344 C 217.238281 242.5 220.871094 238.96875 221.003906 234.484375 C 221.066406 232.238281 220.246094 230.113281 218.691406 228.496094 C 217.144531 226.886719 215.058594 225.984375 212.820312 225.964844 C 212.816406 225.964844 212.746094 225.964844 212.738281 225.964844 Z M 212.738281 225.964844 " fill-opacity="1" fill-rule="nonzero"/><path fill="#472b29" d="M 223.304688 203.8125 C 224.5 204.226562 225.675781 204.710938 226.820312 205.269531 C 225.964844 209.558594 227.1875 213.539062 230.417969 216.734375 C 232.914062 219.203125 235.949219 220.503906 239.195312 220.503906 C 240.050781 220.503906 240.914062 220.414062 241.789062 220.238281 C 242.296875 221.335938 242.828125 222.632812 243.242188 223.777344 C 239.582031 226.261719 237.664062 230.007812 237.757812 234.609375 C 237.847656 238.917969 239.746094 242.4375 243.183594 244.804688 C 242.761719 246.03125 242.257812 247.230469 241.683594 248.402344 C 240.878906 248.257812 240.082031 248.183594 239.300781 248.183594 C 235.640625 248.183594 232.335938 249.785156 229.738281 252.8125 C 227.1875 255.789062 226.222656 259.371094 226.898438 263.164062 C 225.710938 263.742188 224.488281 264.246094 223.242188 264.675781 C 220.828125 261.3125 217.03125 259.324219 212.75 259.324219 C 212.730469 259.324219 212.589844 259.324219 212.570312 259.324219 C 208.515625 259.375 204.8125 261.414062 202.4375 264.734375 C 201.183594 264.3125 199.964844 263.816406 198.773438 263.238281 C 199.511719 259.019531 198.238281 255.117188 195.027344 251.988281 C 192.550781 249.578125 189.542969 248.304688 186.320312 248.304688 C 185.523438 248.304688 184.714844 248.378906 183.898438 248.535156 C 183.316406 247.371094 182.816406 246.183594 182.382812 244.964844 C 186 242.46875 187.886719 238.738281 187.78125 234.160156 C 187.675781 229.792969 185.742188 226.261719 182.242188 223.921875 C 182.648438 222.710938 183.132812 221.523438 183.683594 220.367188 C 184.539062 220.535156 185.382812 220.621094 186.214844 220.621094 C 189.527344 220.621094 192.605469 219.269531 195.113281 216.714844 C 198.269531 213.507812 199.441406 209.558594 198.570312 205.328125 C 199.707031 204.773438 200.878906 204.28125 202.089844 203.855469 C 204.5 207.480469 208.121094 209.433594 212.578125 209.433594 C 212.953125 209.433594 213.339844 209.417969 213.738281 209.390625 C 217.832031 209.089844 221.125 207.144531 223.304688 203.8125 M 212.710938 244.59375 C 212.722656 244.59375 212.730469 244.59375 212.738281 244.59375 C 218.367188 244.5625 222.90625 240.148438 223.066406 234.546875 C 223.144531 231.746094 222.121094 229.085938 220.179688 227.066406 C 218.242188 225.050781 215.636719 223.925781 212.742188 223.898438 C 207.054688 223.898438 202.40625 228.515625 202.382812 234.191406 C 202.371094 236.964844 203.433594 239.570312 205.386719 241.535156 C 207.335938 243.496094 209.929688 244.582031 212.699219 244.59375 C 212.699219 244.59375 212.707031 244.59375 212.710938 244.59375 M 221.125 198.886719 C 219.835938 202.632812 217.34375 204.980469 213.433594 205.269531 C 213.140625 205.292969 212.855469 205.304688 212.578125 205.304688 C 208.425781 205.304688 205.695312 202.945312 204.203125 198.925781 C 200.402344 199.855469 196.859375 201.328125 193.570312 203.390625 C 195.378906 207.214844 195.144531 210.792969 192.171875 213.820312 C 190.375 215.652344 188.363281 216.488281 186.214844 216.488281 C 184.761719 216.488281 183.246094 216.109375 181.6875 215.386719 C 179.671875 218.707031 178.226562 222.261719 177.359375 226.066406 C 181.226562 227.484375 183.554688 230.140625 183.652344 234.261719 C 183.753906 238.546875 181.449219 241.351562 177.476562 242.894531 C 178.390625 246.671875 179.882812 250.183594 181.9375 253.46875 C 183.445312 252.796875 184.914062 252.4375 186.324219 252.4375 C 188.417969 252.4375 190.382812 253.230469 192.148438 254.953125 C 195.160156 257.886719 195.527344 261.429688 193.859375 265.261719 C 197.179688 267.28125 200.707031 268.726562 204.488281 269.597656 C 204.542969 269.488281 204.585938 269.417969 204.613281 269.347656 C 205.980469 265.785156 209.082031 263.503906 212.628906 263.460938 C 212.667969 263.460938 212.710938 263.460938 212.75 263.460938 C 216.488281 263.460938 219.578125 265.574219 221.015625 269.148438 C 221.121094 269.414062 221.238281 269.5 221.40625 269.5 C 221.488281 269.5 221.582031 269.476562 221.691406 269.449219 C 225.109375 268.585938 228.332031 267.253906 231.359375 265.445312 C 231.527344 265.347656 231.683594 265.234375 231.816406 265.148438 C 230.273438 261.671875 230.417969 258.375 232.878906 255.503906 C 234.746094 253.324219 236.917969 252.320312 239.308594 252.320312 C 240.699219 252.320312 242.167969 252.660156 243.691406 253.3125 C 245.730469 250.007812 247.199219 246.488281 248.09375 242.722656 C 244.28125 241.257812 241.976562 238.644531 241.890625 234.523438 C 241.796875 230.179688 244.148438 227.425781 248.082031 225.902344 C 247.84375 223.527344 245.082031 216.855469 243.6875 215.265625 C 242.148438 215.988281 240.648438 216.367188 239.203125 216.367188 C 237.097656 216.367188 235.109375 215.554688 233.324219 213.789062 C 230.265625 210.769531 230.027344 207.148438 231.804688 203.289062 C 228.484375 201.246094 224.925781 199.769531 221.125 198.886719 Z M 212.714844 240.457031 C 209.269531 240.445312 206.492188 237.644531 206.511719 234.210938 C 206.527344 230.785156 209.300781 228.035156 212.746094 228.035156 C 212.765625 228.035156 212.785156 228.035156 212.804688 228.035156 C 216.269531 228.066406 219.039062 230.945312 218.9375 234.429688 C 218.847656 237.667969 216.214844 240.4375 212.714844 240.457031 Z M 212.714844 240.457031 " fill-opacity="1" fill-rule="nonzero"/><path fill="#7777ab" d="M 234.496094 228.699219 C 231.433594 216.660156 219.207031 209.386719 207.183594 212.449219 C 195.160156 215.515625 187.894531 227.757812 190.953125 239.796875 C 194.015625 251.832031 206.246094 259.109375 218.269531 256.046875 C 230.292969 252.980469 237.554688 240.734375 234.496094 228.699219 Z M 217.152344 251.652344 C 207.550781 254.101562 197.785156 248.292969 195.34375 238.675781 C 192.894531 229.0625 198.699219 219.285156 208.300781 216.839844 C 217.90625 214.390625 227.671875 220.199219 230.113281 229.816406 C 232.554688 239.429688 226.753906 249.207031 217.152344 251.652344 Z M 217.152344 251.652344 " fill-opacity="1" fill-rule="nonzero"/><path fill="#472b29" d="M 194.535156 234.984375 C 194.128906 234.984375 193.800781 234.652344 193.800781 234.246094 C 193.800781 223.796875 202.285156 215.300781 212.722656 215.300781 C 215.539062 215.300781 218.246094 215.902344 220.765625 217.085938 C 221.132812 217.265625 221.292969 217.699219 221.117188 218.070312 C 220.945312 218.441406 220.5 218.589844 220.136719 218.425781 C 217.8125 217.328125 215.320312 216.773438 212.722656 216.773438 C 203.105469 216.773438 195.273438 224.609375 195.273438 234.242188 C 195.273438 234.652344 194.945312 234.984375 194.535156 234.984375 Z M 212.722656 253.195312 C 204.410156 253.195312 197.152344 247.859375 194.664062 239.925781 C 194.542969 239.535156 194.757812 239.125 195.148438 239.003906 C 195.535156 238.886719 195.949219 239.097656 196.070312 239.484375 C 198.363281 246.804688 205.054688 251.722656 212.722656 251.722656 C 216.664062 251.722656 220.382812 250.4375 223.476562 248.007812 C 223.792969 247.753906 224.257812 247.816406 224.511719 248.132812 C 224.761719 248.453125 224.707031 248.917969 224.386719 249.167969 C 221.03125 251.800781 217 253.195312 212.722656 253.195312 Z M 226.9375 246.34375 C 226.777344 246.34375 226.613281 246.292969 226.476562 246.183594 C 226.160156 245.929688 226.109375 245.464844 226.363281 245.144531 C 228.855469 242.019531 230.175781 238.25 230.175781 234.242188 C 230.175781 232.046875 229.773438 229.902344 228.980469 227.878906 C 228.832031 227.503906 229.019531 227.074219 229.398438 226.925781 C 229.78125 226.78125 230.207031 226.964844 230.355469 227.347656 C 231.214844 229.539062 231.648438 231.863281 231.648438 234.246094 C 231.648438 238.59375 230.222656 242.679688 227.515625 246.070312 C 227.371094 246.25 227.152344 246.34375 226.9375 246.34375 Z M 226.9375 246.34375 " fill-opacity="1" fill-rule="nonzero"/><path fill="#472b29" d="M 227.707031 224.660156 C 227.472656 224.660156 227.242188 224.546875 227.097656 224.339844 C 226.15625 222.972656 225.023438 221.746094 223.730469 220.695312 C 223.414062 220.433594 223.363281 219.96875 223.621094 219.652344 C 223.882812 219.332031 224.347656 219.292969 224.660156 219.542969 C 226.066406 220.6875 227.292969 222.019531 228.3125 223.503906 C 228.542969 223.839844 228.457031 224.304688 228.125 224.535156 C 227.996094 224.617188 227.851562 224.660156 227.707031 224.660156 Z M 227.707031 224.660156 " fill-opacity="1" fill-rule="nonzero"/></svg>