<svg xmlns="http://www.w3.org/2000/svg" xmlns:xlink="http://www.w3.org/1999/xlink" width="200" zoomAndPan="magnify" viewBox="0 0 150 48" height="64" preserveAspectRatio="xMidYMid meet" version="1.0"><defs><g/><clipPath id="1e78d8c503"><path d="M 10.625 10.777344 L 84.09375 10.777344 L 84.09375 35.023438 L 10.625 35.023438 Z M 10.625 10.777344 " clip-rule="nonzero"/></clipPath></defs><g clip-path="url(#1e78d8c503)"><path fill="#1976d2" d="M 10.632812 10.777344 L 84.085938 10.777344 L 84.085938 35.023438 L 10.632812 35.023438 L 10.632812 10.777344 " fill-opacity="1" fill-rule="nonzero"/></g><g fill="#ffffff" fill-opacity="1"><g transform="translate(13.42617, 29.020409)"><g><path d="M 6.5625 -11.3125 L 11.125 0 L 8.359375 0 L 7.515625 -2.265625 L 3.21875 -2.265625 L 2.390625 0 L -0.390625 0 L 4.171875 -11.3125 Z M 6.640625 -4.515625 L 5.390625 -7.8125 L 5.359375 -7.8125 L 4.09375 -4.515625 Z M 6.640625 -4.515625 "/></g></g></g><g fill="#ffffff" fill-opacity="1"><g transform="translate(24.857893, 29.020409)"><g><path d="M 3.390625 -7.015625 L 3.390625 0 L 0.828125 0 L 0.828125 -11.3125 L 3.390625 -11.3125 L 7.890625 -4.296875 L 7.921875 -4.296875 L 7.921875 -11.3125 L 10.5 -11.3125 L 10.5 0 L 7.921875 0 L 3.421875 -7.015625 Z M 3.390625 -7.015625 "/></g></g></g><g fill="#ffffff" fill-opacity="1"><g transform="translate(36.865288, 29.020409)"><g><path d="M 4.984375 -11.515625 C 5.597656 -11.515625 6.195312 -11.421875 6.78125 -11.234375 C 7.363281 -11.054688 7.796875 -10.882812 8.078125 -10.71875 L 8.5 -10.4375 L 7.453125 -8.390625 C 7.367188 -8.441406 7.253906 -8.507812 7.109375 -8.59375 C 6.960938 -8.6875 6.6875 -8.804688 6.28125 -8.953125 C 5.882812 -9.097656 5.515625 -9.171875 5.171875 -9.171875 C 4.734375 -9.171875 4.398438 -9.078125 4.171875 -8.890625 C 3.941406 -8.710938 3.828125 -8.46875 3.828125 -8.15625 C 3.828125 -8 3.878906 -7.851562 3.984375 -7.71875 C 4.097656 -7.582031 4.285156 -7.441406 4.546875 -7.296875 C 4.816406 -7.148438 5.050781 -7.03125 5.25 -6.9375 C 5.445312 -6.84375 5.757812 -6.703125 6.1875 -6.515625 C 6.914062 -6.210938 7.535156 -5.789062 8.046875 -5.25 C 8.566406 -4.71875 8.828125 -4.113281 8.828125 -3.4375 C 8.828125 -2.789062 8.707031 -2.222656 8.46875 -1.734375 C 8.238281 -1.253906 7.921875 -0.875 7.515625 -0.59375 C 7.109375 -0.320312 6.65625 -0.125 6.15625 0 C 5.664062 0.132812 5.132812 0.203125 4.5625 0.203125 C 4.070312 0.203125 3.585938 0.148438 3.109375 0.046875 C 2.628906 -0.046875 2.226562 -0.164062 1.90625 -0.3125 C 1.59375 -0.46875 1.304688 -0.617188 1.046875 -0.765625 C 0.796875 -0.910156 0.613281 -1.035156 0.5 -1.140625 L 0.3125 -1.28125 L 1.609375 -3.453125 C 1.710938 -3.359375 1.859375 -3.238281 2.046875 -3.09375 C 2.242188 -2.957031 2.585938 -2.769531 3.078125 -2.53125 C 3.566406 -2.289062 4 -2.171875 4.375 -2.171875 C 5.457031 -2.171875 6 -2.539062 6 -3.28125 C 6 -3.4375 5.957031 -3.582031 5.875 -3.71875 C 5.800781 -3.851562 5.664062 -3.984375 5.46875 -4.109375 C 5.28125 -4.242188 5.109375 -4.347656 4.953125 -4.421875 C 4.804688 -4.503906 4.5625 -4.625 4.21875 -4.78125 C 3.875 -4.945312 3.617188 -5.070312 3.453125 -5.15625 C 2.765625 -5.488281 2.234375 -5.910156 1.859375 -6.421875 C 1.484375 -6.929688 1.296875 -7.476562 1.296875 -8.0625 C 1.296875 -9.070312 1.671875 -9.898438 2.421875 -10.546875 C 3.171875 -11.191406 4.023438 -11.515625 4.984375 -11.515625 Z M 4.984375 -11.515625 "/></g></g></g><g fill="#ffffff" fill-opacity="1"><g transform="translate(46.761861, 29.020409)"><g><path d="M 9.5 0 L 7.6875 -6.34375 L 5.875 0 L 3.015625 0 L -0.203125 -11.3125 L 2.65625 -11.3125 L 4.59375 -3.546875 L 4.65625 -3.546875 L 6.71875 -11.3125 L 8.65625 -11.3125 L 10.71875 -3.546875 L 10.78125 -3.546875 L 12.71875 -11.3125 L 15.5625 -11.3125 L 12.34375 0 Z M 9.5 0 "/></g></g></g><g fill="#ffffff" fill-opacity="1"><g transform="translate(62.812718, 29.020409)"><g><path d="M 7.296875 -11.3125 L 7.296875 -9.046875 L 3.390625 -9.046875 L 3.390625 -6.796875 L 7.125 -6.796875 L 7.125 -4.53125 L 3.390625 -4.53125 L 3.390625 -2.265625 L 7.296875 -2.265625 L 7.296875 0 L 0.828125 0 L 0.828125 -11.3125 Z M 7.296875 -11.3125 "/></g></g></g><g fill="#ffffff" fill-opacity="1"><g transform="translate(71.448285, 29.020409)"><g><path d="M 0.828125 -11.3125 L 4.859375 -11.3125 C 5.953125 -11.3125 6.835938 -11.019531 7.515625 -10.4375 C 8.203125 -9.851562 8.546875 -9.023438 8.546875 -7.953125 C 8.546875 -7.117188 8.335938 -6.421875 7.921875 -5.859375 C 7.503906 -5.296875 6.941406 -4.898438 6.234375 -4.671875 L 10.125 0 L 6.84375 0 L 3.390625 -4.46875 L 3.390625 0 L 0.828125 0 Z M 3.390625 -6.296875 L 3.703125 -6.296875 C 3.941406 -6.296875 4.140625 -6.296875 4.296875 -6.296875 C 4.460938 -6.304688 4.648438 -6.335938 4.859375 -6.390625 C 5.078125 -6.453125 5.25 -6.53125 5.375 -6.625 C 5.5 -6.726562 5.609375 -6.875 5.703125 -7.0625 C 5.796875 -7.257812 5.84375 -7.492188 5.84375 -7.765625 C 5.84375 -8.046875 5.796875 -8.28125 5.703125 -8.46875 C 5.609375 -8.65625 5.5 -8.800781 5.375 -8.90625 C 5.25 -9.007812 5.078125 -9.085938 4.859375 -9.140625 C 4.648438 -9.191406 4.460938 -9.222656 4.296875 -9.234375 C 4.140625 -9.242188 3.941406 -9.25 3.703125 -9.25 L 3.390625 -9.25 Z M 3.390625 -6.296875 "/></g></g></g><path stroke-linecap="butt" transform="matrix(0.733958, 0, 0, 0.734694, 6.232652, 4.334696)" fill="none" stroke-linejoin="miter" d="M 0.00234715 0.501473 L 187.199085 0.501473 " stroke="#1976d2" stroke-width="1" stroke-opacity="1" stroke-miterlimit="4"/><path stroke-linecap="butt" transform="matrix(0.000000000000000045, 0.739136, -0.734694, 0.000000000000000045, 6.22806, 4.339287)" fill="none" stroke-linejoin="miter" d="M 0.000752609 0.501821 L 51.697531 0.501821 " stroke="#1976d2" stroke-width="1" stroke-opacity="1" stroke-miterlimit="4"/><g fill="#1976d2" fill-opacity="1"><g transform="translate(86.416643, 29.020409)"><g><path d="M 6.84375 -2.328125 C 7.226562 -2.328125 7.601562 -2.382812 7.96875 -2.5 C 8.34375 -2.625 8.617188 -2.738281 8.796875 -2.84375 L 9.0625 -3.03125 L 10.15625 -0.828125 C 10.113281 -0.804688 10.0625 -0.769531 10 -0.71875 C 9.9375 -0.675781 9.785156 -0.59375 9.546875 -0.46875 C 9.316406 -0.34375 9.066406 -0.234375 8.796875 -0.140625 C 8.535156 -0.0546875 8.191406 0.0195312 7.765625 0.09375 C 7.335938 0.164062 6.894531 0.203125 6.4375 0.203125 C 5.382812 0.203125 4.390625 -0.0507812 3.453125 -0.5625 C 2.515625 -1.082031 1.753906 -1.796875 1.171875 -2.703125 C 0.597656 -3.609375 0.3125 -4.582031 0.3125 -5.625 C 0.3125 -6.425781 0.476562 -7.191406 0.8125 -7.921875 C 1.15625 -8.648438 1.609375 -9.273438 2.171875 -9.796875 C 2.734375 -10.316406 3.390625 -10.734375 4.140625 -11.046875 C 4.890625 -11.359375 5.65625 -11.515625 6.4375 -11.515625 C 7.164062 -11.515625 7.835938 -11.425781 8.453125 -11.25 C 9.078125 -11.070312 9.515625 -10.898438 9.765625 -10.734375 L 10.15625 -10.46875 L 9.0625 -8.28125 C 9 -8.332031 8.898438 -8.394531 8.765625 -8.46875 C 8.640625 -8.550781 8.382812 -8.65625 8 -8.78125 C 7.613281 -8.90625 7.226562 -8.96875 6.84375 -8.96875 C 6.21875 -8.96875 5.65625 -8.867188 5.15625 -8.671875 C 4.664062 -8.472656 4.273438 -8.207031 3.984375 -7.875 C 3.703125 -7.550781 3.484375 -7.195312 3.328125 -6.8125 C 3.179688 -6.4375 3.109375 -6.050781 3.109375 -5.65625 C 3.109375 -4.800781 3.429688 -4.03125 4.078125 -3.34375 C 4.722656 -2.664062 5.644531 -2.328125 6.84375 -2.328125 Z M 6.84375 -2.328125 "/></g></g></g><g fill="#1976d2" fill-opacity="1"><g transform="translate(97.423453, 29.020409)"><g><path d="M 3.390625 -11.3125 L 3.390625 -2.265625 L 7.296875 -2.265625 L 7.296875 0 L 0.828125 0 L 0.828125 -11.3125 Z M 3.390625 -11.3125 "/></g></g></g><g fill="#1976d2" fill-opacity="1"><g transform="translate(105.85342, 29.020409)"><g><path d="M 0.3125 -5.65625 C 0.3125 -7.289062 0.867188 -8.675781 1.984375 -9.8125 C 3.097656 -10.945312 4.441406 -11.515625 6.015625 -11.515625 C 7.597656 -11.515625 8.941406 -10.945312 10.046875 -9.8125 C 11.148438 -8.6875 11.703125 -7.300781 11.703125 -5.65625 C 11.703125 -4 11.15625 -2.609375 10.0625 -1.484375 C 8.976562 -0.359375 7.628906 0.203125 6.015625 0.203125 C 4.359375 0.203125 2.992188 -0.351562 1.921875 -1.46875 C 0.847656 -2.59375 0.3125 -3.988281 0.3125 -5.65625 Z M 3.09375 -5.65625 C 3.09375 -5.0625 3.179688 -4.519531 3.359375 -4.03125 C 3.546875 -3.539062 3.867188 -3.125 4.328125 -2.78125 C 4.785156 -2.445312 5.347656 -2.28125 6.015625 -2.28125 C 6.972656 -2.28125 7.695312 -2.609375 8.1875 -3.265625 C 8.675781 -3.929688 8.921875 -4.726562 8.921875 -5.65625 C 8.921875 -6.582031 8.671875 -7.375 8.171875 -8.03125 C 7.671875 -8.695312 6.953125 -9.03125 6.015625 -9.03125 C 5.085938 -9.03125 4.367188 -8.695312 3.859375 -8.03125 C 3.347656 -7.375 3.09375 -6.582031 3.09375 -5.65625 Z M 3.09375 -5.65625 "/></g></g></g><g fill="#1976d2" fill-opacity="1"><g transform="translate(118.559858, 29.020409)"><g><path d="M 9.515625 -11.3125 L 9.515625 -4.015625 C 9.515625 -2.628906 9.140625 -1.578125 8.390625 -0.859375 C 7.640625 -0.148438 6.539062 0.203125 5.09375 0.203125 C 3.65625 0.203125 2.5625 -0.148438 1.8125 -0.859375 C 1.0625 -1.578125 0.6875 -2.628906 0.6875 -4.015625 L 0.6875 -11.3125 L 3.265625 -11.3125 L 3.265625 -4.765625 C 3.265625 -3.847656 3.40625 -3.210938 3.6875 -2.859375 C 3.976562 -2.503906 4.445312 -2.328125 5.09375 -2.328125 C 5.75 -2.328125 6.21875 -2.503906 6.5 -2.859375 C 6.789062 -3.210938 6.9375 -3.847656 6.9375 -4.765625 L 6.9375 -11.3125 Z M 9.515625 -11.3125 "/></g></g></g><g fill="#1976d2" fill-opacity="1"><g transform="translate(129.443307, 29.020409)"><g><path d="M 0.828125 -11.3125 L 4.09375 -11.3125 C 5.664062 -11.3125 7.007812 -10.769531 8.125 -9.6875 C 9.238281 -8.613281 9.796875 -7.269531 9.796875 -5.65625 C 9.796875 -4.03125 9.238281 -2.679688 8.125 -1.609375 C 7.019531 -0.535156 5.675781 0 4.09375 0 L 0.828125 0 Z M 3.390625 -2.296875 L 3.796875 -2.296875 C 4.734375 -2.296875 5.5 -2.613281 6.09375 -3.25 C 6.695312 -3.882812 7.003906 -4.679688 7.015625 -5.640625 C 7.015625 -6.597656 6.710938 -7.394531 6.109375 -8.03125 C 5.515625 -8.675781 4.742188 -9 3.796875 -9 L 3.390625 -9 Z M 3.390625 -2.296875 "/></g></g></g><path stroke-linecap="butt" transform="matrix(0.733958, 0, 0, 0.734694, 6.232652, 41.951021)" fill="none" stroke-linejoin="miter" d="M 0.00234715 0.502647 L 187.199085 0.502647 " stroke="#1976d2" stroke-width="1" stroke-opacity="1" stroke-miterlimit="4"/><path stroke-linecap="butt" transform="matrix(0.000000000000000045, 0.732054, -0.734694, 0.000000000000000045, 144.130097, 4.339287)" fill="none" stroke-linejoin="miter" d="M 0.000759889 0.501404 L 52.197624 0.501404 " stroke="#1976d2" stroke-width="1" stroke-opacity="1" stroke-miterlimit="4"/></svg>