<svg xmlns="http://www.w3.org/2000/svg" xmlns:xlink="http://www.w3.org/1999/xlink" width="400" zoomAndPan="magnify" viewBox="0 0 300 299.999988" height="400" preserveAspectRatio="xMidYMid meet" version="1.0"><path fill="#35474c" d="M 139.691406 270 L 57.480469 270 C 53.585938 260.285156 55.535156 221.417969 58.453125 216.074219 C 61.371094 210.730469 61.371094 197.125 61.371094 197.125 C 61.371094 197.125 128.503906 191.78125 134.339844 203.441406 C 140.664062 214.617188 139.691406 270 139.691406 270 Z M 139.691406 270 " fill-opacity="1" fill-rule="nonzero"/><path fill="#000000" d="M 109.042969 270 L 98.828125 270 C 100.773438 264.171875 101.746094 262.710938 100.773438 250.566406 C 103.691406 254.9375 110.503906 265.628906 109.042969 270 Z M 109.042969 270 " fill-opacity="0.098" fill-rule="nonzero"/><path fill="#4eb3e9" d="M 189.308594 151.941406 C 189.308594 151.941406 177.148438 168.949219 172.285156 166.03125 C 167.90625 163.117188 144.554688 150.972656 144.554688 150.972656 C 144.554688 150.972656 143.582031 160.6875 143.097656 163.601562 C 142.609375 167.003906 144.070312 169.433594 145.527344 179.148438 C 146.5 189.351562 142.125 218.988281 142.125 218.988281 C 141.636719 218.988281 94.449219 212.671875 97.371094 213.15625 C 64.289062 206.355469 34.617188 184.492188 35.101562 177.691406 C 35.101562 171.375 42.398438 137.855469 51.15625 120.363281 C 51.640625 119.394531 51.640625 118.421875 52.128906 117.933594 C 61.371094 101.417969 84.234375 96.558594 88.125 94.617188 C 94.449219 91.214844 98.34375 83.441406 100.773438 84.898438 C 101.261719 84.898438 133.367188 104.332031 146.015625 115.019531 C 150.394531 118.421875 154.769531 132.996094 164.015625 139.3125 C 173.257812 145.628906 189.308594 151.941406 189.308594 151.941406 Z M 189.308594 151.941406 " fill-opacity="1" fill-rule="nonzero"/><path fill="#3f5259" d="M 108.070312 105.304688 C 108.558594 105.304688 116.828125 114.046875 117.3125 115.992188 C 117.800781 117.933594 114.394531 132.023438 116.828125 145.628906 C 119.261719 159.230469 119.746094 192.265625 119.746094 192.265625 L 137.746094 192.265625 L 139.691406 186.921875 L 138.230469 187.410156 C 138.230469 187.410156 135.800781 162.144531 132.878906 150.972656 C 123.152344 114.046875 121.207031 120.851562 126.070312 103.359375 C 126.070312 103.359375 116.828125 101.902344 116.339844 101.902344 C 116.339844 101.902344 111.476562 103.359375 110.988281 103.359375 C 110.988281 102.386719 108.070312 105.304688 108.070312 105.304688 Z M 108.070312 105.304688 " fill-opacity="1" fill-rule="nonzero"/><path fill="#e5e5e5" d="M 254.007812 170.40625 C 254.007812 170.40625 182.011719 206.84375 158.175781 221.417969 C 134.339844 235.992188 95.910156 259.3125 91.53125 260.285156 C 87.640625 260.769531 72.558594 244.738281 73.53125 232.105469 C 73.53125 232.105469 114.394531 198.582031 114.394531 198.097656 C 114.394531 197.609375 129.960938 192.753906 129.960938 192.753906 L 199.527344 135.910156 C 199.527344 135.910156 215.09375 155.828125 219.957031 160.6875 C 225.792969 167.003906 251.578125 167.003906 253.035156 167.976562 C 253.035156 167.488281 254.007812 170.40625 254.007812 170.40625 Z M 254.007812 170.40625 " fill-opacity="1" fill-rule="nonzero"/><path fill="#4eb3e9" d="M 98.828125 214.128906 C 98.828125 214.128906 89.585938 212.1875 86.179688 210.730469 C 82.773438 209.269531 82.773438 202.957031 82.773438 201.984375 C 82.289062 201.011719 83.75 199.070312 83.75 199.070312 C 83.75 199.070312 85.695312 199.070312 85.695312 199.070312 C 85.695312 199.070312 94.449219 199.554688 94.449219 199.554688 C 94.449219 199.554688 98.34375 201.011719 98.828125 201.984375 C 99.800781 202.957031 101.746094 211.214844 101.746094 211.699219 C 101.746094 211.699219 98.828125 214.128906 98.828125 214.128906 Z M 98.828125 214.128906 " fill-opacity="1" fill-rule="nonzero"/><path fill="#b9bfc1" d="M 219.957031 160.203125 C 219.957031 160.203125 247.199219 130.566406 249.144531 128.625 C 251.089844 126.679688 265.683594 149.027344 262.765625 155.34375 C 259.847656 161.660156 258.386719 169.917969 253.035156 170.890625 C 247.683594 171.863281 232.117188 174.777344 219.957031 160.203125 Z M 219.957031 160.203125 " fill-opacity="1" fill-rule="nonzero"/><path fill="#f8cfb3" d="M 145.042969 69.351562 C 142.125 70.324219 144.554688 72.265625 141.152344 78.582031 C 139.691406 81.011719 139.691406 81.496094 140.664062 84.414062 C 144.070312 92.1875 137.746094 89.269531 136.285156 90.730469 C 135.800781 91.214844 135.800781 91.699219 135.3125 92.671875 C 134.828125 94.128906 132.878906 94.617188 132.394531 96.074219 C 130.933594 98.503906 134.339844 102.875 127.53125 104.332031 C 121.691406 105.789062 112.9375 104.816406 109.042969 99.960938 C 106.613281 97.042969 98.34375 88.785156 99.316406 85.871094 C 99.800781 84.414062 101.746094 84.414062 101.261719 81.496094 C 101.261719 80.039062 100.773438 79.070312 100.773438 76.152344 C 101.261719 64.007812 98.34375 63.035156 102.234375 61.09375 C 123.152344 52.835938 152.339844 67.410156 145.042969 69.351562 Z M 145.042969 69.351562 " fill-opacity="1" fill-rule="nonzero"/><path fill="#2e2f30" d="M 120.234375 69.839844 C 118.285156 72.265625 117.3125 75.183594 118.285156 78.097656 C 117.3125 78.097656 116.339844 78.097656 115.855469 78.582031 C 115.367188 74.210938 111.964844 67.894531 108.558594 67.894531 C 106.613281 67.894531 104.667969 70.324219 105.640625 74.210938 C 107.097656 79.554688 109.53125 80.039062 102.71875 81.984375 C 102.71875 81.496094 102.71875 80.527344 102.234375 80.039062 C 101.261719 76.152344 102.71875 75.183594 102.234375 73.238281 C 101.261719 63.035156 100.773438 63.035156 103.691406 61.578125 C 111.476562 58.179688 119.746094 58.179688 128.015625 59.636719 C 131.421875 66.4375 124.609375 64.980469 120.234375 69.839844 Z M 120.234375 69.839844 " fill-opacity="1" fill-rule="nonzero"/><path fill="#000000" d="M 145.527344 132.996094 C 146.988281 138.339844 146.5 146.113281 144.554688 151.457031 C 144.070312 146.597656 144.554688 137.855469 145.527344 132.996094 Z M 145.527344 132.996094 " fill-opacity="0.098" fill-rule="nonzero"/><path fill="#000000" d="M 81.800781 132.511719 C 85.695312 145.140625 73.53125 170.40625 77.910156 171.375 C 78.882812 171.863281 80.828125 171.863281 82.289062 172.347656 C 85.207031 173.320312 87.640625 175.261719 90.558594 176.71875 C 95.910156 179.636719 102.234375 181.09375 108.070312 182.550781 C 87.640625 179.636719 87.640625 175.75 81.800781 173.804688 C 78.882812 172.835938 74.019531 174.777344 75.476562 168.460938 C 80.828125 145.628906 82.773438 139.3125 81.800781 132.511719 Z M 81.800781 132.511719 " fill-opacity="0.098" fill-rule="nonzero"/><path fill="#35474c" d="M 98.828125 214.128906 C 98.828125 212.671875 97.855469 210.730469 96.882812 209.269531 C 91.53125 198.582031 97.371094 186.4375 107.585938 182.550781 C 107.585938 182.550781 109.042969 182.550781 110.015625 184.007812 C 113.910156 187.410156 107.097656 212.671875 98.828125 214.128906 Z M 98.828125 214.128906 " fill-opacity="1" fill-rule="nonzero"/><path fill="#f8cfb3" d="M 143.582031 201.496094 C 142.609375 204.898438 139.203125 205.871094 135.3125 203.441406 C 135.3125 203.441406 133.855469 211.699219 128.503906 210.730469 C 128.503906 210.730469 128.988281 217.042969 120.71875 216.074219 C 120.71875 216.074219 120.71875 221.417969 112.9375 220.445312 C 94.9375 218.015625 103.207031 213.15625 97.371094 210.730469 C 91.53125 199.070312 95.910156 188.867188 104.667969 184.007812 C 106.125 184.007812 110.988281 184.007812 112.449219 183.523438 C 114.394531 182.550781 119.261719 183.523438 121.207031 185.464844 C 125.097656 188.867188 145.042969 196.152344 143.582031 201.496094 Z M 143.582031 201.496094 " fill-opacity="1" fill-rule="nonzero"/><path fill="#e8bc95" d="M 122.664062 197.125 C 124.609375 198.097656 132.878906 202.46875 135.3125 203.441406 C 130.449219 203.441406 125.582031 200.527344 122.664062 197.125 Z M 122.664062 197.125 " fill-opacity="1" fill-rule="nonzero"/><path fill="#e8bc95" d="M 118.773438 205.871094 C 120.71875 206.84375 126.558594 209.269531 128.503906 210.242188 C 125.097656 210.730469 120.71875 208.785156 118.773438 205.871094 Z M 118.773438 205.871094 " fill-opacity="1" fill-rule="nonzero"/><path fill="#e8bc95" d="M 113.910156 213.644531 C 116.339844 213.644531 119.261719 214.617188 120.71875 216.074219 C 118.285156 216.074219 115.367188 215.101562 113.910156 213.644531 Z M 113.910156 213.644531 " fill-opacity="1" fill-rule="nonzero"/><path fill="#000000" d="M 124.125 119.394531 C 122.179688 116.964844 121.207031 116.476562 120.234375 115.992188 C 119.746094 115.992188 119.261719 115.992188 118.773438 115.992188 C 118.285156 115.992188 117.800781 115.992188 117.3125 116.476562 C 118.285156 115.507812 119.261719 115.507812 120.234375 115.992188 C 120.71875 115.992188 123.152344 115.992188 124.125 119.394531 Z M 124.125 119.394531 " fill-opacity="0.298" fill-rule="nonzero"/><path fill="#000000" d="M 117.800781 127.652344 C 115.367188 127.164062 118.773438 119.878906 118.773438 115.992188 C 118.773438 115.992188 120.234375 115.992188 120.234375 116.476562 C 120.71875 118.90625 120.234375 128.625 117.800781 127.652344 Z M 117.800781 127.652344 " fill-opacity="0.098" fill-rule="nonzero"/><path fill="#eb5f22" d="M 153.796875 74.695312 C 152.824219 74.210938 145.042969 71.78125 142.609375 72.265625 C 136.773438 72.753906 127.53125 64.980469 108.558594 64.007812 C 98.828125 63.523438 97.371094 62.550781 97.371094 62.550781 C 96.882812 61.578125 97.855469 61.578125 98.34375 61.578125 C 98.828125 61.578125 98.828125 58.179688 99.316406 57.207031 C 99.316406 56.234375 100.289062 56.234375 100.289062 56.234375 C 100.773438 55.75 102.234375 46.519531 108.558594 41.660156 C 123.636719 30 150.878906 41.660156 147.960938 68.867188 C 147.472656 71.296875 152.824219 73.726562 154.285156 74.210938 C 154.769531 74.210938 154.769531 75.183594 153.796875 74.695312 Z M 153.796875 74.695312 " fill-opacity="1" fill-rule="nonzero"/><path fill="#000000" d="M 147.960938 69.839844 C 128.503906 68.378906 125.097656 61.578125 98.34375 61.578125 C 122.664062 60.121094 127.53125 66.921875 147.960938 69.839844 Z M 147.960938 69.839844 " fill-opacity="0.0471" fill-rule="nonzero"/><path fill="#000000" d="M 128.015625 59.636719 C 128.015625 59.148438 126.558594 45.0625 118.773438 41.660156 C 113.910156 39.230469 110.015625 41.175781 108.558594 41.660156 C 110.988281 39.714844 113.421875 38.257812 116.828125 37.773438 C 128.503906 40.6875 128.015625 58.664062 128.015625 59.636719 Z M 128.015625 59.636719 " fill-opacity="0.0471" fill-rule="nonzero"/><path fill="#e5e5e5" d="M 118.285156 104.332031 L 113.910156 104.816406 C 113.910156 104.816406 113.421875 103.847656 112.449219 103.359375 C 111.476562 102.875 99.800781 111.621094 98.34375 110.160156 C 96.882812 108.703125 93.964844 89.757812 93.964844 89.757812 C 98.34375 85.382812 99.316406 82.957031 101.261719 84.414062 C 96.882812 89.757812 118.285156 104.332031 118.285156 104.332031 Z M 118.285156 104.332031 " fill-opacity="1" fill-rule="nonzero"/><path fill="#e5e5e5" d="M 124.609375 104.816406 C 125.582031 104.816406 127.53125 104.332031 128.503906 104.332031 C 129.476562 115.019531 128.015625 110.648438 124.609375 104.816406 Z M 124.609375 104.816406 " fill-opacity="1" fill-rule="nonzero"/></svg>