<svg xmlns="http://www.w3.org/2000/svg" xmlns:xlink="http://www.w3.org/1999/xlink" width="400" zoomAndPan="magnify" viewBox="0 0 300 299.999988" height="400" preserveAspectRatio="xMidYMid meet" version="1.0"><path fill="#f89e90" d="M 179.832031 113.234375 C 180.105469 113.597656 180.160156 114.261719 180.308594 114.699219 C 180.441406 115.082031 180.53125 115.453125 180.605469 115.84375 C 180.722656 116.496094 180.332031 116.871094 180.351562 117.496094 C 180.378906 118.421875 180.664062 118.996094 180.253906 119.882812 C 180.074219 120.269531 180.054688 120.558594 180.050781 120.972656 C 180.046875 121.453125 179.953125 121.648438 179.742188 122.0625 C 179.34375 122.835938 179.734375 123.476562 179.613281 124.273438 C 179.476562 125.132812 179.054688 125.992188 178.59375 126.710938 C 177.996094 127.644531 177.101562 127.886719 176.046875 128.105469 C 175.375 128.246094 174.492188 128.535156 173.96875 127.917969 C 173.425781 127.285156 173.484375 126.074219 173.519531 125.3125 C 173.605469 123.484375 174.367188 121.648438 175.046875 119.972656 L 179.832031 113.234375 " fill-opacity="1" fill-rule="nonzero"/><path fill="#f89e90" d="M 177.519531 109.199219 C 177.664062 108.464844 178.441406 107.148438 179.367188 107.289062 C 180.121094 107.398438 179.722656 108.417969 179.539062 108.847656 C 179.164062 109.71875 178.984375 110.59375 178.984375 111.535156 C 178.984375 111.960938 179.210938 113.863281 178.367188 113.753906 L 177.519531 109.199219 " fill-opacity="1" fill-rule="nonzero"/><path fill="#f89e90" d="M 124.683594 113.238281 C 125.183594 117.914062 130.335938 120.980469 134.164062 129.035156 C 137.179688 135.382812 140.984375 142.101562 143.285156 148.660156 C 144.199219 151.273438 142.535156 156.0625 140.066406 158.441406 C 136.320312 162.0625 131.46875 157.601562 128.773438 155.054688 C 116.472656 143.429688 116.710938 130.167969 112.691406 113.808594 L 124.683594 113.238281 " fill-opacity="1" fill-rule="nonzero"/><path fill="#f89e90" d="M 174.757812 125.027344 C 167.390625 128.316406 138.046875 141.382812 132.109375 148.902344 C 125.917969 156.746094 134.933594 159.734375 138.042969 159.824219 C 141.722656 159.9375 146.269531 157.199219 151.988281 154.195312 C 157.105469 151.507812 173.5 138.84375 178.59375 126.710938 C 177.238281 124.199219 177.191406 124.3125 174.757812 125.027344 " fill-opacity="1" fill-rule="nonzero"/><path fill="#281939" d="M 89.75 215.117188 C 91.539062 224.25 95.261719 232.941406 97.148438 242.070312 C 97.304688 242.824219 97.457031 243.652344 97.609375 244.515625 C 101.65625 246.164062 105.730469 247.734375 109.824219 249.226562 L 128.40625 249.226562 C 129.296875 245.171875 130.023438 241.070312 130.445312 236.847656 C 131.625 225.003906 131.554688 212.820312 130.261719 201 C 129.675781 195.667969 128.917969 188.28125 126.609375 181.972656 C 125.90625 180.058594 125.058594 178.246094 124.03125 176.617188 C 116.035156 179.394531 107 179.949219 98.738281 180.257812 C 96.398438 180.34375 94.097656 180.292969 91.808594 180.171875 C 88.109375 186.320312 87.050781 194.09375 87.644531 201.480469 C 88.015625 206.140625 88.863281 210.558594 89.75 215.117188 " fill-opacity="1" fill-rule="nonzero"/><path fill="#281939" d="M 92.714844 242.472656 C 93.503906 239.929688 94.21875 237.609375 94.859375 235.644531 C 97.667969 226.996094 103.90625 197.402344 101.675781 180.132812 C 100.691406 180.179688 99.710938 180.222656 98.738281 180.257812 C 90.019531 180.582031 81.734375 179.316406 73.402344 177.53125 C 67.0625 184.039062 62.652344 192.800781 61.394531 200.597656 C 60.039062 209.011719 59.265625 216.933594 58.980469 225.265625 C 69.746094 231.824219 81.089844 237.503906 92.714844 242.472656 " fill-opacity="1" fill-rule="nonzero"/><path fill="#281939" d="M 109.0625 62.679688 C 110.253906 62.71875 109.863281 61.195312 110.089844 60.464844 C 110.441406 59.332031 110.976562 59.828125 111.882812 60.222656 C 112.988281 60.699219 113.265625 60.304688 114.269531 59.839844 C 115.363281 59.332031 115.890625 59.820312 116.972656 59.839844 C 118.976562 59.875 118.886719 57.597656 119.855469 56.597656 C 120.839844 55.582031 119.855469 55.617188 120.171875 54.460938 C 120.367188 53.75 121.429688 53.765625 121.464844 52.925781 C 121.496094 52.207031 120.679688 52.09375 120.605469 51.425781 C 120.507812 50.492188 121.882812 49.921875 121.347656 49.027344 C 120.765625 48.066406 119.042969 48.648438 118.515625 47.511719 C 118.136719 46.695312 119.230469 45.839844 118.632812 45.28125 C 118.277344 44.941406 117.242188 45.039062 116.753906 44.730469 C 116.164062 44.359375 115.914062 43.871094 115.609375 43.285156 C 115.242188 42.554688 114.410156 42.160156 114.171875 41.367188 C 113.886719 40.445312 115.035156 38.632812 114.085938 37.980469 C 113.0625 37.277344 111.097656 38.96875 109.796875 38.417969 C 108.664062 37.945312 109.273438 36.972656 108.632812 36.265625 C 107.839844 35.394531 106.582031 36.441406 105.683594 36.4375 C 104.515625 36.4375 104.019531 34.796875 102.964844 35.402344 C 102.335938 35.765625 102.089844 36.648438 101.308594 36.886719 C 100.511719 37.125 100.019531 36.617188 99.375 36.265625 C 96.222656 34.554688 96.9375 40.4375 94.03125 39.464844 C 92.503906 38.953125 91.828125 37.375 90.023438 37.554688 C 88.667969 37.691406 87.546875 38.5 86.875 39.644531 C 86.621094 40.085938 86.507812 40.523438 86.089844 40.863281 C 85.304688 41.507812 84.269531 41.320312 83.382812 41.675781 C 81.332031 42.484375 82.839844 44.363281 82.289062 45.863281 C 82.054688 46.5 81.347656 46.894531 81.039062 47.519531 C 80.546875 48.507812 80.925781 49.117188 81.070312 50.085938 C 81.289062 51.492188 79.585938 52.25 79.898438 53.511719 C 80.039062 54.089844 80.878906 54.859375 81.238281 55.320312 C 81.828125 56.082031 82.40625 56.828125 82.890625 57.652344 C 83.359375 58.4375 83.867188 59.042969 84.414062 59.742188 C 84.910156 60.371094 85.554688 60.984375 85.957031 61.632812 C 86.285156 62.171875 86.363281 62.683594 87.136719 62.847656 C 87.714844 62.972656 88.460938 62.765625 89.058594 62.75 C 90.644531 62.722656 91.695312 61.746094 93.21875 61.398438 C 94.871094 61.023438 96.597656 61.261719 98.261719 60.886719 C 100.386719 60.40625 101.613281 60.5625 103.59375 61.386719 L 109.0625 62.679688 " fill-opacity="1" fill-rule="nonzero"/><path fill="#f89e90" d="M 84.148438 114.019531 C 87.105469 117.996094 90.273438 121.910156 93.988281 125.214844 C 97.425781 128.273438 102.265625 132.128906 107.140625 132.097656 C 112.445312 132.070312 116.101562 127.976562 118.683594 123.757812 C 120.625 120.582031 122.265625 117.214844 123.757812 113.789062 C 122.144531 108.429688 119.582031 103.367188 115.429688 98.761719 C 112.832031 95.875 108.4375 91.261719 104.332031 89.714844 C 104.527344 91.335938 89.605469 95.28125 88.828125 89.046875 C 84.332031 89.910156 79.996094 93.140625 77.003906 97.222656 C 76.261719 98.238281 75.625 99.292969 75.039062 100.371094 C 77.828125 105.070312 80.875 109.613281 84.148438 114.019531 " fill-opacity="1" fill-rule="nonzero"/><path fill="#fcd891" d="M 63.402344 189.578125 C 63.390625 188.886719 63.449219 188.117188 63.578125 187.269531 C 64.484375 181.3125 65.96875 175.386719 66.816406 169.363281 C 67.503906 164.464844 69.144531 159.84375 70.078125 154.988281 C 71.949219 145.222656 69.886719 134.589844 69.851562 124.691406 C 69.824219 115.070312 70.507812 104.816406 76.398438 96.773438 C 77.886719 94.746094 79.71875 92.914062 81.703125 91.476562 L 82.351562 91.007812 C 82.351562 91.007812 94.023438 107.324219 104.785156 105.757812 C 112.53125 104.625 109.476562 91.898438 109.476562 91.898438 L 110.789062 93.039062 C 112.894531 94.882812 114.765625 96.898438 115.988281 98.253906 C 125.71875 109.050781 126.921875 122.335938 127.359375 136.136719 C 127.480469 140.121094 127.792969 144.226562 128.089844 148.195312 C 128.664062 155.816406 128.886719 163.332031 130.019531 170.917969 C 131.066406 177.914062 135.320312 189.617188 124.300781 191.242188 C 119.324219 191.976562 114.316406 190.574219 109.390625 190.710938 C 102.441406 190.90625 95.421875 190.460938 88.5625 191.214844 C 81.265625 192.019531 63.570312 200.804688 63.402344 189.578125 " fill-opacity="1" fill-rule="nonzero"/><path fill="#e5ae60" d="M 82.449219 127.226562 C 82.394531 129.515625 82.066406 132.253906 81.023438 134.207031 C 80.929688 134.386719 80.996094 134.609375 81.175781 134.703125 C 81.355469 134.796875 81.578125 134.730469 81.671875 134.550781 C 82.804688 132.40625 83.121094 129.589844 83.179688 127.242188 C 83.183594 127.042969 83.023438 126.875 82.824219 126.867188 C 82.621094 126.863281 82.453125 127.023438 82.449219 127.226562 " fill-opacity="1" fill-rule="nonzero"/><path fill="#e5ae60" d="M 81.566406 94.054688 C 82.242188 95.441406 83.5625 96.398438 84.488281 97.367188 C 87.011719 99.96875 89.644531 101.648438 92.492188 103.71875 C 92.652344 103.835938 92.882812 103.800781 93.003906 103.636719 C 93.121094 103.472656 93.085938 103.242188 92.921875 103.125 C 90.046875 101.039062 87.464844 99.386719 85.015625 96.855469 C 84.019531 95.835938 82.777344 94.898438 82.226562 93.738281 C 82.140625 93.554688 81.921875 93.476562 81.738281 93.566406 C 81.558594 93.652344 81.480469 93.871094 81.566406 94.054688 " fill-opacity="1" fill-rule="nonzero"/><path fill="#e5ae60" d="M 111.300781 97.75 L 111.300781 97.941406 C 111.300781 99.484375 110.9375 101.347656 110.214844 102.976562 C 109.492188 104.609375 108.410156 105.996094 107.019531 106.664062 C 106.835938 106.75 106.757812 106.96875 106.847656 107.152344 C 106.933594 107.335938 107.152344 107.410156 107.335938 107.324219 C 108.949219 106.542969 110.113281 105.003906 110.882812 103.273438 C 111.652344 101.539062 112.03125 99.597656 112.035156 97.941406 C 112.035156 97.871094 112.03125 97.804688 112.03125 97.734375 C 112.027344 97.535156 111.859375 97.371094 111.660156 97.375 C 111.457031 97.382812 111.296875 97.546875 111.300781 97.75 " fill-opacity="1" fill-rule="nonzero"/><path fill="#e5ae60" d="M 122.757812 160.867188 C 122.546875 161.863281 122.464844 162.882812 122.464844 163.910156 C 122.46875 168.121094 123.835938 172.535156 123.832031 176.589844 C 123.828125 179.253906 123.257812 181.738281 121.371094 183.96875 C 121.238281 184.125 121.257812 184.355469 121.414062 184.484375 C 121.566406 184.617188 121.796875 184.597656 121.929688 184.441406 C 123.953125 182.058594 124.566406 179.351562 124.5625 176.589844 C 124.558594 172.378906 123.191406 167.964844 123.195312 163.910156 C 123.195312 162.921875 123.277344 161.953125 123.472656 161.015625 C 123.515625 160.820312 123.386719 160.625 123.191406 160.582031 C 122.992188 160.539062 122.796875 160.667969 122.757812 160.867188 " fill-opacity="1" fill-rule="nonzero"/><path fill="#e5ae60" d="M 99.160156 169.195312 C 98.222656 170.9375 97.875 172.796875 97.480469 174.609375 C 97.082031 176.421875 96.640625 178.183594 95.570312 179.792969 C 94.261719 181.746094 92.714844 183.035156 90.988281 184.144531 C 89.257812 185.253906 87.351562 186.175781 85.371094 187.371094 C 85.199219 187.476562 85.144531 187.703125 85.25 187.875 C 85.355469 188.050781 85.578125 188.105469 85.75 188 C 87.691406 186.820312 89.601562 185.902344 91.382812 184.761719 C 93.160156 183.625 94.808594 182.257812 96.179688 180.199219 C 97.339844 178.457031 97.796875 176.585938 98.195312 174.761719 C 98.589844 172.9375 98.933594 171.15625 99.804688 169.542969 C 99.902344 169.363281 99.835938 169.140625 99.65625 169.046875 C 99.480469 168.949219 99.257812 169.015625 99.160156 169.195312 " fill-opacity="1" fill-rule="nonzero"/><path fill="#e5ae60" d="M 75.121094 178.535156 C 75.125 178.695312 75.125 178.855469 75.125 179.015625 C 75.125 183.160156 74.070312 187.667969 71.878906 191.15625 C 71.769531 191.324219 71.824219 191.550781 71.996094 191.660156 C 72.164062 191.769531 72.390625 191.714844 72.5 191.546875 C 74.785156 187.90625 75.855469 183.28125 75.859375 179.015625 C 75.859375 178.847656 75.855469 178.683594 75.851562 178.519531 C 75.847656 178.316406 75.683594 178.15625 75.480469 178.160156 C 75.277344 178.164062 75.117188 178.332031 75.121094 178.535156 " fill-opacity="1" fill-rule="nonzero"/><path fill="#f89e90" d="M 105.347656 96.824219 C 104.480469 91.515625 104.148438 88.503906 104.105469 86.765625 C 104.054688 84.621094 104.152344 78.179688 104.152344 78.179688 L 88.484375 78.097656 C 88.484375 78.097656 88.609375 85.050781 88.734375 87.195312 C 88.878906 89.636719 88.863281 93.292969 90.28125 96.042969 C 92.394531 100.148438 106.5 103.828125 105.347656 96.824219 " fill-opacity="1" fill-rule="nonzero"/><path fill="#281939" d="M 81.050781 52.605469 C 81.0625 56.210938 81.554688 61.601562 82.203125 65.242188 C 82.625 67.582031 83.09375 69.78125 84.09375 71.898438 C 84.566406 72.90625 85.148438 73.929688 85.988281 74.703125 C 86.621094 75.28125 87.660156 75.894531 88.511719 76.003906 C 90.914062 76.308594 91.089844 73.394531 91.101562 71.5625 C 91.117188 68.667969 90.609375 65.5 89.699219 62.75 L 81.050781 52.605469 " fill-opacity="1" fill-rule="nonzero"/><path fill="#f89e90" d="M 109.15625 51.933594 C 106.78125 50.074219 103.71875 49.011719 100.816406 48.480469 C 98.65625 48.085938 95.308594 48.816406 93.273438 49.484375 C 91.445312 50.085938 89.953125 49.746094 88.464844 51.230469 C 87.730469 51.964844 86.722656 53.179688 86.257812 54.097656 C 85.554688 55.488281 85.980469 57.4375 85.820312 58.949219 C 85.660156 60.480469 85.800781 62.117188 85.804688 63.660156 C 85.816406 67.75 86.203125 75.734375 89.542969 79.660156 C 92.789062 83.488281 97.863281 84.394531 101.121094 84.410156 C 104.375 84.429688 105.847656 83.929688 108.644531 79.761719 C 109.933594 77.84375 110.949219 75.835938 111.523438 73.382812 C 112.347656 69.929688 112.519531 66.199219 112.550781 63.808594 C 112.601562 59.910156 113.410156 56.230469 110.488281 53.140625 C 110.078125 52.703125 109.628906 52.300781 109.15625 51.933594 " fill-opacity="1" fill-rule="nonzero"/><path fill="#fcd891" d="M 134.28125 128.335938 C 135.3125 127.699219 136.3125 127.023438 137.300781 126.328125 C 135.5 121.761719 133.894531 118.019531 133.132812 116.191406 C 130.371094 109.539062 115.03125 97.210938 115.03125 97.210938 C 115.03125 97.210938 122.753906 113.988281 124.765625 133.132812 C 128.058594 131.804688 131.25 130.222656 134.28125 128.335938 " fill-opacity="1" fill-rule="nonzero"/><path fill="#281939" d="M 111.664062 63.898438 L 111.667969 63.894531 L 111.667969 63.898438 L 111.664062 63.898438 " fill-opacity="1" fill-rule="nonzero"/><path fill="#281939" d="M 84.667969 59.207031 C 84.542969 58.863281 84.59375 58.710938 84.613281 58.316406 C 84.632812 57.839844 84.585938 57.390625 84.648438 56.9375 C 84.757812 56.144531 84.632812 55.894531 85.054688 55.054688 C 85.265625 54.632812 85.085938 54.113281 85.308594 53.707031 C 85.484375 53.394531 85.996094 53.253906 86.199219 52.976562 C 86.394531 52.714844 86.398438 52.261719 86.679688 52.019531 C 87.027344 51.722656 87.539062 51.710938 87.78125 51.414062 C 88.097656 51.03125 88.195312 50.738281 88.621094 50.445312 C 89.167969 50.066406 89.78125 49.621094 90.339844 49.292969 C 91.089844 48.851562 91.679688 49.328125 92.289062 49.398438 C 92.398438 49.085938 92.789062 48.890625 93.207031 48.925781 C 93.367188 48.730469 93.53125 48.53125 93.742188 48.4375 C 94.148438 48.25 94.570312 48.3125 94.996094 48.273438 C 95.101562 48.25 95.207031 48.226562 95.308594 48.207031 C 95.734375 48.078125 96.125 47.730469 96.5 47.6875 C 96.664062 47.667969 96.917969 47.691406 97.066406 47.738281 L 97.039062 47.898438 C 97.460938 47.835938 97.882812 47.792969 98.363281 47.808594 C 99.90625 47.855469 101.375 48.171875 102.800781 48.601562 C 104.121094 48.496094 105.222656 49.542969 106.441406 49.566406 C 106.808594 49.566406 107.652344 49.601562 107.988281 49.550781 C 108.539062 49.472656 108.652344 49 109.195312 49.0625 C 109.457031 49.09375 110.574219 49.828125 110.816406 49.984375 C 111.421875 50.375 111.382812 50.628906 111.304688 51.15625 C 111.226562 51.710938 111.257812 51.941406 111.535156 52.457031 C 111.8125 52.964844 113.09375 52.90625 113.601562 53.316406 C 114.179688 53.785156 113.402344 54.496094 113.617188 55.144531 C 113.761719 55.574219 113.835938 56.089844 113.90625 56.539062 C 114.066406 57.59375 113.910156 58.71875 113.90625 59.777344 C 113.902344 60.589844 113.851562 61.007812 113.144531 61.589844 C 112.804688 61.863281 112.644531 62.539062 112.527344 63.285156 C 112.375 62.261719 111.984375 61.28125 111.417969 60.398438 C 111.328125 60.203125 111.246094 60.003906 111.15625 59.808594 L 111.121094 59.765625 C 110.949219 59.429688 110.738281 59.101562 110.472656 58.78125 C 110.164062 58.414062 110.113281 58.007812 109.8125 57.644531 C 109.402344 57.144531 108.628906 56.902344 108.105469 56.484375 C 107.109375 55.6875 106.230469 55.121094 104.785156 54.742188 C 102.921875 54.25 101.058594 53.746094 99.164062 54.148438 C 99.9375 53.535156 100.636719 53.691406 101.667969 53.667969 C 102.871094 53.644531 104.03125 53.625 105.230469 53.625 C 105.695312 53.625 108.015625 54.082031 107.46875 53.449219 C 107.214844 53.15625 106.632812 53.203125 106.261719 53.160156 C 105.867188 53.109375 105.378906 52.933594 104.945312 52.886719 C 103.960938 52.78125 102.898438 52.746094 101.847656 52.777344 C 101.6875 52.796875 101.527344 52.816406 101.355469 52.832031 C 101.101562 52.859375 100.832031 52.890625 100.566406 52.921875 C 100.300781 52.957031 100.042969 53.039062 99.777344 53.09375 C 99.515625 53.160156 99.242188 53.207031 98.992188 53.285156 C 98.746094 53.371094 98.503906 53.460938 98.265625 53.542969 C 98.023438 53.621094 97.8125 53.71875 97.617188 53.820312 C 97.414062 53.921875 97.21875 54.007812 97.050781 54.101562 C 96.734375 54.304688 96.453125 54.464844 96.296875 54.601562 C 96.125 54.726562 96.039062 54.820312 96.039062 54.820312 L 95.886719 54.839844 L 95.851562 54.714844 C 95.851562 54.714844 95.921875 54.621094 96.089844 54.476562 C 96.242188 54.3125 96.503906 54.125 96.8125 53.886719 C 96.976562 53.777344 97.164062 53.671875 97.363281 53.550781 C 97.550781 53.425781 97.765625 53.304688 98.007812 53.203125 C 98.246094 53.097656 98.488281 52.984375 98.738281 52.875 C 98.992188 52.769531 99.269531 52.695312 99.539062 52.609375 C 99.8125 52.527344 100.082031 52.421875 100.359375 52.359375 C 100.640625 52.304688 100.917969 52.25 101.1875 52.203125 C 101.457031 52.148438 101.71875 52.097656 101.964844 52.050781 C 102.214844 52.019531 102.453125 52.011719 102.671875 51.992188 C 102.855469 51.976562 103.019531 51.964844 103.171875 51.953125 C 103.476562 51.925781 103.742188 51.898438 103.949219 51.875 C 104.503906 51.816406 105.761719 52.160156 106.046875 51.621094 C 105.675781 51.410156 105.140625 51.21875 104.695312 51.105469 C 104.152344 50.96875 103.585938 50.953125 103.019531 50.980469 C 102.773438 50.992188 102.453125 51.023438 102.058594 51.09375 C 101.84375 51.117188 101.617188 51.167969 101.378906 51.222656 C 101.136719 51.273438 100.882812 51.332031 100.628906 51.414062 C 100.105469 51.554688 99.570312 51.757812 99.042969 51.980469 C 97.984375 52.417969 97.019531 53.007812 96.34375 53.484375 C 95.660156 53.960938 95.273438 54.324219 95.273438 54.324219 L 95.125 54.34375 L 95.082031 54.226562 C 95.082031 54.226562 95.394531 53.804688 95.980469 53.234375 C 96.5625 52.660156 97.414062 51.929688 98.4375 51.3125 C 98.941406 51.007812 99.480469 50.710938 100.023438 50.480469 C 100.332031 50.335938 101.746094 49.980469 100.988281 49.648438 C 100.445312 49.410156 100.054688 49.6875 99.644531 49.941406 C 99.402344 50.09375 99.117188 50.269531 98.816406 50.453125 C 98.527344 50.660156 98.230469 50.890625 97.925781 51.117188 C 97.625 51.34375 97.304688 51.566406 97.035156 51.792969 C 96.765625 52.015625 96.511719 52.226562 96.296875 52.410156 C 95.855469 52.769531 95.578125 53.023438 95.578125 53.023438 L 95.441406 53.046875 L 95.386719 52.925781 C 95.386719 52.925781 95.578125 52.632812 95.894531 52.203125 C 96.054688 51.984375 96.238281 51.730469 96.4375 51.460938 C 96.632812 51.1875 96.878906 50.914062 97.109375 50.628906 C 97.410156 50.261719 97.730469 49.90625 98.039062 49.542969 C 97.898438 49.691406 97.316406 49.589844 97.113281 49.605469 C 96.640625 49.648438 96.523438 49.839844 96.25 50.109375 C 96.113281 50.246094 95.980469 50.417969 95.847656 50.605469 C 95.703125 50.789062 95.5625 50.988281 95.449219 51.203125 C 95.183594 51.617188 95.03125 52.0625 94.929688 52.398438 C 94.84375 52.742188 94.832031 52.96875 94.832031 52.96875 L 94.734375 53.054688 L 94.605469 52.980469 C 94.605469 52.980469 94.554688 52.738281 94.5625 52.371094 C 94.589844 52.011719 94.644531 51.515625 94.816406 51.042969 C 94.882812 50.800781 94.984375 50.566406 95.09375 50.347656 C 95.1875 50.132812 95.289062 49.925781 95.398438 49.761719 C 95.609375 49.421875 94.972656 49.332031 94.667969 49.355469 C 93.878906 49.40625 93.859375 50.023438 93.773438 50.484375 C 93.746094 50.628906 93.746094 50.78125 93.746094 50.941406 C 93.738281 51.253906 93.792969 51.574219 93.851562 51.816406 C 93.910156 52.054688 93.976562 52.210938 93.976562 52.210938 L 93.941406 52.304688 L 93.777344 52.296875 C 93.777344 52.296875 93.625 52.164062 93.429688 51.949219 C 93.238281 51.734375 93 51.429688 92.8125 51.097656 C 92.71875 50.933594 92.625 50.769531 92.566406 50.605469 C 92.5 50.4375 92.421875 50.285156 92.394531 50.148438 L 92.351562 49.988281 C 92.183594 49.949219 92.011719 49.917969 91.847656 49.941406 C 91.164062 50.050781 91.113281 50.375 91.074219 50.871094 C 91.117188 51.082031 91.21875 51.320312 91.332031 51.578125 C 91.464844 51.824219 91.628906 52.085938 91.839844 52.328125 C 92.257812 52.8125 92.84375 53.226562 93.355469 53.457031 C 93.863281 53.699219 94.246094 53.785156 94.246094 53.785156 L 94.324219 53.886719 L 94.195312 53.957031 C 94.195312 53.957031 93.761719 53.914062 93.175781 53.71875 C 92.582031 53.539062 91.84375 53.171875 91.242188 52.679688 C 90.945312 52.429688 90.695312 52.15625 90.480469 51.882812 C 90.273438 51.628906 90.15625 51.300781 90.019531 51.023438 C 89.960938 50.90625 89.921875 50.769531 89.730469 50.769531 C 89.535156 50.769531 89.488281 51.128906 89.347656 51.210938 C 89.203125 51.300781 88.820312 51.21875 88.703125 51.332031 C 88.417969 51.597656 88.371094 51.878906 88.328125 52.160156 C 88.3125 52.285156 88.207031 52.453125 88.285156 52.578125 C 88.40625 52.757812 88.75 52.6875 88.964844 52.71875 C 89.113281 52.738281 89.253906 52.789062 89.402344 52.824219 L 89.839844 52.949219 C 90.117188 53.054688 90.398438 53.144531 90.636719 53.257812 C 90.878906 53.367188 91.105469 53.46875 91.285156 53.570312 C 91.648438 53.761719 91.871094 53.914062 91.875 53.914062 L 91.898438 54.019531 L 91.746094 54.058594 C 91.746094 54.058594 91.484375 53.960938 91.085938 53.859375 C 90.886719 53.800781 90.644531 53.753906 90.394531 53.699219 C 89.925781 53.597656 89.4375 53.523438 88.949219 53.519531 C 88.441406 53.515625 88.050781 53.660156 87.574219 53.746094 C 87.136719 53.828125 86.921875 53.917969 86.75 54.242188 C 86.621094 54.496094 86.578125 54.78125 86.5625 55.054688 C 86.550781 55.203125 86.523438 55.417969 86.519531 55.628906 C 86.953125 55.308594 87.5625 55 88.203125 54.804688 C 89.578125 54.367188 90.988281 54.304688 90.988281 54.304688 L 91.109375 54.367188 L 91.03125 54.476562 C 91.03125 54.476562 90.710938 54.554688 90.246094 54.71875 C 89.785156 54.878906 89.1875 55.125 88.675781 55.425781 C 88.355469 55.613281 88.023438 55.804688 87.789062 56.058594 C 87.386719 56.492188 87.765625 56.902344 87.78125 57.367188 C 87.792969 57.785156 87.632812 58.199219 87.527344 58.609375 C 87.285156 59.515625 86.824219 60.210938 86.539062 61.132812 C 86.417969 61.519531 86.492188 63.6875 87.199219 65.867188 C 86.101562 65.789062 85.082031 61.691406 84.449219 61.425781 C 84.894531 60.835938 84.914062 59.863281 84.667969 59.207031 " fill-opacity="1" fill-rule="nonzero"/><path fill="#281939" d="M 95.882812 76.53125 C 96.121094 75.332031 96.757812 74.105469 98.214844 73.730469 C 98.929688 73.542969 99.597656 73.316406 100.351562 73.246094 C 100.9375 73.195312 103.445312 73.195312 104.03125 73.246094 C 104.785156 73.316406 105.449219 73.542969 106.167969 73.730469 C 107.625 74.105469 108.261719 75.332031 108.5 76.53125 C 108.761719 77.855469 108.015625 78.726562 106.847656 79.535156 C 106.3125 79.910156 105.773438 80.296875 105.167969 80.597656 C 104.390625 80.980469 104.171875 80.828125 103.742188 80.222656 C 103.339844 79.664062 102.789062 79.507812 102.191406 79.433594 C 101.589844 79.507812 101.042969 79.664062 100.640625 80.222656 C 100.210938 80.828125 99.992188 80.980469 99.214844 80.597656 C 98.609375 80.296875 98.070312 79.910156 97.535156 79.535156 C 96.367188 78.726562 95.621094 77.855469 95.882812 76.53125 Z M 85.679688 65.085938 C 85.796875 65.96875 85.929688 66.808594 85.992188 67.710938 C 86.074219 68.792969 86.15625 69.878906 86.300781 70.957031 C 86.441406 71.996094 86.460938 73.042969 86.605469 74.082031 C 86.632812 74.277344 86.800781 74.816406 87.042969 75.050781 C 86.941406 75.164062 86.914062 75.347656 86.898438 75.492188 C 86.859375 75.839844 87.300781 77.414062 87.863281 77.433594 C 87.839844 77.5625 87.863281 77.714844 87.898438 77.816406 C 88.050781 78.273438 88.476562 78.613281 88.84375 78.875 C 89 78.988281 89.242188 79.164062 89.488281 79.261719 C 89.558594 80.070312 90.941406 81.121094 91.511719 81.308594 L 91.640625 81.328125 L 91.675781 81.445312 C 91.960938 82.203125 92.851562 82.972656 93.660156 83.066406 C 93.738281 83.074219 93.960938 83.058594 94.15625 83.007812 C 94.304688 83.429688 94.847656 83.859375 95.148438 84.058594 C 95.605469 84.359375 96.15625 84.628906 96.714844 84.601562 C 96.8125 84.597656 96.925781 84.578125 97.027344 84.539062 C 97.28125 84.753906 97.597656 84.886719 97.890625 85.03125 C 98.324219 85.246094 98.996094 85.472656 99.511719 85.363281 C 99.578125 85.503906 99.660156 85.628906 99.71875 85.6875 C 100.160156 86.132812 101.007812 86.53125 101.636719 86.5 C 102.007812 86.484375 102.546875 86.285156 102.765625 86 C 102.796875 85.964844 102.839844 85.898438 102.882812 85.824219 C 103.230469 86.003906 103.761719 86.121094 103.925781 86.117188 C 104.40625 86.101562 104.757812 85.835938 105.164062 85.628906 C 105.390625 85.507812 105.617188 85.277344 105.75 85.011719 C 106.429688 85.585938 107.554688 84.609375 107.765625 83.929688 C 107.785156 83.867188 107.78125 83.726562 107.757812 83.570312 C 107.945312 83.632812 108.148438 83.675781 108.226562 83.675781 C 108.78125 83.695312 109.238281 83.410156 109.515625 82.929688 C 109.59375 82.789062 109.839844 82.246094 109.894531 81.824219 C 109.953125 81.8125 110.015625 81.792969 110.085938 81.753906 C 110.429688 81.558594 110.675781 81.21875 110.8125 80.855469 C 110.882812 80.667969 110.929688 80.464844 110.941406 80.265625 C 110.949219 80.105469 110.851562 79.839844 110.894531 79.695312 C 110.984375 79.414062 111.375 79.113281 111.515625 78.8125 C 111.660156 78.503906 111.785156 78.164062 111.832031 77.828125 C 111.863281 77.585938 111.777344 77.300781 111.660156 77.097656 C 112.359375 76.609375 112.417969 74.996094 112.136719 74.242188 C 112.636719 72.976562 112.363281 70.960938 112.316406 69.746094 C 112.265625 68.308594 112.546875 67.128906 112.535156 65.730469 C 112.292969 66.648438 112.007812 67.550781 111.714844 68.453125 C 111.601562 68.804688 111.5 69.15625 111.40625 69.511719 C 111.246094 70.304688 111.070312 71.089844 110.882812 71.878906 C 110.648438 72.832031 110.480469 73.8125 110.183594 74.722656 C 110.121094 74.902344 109.976562 75.15625 109.839844 75.421875 L 109.835938 75.359375 C 109.722656 74.96875 109.492188 74.523438 109.292969 74.171875 C 108.777344 73.269531 107.964844 72.71875 106.941406 72.527344 C 106.109375 72.367188 105.082031 72.140625 104.230469 72.128906 C 103.539062 72.121094 100.84375 72.121094 100.152344 72.128906 C 99.300781 72.140625 98.273438 72.367188 97.4375 72.527344 C 95.472656 72.898438 94.875 74.394531 94.546875 76.148438 C 93.246094 74.875 92.222656 73.402344 91.105469 71.960938 C 90.761719 71.515625 90.441406 71.050781 90.132812 70.582031 C 89.800781 70.074219 89.476562 69.566406 89.152344 69.070312 C 88.175781 67.59375 87.175781 65.957031 86.445312 64.363281 C 86.222656 63.878906 86.164062 63.191406 85.804688 62.800781 C 85.457031 63.273438 85.597656 64.484375 85.679688 65.085938 " fill-opacity="1" fill-rule="nonzero"/><path fill="#f89e90" d="M 86.101562 65.792969 C 86.101562 65.792969 83.585938 62.875 82.277344 65.410156 C 81.273438 67.34375 83.316406 73.078125 85.453125 72.808594 C 87.59375 72.53125 87.683594 67.902344 86.101562 65.792969 " fill-opacity="1" fill-rule="nonzero"/><path fill="#281939" d="M 85.589844 68.703125 C 85.394531 67.871094 85.101562 67.050781 84.550781 66.414062 C 84.308594 66.132812 84.035156 65.867188 83.660156 65.753906 C 82.589844 65.4375 82.621094 67.453125 82.632812 67.949219 C 82.515625 67.484375 82.394531 67.023438 82.488281 66.519531 C 82.550781 66.019531 82.867188 65.449219 83.445312 65.359375 C 83.945312 65.273438 84.347656 65.550781 84.679688 65.816406 C 85.164062 66.210938 85.523438 66.804688 85.738281 67.390625 C 86.0625 68.289062 86.15625 69.238281 86.269531 70.210938 C 86.058594 69.875 85.875 69.449219 85.578125 69.175781 C 85.164062 68.792969 84.78125 69.65625 84.707031 69.976562 C 84.59375 70.480469 84.722656 70.960938 85.144531 71.21875 C 84.554688 71.023438 84.359375 70.414062 84.46875 69.820312 C 84.554688 69.324219 84.957031 68.582031 85.589844 68.703125 " fill-opacity="1" fill-rule="nonzero"/><path fill="#e5ad7f" d="M 125.101562 136.042969 C 127.671875 135.261719 131.144531 134.328125 132.257812 135.84375 C 133.160156 137.074219 132.109375 141.058594 131.488281 142.707031 C 130.191406 146.175781 125.125 149.925781 124.257812 153.527344 C 123.289062 157.542969 127.375 160.332031 131.636719 160.824219 C 138.804688 161.65625 146.054688 157.691406 153.238281 153.40625 C 158.753906 150.117188 162.546875 147.933594 166.863281 142.398438 C 171.328125 136.667969 175.78125 130.066406 177.355469 123.113281 C 178.496094 118.070312 178.84375 114.378906 178.085938 109.746094 C 176.722656 101.367188 171.554688 95.308594 164.023438 93.941406 C 161.023438 93.394531 157.925781 93.03125 154.632812 93.75 C 150.734375 94.605469 147.164062 97.902344 143.742188 100.730469 C 136.449219 106.746094 129.445312 113.558594 124.34375 122.058594 C 122.757812 124.703125 117.03125 130.230469 117.078125 133.691406 C 117.105469 135.515625 120.152344 137.410156 123.148438 136.625 C 123.664062 136.492188 124.34375 136.277344 125.101562 136.042969 " fill-opacity="1" fill-rule="nonzero"/><path fill="#fde8d5" d="M 123.101562 134.757812 C 125.675781 133.980469 129.144531 133.042969 130.261719 134.558594 C 131.164062 135.789062 130.109375 139.773438 129.496094 141.421875 C 128.199219 144.886719 125.59375 147.875 124.640625 151.453125 C 123.25 156.671875 125.378906 159.046875 129.640625 159.539062 C 136.808594 160.367188 144.058594 156.40625 151.238281 152.121094 C 156.757812 148.832031 160.554688 146.652344 164.867188 141.109375 C 169.328125 135.378906 173.785156 128.78125 175.359375 121.828125 C 176.5 116.785156 176.847656 113.09375 176.089844 108.460938 C 174.726562 100.082031 169.558594 94.023438 162.027344 92.65625 C 159.023438 92.109375 155.929688 91.746094 152.636719 92.46875 C 148.738281 93.320312 145.167969 96.617188 141.746094 99.445312 C 134.453125 105.460938 127.449219 112.273438 122.347656 120.773438 C 119.925781 124.808594 112.457031 137.621094 121.152344 135.339844 C 121.667969 135.207031 122.347656 134.992188 123.101562 134.757812 " fill-opacity="1" fill-rule="nonzero"/><path fill="#7a93d3" d="M 146.679688 100.742188 C 146.492188 101.0625 146.347656 101.398438 146.269531 101.75 C 145.964844 103.078125 146.269531 105.515625 146.898438 106.449219 C 147.65625 107.578125 148.246094 106.691406 149.121094 106.375 C 149.789062 106.132812 150.457031 106.238281 151.109375 106.015625 C 152.515625 105.527344 153.53125 102.84375 153.925781 100.734375 C 154.542969 97.410156 152.363281 97.261719 150.808594 97.730469 C 149.746094 98.046875 147.632812 99.152344 146.679688 100.742188 " fill-opacity="1" fill-rule="nonzero"/><path fill="#ffffff" d="M 133.527344 110.433594 C 133.335938 110.75 133.195312 111.089844 133.113281 111.445312 C 132.8125 112.769531 133.117188 115.203125 133.742188 116.140625 C 134.503906 117.273438 135.09375 116.382812 135.972656 116.066406 C 136.636719 115.824219 137.300781 115.929688 137.957031 115.703125 C 139.363281 115.21875 140.378906 112.535156 140.773438 110.421875 C 141.390625 107.101562 139.210938 106.953125 137.65625 107.417969 C 136.589844 107.734375 134.480469 108.84375 133.527344 110.433594 " fill-opacity="1" fill-rule="nonzero"/><path fill="#ec442c" d="M 161.710938 97.886719 C 161.410156 98.003906 161.109375 98.171875 160.835938 98.417969 C 159.796875 99.328125 158.28125 101.738281 157.9375 103.113281 C 157.519531 104.773438 158.394531 104.503906 159.019531 104.984375 C 159.492188 105.347656 159.726562 106.023438 160.183594 106.394531 C 161.167969 107.1875 163.460938 105.699219 165.074219 104.179688 C 167.617188 101.785156 166.710938 99.757812 165.671875 98.816406 C 164.964844 98.171875 163.234375 97.308594 161.710938 97.886719 " fill-opacity="1" fill-rule="nonzero"/><path fill="#f68c41" d="M 170.789062 109.308594 C 170.519531 109.132812 170.226562 109.03125 169.910156 109.027344 C 168.722656 109.015625 166.421875 110.21875 165.46875 111.421875 C 164.316406 112.875 165.058594 113.445312 165.230469 114.613281 C 165.363281 115.496094 165.171875 116.488281 165.292969 117.367188 C 165.546875 119.238281 167.894531 119.855469 169.796875 119.757812 C 172.789062 119.601562 173.226562 116.414062 173.011719 114.3125 C 172.863281 112.875 172.128906 110.179688 170.789062 109.308594 " fill-opacity="1" fill-rule="nonzero"/><path fill="#f47338" d="M 166.09375 132.167969 C 166.226562 131.765625 166.300781 131.382812 166.285156 131.027344 C 166.226562 129.699219 165.050781 127.855469 163.953125 127.507812 C 162.625 127.089844 162.171875 128.25 161.167969 129.136719 C 160.410156 129.808594 159.535156 130.1875 158.78125 130.839844 C 157.171875 132.234375 156.765625 135.214844 156.957031 137.273438 C 157.265625 140.507812 160.0625 139.101562 161.871094 137.613281 C 163.109375 136.601562 165.414062 134.179688 166.09375 132.167969 " fill-opacity="1" fill-rule="nonzero"/><path fill="#263a68" d="M 152.554688 143.660156 C 152.78125 143.289062 152.949219 142.914062 153.03125 142.539062 C 153.339844 141.140625 152.8125 138.816406 151.949219 138.074219 C 150.902344 137.179688 150.195312 138.234375 149.082031 138.808594 C 148.234375 139.246094 147.371094 139.332031 146.535156 139.753906 C 144.753906 140.648438 143.597656 143.605469 143.210938 145.808594 C 142.605469 149.277344 145.421875 148.78125 147.40625 147.859375 C 148.757812 147.234375 151.417969 145.515625 152.554688 143.660156 " fill-opacity="1" fill-rule="nonzero"/><path fill="#f89e90" d="M 178.234375 118.796875 C 178.476562 116.90625 173.507812 116.015625 175.320312 114.453125 C 177.070312 112.941406 179.535156 116.738281 179.683594 118.148438 C 179.785156 119.113281 179.445312 119.9375 178.757812 120.621094 L 178.234375 118.796875 " fill-opacity="1" fill-rule="nonzero"/><path fill="#f89e90" d="M 178.007812 120.457031 C 178.246094 118.566406 173.28125 117.679688 175.09375 116.113281 C 176.84375 114.601562 179.304688 118.394531 179.453125 119.808594 C 179.554688 120.773438 179.214844 121.597656 178.53125 122.28125 L 178.007812 120.457031 " fill-opacity="1" fill-rule="nonzero"/><path fill="#f89e90" d="M 178.53125 116.878906 C 178.765625 114.988281 173.800781 114.097656 175.617188 112.535156 C 177.363281 111.023438 179.824219 114.816406 179.976562 116.230469 C 180.078125 117.191406 179.738281 118.019531 179.050781 118.699219 L 178.53125 116.878906 " fill-opacity="1" fill-rule="nonzero"/><path fill="#f89e90" d="M 178.820312 114.957031 C 179.058594 113.070312 174.09375 112.179688 175.90625 110.609375 C 177.65625 109.101562 180.121094 112.894531 180.269531 114.308594 C 180.371094 115.273438 180.03125 116.097656 179.34375 116.78125 L 178.820312 114.957031 " fill-opacity="1" fill-rule="nonzero"/><path fill="#f89e90" d="M 75.039062 120.097656 C 75.039062 125.28125 76.855469 128.351562 76.449219 137.261719 C 76.125 144.285156 73.296875 152.128906 72.246094 158.996094 C 71.820312 161.738281 71.648438 165.054688 68.359375 165.992188 C 63.347656 167.429688 61.15625 161.214844 59.976562 157.699219 C 54.578125 141.652344 56.566406 136.640625 60.707031 120.3125 L 75.039062 120.097656 " fill-opacity="1" fill-rule="nonzero"/><path fill="#efaab7" d="M 151.539062 148.65625 C 151.539062 148.65625 148.757812 147.445312 144.527344 145.804688 C 142.402344 144.988281 139.9375 144.035156 137.273438 143.0625 C 134.621094 142.070312 131.773438 141.078125 128.925781 140.066406 C 126.070312 139.078125 123.21875 138.105469 120.535156 137.203125 C 117.847656 136.320312 115.320312 135.558594 113.132812 134.992188 C 108.769531 133.800781 105.75 133.332031 105.75 133.332031 C 105.027344 133.222656 104.503906 133.507812 104.589844 133.964844 C 104.640625 134.257812 104.941406 134.558594 105.324219 134.761719 C 105.324219 134.757812 108.050781 136.179688 112.285156 137.804688 C 114.398438 138.644531 116.894531 139.523438 119.578125 140.402344 C 122.269531 141.261719 125.148438 142.164062 128.03125 143.058594 C 130.917969 143.921875 133.804688 144.804688 136.519531 145.570312 C 139.238281 146.363281 141.789062 147.050781 143.972656 147.640625 C 148.34375 148.820312 151.289062 149.484375 151.289062 149.484375 C 151.707031 149.578125 152.039062 149.449219 152.042969 149.199219 C 152.046875 149.003906 151.835938 148.785156 151.539062 148.65625 " fill-opacity="1" fill-rule="nonzero"/><path fill="#f89e90" d="M 117.671875 142.839844 C 117.773438 139.964844 120.621094 139.542969 122.855469 138.707031 C 124.484375 138.101562 127.5625 136.652344 128.339844 138.957031 C 128.566406 139.625 128.660156 140.367188 128.410156 140.921875 C 129.785156 141.253906 130.9375 142.039062 131.171875 143.492188 C 131.597656 146.09375 130.417969 149.597656 127.726562 150.414062 C 126.277344 150.851562 125.453125 150.199219 125.15625 149.320312 C 124.480469 151.085938 124.296875 153.066406 123.660156 154.851562 C 123.265625 155.957031 122.890625 157.242188 122.054688 158.140625 C 121.023438 159.242188 120.582031 160.191406 115.011719 160.480469 L 111.109375 155.738281 C 115.390625 155.785156 117.480469 154.863281 117.925781 152.199219 C 118.4375 149.121094 117.550781 145.957031 117.671875 142.839844 " fill-opacity="1" fill-rule="nonzero"/><path fill="#f89e90" d="M 66.621094 151.148438 C 75.203125 146.890625 107.269531 155.945312 115.335938 156.121094 C 117.835938 156.515625 118.742188 157.183594 118.890625 160.035156 C 111.5625 161.832031 86.898438 167.117188 81.121094 167.363281 C 74.664062 167.628906 69.386719 168.160156 66.109375 166.484375 C 63.339844 165.074219 57.675781 155.59375 66.621094 151.148438 " fill-opacity="1" fill-rule="nonzero"/><path fill="#211215" d="M 157.730469 148.78125 C 159.007812 149.375 155.964844 153.570312 151.117188 151.921875 C 149.660156 151.425781 148.882812 149.84375 149.378906 148.390625 C 149.875 146.9375 152.253906 145.8125 153.6875 147.644531 C 156.058594 150.675781 157.230469 148.542969 157.730469 148.78125 " fill-opacity="1" fill-rule="nonzero"/><path fill="#ec442c" d="M 157.945312 149.84375 C 158.1875 149.3125 158.117188 148.886719 157.761719 148.722656 C 157.601562 148.65625 157.414062 148.753906 157.179688 148.886719 C 156.714844 149.140625 156 149.527344 154.980469 148.835938 C 154.722656 148.65625 154.457031 148.425781 154.1875 148.140625 L 154.136719 148.117188 C 153.59375 148.226562 153.332031 148.363281 153.289062 148.558594 C 153.25 148.71875 153.363281 148.890625 153.636719 149.085938 C 153.679688 149.121094 153.742188 149.164062 153.816406 149.203125 L 154.003906 149.324219 C 154.234375 149.480469 154.316406 149.613281 154.25 149.757812 C 154.140625 150.027344 153.648438 150.011719 153.285156 150 C 153.136719 149.996094 153.003906 149.992188 152.914062 150.003906 C 152.78125 150.023438 152.464844 150.09375 152.351562 150.3125 C 152.292969 150.425781 152.296875 150.554688 152.371094 150.691406 C 152.425781 150.804688 152.539062 150.886719 152.652344 150.964844 C 152.855469 151.113281 152.96875 151.207031 152.859375 151.398438 C 152.75 151.597656 152.523438 151.65625 152.285156 151.722656 C 152.050781 151.78125 151.808594 151.847656 151.660156 152.046875 L 151.648438 152.101562 L 151.667969 152.132812 L 151.6875 152.144531 C 154.894531 152.953125 157.316406 151.25 157.945312 149.84375 " fill-opacity="1" fill-rule="nonzero"/><path fill="#fcd891" d="M 78.015625 139.953125 C 75.953125 124.664062 76.113281 97.210938 76.113281 97.210938 C 76.113281 97.210938 66.472656 104.359375 62.347656 110.261719 C 55.21875 120.457031 55.5625 134.179688 56.519531 142.039062 C 63.214844 143.902344 70.253906 142.929688 78.015625 139.953125 " fill-opacity="1" fill-rule="nonzero"/><path fill="#e5ae60" d="M 79.023438 122.320312 C 79.3125 125.058594 79.453125 127.09375 79.453125 128.84375 C 79.453125 132.46875 78.847656 134.886719 77.65625 139.867188 C 77.609375 140.066406 77.730469 140.261719 77.929688 140.308594 C 78.125 140.355469 78.324219 140.234375 78.371094 140.039062 C 79.558594 135.074219 80.1875 132.5625 80.1875 128.84375 C 80.1875 127.054688 80.042969 124.992188 79.75 122.242188 C 79.730469 122.039062 79.546875 121.894531 79.347656 121.914062 C 79.144531 121.9375 79 122.117188 79.023438 122.320312 " fill-opacity="1" fill-rule="nonzero"/><path fill="#ea746a" d="M 74.414062 149.585938 C 74.289062 149.574219 74.164062 149.570312 74.039062 149.570312 C 72.285156 149.574219 70.46875 150.375 69.34375 151.730469 C 69.214844 151.886719 69.234375 152.121094 69.390625 152.246094 C 69.546875 152.375 69.777344 152.355469 69.90625 152.199219 C 70.867188 151.03125 72.507812 150.300781 74.039062 150.304688 C 74.144531 150.304688 74.253906 150.308594 74.363281 150.316406 C 74.5625 150.328125 74.738281 150.175781 74.753906 149.976562 C 74.765625 149.773438 74.613281 149.597656 74.414062 149.585938 " fill-opacity="1" fill-rule="nonzero"/><path fill="#cf8064" d="M 216.9375 232.605469 C 228.324219 228.898438 239.628906 224.972656 250.550781 220.246094 L 260.050781 131.046875 L 145.882812 131.046875 L 133.296875 249.226562 L 159.433594 249.226562 C 179.097656 246.085938 198.042969 238.761719 216.9375 232.605469 " fill-opacity="1" fill-rule="nonzero"/><path fill="#fbc8a2" d="M 216.9375 232.605469 C 230.316406 228.25 243.578125 223.589844 256.242188 217.675781 L 265.464844 131.046875 L 151.300781 131.046875 L 138.714844 249.226562 L 159.433594 249.226562 C 179.097656 246.085938 198.042969 238.761719 216.9375 232.605469 " fill-opacity="1" fill-rule="nonzero"/><path fill="#fcdabb" d="M 216.9375 232.605469 C 228.089844 228.972656 239.160156 225.132812 249.871094 220.53125 L 258.546875 139.085938 L 156.507812 139.085938 L 144.777344 249.226562 L 159.433594 249.226562 C 179.097656 246.089844 198.039062 238.761719 216.9375 232.605469 " fill-opacity="1" fill-rule="nonzero"/><path fill="#f9b088" d="M 165.226562 145.984375 C 169.324219 141.597656 172.542969 136.582031 174.863281 131.050781 L 151.296875 131.050781 L 148.484375 157.472656 C 154.894531 155.769531 160.882812 150.640625 165.226562 145.984375 " fill-opacity="1" fill-rule="nonzero"/><path fill="#f9b088" d="M 251.546875 141.820312 C 254.390625 146.839844 258.082031 151.710938 262.953125 154.636719 L 265.464844 131.046875 L 247.09375 131.046875 C 248.117188 134.84375 249.667969 138.503906 251.546875 141.820312 " fill-opacity="1" fill-rule="nonzero"/><path fill="#82533c" d="M 216.9375 232.605469 C 218.121094 232.222656 219.300781 231.832031 220.484375 231.441406 L 221.039062 180.199219 L 216.222656 180.199219 L 215.644531 233.03125 C 216.074219 232.890625 216.507812 232.746094 216.9375 232.605469 " fill-opacity="1" fill-rule="nonzero"/><path fill="#82533c" d="M 202.949219 237.289062 L 217.425781 114.6875 L 212.605469 114.6875 L 197.929688 238.980469 C 199.605469 238.421875 201.28125 237.855469 202.949219 237.289062 " fill-opacity="1" fill-rule="nonzero"/><path fill="#82533c" d="M 218.238281 192.960938 L 191.449219 192.765625 C 191.046875 194.371094 190.582031 195.957031 190.105469 197.542969 L 218.472656 197.753906 C 218.40625 196.152344 218.335938 194.558594 218.238281 192.960938 " fill-opacity="1" fill-rule="nonzero"/><path fill="#82533c" d="M 227.167969 128.753906 L 200.382812 128.558594 C 199.976562 130.164062 199.515625 131.746094 199.039062 133.335938 L 227.40625 133.539062 C 227.339844 131.945312 227.269531 130.347656 227.167969 128.753906 " fill-opacity="1" fill-rule="nonzero"/><path fill="#82533c" d="M 182.308594 243.917969 L 196.65625 180.199219 L 191.835938 180.199219 L 177.164062 245.363281 C 178.882812 244.898438 180.597656 244.417969 182.308594 243.917969 " fill-opacity="1" fill-rule="nonzero"/><path fill="#82533c" d="M 212.269531 234.148438 L 204.453125 207.703125 L 203.058594 218.695312 L 208.027344 235.574219 C 209.441406 235.09375 210.855469 234.617188 212.269531 234.148438 " fill-opacity="1" fill-rule="nonzero"/><path fill="#c89da3" d="M 266.304688 207.085938 C 265.050781 207.117188 263.644531 207.472656 262.351562 207.667969 C 260.230469 207.992188 258.0625 208.363281 255.921875 208.832031 C 251.511719 209.78125 247.160156 210.816406 242.808594 211.882812 C 234.085938 214.046875 225.457031 216.597656 217.125 218.660156 C 199.757812 222.96875 183.191406 226.195312 166.597656 228.113281 C 153.164062 229.660156 139.667969 230.160156 125.949219 229.40625 C 117.269531 228.917969 108.464844 227.9375 99.71875 225.496094 C 91.148438 223.105469 82.648438 219.371094 74.644531 214.050781 C 59.621094 204.210938 45.839844 187.882812 39.222656 166.761719 C 38.382812 164.125 37.902344 160.976562 35.867188 159.433594 C 33.6875 157.769531 31.277344 159.242188 31.109375 162.539062 C 29.996094 183.714844 38.453125 206.675781 51.484375 223.058594 C 66.058594 241.800781 86.164062 253.226562 106.296875 257.222656 C 115.179688 259.03125 124.105469 259.78125 132.96875 259.773438 C 138.28125 259.765625 143.59375 259.597656 148.867188 259.097656 C 158.9375 258.152344 168.976562 256.472656 178.878906 253.984375 C 183.75 252.773438 188.613281 251.324219 193.457031 249.808594 C 198.320312 248.292969 203.15625 246.441406 207.996094 244.601562 C 211.867188 243.128906 215.714844 241.5 219.574219 239.765625 C 221.460938 238.910156 223.351562 238.058594 225.242188 237.152344 C 226.472656 236.566406 227.714844 235.863281 228.960938 235.316406 L 228.785156 235.375 C 233.242188 233.3125 237.652344 230.910156 242.128906 228.570312 C 246.445312 226.320312 250.773438 223.972656 255.152344 221.628906 C 257.355469 220.449219 259.570312 219.238281 261.78125 218.035156 C 262.996094 217.363281 264.269531 216.734375 265.460938 215.90625 C 269.535156 213.058594 270 206.945312 266.304688 207.085938 " fill-opacity="1" fill-rule="nonzero"/><path fill="#c89da3" d="M 47.542969 174.390625 C 47.847656 175.410156 48.191406 176.421875 48.554688 177.425781 C 49.449219 179.875 50.472656 182.296875 51.628906 184.589844 C 54.027344 189.355469 56.953125 193.808594 60.226562 197.628906 C 63.433594 201.382812 66.9375 204.527344 70.859375 206.765625 C 72.503906 207.703125 74.199219 208.511719 75.921875 209.054688 C 77.195312 209.445312 78.449219 209.246094 79.085938 207.941406 C 79.734375 206.601562 79.242188 205.199219 78.464844 203.949219 C 77.414062 202.257812 76.242188 200.65625 75.042969 199.089844 C 72.203125 195.394531 69.222656 191.726562 66.199219 188.167969 C 63.089844 184.507812 60.144531 180.667969 57.105469 176.773438 C 55.75 175.035156 54.371094 173.300781 52.957031 171.597656 C 52.078125 170.542969 51.023438 168.980469 49.863281 168.53125 C 47.984375 167.8125 46.378906 169.921875 47.011719 172.484375 C 46.933594 172.550781 47.5 174.261719 47.542969 174.390625 " fill-opacity="1" fill-rule="nonzero"/><path fill="#c89da3" d="M 94.9375 218.695312 C 96.632812 219.222656 98.421875 219.417969 100.109375 219.105469 C 101.390625 218.855469 102.320312 217.339844 101.277344 216.015625 C 98.941406 213.039062 95.035156 211.632812 91.75 210.703125 C 90.273438 210.296875 88.734375 209.976562 87.222656 209.988281 C 85.886719 209.984375 85.15625 211.769531 86.152344 213.011719 C 88.421875 215.808594 91.820312 217.738281 94.9375 218.695312 " fill-opacity="1" fill-rule="nonzero"/><path fill="#c89da3" d="M 256.921875 229.695312 C 252.886719 230.894531 248.691406 232.496094 244.671875 234.105469 C 239.683594 236.09375 234.683594 238.113281 229.785156 240.242188 C 224.984375 242.339844 220.371094 244.472656 215.78125 247.089844 C 213.886719 248.164062 212.003906 249.277344 210.203125 250.515625 C 208.84375 251.464844 207.882812 252.832031 208.136719 254.226562 C 208.402344 255.671875 209.753906 256.023438 211.242188 256.058594 C 213.320312 256.109375 215.484375 255.886719 217.652344 255.507812 C 222.722656 254.632812 227.941406 253.027344 233.050781 250.757812 C 238.292969 248.429688 243.472656 245.777344 248.585938 242.449219 C 250.894531 240.941406 253.167969 239.292969 255.375 237.480469 C 256.746094 236.351562 258.539062 235.003906 259.3125 233.351562 C 260.445312 230.902344 259.167969 229.03125 256.921875 229.695312 " fill-opacity="1" fill-rule="nonzero"/><path fill="#c89da3" d="M 198.507812 256.453125 C 194.84375 256.144531 190.5625 256.980469 186.847656 258.089844 C 184.824219 258.695312 182.808594 259.535156 181.027344 260.714844 C 179.675781 261.601562 179.082031 263.429688 180.746094 264.046875 C 184.511719 265.433594 189.71875 264.132812 193.730469 262.453125 C 195.546875 261.703125 197.355469 260.765625 198.929688 259.558594 C 200.320312 258.484375 200.121094 256.597656 198.507812 256.453125 " fill-opacity="1" fill-rule="nonzero"/></svg>