<svg xmlns="http://www.w3.org/2000/svg" xmlns:xlink="http://www.w3.org/1999/xlink" width="400" zoomAndPan="magnify" viewBox="0 0 300 299.999988" height="400" preserveAspectRatio="xMidYMid meet" version="1.0"><defs><clipPath id="78f7d11851"><path d="M 30 37.5 L 269 37.5 L 269 262.5 L 30 262.5 Z M 30 37.5 " clip-rule="nonzero"/></clipPath></defs><path fill="#f8da05" d="M 227.574219 143.625 C 222.238281 185.722656 172.832031 193.992188 150.253906 168.132812 C 139.957031 156.332031 137.453125 138.691406 141.15625 123.828125 C 141.746094 121.441406 142.570312 119.128906 143.660156 116.929688 C 146.15625 111.914062 149.617188 107.609375 153.742188 104.121094 C 149.066406 98.128906 146.257812 90.605469 146.257812 82.410156 C 146.257812 74.585938 148.886719 66.886719 153.699219 60.703125 C 156.078125 57.644531 158.960938 54.976562 162.199219 52.847656 C 163.828125 51.773438 165.546875 50.828125 167.332031 50.046875 C 168.136719 49.6875 172.121094 48.875 170.59375 47.5 C 170.222656 47.160156 169.722656 47.027344 169.265625 46.816406 C 168.105469 46.269531 167.242188 45.132812 167.023438 43.863281 C 167.851562 44.230469 168.675781 44.589844 169.503906 44.941406 C 169.746094 45.050781 170.023438 45.160156 170.285156 45.101562 C 170.761719 44.988281 170.925781 44.402344 171.054688 43.929688 C 171.691406 41.5 173.558594 39.421875 175.902344 38.523438 C 175.917969 39.683594 175.929688 40.84375 175.941406 42 C 177.050781 40.5 178.570312 39.304688 180.289062 38.582031 C 179.726562 38.820312 180.828125 42.019531 181.039062 42.34375 C 181.15625 42.53125 181.308594 42.722656 181.527344 42.761719 C 181.839844 42.820312 182.109375 42.550781 182.296875 42.300781 C 182.734375 41.703125 183.085938 41.042969 183.335938 40.34375 C 183.558594 39.703125 183.90625 38.871094 184.59375 38.921875 C 184.964844 38.945312 185.253906 39.246094 185.484375 39.542969 C 186.066406 40.300781 186.535156 41.140625 186.875 42.03125 C 187.734375 41.921875 188.011719 40.851562 188.195312 40.003906 C 188.242188 39.8125 188.292969 39.613281 188.441406 39.484375 C 188.765625 39.203125 189.300781 39.492188 189.460938 39.890625 C 189.621094 40.28125 189.5625 40.730469 189.613281 41.152344 C 189.660156 41.570312 189.894531 42.042969 190.320312 42.09375 C 190.203125 41.628906 190.792969 41.222656 191.269531 41.34375 C 191.734375 41.464844 192.050781 41.902344 192.273438 42.332031 C 192.5 42.761719 192.691406 43.238281 193.070312 43.542969 C 193.601562 43.972656 194.351562 43.96875 195.027344 44.121094 C 195.722656 44.289062 196.371094 44.652344 196.871094 45.160156 C 197.007812 45.527344 196.628906 45.886719 196.25 45.960938 C 195.878906 46.039062 195.480469 45.957031 195.109375 46.050781 C 192.523438 46.707031 195.421875 49.378906 196.277344 50 C 197.789062 51.109375 199.515625 51.875 201.097656 52.863281 C 204.355469 54.886719 207.246094 57.710938 209.589844 60.722656 C 214.386719 66.898438 217.015625 74.59375 217.015625 82.410156 C 217.015625 90.058594 214.5625 97.113281 210.441406 102.90625 C 215 106.167969 218.957031 110.277344 221.957031 115.164062 C 227.164062 123.636719 228.84375 133.664062 227.574219 143.625 " fill-opacity="1" fill-rule="nonzero"/><path fill="#231f20" d="M 170.660156 72.828125 C 169.332031 72.828125 168.261719 74.105469 168.261719 75.675781 C 168.261719 77.253906 169.332031 78.53125 170.660156 78.53125 C 171.984375 78.53125 173.0625 77.253906 173.0625 75.675781 C 173.0625 74.105469 171.984375 72.828125 170.660156 72.828125 Z M 190.421875 75.675781 C 190.421875 77.253906 191.492188 78.53125 192.820312 78.53125 C 194.148438 78.53125 195.21875 77.253906 195.21875 75.675781 C 195.21875 74.105469 194.148438 72.828125 192.820312 72.828125 C 191.492188 72.828125 190.421875 74.105469 190.421875 75.675781 Z M 189.554688 93.472656 L 181.554688 103.796875 L 173.472656 93.054688 C 183.375 87.789062 189.554688 93.472656 189.554688 93.472656 " fill-opacity="1" fill-rule="nonzero"/><path fill="#d2d3d2" d="M 267.363281 150.234375 C 269.023438 176.707031 258.546875 204.027344 239.386719 222.394531 C 227.953125 233.359375 213.382812 241.542969 197.835938 244.804688 C 143.058594 256.296875 97.671875 194.402344 102.988281 144.226562 C 103.667969 137.820312 105.007812 131.546875 106.234375 125.109375 C 107.484375 127.445312 108.738281 129.777344 109.988281 132.105469 C 111.421875 132.234375 112.421875 130.367188 113.855469 130.433594 C 115.394531 130.503906 115.882812 132.515625 116.960938 133.613281 C 118.101562 134.773438 120.019531 134.839844 121.511719 134.210938 C 123.015625 133.582031 124.195312 132.390625 125.335938 131.226562 C 126.984375 132.464844 128.632812 133.703125 130.277344 134.941406 C 130.984375 135.46875 131.746094 136.011719 132.625 136.011719 C 133.710938 136.011719 134.59375 135.164062 135.34375 134.382812 C 137.972656 131.652344 140.597656 128.914062 143.226562 126.179688 C 145.804688 128.382812 148.386719 130.585938 150.964844 132.785156 C 151.78125 133.480469 152.710938 134.214844 153.78125 134.132812 C 155.402344 134.011719 156.519531 132.050781 158.140625 132.152344 C 160.019531 132.273438 160.871094 135.023438 162.738281 135.132812 C 163.796875 135.203125 164.765625 134.363281 165.808594 134.5 C 166.507812 134.589844 167.074219 135.089844 167.714844 135.371094 C 169.355469 136.082031 171.265625 135.269531 172.699219 134.191406 C 174.128906 133.105469 175.390625 131.726562 177.0625 131.09375 C 179.765625 130.074219 182.835938 131.28125 185.117188 133.042969 C 187.40625 134.804688 189.242188 137.113281 191.589844 138.792969 C 196.277344 142.136719 201.046875 142.46875 205.875 139.078125 C 208.574219 137.171875 210.703125 134.59375 212.800781 132.050781 C 214.980469 134.285156 217.859375 136.71875 220.847656 135.800781 C 221.496094 135.601562 222.195312 135.25 222.8125 135.53125 C 223.375 135.792969 223.59375 136.46875 223.996094 136.941406 C 225.394531 138.601562 228.0625 137.257812 229.730469 135.859375 C 233.566406 132.652344 237.398438 129.445312 241.234375 126.234375 C 245.03125 132.804688 249.453125 139.902344 256.679688 142.226562 C 261.421875 143.75 264.324219 142.746094 265.910156 144.589844 C 266.710938 145.523438 267.171875 147.167969 267.363281 150.234375 " fill-opacity="1" fill-rule="nonzero"/><path fill="#e9eaea" d="M 113.644531 176.480469 C 115.324219 179.328125 117.632812 181.769531 119.230469 184.664062 C 120.160156 186.347656 120.847656 188.191406 122.007812 189.730469 C 123.179688 191.300781 124.554688 191.472656 126.046875 192.453125 C 128.667969 194.171875 131.402344 198.546875 135.199219 196.621094 C 135.71875 196.351562 136.171875 195.949219 136.730469 195.796875 C 138.511719 195.296875 139.867188 197.351562 140.566406 199.058594 C 144.726562 198.550781 148.925781 198.367188 153.113281 198.515625 C 154.484375 198.558594 155.917969 198.660156 157.089844 199.359375 C 159.230469 200.644531 159.90625 203.527344 161.910156 205.011719 C 160.066406 205.324219 158.269531 205.992188 156.667969 206.960938 C 160.757812 207.820312 164.847656 208.671875 168.941406 209.53125 C 169.542969 209.660156 170.191406 209.800781 170.621094 210.242188 C 171.253906 210.894531 171.210938 211.949219 171.035156 212.847656 C 170.863281 213.75 170.632812 214.710938 171.015625 215.546875 C 171.402344 216.371094 172.761719 216.730469 173.199219 215.929688 C 173.792969 218.566406 176.027344 220.757812 178.667969 221.304688 C 179.15625 221.40625 174.75 229.960938 174.269531 230.660156 C 172.359375 233.460938 169.941406 236.039062 167.542969 238.425781 C 162.816406 243.113281 157.542969 247.269531 151.832031 250.699219 C 140.40625 257.558594 127.285156 261.382812 113.941406 261.464844 C 87.546875 261.632812 63.550781 247.082031 48.695312 225.726562 C 42.960938 217.480469 38.554688 208.320312 35.574219 198.730469 C 34.035156 193.792969 32.875 188.742188 32.089844 183.628906 C 31.816406 181.859375 30.625 178.019531 31.410156 176.410156 C 31.898438 175.417969 34.132812 174.328125 34.988281 173.539062 C 36.292969 172.339844 37.484375 171.023438 38.554688 169.613281 C 40.875 171.691406 44.128906 172.691406 47.21875 172.28125 C 48.4375 172.121094 49.699219 171.753906 50.855469 172.160156 C 52.039062 172.574219 52.855469 173.71875 54.046875 174.113281 C 55.34375 174.550781 56.78125 174.003906 58.140625 174.21875 C 59.164062 174.378906 60.101562 174.96875 61.140625 175.019531 C 64.429688 175.160156 66.21875 170.070312 69.496094 170.390625 C 70.714844 170.503906 71.867188 171.410156 73.0625 171.121094 C 73.792969 170.941406 74.34375 170.351562 74.84375 169.785156 C 77.125 167.214844 79.402344 164.648438 81.679688 162.085938 C 84.777344 167.996094 92.042969 171.394531 98.5625 169.996094 C 99.132812 169.875 99.742188 169.730469 100.273438 169.953125 C 100.8125 170.183594 101.128906 170.734375 101.527344 171.160156 C 102.800781 172.503906 105.039062 172.503906 106.695312 171.664062 C 108.347656 170.824219 109.558594 169.332031 110.714844 167.882812 C 110.992188 170.125 111.613281 172.324219 112.546875 174.378906 C 112.875 175.097656 113.242188 175.800781 113.644531 176.480469 " fill-opacity="1" fill-rule="nonzero"/><g clip-path="url(#78f7d11851)"><path fill="#100f0d" d="M 238.808594 221.804688 C 227.140625 233 212.511719 240.882812 197.675781 243.996094 C 186.625 246.3125 175.449219 245.652344 164.746094 242.175781 C 165.894531 241.15625 167.027344 240.105469 168.125 239.007812 C 170.210938 236.925781 172.890625 234.148438 174.941406 231.128906 C 175.007812 231.042969 179.929688 222.195312 179.46875 221.027344 C 179.355469 220.773438 179.109375 220.554688 178.828125 220.507812 C 176.511719 220.015625 174.53125 218.058594 174.003906 215.75 C 173.921875 215.417969 173.660156 215.171875 173.3125 215.121094 C 172.953125 215.058594 172.640625 215.238281 172.480469 215.550781 C 172.460938 215.550781 172.363281 215.582031 172.210938 215.53125 C 172.019531 215.480469 171.839844 215.339844 171.753906 215.1875 C 171.523438 214.679688 171.660156 213.972656 171.800781 213.230469 L 171.839844 213.007812 C 171.953125 212.449219 172.261719 210.753906 171.210938 209.671875 C 170.585938 209.03125 169.734375 208.851562 169.105469 208.714844 L 159.148438 206.636719 C 160.066406 206.253906 161.050781 205.996094 162.054688 205.816406 C 162.378906 205.765625 162.628906 205.515625 162.707031 205.207031 C 162.789062 204.882812 162.65625 204.546875 162.398438 204.355469 C 161.578125 203.746094 160.988281 202.828125 160.359375 201.84375 C 159.589844 200.664062 158.800781 199.429688 157.507812 198.65625 C 156.171875 197.855469 154.613281 197.738281 153.152344 197.6875 C 149.132812 197.558594 145.078125 197.71875 141.070312 198.179688 C 139.902344 195.707031 138.230469 194.519531 136.503906 194.992188 C 136.03125 195.128906 135.652344 195.371094 135.3125 195.601562 C 135.144531 195.707031 135 195.800781 134.820312 195.886719 C 132.683594 196.96875 131.011719 195.667969 128.675781 193.570312 C 127.9375 192.898438 127.234375 192.253906 126.496094 191.761719 C 125.949219 191.414062 125.445312 191.171875 124.949219 190.929688 C 124.046875 190.480469 123.328125 190.121094 122.667969 189.234375 C 121.949219 188.28125 121.421875 187.195312 120.867188 186.066406 C 120.570312 185.457031 120.277344 184.847656 119.941406 184.257812 C 119.078125 182.683594 117.992188 181.226562 116.941406 179.808594 C 116.035156 178.617188 115.121094 177.367188 114.34375 176.070312 C 113.972656 175.410156 113.605469 174.738281 113.300781 174.03125 C 112.394531 172.050781 111.804688 169.945312 111.542969 167.777344 C 111.492188 167.453125 111.261719 167.1875 110.945312 167.085938 C 110.636719 167.007812 110.277344 167.105469 110.078125 167.367188 C 109.027344 168.683594 107.847656 170.15625 106.320312 170.933594 C 106.070312 171.0625 105.796875 171.160156 105.515625 171.242188 C 103.527344 162.160156 102.890625 153.023438 103.808594 144.324219 C 104.367188 139.050781 105.355469 133.960938 106.398438 128.578125 L 106.597656 127.527344 L 109.257812 132.503906 C 109.386719 132.746094 109.636719 132.894531 109.914062 132.925781 C 110.945312 133.023438 111.734375 132.453125 112.425781 131.941406 C 112.921875 131.582031 113.34375 131.285156 113.820312 131.253906 C 114.363281 131.273438 114.742188 131.832031 115.300781 132.730469 C 115.613281 133.222656 115.941406 133.75 116.382812 134.191406 C 117.859375 135.683594 120.171875 135.671875 121.832031 134.964844 C 123.257812 134.371094 124.410156 133.324219 125.410156 132.316406 L 129.792969 135.589844 C 130.484375 136.113281 131.433594 136.832031 132.621094 136.832031 C 132.621094 136.832031 132.621094 136.832031 132.632812 136.832031 C 134.125 136.832031 135.261719 135.652344 135.933594 134.949219 L 138.96875 131.792969 L 140.839844 129.84375 L 143.289062 127.316406 L 150.425781 133.402344 C 151.152344 134.03125 152.382812 135.042969 153.84375 134.949219 C 154.84375 134.882812 155.632812 134.304688 156.339844 133.800781 C 156.980469 133.335938 157.550781 132.925781 158.097656 132.980469 C 158.707031 133.011719 159.257812 133.601562 159.851562 134.210938 C 160.589844 135 161.425781 135.882812 162.695312 135.949219 C 163.359375 136 163.96875 135.789062 164.515625 135.589844 C 164.976562 135.410156 165.367188 135.261719 165.714844 135.304688 C 165.988281 135.339844 166.285156 135.523438 166.632812 135.71875 C 166.875 135.863281 167.125 136.011719 167.386719 136.113281 C 169.042969 136.851562 171.160156 136.378906 173.199219 134.851562 C 173.609375 134.519531 174.019531 134.179688 174.429688 133.832031 C 175.378906 133.023438 176.28125 132.273438 177.351562 131.863281 C 179.40625 131.085938 182.128906 131.761719 184.625 133.695312 C 185.636719 134.484375 186.613281 135.421875 187.546875 136.324219 C 188.664062 137.410156 189.8125 138.527344 191.109375 139.460938 C 196.261719 143.136719 201.378906 143.238281 206.34375 139.738281 C 208.902344 137.949219 210.921875 135.601562 212.859375 133.273438 C 215.109375 135.453125 217.980469 137.539062 221.078125 136.589844 L 221.476562 136.453125 C 221.875 136.324219 222.265625 136.179688 222.457031 136.273438 C 222.625 136.34375 222.773438 136.589844 222.9375 136.851562 C 223.066406 137.0625 223.203125 137.273438 223.367188 137.472656 C 224.351562 138.640625 225.761719 138.738281 227.160156 138.261719 C 227.714844 138.097656 228.273438 137.839844 228.800781 137.523438 C 229.304688 137.210938 229.820312 136.863281 230.253906 136.492188 L 241.015625 127.496094 C 245.070312 134.441406 249.398438 140.746094 256.425781 143.007812 C 258.59375 143.695312 260.382812 143.894531 261.8125 144.039062 C 263.652344 144.238281 264.632812 144.367188 265.292969 145.125 C 265.980469 145.933594 266.371094 147.574219 266.539062 150.28125 C 268.210938 176.828125 257.855469 203.566406 238.808594 221.804688 Z M 162.949219 241.546875 C 162.476562 241.996094 161.988281 242.40625 161.507812 242.796875 C 158.296875 245.472656 154.929688 247.871094 151.414062 249.988281 C 139.941406 256.886719 126.988281 260.5625 113.933594 260.644531 L 113.492188 260.644531 C 88.738281 260.644531 64.800781 247.449219 49.375 225.265625 C 43.742188 217.175781 39.375 208.164062 36.355469 198.496094 C 34.84375 193.632812 33.683594 188.59375 32.90625 183.503906 C 32.824219 183.058594 32.707031 182.519531 32.578125 181.898438 C 32.21875 180.238281 31.675781 177.742188 32.15625 176.777344 C 32.367188 176.332031 33.367188 175.671875 34.105469 175.183594 C 34.664062 174.820312 35.1875 174.472656 35.546875 174.132812 C 36.671875 173.09375 37.714844 171.964844 38.683594 170.78125 C 41.113281 172.640625 44.269531 173.492188 47.320312 173.09375 C 47.585938 173.0625 47.847656 173.019531 48.109375 172.96875 C 49.015625 172.820312 49.867188 172.671875 50.585938 172.933594 C 51.046875 173.09375 51.476562 173.429688 51.933594 173.789062 C 52.476562 174.21875 53.046875 174.640625 53.792969 174.882812 C 54.675781 175.199219 55.5625 175.113281 56.402344 175.050781 C 56.972656 175 57.515625 174.953125 58.003906 175.039062 C 58.382812 175.082031 58.78125 175.230469 59.191406 175.378906 C 59.800781 175.597656 60.402344 175.808594 61.109375 175.839844 C 63.042969 175.902344 64.539062 174.511719 65.839844 173.28125 C 67.019531 172.144531 68.15625 171.09375 69.417969 171.210938 C 69.808594 171.242188 70.21875 171.390625 70.664062 171.554688 C 71.4375 171.832031 72.304688 172.144531 73.257812 171.914062 C 74.277344 171.671875 74.945312 170.894531 75.460938 170.324219 L 81.53125 163.476562 C 85.058594 169.074219 92.253906 172.199219 98.832031 170.78125 C 99.261719 170.683594 99.683594 170.601562 99.949219 170.703125 C 100.148438 170.800781 100.359375 171.042969 100.558594 171.292969 C 100.6875 171.441406 100.800781 171.589844 100.9375 171.714844 C 101.839844 172.683594 103.039062 173.0625 104.25 173.0625 C 104.808594 173.0625 105.355469 172.984375 105.878906 172.832031 C 106.304688 172.734375 106.699219 172.574219 107.058594 172.390625 C 108.324219 171.769531 109.324219 170.800781 110.195312 169.800781 C 110.535156 171.492188 111.082031 173.132812 111.804688 174.722656 C 112.144531 175.460938 112.523438 176.199219 112.933594 176.902344 C 113.753906 178.269531 114.710938 179.550781 115.625 180.796875 C 116.644531 182.164062 117.699219 183.574219 118.519531 185.066406 C 118.828125 185.625 119.109375 186.195312 119.382812 186.785156 C 119.960938 187.941406 120.539062 189.140625 121.359375 190.222656 C 122.246094 191.414062 123.257812 191.929688 124.230469 192.402344 C 124.675781 192.613281 125.128906 192.832031 125.589844 193.140625 C 126.234375 193.550781 126.886719 194.140625 127.578125 194.78125 C 129.664062 196.6875 132.253906 199.035156 135.570312 197.359375 C 135.789062 197.246094 135.980469 197.117188 136.199219 196.980469 C 136.460938 196.820312 136.722656 196.65625 136.953125 196.589844 C 138.398438 196.191406 139.597656 198.839844 139.808594 199.359375 C 139.941406 199.707031 140.28125 199.917969 140.660156 199.875 C 144.785156 199.359375 148.953125 199.179688 153.089844 199.328125 C 154.402344 199.378906 155.667969 199.464844 156.667969 200.070312 C 157.632812 200.644531 158.296875 201.664062 158.980469 202.726562 C 159.371094 203.355469 159.769531 203.976562 160.246094 204.535156 C 158.832031 204.925781 157.507812 205.503906 156.242188 206.253906 C 155.949219 206.441406 155.792969 206.765625 155.84375 207.09375 C 155.910156 207.421875 156.160156 207.703125 156.5 207.765625 L 168.765625 210.332031 C 169.210938 210.429688 169.765625 210.542969 170.03125 210.824219 C 170.335938 211.132812 170.410156 211.773438 170.230469 212.691406 L 170.195312 212.921875 C 170.015625 213.839844 169.800781 214.890625 170.273438 215.890625 C 170.621094 216.636719 171.460938 217.175781 172.3125 217.207031 C 172.460938 217.195312 172.589844 217.195312 172.722656 217.175781 C 173.574219 219.386719 175.449219 221.164062 177.710938 221.90625 C 176.941406 223.875 174.03125 229.550781 173.59375 230.191406 C 171.605469 233.117188 168.996094 235.800781 166.957031 237.839844 C 165.664062 239.144531 164.316406 240.375 162.949219 241.546875 Z M 141.945312 124.035156 C 142.546875 121.617188 143.367188 119.351562 144.40625 117.300781 C 146.6875 112.703125 149.824219 108.664062 153.613281 105.316406 C 160.265625 113.425781 170.355469 118.613281 181.636719 118.613281 C 193.488281 118.613281 204.042969 112.882812 210.644531 104.050781 C 214.878906 107.21875 218.507812 111.113281 221.265625 115.59375 C 225.054688 121.730469 227.042969 128.875 227.160156 136.523438 C 226.191406 136.949219 225.203125 137.082031 224.625 136.410156 C 224.511719 136.273438 224.414062 136.128906 224.335938 135.980469 C 224.074219 135.570312 223.742188 135.0625 223.152344 134.78125 C 222.347656 134.421875 221.574219 134.683594 220.933594 134.914062 L 220.605469 135.011719 C 218.046875 135.800781 215.40625 133.535156 213.382812 131.464844 C 213.21875 131.304688 212.992188 131.234375 212.761719 131.222656 C 212.53125 131.234375 212.3125 131.351562 212.171875 131.53125 C 210.132812 133.992188 208.015625 136.558594 205.40625 138.398438 C 201.007812 141.496094 196.65625 141.398438 192.074219 138.132812 C 190.859375 137.261719 189.8125 136.242188 188.695312 135.160156 C 187.726562 134.210938 186.726562 133.242188 185.625 132.390625 C 184.214844 131.304688 180.519531 128.917969 176.777344 130.335938 C 175.449219 130.824219 174.398438 131.714844 173.363281 132.582031 C 172.984375 132.914062 172.609375 133.242188 172.199219 133.535156 C 171.472656 134.09375 169.605469 135.292969 168.042969 134.621094 C 167.851562 134.535156 167.652344 134.421875 167.464844 134.304688 C 167.027344 134.042969 166.535156 133.765625 165.925781 133.683594 C 165.1875 133.582031 164.515625 133.832031 163.9375 134.042969 C 163.527344 134.191406 163.117188 134.339844 162.789062 134.324219 C 162.179688 134.273438 161.640625 133.734375 161.035156 133.074219 C 160.296875 132.304688 159.457031 131.421875 158.191406 131.335938 C 157.097656 131.273438 156.160156 131.894531 155.382812 132.464844 C 154.792969 132.875 154.253906 133.273438 153.710938 133.324219 C 153.003906 133.390625 152.214844 132.78125 151.496094 132.15625 L 143.765625 125.558594 C 143.417969 125.277344 142.925781 125.296875 142.628906 125.605469 L 141.300781 126.984375 C 141.480469 126.003906 141.691406 125.015625 141.945312 124.035156 Z M 147.078125 82.417969 C 147.078125 74.765625 149.65625 67.230469 154.351562 61.210938 C 156.6875 58.203125 159.476562 55.625 162.644531 53.523438 C 164.253906 52.476562 165.9375 51.554688 167.664062 50.796875 C 167.796875 50.734375 168.027344 50.667969 168.324219 50.566406 C 170.042969 50.027344 171.492188 49.5 171.734375 48.40625 C 171.820312 48.027344 171.769531 47.46875 171.144531 46.890625 C 170.765625 46.546875 170.335938 46.386719 169.964844 46.21875 C 169.851562 46.167969 169.734375 46.121094 169.621094 46.070312 C 169.335938 45.941406 169.082031 45.757812 168.851562 45.5625 L 169.175781 45.691406 C 169.453125 45.828125 169.925781 46.027344 170.472656 45.890625 C 171.441406 45.660156 171.703125 44.679688 171.851562 44.132812 C 172.3125 42.34375 173.523438 40.785156 175.101562 39.832031 L 175.121094 42.019531 C 175.121094 42.359375 175.351562 42.671875 175.691406 42.789062 C 176.019531 42.882812 176.398438 42.769531 176.597656 42.492188 C 177.367188 41.460938 178.320312 40.589844 179.417969 39.945312 C 179.648438 41.164062 180.207031 42.574219 180.339844 42.789062 C 180.457031 42.953125 180.785156 43.460938 181.375 43.578125 C 181.785156 43.640625 182.375 43.578125 182.949219 42.789062 C 183.445312 42.132812 183.835938 41.394531 184.097656 40.621094 C 184.363281 39.894531 184.507812 39.753906 184.523438 39.734375 C 184.542969 39.734375 184.625 39.785156 184.835938 40.050781 C 185.382812 40.734375 185.804688 41.511719 186.097656 42.332031 C 186.246094 42.671875 186.59375 42.902344 186.984375 42.851562 C 188.035156 42.703125 188.53125 41.820312 188.78125 41 C 188.78125 41.082031 188.792969 41.164062 188.792969 41.242188 C 188.894531 42.144531 189.464844 42.820312 190.222656 42.902344 C 190.5 42.953125 190.761719 42.839844 190.949219 42.640625 C 191.054688 42.511719 191.125 42.34375 191.140625 42.164062 C 191.222656 42.230469 191.371094 42.378906 191.550781 42.703125 L 191.652344 42.921875 C 191.863281 43.332031 192.109375 43.808594 192.550781 44.1875 C 193.109375 44.628906 193.769531 44.742188 194.339844 44.820312 C 194.507812 44.859375 194.667969 44.890625 194.832031 44.921875 C 195.078125 44.972656 195.308594 45.070312 195.539062 45.1875 C 195.347656 45.1875 195.128906 45.207031 194.898438 45.25 C 193.730469 45.546875 193.371094 46.21875 193.273438 46.730469 C 192.910156 48.550781 195.671875 50.585938 195.78125 50.667969 C 196.757812 51.375 197.789062 51.933594 198.789062 52.488281 C 199.410156 52.835938 200.054688 53.183594 200.664062 53.554688 C 203.597656 55.382812 206.472656 58.035156 208.933594 61.222656 C 213.617188 67.25 216.191406 74.765625 216.191406 82.417969 C 216.191406 89.59375 213.992188 96.234375 210.234375 101.769531 C 209.933594 102.210938 209.625 102.65625 209.300781 103.101562 C 202.996094 111.523438 192.929688 116.972656 181.636719 116.972656 C 170.851562 116.972656 161.210938 112.015625 154.878906 104.25 C 154.519531 103.820312 154.191406 103.378906 153.859375 102.9375 C 149.59375 97.191406 147.078125 90.097656 147.078125 82.417969 Z M 268.179688 150.183594 C 267.988281 146.996094 267.492188 145.175781 266.539062 144.058594 C 265.421875 142.777344 263.90625 142.609375 261.992188 142.417969 C 260.625 142.269531 258.9375 142.089844 256.929688 141.449219 C 250.171875 139.28125 245.984375 132.8125 241.945312 125.824219 C 241.816406 125.605469 241.617188 125.476562 241.375 125.425781 C 241.144531 125.394531 240.898438 125.445312 240.703125 125.605469 L 229.191406 135.222656 C 229.0625 135.339844 228.929688 135.453125 228.769531 135.554688 C 228.503906 127.96875 226.433594 120.878906 222.65625 114.742188 C 219.785156 110.0625 215.996094 106.007812 211.574219 102.726562 C 215.53125 96.929688 217.835938 89.9375 217.835938 82.417969 C 217.835938 74.40625 215.140625 66.527344 210.234375 60.222656 C 207.640625 56.875 204.636719 54.097656 201.527344 52.164062 C 200.894531 51.773438 200.234375 51.40625 199.578125 51.046875 C 198.578125 50.5 197.640625 49.976562 196.757812 49.335938 C 195.71875 48.585938 194.800781 47.367188 194.882812 47.039062 C 194.898438 47.007812 195.011719 46.921875 195.308594 46.847656 C 195.558594 46.777344 196.03125 46.847656 196.429688 46.761719 C 196.90625 46.660156 197.328125 46.351562 197.558594 45.941406 C 197.738281 45.617188 197.769531 45.230469 197.640625 44.871094 C 197.609375 44.777344 197.539062 44.679688 197.460938 44.597656 C 196.839844 43.953125 196.066406 43.523438 195.210938 43.332031 C 195.011719 43.28125 194.800781 43.25 194.601562 43.21875 C 194.191406 43.152344 193.800781 43.082031 193.589844 42.902344 C 193.410156 42.753906 193.273438 42.472656 193.128906 42.179688 L 193 41.949219 C 192.84375 41.652344 192.390625 40.785156 191.464844 40.554688 C 191.125 40.460938 190.75 40.492188 190.402344 40.652344 C 190.402344 40.34375 190.371094 39.945312 190.222656 39.570312 C 190.023438 39.09375 189.582031 38.714844 189.074219 38.585938 C 188.664062 38.484375 188.214844 38.585938 187.90625 38.863281 C 187.546875 39.175781 187.445312 39.621094 187.394531 39.832031 C 187.363281 40 187.28125 40.355469 187.164062 40.671875 C 186.867188 40.09375 186.527344 39.554688 186.132812 39.050781 C 185.933594 38.800781 185.445312 38.15625 184.636719 38.09375 C 183.277344 37.976562 182.785156 39.460938 182.554688 40.0625 C 182.34375 40.671875 182.046875 41.242188 181.667969 41.769531 C 181.417969 41.179688 180.945312 39.640625 180.945312 39.074219 C 181.109375 38.851562 181.160156 38.535156 181.046875 38.273438 C 180.867188 37.84375 180.386719 37.652344 179.976562 37.832031 C 178.777344 38.324219 177.699219 39.03125 176.742188 39.894531 L 176.722656 38.523438 C 176.722656 38.242188 176.597656 37.996094 176.367188 37.84375 C 176.152344 37.703125 175.859375 37.664062 175.609375 37.765625 C 173.019531 38.746094 170.964844 41.03125 170.261719 43.722656 C 170.230469 43.871094 170.125 44.25 170.125 44.300781 C 170.0625 44.300781 169.902344 44.21875 169.832031 44.199219 L 167.355469 43.113281 C 167.074219 43 166.757812 43.039062 166.515625 43.21875 C 166.285156 43.410156 166.15625 43.703125 166.222656 44 C 166.484375 45.53125 167.515625 46.890625 168.914062 47.566406 C 169.0625 47.628906 169.210938 47.679688 169.335938 47.746094 C 169.585938 47.847656 169.816406 47.925781 170.03125 48.105469 C 169.585938 48.449219 168.285156 48.859375 167.832031 49.007812 C 167.464844 49.125 167.171875 49.226562 166.992188 49.289062 C 165.1875 50.089844 163.414062 51.058594 161.738281 52.164062 C 158.421875 54.34375 155.5 57.054688 153.054688 60.203125 C 148.152344 66.507812 145.4375 74.40625 145.4375 82.417969 C 145.4375 90.488281 148.097656 97.960938 152.59375 104 C 148.605469 107.503906 145.324219 111.734375 142.925781 116.5625 C 141.839844 118.730469 140.988281 121.109375 140.351562 123.621094 C 139.890625 125.425781 139.546875 127.265625 139.28125 129.105469 L 134.75 133.8125 C 134.082031 134.503906 133.375 135.191406 132.621094 135.191406 C 132.03125 135.191406 131.433594 134.78125 130.78125 134.273438 L 125.824219 130.5625 C 125.507812 130.335938 125.035156 130.367188 124.757812 130.644531 C 123.667969 131.746094 122.570312 132.875 121.191406 133.453125 C 120.089844 133.914062 118.488281 133.992188 117.550781 133.042969 C 117.234375 132.730469 116.972656 132.304688 116.691406 131.863281 C 116.089844 130.894531 115.351562 129.675781 113.902344 129.613281 C 112.902344 129.5625 112.132812 130.117188 111.457031 130.613281 C 111.097656 130.875 110.753906 131.121094 110.457031 131.234375 L 106.957031 124.71875 C 106.796875 124.425781 106.429688 124.246094 106.105469 124.308594 C 105.765625 124.359375 105.5 124.625 105.429688 124.964844 L 104.789062 128.265625 C 103.726562 133.683594 102.738281 138.808594 102.167969 144.144531 C 101.230469 152.953125 101.871094 162.199219 103.871094 171.390625 C 103.199219 171.324219 102.578125 171.082031 102.117188 170.601562 C 102.019531 170.484375 101.9375 170.371094 101.839844 170.261719 C 101.527344 169.882812 101.167969 169.441406 100.609375 169.191406 C 99.851562 168.882812 99.09375 169.042969 98.390625 169.191406 C 92.203125 170.523438 85.339844 167.304688 82.402344 161.707031 C 82.289062 161.457031 82.039062 161.296875 81.777344 161.265625 C 81.511719 161.230469 81.257812 161.328125 81.070312 161.539062 L 74.226562 169.242188 C 73.765625 169.765625 73.34375 170.210938 72.863281 170.324219 C 72.40625 170.441406 71.847656 170.242188 71.21875 170.011719 C 70.695312 169.8125 70.175781 169.632812 69.566406 169.566406 C 67.546875 169.386719 66.03125 170.820312 64.707031 172.082031 C 63.570312 173.179688 62.507812 174.199219 61.273438 174.199219 L 61.179688 174.199219 C 60.71875 174.179688 60.242188 174 59.75 173.820312 C 59.273438 173.652344 58.792969 173.492188 58.273438 173.410156 C 57.582031 173.292969 56.90625 173.359375 56.265625 173.410156 C 55.542969 173.472656 54.875 173.523438 54.3125 173.34375 C 53.835938 173.179688 53.394531 172.832031 52.9375 172.492188 C 52.394531 172.0625 51.835938 171.640625 51.128906 171.390625 C 50.015625 171 48.847656 171.175781 47.828125 171.355469 C 47.601562 171.390625 47.351562 171.441406 47.109375 171.472656 C 44.25 171.851562 41.261719 170.933594 39.09375 168.992188 C 38.933594 168.84375 38.703125 168.78125 38.472656 168.796875 C 38.242188 168.8125 38.042969 168.925781 37.902344 169.105469 C 36.863281 170.484375 35.695312 171.769531 34.433594 172.933594 C 34.167969 173.179688 33.695312 173.492188 33.199219 173.820312 C 32.15625 174.511719 31.085938 175.21875 30.675781 176.050781 C 29.949219 177.53125 30.507812 180.140625 30.96875 182.238281 C 31.105469 182.835938 31.21875 183.34375 31.285156 183.753906 C 32.074219 188.921875 33.253906 194.042969 34.796875 198.96875 C 37.851562 208.820312 42.300781 217.976562 48.027344 226.203125 C 63.75 248.824219 88.214844 262.285156 113.492188 262.285156 L 113.953125 262.285156 C 127.296875 262.203125 140.53125 258.445312 152.253906 251.398438 C 156.109375 249.089844 159.820312 246.429688 163.296875 243.441406 C 170.261719 245.804688 177.417969 247.003906 184.605469 247.003906 C 189.074219 247.003906 193.550781 246.542969 198 245.605469 C 213.152344 242.4375 228.054688 234.390625 239.957031 222.984375 C 259.328125 204.417969 269.871094 177.199219 268.179688 150.183594 " fill-opacity="1" fill-rule="nonzero"/></g></svg>