<svg xmlns="http://www.w3.org/2000/svg" xmlns:xlink="http://www.w3.org/1999/xlink" width="200" zoomAndPan="magnify" viewBox="0 0 150 48" height="64" preserveAspectRatio="xMidYMid meet" version="1.0"><defs><g/><clipPath id="a60a16f9f3"><path d="M 66.804688 4.703125 L 143.945312 4.703125 L 143.945312 42.171875 L 66.804688 42.171875 Z M 66.804688 4.703125 " clip-rule="nonzero"/></clipPath><clipPath id="9c6bf4c6c0"><path d="M 6.234375 4.703125 L 83.375 4.703125 L 83.375 42.171875 L 6.234375 42.171875 Z M 6.234375 4.703125 " clip-rule="nonzero"/></clipPath><clipPath id="547454d398"><path d="M 60.367188 6.09375 L 85.609375 6.09375 L 85.609375 41.082031 L 60.367188 41.082031 Z M 60.367188 6.09375 " clip-rule="nonzero"/></clipPath><clipPath id="6cd5969997"><path d="M 16.054688 11.074219 L 75 11.074219 L 75 36.132812 L 16.054688 36.132812 Z M 16.054688 11.074219 " clip-rule="nonzero"/></clipPath></defs><g clip-path="url(#a60a16f9f3)"><path fill="#000000" d="M 66.921875 42.171875 L 143.828125 42.171875 L 143.828125 4.703125 L 66.921875 4.703125 Z M 68.25 6.023438 L 142.496094 6.023438 L 142.496094 40.847656 L 68.25 40.847656 Z M 68.25 6.023438 " fill-opacity="1" fill-rule="nonzero"/><path fill="#1976d2" d="M 66.921875 42.171875 L 143.828125 42.171875 L 143.828125 4.703125 L 66.921875 4.703125 Z M 68.25 6.023438 L 142.496094 6.023438 L 142.496094 40.847656 L 68.25 40.847656 Z M 68.25 6.023438 " fill-opacity="1" fill-rule="nonzero"/></g><g clip-path="url(#9c6bf4c6c0)"><path fill="#1976d2" d="M 6.351562 42.171875 L 83.257812 42.171875 L 83.257812 4.703125 L 6.351562 4.703125 Z M 7.679688 6.023438 L 81.925781 6.023438 L 81.925781 40.847656 L 7.679688 40.847656 Z M 7.679688 6.023438 " fill-opacity="1" fill-rule="nonzero"/></g><g clip-path="url(#547454d398)"><path fill="#ffffff" d="M 60.367188 6.09375 L 85.714844 6.09375 L 85.714844 41.140625 L 60.367188 41.140625 Z M 60.367188 6.09375 " fill-opacity="1" fill-rule="nonzero"/></g><path stroke-linecap="butt" transform="matrix(0.73592, 0, 0, 0.734694, 47.493059, 38.142215)" fill="none" stroke-linejoin="miter" d="M -0.00118434 2.002285 L 74.878482 2.002285 " stroke="#ffffff" stroke-width="4" stroke-opacity="1" stroke-miterlimit="4"/><path stroke-linecap="butt" transform="matrix(0.73592, 0, 0, 0.734694, 50.271293, 6.094094)" fill="none" stroke-linejoin="miter" d="M -0.00239356 1.998663 L 74.88258 1.998663 " stroke="#ffffff" stroke-width="4" stroke-opacity="1" stroke-miterlimit="4"/><g clip-path="url(#6cd5969997)"><path fill="#1976d2" d="M 16.054688 11.074219 L 74.902344 11.074219 L 74.902344 36.199219 L 16.054688 36.199219 Z M 16.054688 11.074219 " fill-opacity="1" fill-rule="nonzero"/></g><g fill="#ffffff" fill-opacity="1"><g transform="translate(17.505605, 29.020409)"><g><path d="M 6.109375 0.15625 C 5.078125 0.15625 4.171875 -0.0546875 3.390625 -0.484375 C 2.609375 -0.910156 1.992188 -1.550781 1.546875 -2.40625 C 1.097656 -3.269531 0.875 -4.332031 0.875 -5.59375 C 0.875 -6.851562 1.097656 -7.910156 1.546875 -8.765625 C 1.992188 -9.628906 2.609375 -10.273438 3.390625 -10.703125 C 4.171875 -11.128906 5.078125 -11.34375 6.109375 -11.34375 C 7.191406 -11.34375 8.109375 -11.128906 8.859375 -10.703125 C 9.609375 -10.285156 10.144531 -9.648438 10.46875 -8.796875 L 8.859375 -7.8125 L 8.65625 -7.8125 C 8.414062 -8.394531 8.09375 -8.8125 7.6875 -9.0625 C 7.28125 -9.3125 6.753906 -9.4375 6.109375 -9.4375 C 5.179688 -9.4375 4.457031 -9.128906 3.9375 -8.515625 C 3.414062 -7.898438 3.15625 -6.925781 3.15625 -5.59375 C 3.15625 -4.257812 3.414062 -3.285156 3.9375 -2.671875 C 4.457031 -2.054688 5.179688 -1.75 6.109375 -1.75 C 7.566406 -1.75 8.457031 -2.457031 8.78125 -3.875 L 8.96875 -3.875 L 10.609375 -3.015625 C 10.296875 -1.960938 9.769531 -1.171875 9.03125 -0.640625 C 8.289062 -0.109375 7.316406 0.15625 6.109375 0.15625 Z M 6.109375 0.15625 "/></g></g></g><g fill="#ffffff" fill-opacity="1"><g transform="translate(28.477415, 29.020409)"><g><path d="M 3.671875 -11.1875 L 3.671875 -1.859375 L 8.6875 -1.859375 L 8.6875 0 L 1.453125 0 L 1.453125 -11.1875 Z M 3.671875 -11.1875 "/></g></g></g><g fill="#ffffff" fill-opacity="1"><g transform="translate(37.536427, 29.020409)"><g><path d="M 6.09375 0.15625 C 5.070312 0.15625 4.171875 -0.0507812 3.390625 -0.46875 C 2.609375 -0.882812 1.992188 -1.519531 1.546875 -2.375 C 1.097656 -3.238281 0.875 -4.3125 0.875 -5.59375 C 0.875 -6.875 1.097656 -7.941406 1.546875 -8.796875 C 1.992188 -9.660156 2.609375 -10.300781 3.390625 -10.71875 C 4.171875 -11.132812 5.070312 -11.34375 6.09375 -11.34375 C 7.125 -11.34375 8.03125 -11.132812 8.8125 -10.71875 C 9.59375 -10.300781 10.203125 -9.660156 10.640625 -8.796875 C 11.078125 -7.941406 11.296875 -6.875 11.296875 -5.59375 C 11.296875 -4.3125 11.078125 -3.238281 10.640625 -2.375 C 10.203125 -1.519531 9.59375 -0.882812 8.8125 -0.46875 C 8.03125 -0.0507812 7.125 0.15625 6.09375 0.15625 Z M 6.09375 -1.765625 C 7.039062 -1.765625 7.765625 -2.066406 8.265625 -2.671875 C 8.765625 -3.285156 9.015625 -4.257812 9.015625 -5.59375 C 9.015625 -6.925781 8.765625 -7.898438 8.265625 -8.515625 C 7.765625 -9.128906 7.039062 -9.4375 6.09375 -9.4375 C 5.144531 -9.4375 4.414062 -9.128906 3.90625 -8.515625 C 3.40625 -7.898438 3.15625 -6.925781 3.15625 -5.59375 C 3.15625 -4.257812 3.40625 -3.285156 3.90625 -2.671875 C 4.414062 -2.066406 5.144531 -1.765625 6.09375 -1.765625 Z M 6.09375 -1.765625 "/></g></g></g><g fill="#ffffff" fill-opacity="1"><g transform="translate(49.724782, 29.020409)"><g><path d="M 5.9375 0.15625 C 4.394531 0.15625 3.25 -0.207031 2.5 -0.9375 C 1.757812 -1.664062 1.390625 -2.75 1.390625 -4.1875 L 1.390625 -11.1875 L 3.546875 -11.1875 L 3.546875 -4.203125 C 3.546875 -3.390625 3.742188 -2.78125 4.140625 -2.375 C 4.535156 -1.96875 5.132812 -1.765625 5.9375 -1.765625 C 7.519531 -1.765625 8.3125 -2.578125 8.3125 -4.203125 L 8.3125 -11.1875 L 10.46875 -11.1875 L 10.46875 -4.1875 C 10.46875 -2.75 10.09375 -1.664062 9.34375 -0.9375 C 8.601562 -0.207031 7.46875 0.15625 5.9375 0.15625 Z M 5.9375 0.15625 "/></g></g></g><g fill="#ffffff" fill-opacity="1"><g transform="translate(61.584131, 29.020409)"><g><path d="M 5.484375 -11.1875 C 7.296875 -11.1875 8.679688 -10.71875 9.640625 -9.78125 C 10.597656 -8.84375 11.078125 -7.445312 11.078125 -5.59375 C 11.078125 -3.75 10.597656 -2.351562 9.640625 -1.40625 C 8.679688 -0.46875 7.296875 0 5.484375 0 L 1.453125 0 L 1.453125 -11.1875 Z M 5.34375 -1.859375 C 6.5 -1.859375 7.363281 -2.148438 7.9375 -2.734375 C 8.507812 -3.328125 8.796875 -4.28125 8.796875 -5.59375 C 8.796875 -6.90625 8.507812 -7.851562 7.9375 -8.4375 C 7.363281 -9.03125 6.5 -9.328125 5.34375 -9.328125 L 3.671875 -9.328125 L 3.671875 -1.859375 Z M 5.34375 -1.859375 "/></g></g></g><g fill="#1976d2" fill-opacity="1"><g transform="translate(77.778231, 29.020395)"><g><path d="M 6.109375 0.15625 C 5.078125 0.15625 4.171875 -0.0546875 3.390625 -0.484375 C 2.609375 -0.910156 1.992188 -1.550781 1.546875 -2.40625 C 1.097656 -3.269531 0.875 -4.332031 0.875 -5.59375 C 0.875 -6.851562 1.097656 -7.910156 1.546875 -8.765625 C 1.992188 -9.628906 2.609375 -10.273438 3.390625 -10.703125 C 4.171875 -11.128906 5.078125 -11.34375 6.109375 -11.34375 C 7.191406 -11.34375 8.109375 -11.128906 8.859375 -10.703125 C 9.609375 -10.285156 10.144531 -9.648438 10.46875 -8.796875 L 8.859375 -7.8125 L 8.65625 -7.8125 C 8.414062 -8.394531 8.09375 -8.8125 7.6875 -9.0625 C 7.28125 -9.3125 6.753906 -9.4375 6.109375 -9.4375 C 5.179688 -9.4375 4.457031 -9.128906 3.9375 -8.515625 C 3.414062 -7.898438 3.15625 -6.925781 3.15625 -5.59375 C 3.15625 -4.257812 3.414062 -3.285156 3.9375 -2.671875 C 4.457031 -2.054688 5.179688 -1.75 6.109375 -1.75 C 7.566406 -1.75 8.457031 -2.457031 8.78125 -3.875 L 8.96875 -3.875 L 10.609375 -3.015625 C 10.296875 -1.960938 9.769531 -1.171875 9.03125 -0.640625 C 8.289062 -0.109375 7.316406 0.15625 6.109375 0.15625 Z M 6.109375 0.15625 "/></g></g></g><g fill="#1976d2" fill-opacity="1"><g transform="translate(88.750041, 29.020395)"><g><path d="M 6.09375 0.15625 C 5.070312 0.15625 4.171875 -0.0507812 3.390625 -0.46875 C 2.609375 -0.882812 1.992188 -1.519531 1.546875 -2.375 C 1.097656 -3.238281 0.875 -4.3125 0.875 -5.59375 C 0.875 -6.875 1.097656 -7.941406 1.546875 -8.796875 C 1.992188 -9.660156 2.609375 -10.300781 3.390625 -10.71875 C 4.171875 -11.132812 5.070312 -11.34375 6.09375 -11.34375 C 7.125 -11.34375 8.03125 -11.132812 8.8125 -10.71875 C 9.59375 -10.300781 10.203125 -9.660156 10.640625 -8.796875 C 11.078125 -7.941406 11.296875 -6.875 11.296875 -5.59375 C 11.296875 -4.3125 11.078125 -3.238281 10.640625 -2.375 C 10.203125 -1.519531 9.59375 -0.882812 8.8125 -0.46875 C 8.03125 -0.0507812 7.125 0.15625 6.09375 0.15625 Z M 6.09375 -1.765625 C 7.039062 -1.765625 7.765625 -2.066406 8.265625 -2.671875 C 8.765625 -3.285156 9.015625 -4.257812 9.015625 -5.59375 C 9.015625 -6.925781 8.765625 -7.898438 8.265625 -8.515625 C 7.765625 -9.128906 7.039062 -9.4375 6.09375 -9.4375 C 5.144531 -9.4375 4.414062 -9.128906 3.90625 -8.515625 C 3.40625 -7.898438 3.15625 -6.925781 3.15625 -5.59375 C 3.15625 -4.257812 3.40625 -3.285156 3.90625 -2.671875 C 4.414062 -2.066406 5.144531 -1.765625 6.09375 -1.765625 Z M 6.09375 -1.765625 "/></g></g></g><g fill="#1976d2" fill-opacity="1"><g transform="translate(100.938396, 29.020395)"><g><path d="M 10.734375 0 L 8.40625 0 L 7.5625 -2.578125 L 3.28125 -2.578125 L 2.4375 0 L 0.171875 0 L 4.03125 -11.1875 L 6.875 -11.1875 Z M 5.3125 -8.859375 L 3.875 -4.4375 L 6.953125 -4.4375 L 5.515625 -8.859375 Z M 5.3125 -8.859375 "/></g></g></g><g fill="#1976d2" fill-opacity="1"><g transform="translate(111.841351, 29.020395)"><g><path d="M 6.109375 0.15625 C 5.078125 0.15625 4.171875 -0.0546875 3.390625 -0.484375 C 2.609375 -0.910156 1.992188 -1.550781 1.546875 -2.40625 C 1.097656 -3.269531 0.875 -4.332031 0.875 -5.59375 C 0.875 -6.851562 1.097656 -7.910156 1.546875 -8.765625 C 1.992188 -9.628906 2.609375 -10.273438 3.390625 -10.703125 C 4.171875 -11.128906 5.078125 -11.34375 6.109375 -11.34375 C 7.191406 -11.34375 8.109375 -11.128906 8.859375 -10.703125 C 9.609375 -10.285156 10.144531 -9.648438 10.46875 -8.796875 L 8.859375 -7.8125 L 8.65625 -7.8125 C 8.414062 -8.394531 8.09375 -8.8125 7.6875 -9.0625 C 7.28125 -9.3125 6.753906 -9.4375 6.109375 -9.4375 C 5.179688 -9.4375 4.457031 -9.128906 3.9375 -8.515625 C 3.414062 -7.898438 3.15625 -6.925781 3.15625 -5.59375 C 3.15625 -4.257812 3.414062 -3.285156 3.9375 -2.671875 C 4.457031 -2.054688 5.179688 -1.75 6.109375 -1.75 C 7.566406 -1.75 8.457031 -2.457031 8.78125 -3.875 L 8.96875 -3.875 L 10.609375 -3.015625 C 10.296875 -1.960938 9.769531 -1.171875 9.03125 -0.640625 C 8.289062 -0.109375 7.316406 0.15625 6.109375 0.15625 Z M 6.109375 0.15625 "/></g></g></g><g fill="#1976d2" fill-opacity="1"><g transform="translate(122.813161, 29.020395)"><g><path d="M 8.671875 -6.984375 L 8.671875 -11.1875 L 10.875 -11.1875 L 10.875 0 L 8.671875 0 L 8.671875 -5.09375 L 3.671875 -5.09375 L 3.671875 0 L 1.453125 0 L 1.453125 -11.1875 L 3.671875 -11.1875 L 3.671875 -6.984375 Z M 8.671875 -6.984375 "/></g></g></g></svg>