<svg xmlns="http://www.w3.org/2000/svg" xmlns:xlink="http://www.w3.org/1999/xlink" width="200" zoomAndPan="magnify" viewBox="0 0 150 48" height="64" preserveAspectRatio="xMidYMid meet" version="1.0"><defs><g/><clipPath id="f1b103d9da"><path d="M 9.015625 13.152344 L 78.339844 13.152344 L 78.339844 33.871094 L 9.015625 33.871094 Z M 9.015625 13.152344 " clip-rule="nonzero"/></clipPath></defs><g clip-path="url(#f1b103d9da)"><path fill="#1976d2" d="M 9.015625 13.152344 L 78.445312 13.152344 L 78.445312 33.871094 L 9.015625 33.871094 Z M 9.015625 13.152344 " fill-opacity="1" fill-rule="nonzero"/></g><g fill="#1976d2" fill-opacity="1"><g transform="translate(79.319108, 29.755103)"><g><path d="M 6.875 0.1875 C 5.71875 0.1875 4.695312 -0.0507812 3.8125 -0.53125 C 2.925781 -1.019531 2.234375 -1.75 1.734375 -2.71875 C 1.234375 -3.6875 0.984375 -4.878906 0.984375 -6.296875 C 0.984375 -7.710938 1.234375 -8.898438 1.734375 -9.859375 C 2.234375 -10.828125 2.925781 -11.550781 3.8125 -12.03125 C 4.695312 -12.519531 5.71875 -12.765625 6.875 -12.765625 C 8.082031 -12.765625 9.109375 -12.523438 9.953125 -12.046875 C 10.804688 -11.578125 11.410156 -10.859375 11.765625 -9.890625 L 9.953125 -8.78125 L 9.734375 -8.78125 C 9.472656 -9.4375 9.109375 -9.90625 8.640625 -10.1875 C 8.179688 -10.476562 7.59375 -10.625 6.875 -10.625 C 5.832031 -10.625 5.015625 -10.273438 4.421875 -9.578125 C 3.835938 -8.890625 3.546875 -7.796875 3.546875 -6.296875 C 3.546875 -4.796875 3.835938 -3.695312 4.421875 -3 C 5.015625 -2.3125 5.832031 -1.96875 6.875 -1.96875 C 8.507812 -1.96875 9.507812 -2.765625 9.875 -4.359375 L 10.09375 -4.359375 L 11.921875 -3.40625 C 11.578125 -2.207031 10.988281 -1.304688 10.15625 -0.703125 C 9.332031 -0.109375 8.238281 0.1875 6.875 0.1875 Z M 6.875 0.1875 "/></g></g></g><g fill="#1976d2" fill-opacity="1"><g transform="translate(91.65737, 29.755103)"><g><path d="M 4.125 -12.578125 L 4.125 -2.078125 L 9.78125 -2.078125 L 9.78125 0 L 1.640625 0 L 1.640625 -12.578125 Z M 4.125 -12.578125 "/></g></g></g><g fill="#1976d2" fill-opacity="1"><g transform="translate(101.844611, 29.755103)"><g><path d="M 6.859375 0.1875 C 5.703125 0.1875 4.679688 -0.046875 3.796875 -0.515625 C 2.921875 -0.992188 2.234375 -1.710938 1.734375 -2.671875 C 1.234375 -3.640625 0.984375 -4.847656 0.984375 -6.296875 C 0.984375 -7.734375 1.234375 -8.929688 1.734375 -9.890625 C 2.234375 -10.859375 2.921875 -11.578125 3.796875 -12.046875 C 4.679688 -12.523438 5.703125 -12.765625 6.859375 -12.765625 C 8.015625 -12.765625 9.03125 -12.53125 9.90625 -12.0625 C 10.78125 -11.59375 11.46875 -10.875 11.96875 -9.90625 C 12.46875 -8.9375 12.71875 -7.734375 12.71875 -6.296875 C 12.71875 -4.847656 12.46875 -3.640625 11.96875 -2.671875 C 11.46875 -1.703125 10.78125 -0.984375 9.90625 -0.515625 C 9.03125 -0.046875 8.015625 0.1875 6.859375 0.1875 Z M 6.859375 -1.984375 C 7.921875 -1.984375 8.734375 -2.320312 9.296875 -3 C 9.859375 -3.6875 10.140625 -4.785156 10.140625 -6.296875 C 10.140625 -7.796875 9.859375 -8.890625 9.296875 -9.578125 C 8.734375 -10.265625 7.921875 -10.609375 6.859375 -10.609375 C 5.785156 -10.609375 4.960938 -10.265625 4.390625 -9.578125 C 3.828125 -8.890625 3.546875 -7.796875 3.546875 -6.296875 C 3.546875 -4.785156 3.828125 -3.6875 4.390625 -3 C 4.960938 -2.320312 5.785156 -1.984375 6.859375 -1.984375 Z M 6.859375 -1.984375 "/></g></g></g><g fill="#1976d2" fill-opacity="1"><g transform="translate(115.550929, 29.755103)"><g><path d="M 6.671875 0.1875 C 4.941406 0.1875 3.65625 -0.222656 2.8125 -1.046875 C 1.976562 -1.878906 1.5625 -3.101562 1.5625 -4.71875 L 1.5625 -12.578125 L 4 -12.578125 L 4 -4.734375 C 4 -3.816406 4.21875 -3.128906 4.65625 -2.671875 C 5.09375 -2.210938 5.765625 -1.984375 6.671875 -1.984375 C 8.453125 -1.984375 9.34375 -2.898438 9.34375 -4.734375 L 9.34375 -12.578125 L 11.78125 -12.578125 L 11.78125 -4.71875 C 11.78125 -3.101562 11.359375 -1.878906 10.515625 -1.046875 C 9.679688 -0.222656 8.398438 0.1875 6.671875 0.1875 Z M 6.671875 0.1875 "/></g></g></g><g fill="#1976d2" fill-opacity="1"><g transform="translate(128.887266, 29.755103)"><g><path d="M 6.15625 -12.578125 C 8.195312 -12.578125 9.753906 -12.050781 10.828125 -11 C 11.910156 -9.945312 12.453125 -8.378906 12.453125 -6.296875 C 12.453125 -4.210938 11.910156 -2.640625 10.828125 -1.578125 C 9.753906 -0.523438 8.195312 0 6.15625 0 L 1.640625 0 L 1.640625 -12.578125 Z M 6.015625 -2.09375 C 7.304688 -2.09375 8.273438 -2.421875 8.921875 -3.078125 C 9.566406 -3.742188 9.890625 -4.816406 9.890625 -6.296875 C 9.890625 -7.765625 9.566406 -8.828125 8.921875 -9.484375 C 8.273438 -10.148438 7.304688 -10.484375 6.015625 -10.484375 L 4.125 -10.484375 L 4.125 -2.09375 Z M 6.015625 -2.09375 "/></g></g></g><g fill="#ffffff" fill-opacity="1"><g transform="translate(11.393031, 29.755118)"><g><path d="M 6.875 0.1875 C 5.71875 0.1875 4.695312 -0.0507812 3.8125 -0.53125 C 2.925781 -1.019531 2.234375 -1.75 1.734375 -2.71875 C 1.234375 -3.6875 0.984375 -4.878906 0.984375 -6.296875 C 0.984375 -7.710938 1.234375 -8.898438 1.734375 -9.859375 C 2.234375 -10.828125 2.925781 -11.550781 3.8125 -12.03125 C 4.695312 -12.519531 5.71875 -12.765625 6.875 -12.765625 C 8.082031 -12.765625 9.109375 -12.523438 9.953125 -12.046875 C 10.804688 -11.578125 11.410156 -10.859375 11.765625 -9.890625 L 9.953125 -8.78125 L 9.734375 -8.78125 C 9.472656 -9.4375 9.109375 -9.90625 8.640625 -10.1875 C 8.179688 -10.476562 7.59375 -10.625 6.875 -10.625 C 5.832031 -10.625 5.015625 -10.273438 4.421875 -9.578125 C 3.835938 -8.890625 3.546875 -7.796875 3.546875 -6.296875 C 3.546875 -4.796875 3.835938 -3.695312 4.421875 -3 C 5.015625 -2.3125 5.832031 -1.96875 6.875 -1.96875 C 8.507812 -1.96875 9.507812 -2.765625 9.875 -4.359375 L 10.09375 -4.359375 L 11.921875 -3.40625 C 11.578125 -2.207031 10.988281 -1.304688 10.15625 -0.703125 C 9.332031 -0.109375 8.238281 0.1875 6.875 0.1875 Z M 6.875 0.1875 "/></g></g><g transform="translate(23.739331, 29.755118)"><g><path d="M 6.859375 0.1875 C 5.703125 0.1875 4.679688 -0.046875 3.796875 -0.515625 C 2.921875 -0.992188 2.234375 -1.710938 1.734375 -2.671875 C 1.234375 -3.640625 0.984375 -4.847656 0.984375 -6.296875 C 0.984375 -7.734375 1.234375 -8.929688 1.734375 -9.890625 C 2.234375 -10.859375 2.921875 -11.578125 3.796875 -12.046875 C 4.679688 -12.523438 5.703125 -12.765625 6.859375 -12.765625 C 8.015625 -12.765625 9.03125 -12.53125 9.90625 -12.0625 C 10.78125 -11.59375 11.46875 -10.875 11.96875 -9.90625 C 12.46875 -8.9375 12.71875 -7.734375 12.71875 -6.296875 C 12.71875 -4.847656 12.46875 -3.640625 11.96875 -2.671875 C 11.46875 -1.703125 10.78125 -0.984375 9.90625 -0.515625 C 9.03125 -0.046875 8.015625 0.1875 6.859375 0.1875 Z M 6.859375 -1.984375 C 7.921875 -1.984375 8.734375 -2.320312 9.296875 -3 C 9.859375 -3.6875 10.140625 -4.785156 10.140625 -6.296875 C 10.140625 -7.796875 9.859375 -8.890625 9.296875 -9.578125 C 8.734375 -10.265625 7.921875 -10.609375 6.859375 -10.609375 C 5.785156 -10.609375 4.960938 -10.265625 4.390625 -9.578125 C 3.828125 -8.890625 3.546875 -7.796875 3.546875 -6.296875 C 3.546875 -4.785156 3.828125 -3.6875 4.390625 -3 C 4.960938 -2.320312 5.785156 -1.984375 6.859375 -1.984375 Z M 6.859375 -1.984375 "/></g></g><g transform="translate(37.454573, 29.755118)"><g><path d="M 12.078125 0 L 9.453125 0 L 8.515625 -2.90625 L 3.6875 -2.90625 L 2.75 0 L 0.1875 0 L 4.53125 -12.578125 L 7.734375 -12.578125 Z M 5.984375 -9.953125 L 4.359375 -4.984375 L 7.828125 -4.984375 L 6.203125 -9.953125 Z M 5.984375 -9.953125 "/></g></g><g transform="translate(49.723387, 29.755118)"><g><path d="M 6.875 0.1875 C 5.71875 0.1875 4.695312 -0.0507812 3.8125 -0.53125 C 2.925781 -1.019531 2.234375 -1.75 1.734375 -2.71875 C 1.234375 -3.6875 0.984375 -4.878906 0.984375 -6.296875 C 0.984375 -7.710938 1.234375 -8.898438 1.734375 -9.859375 C 2.234375 -10.828125 2.925781 -11.550781 3.8125 -12.03125 C 4.695312 -12.519531 5.71875 -12.765625 6.875 -12.765625 C 8.082031 -12.765625 9.109375 -12.523438 9.953125 -12.046875 C 10.804688 -11.578125 11.410156 -10.859375 11.765625 -9.890625 L 9.953125 -8.78125 L 9.734375 -8.78125 C 9.472656 -9.4375 9.109375 -9.90625 8.640625 -10.1875 C 8.179688 -10.476562 7.59375 -10.625 6.875 -10.625 C 5.832031 -10.625 5.015625 -10.273438 4.421875 -9.578125 C 3.835938 -8.890625 3.546875 -7.796875 3.546875 -6.296875 C 3.546875 -4.796875 3.835938 -3.695312 4.421875 -3 C 5.015625 -2.3125 5.832031 -1.96875 6.875 -1.96875 C 8.507812 -1.96875 9.507812 -2.765625 9.875 -4.359375 L 10.09375 -4.359375 L 11.921875 -3.40625 C 11.578125 -2.207031 10.988281 -1.304688 10.15625 -0.703125 C 9.332031 -0.109375 8.238281 0.1875 6.875 0.1875 Z M 6.875 0.1875 "/></g></g><g transform="translate(62.069687, 29.755118)"><g><path d="M 9.765625 -7.84375 L 9.765625 -12.578125 L 12.234375 -12.578125 L 12.234375 0 L 9.765625 0 L 9.765625 -5.734375 L 4.125 -5.734375 L 4.125 0 L 1.640625 0 L 1.640625 -12.578125 L 4.125 -12.578125 L 4.125 -7.84375 Z M 9.765625 -7.84375 "/></g></g></g><path stroke-linecap="butt" transform="matrix(0.733958, 0, 0, 0.734694, 6.232652, 4.334696)" fill="none" stroke-linejoin="miter" d="M 0.00234715 0.501473 L 187.199085 0.501473 " stroke="#1976d2" stroke-width="1" stroke-opacity="1" stroke-miterlimit="4"/><path stroke-linecap="butt" transform="matrix(0.735917, 0, 0, 0.734694, 6.232652, 41.951021)" fill="none" stroke-linejoin="miter" d="M 0.0023409 0.502647 L 187.698629 0.502647 " stroke="#1976d2" stroke-width="1" stroke-opacity="1" stroke-miterlimit="4"/><path stroke-linecap="butt" transform="matrix(0.000000000000000045, -0.732003, 0.734694, 0.000000000000000045, 6.22806, 42.313776)" fill="none" stroke-linejoin="miter" d="M 0.00174365 0.497745 L 51.199049 0.497745 " stroke="#1976d2" stroke-width="1" stroke-opacity="1" stroke-miterlimit="4"/><path stroke-linecap="butt" transform="matrix(0.000000000000000045, -0.732003, 0.734694, 0.000000000000000045, 143.76275, 41.946429)" fill="none" stroke-linejoin="miter" d="M 0.00152585 0.498379 L 51.198831 0.498379 " stroke="#1976d2" stroke-width="1" stroke-opacity="1" stroke-miterlimit="4"/></svg>