<svg xmlns="http://www.w3.org/2000/svg" xmlns:xlink="http://www.w3.org/1999/xlink" width="400" zoomAndPan="magnify" viewBox="0 0 300 299.999988" height="400" preserveAspectRatio="xMidYMid meet" version="1.0"><path fill="#576235" d="M 270 207.929688 L 270 270 L 30 270 L 30 207.929688 L 100.34375 179.792969 L 112.757812 174.828125 L 187.242188 174.828125 L 199.65625 179.792969 L 270 207.929688 " fill-opacity="1" fill-rule="nonzero"/><path fill="#8e7733" d="M 187.242188 241.035156 L 112.757812 241.035156 L 112.757812 174.828125 L 187.242188 174.828125 L 187.242188 241.035156 " fill-opacity="1" fill-rule="nonzero"/><path fill="#deb28c" d="M 174.828125 137.585938 L 174.828125 178.964844 L 150 187.242188 L 125.171875 178.964844 L 125.171875 137.585938 L 174.828125 137.585938 " fill-opacity="1" fill-rule="nonzero"/><path fill="#c2a23f" d="M 166.550781 178.964844 L 158.277344 199.65625 L 141.722656 199.65625 L 133.449219 178.964844 L 150 174.828125 L 166.550781 178.964844 " fill-opacity="1" fill-rule="nonzero"/><path fill="#af923a" d="M 174.828125 162.414062 L 150 174.828125 L 178.964844 199.65625 L 187.242188 174.828125 L 174.828125 162.414062 " fill-opacity="1" fill-rule="nonzero"/><path fill="#af923a" d="M 125.171875 162.414062 L 150 174.828125 L 121.035156 199.65625 L 112.757812 174.828125 L 125.171875 162.414062 " fill-opacity="1" fill-rule="nonzero"/><path fill="#4b542e" d="M 199.65625 179.792969 L 199.65625 199.65625 L 270 228.621094 L 270 207.929688 L 199.65625 179.792969 " fill-opacity="1" fill-rule="nonzero"/><path fill="#4d5730" d="M 150 270 L 212.070312 224.484375 L 199.65625 216.207031 L 199.65625 179.792969 L 187.242188 174.828125 L 150 270 " fill-opacity="1" fill-rule="nonzero"/><path fill="#454d2b" d="M 199.652344 220.347656 C 199.027344 220.347656 198.398438 220.207031 197.804688 219.910156 L 189.527344 215.769531 C 187.484375 214.75 186.65625 212.261719 187.679688 210.21875 C 188.699219 208.171875 191.183594 207.347656 193.230469 208.367188 L 201.507812 212.503906 C 203.546875 213.527344 204.378906 216.011719 203.355469 218.058594 C 202.632812 219.507812 201.171875 220.347656 199.652344 220.347656 " fill-opacity="1" fill-rule="nonzero"/><path fill="#f0c098" d="M 158.277344 150 L 141.722656 150 C 123.441406 150 108.621094 135.179688 108.621094 116.898438 L 108.621094 67.242188 L 191.378906 67.242188 L 191.378906 116.898438 C 191.378906 135.179688 176.558594 150 158.277344 150 " fill-opacity="1" fill-rule="nonzero"/><path fill="#af923a" d="M 166.550781 228.621094 L 150 270 L 133.449219 228.621094 L 141.722656 199.65625 L 158.277344 199.65625 L 166.550781 228.621094 " fill-opacity="1" fill-rule="nonzero"/><path fill="#4b542e" d="M 100.34375 179.792969 L 100.34375 199.65625 L 30 228.621094 L 30 207.929688 L 100.34375 179.792969 " fill-opacity="1" fill-rule="nonzero"/><path fill="#c3c5c4" d="M 79.65625 241.035156 C 79.65625 245.605469 75.949219 249.308594 71.378906 249.308594 C 66.808594 249.308594 63.101562 245.605469 63.101562 241.035156 C 63.101562 236.464844 66.808594 232.757812 71.378906 232.757812 C 75.949219 232.757812 79.65625 236.464844 79.65625 241.035156 " fill-opacity="1" fill-rule="nonzero"/><path fill="#4d5730" d="M 150 270 L 87.929688 224.484375 L 100.34375 216.207031 L 100.34375 179.792969 L 112.757812 174.828125 L 150 270 " fill-opacity="1" fill-rule="nonzero"/><path fill="#454d2b" d="M 100.347656 220.347656 C 98.828125 220.347656 97.367188 219.507812 96.644531 218.058594 C 95.621094 216.011719 96.453125 213.527344 98.492188 212.503906 L 106.769531 208.367188 C 108.8125 207.34375 111.300781 208.175781 112.320312 210.21875 C 113.34375 212.261719 112.515625 214.75 110.472656 215.769531 L 102.195312 219.910156 C 101.601562 220.207031 100.96875 220.347656 100.347656 220.347656 " fill-opacity="1" fill-rule="nonzero"/><path fill="#5692d4" d="M 253.449219 253.449219 L 195.515625 253.449219 L 195.515625 236.898438 L 253.449219 236.898438 L 253.449219 253.449219 " fill-opacity="1" fill-rule="nonzero"/><path fill="#b5b7b7" d="M 253.449219 270 L 236.898438 270 L 236.898438 253.449219 L 253.449219 253.449219 L 253.449219 270 " fill-opacity="1" fill-rule="nonzero"/><path fill="#4d5730" d="M 207.929688 58.964844 C 207.929688 71.378906 191.378906 75.515625 191.378906 75.515625 L 108.621094 75.515625 C 108.621094 75.515625 92.070312 71.378906 92.070312 58.964844 C 92.070312 30 145.863281 30 150 30 C 154.136719 30 207.929688 30 207.929688 58.964844 " fill-opacity="1" fill-rule="nonzero"/><path fill="#c3c5c4" d="M 158.277344 58.964844 C 158.277344 63.535156 154.570312 67.242188 150 67.242188 C 145.429688 67.242188 141.722656 63.535156 141.722656 58.964844 C 141.722656 54.394531 145.429688 50.691406 150 50.691406 C 154.570312 50.691406 158.277344 54.394531 158.277344 58.964844 " fill-opacity="1" fill-rule="nonzero"/><path fill="#454d2b" d="M 108.617188 75.515625 C 106.765625 75.515625 105.078125 74.261719 104.605469 72.382812 C 103.378906 67.46875 104.105469 62.769531 106.714844 58.792969 C 112.921875 49.320312 127.992188 46.714844 128.628906 46.605469 C 130.886719 46.234375 133.015625 47.753906 133.390625 50.007812 C 133.765625 52.261719 132.25 54.390625 129.996094 54.769531 C 126.625 55.34375 117.117188 58 113.625 63.34375 C 112.289062 65.390625 111.964844 67.691406 112.636719 70.375 C 113.1875 72.589844 111.839844 74.839844 109.625 75.390625 C 109.289062 75.476562 108.949219 75.515625 108.617188 75.515625 " fill-opacity="1" fill-rule="nonzero"/><path fill="#454d2b" d="M 191.382812 75.515625 C 191.050781 75.515625 190.710938 75.476562 190.375 75.390625 C 188.160156 74.839844 186.8125 72.589844 187.363281 70.375 C 188.035156 67.691406 187.710938 65.390625 186.375 63.34375 C 182.882812 58 173.371094 55.34375 170.003906 54.769531 C 167.75 54.386719 166.234375 52.253906 166.613281 50.003906 C 166.992188 47.75 169.121094 46.234375 171.371094 46.605469 C 172.007812 46.714844 187.078125 49.320312 193.285156 58.792969 C 195.894531 62.769531 196.621094 67.46875 195.394531 72.382812 C 194.921875 74.261719 193.234375 75.515625 191.382812 75.515625 " fill-opacity="1" fill-rule="nonzero"/><path fill="#c2a23f" d="M 236.898438 253.449219 L 212.070312 253.449219 L 212.070312 236.898438 L 236.898438 236.898438 L 236.898438 253.449219 " fill-opacity="1" fill-rule="nonzero"/><path fill="#c6631d" d="M 236.898438 236.898438 L 253.449219 236.898438 L 253.449219 253.449219 L 236.898438 253.449219 L 236.898438 236.898438 " fill-opacity="1" fill-rule="nonzero"/><path fill="#eb2e39" d="M 236.898438 270 L 220.34375 270 L 220.34375 253.449219 L 236.898438 253.449219 L 236.898438 270 " fill-opacity="1" fill-rule="nonzero"/><path fill="#8e7733" d="M 220.34375 270 L 195.515625 270 L 195.515625 253.449219 L 220.34375 253.449219 L 220.34375 270 " fill-opacity="1" fill-rule="nonzero"/><path fill="#4d5730" d="M 191.378906 83.792969 L 191.378906 75.515625 L 108.621094 75.515625 L 108.621094 83.792969 L 100.34375 92.070312 C 100.34375 92.070312 125.171875 100.34375 150 100.34375 C 174.828125 100.34375 199.65625 92.070312 199.65625 92.070312 L 191.378906 83.792969 " fill-opacity="1" fill-rule="nonzero"/><path fill="#454d2b" d="M 191.378906 67.242188 L 191.378906 83.792969 L 108.621094 83.792969 L 108.621094 67.242188 L 191.378906 67.242188 " fill-opacity="1" fill-rule="nonzero"/></svg>