<svg xmlns="http://www.w3.org/2000/svg" xmlns:xlink="http://www.w3.org/1999/xlink" width="400" zoomAndPan="magnify" viewBox="0 0 300 299.999988" height="400" preserveAspectRatio="xMidYMid meet" version="1.0"><defs><clipPath id="9934b9c6b9"><path d="M 71.699219 31 L 228.449219 31 L 228.449219 270 L 71.699219 270 Z M 71.699219 31 " clip-rule="nonzero"/></clipPath></defs><g clip-path="url(#9934b9c6b9)"><path fill="#000000" d="M 73.269531 232.3125 C 73.316406 239.035156 72.789062 245.8125 71.6875 252.433594 C 71.617188 252.890625 71.734375 253.371094 72.011719 253.75 C 72.292969 254.128906 72.703125 254.371094 73.167969 254.433594 C 74.589844 254.625 76.019531 254.71875 77.4375 254.71875 C 83.304688 254.71875 89.117188 253.121094 94.175781 250.082031 C 94.78125 249.726562 95.101562 249.042969 95 248.355469 L 93.921875 240.796875 C 93.828125 240.167969 93.75 239.59375 93.773438 239.058594 C 93.796875 238.65625 93.890625 238.191406 93.992188 237.710938 C 94.0625 237.359375 94.132812 237.011719 94.175781 236.664062 C 94.417969 235.035156 94.269531 233.414062 94.148438 231.988281 L 93.703125 226.933594 C 93.632812 226.148438 93.550781 225.328125 93.75 224.722656 C 93.898438 224.273438 94.238281 223.800781 94.589844 223.296875 L 94.675781 223.164062 C 97.753906 218.761719 100.066406 213.882812 101.558594 208.675781 C 102.054688 206.914062 102.289062 205.148438 102.519531 203.441406 C 102.636719 202.511719 102.761719 201.589844 102.921875 200.664062 C 103.4375 197.867188 104.101562 195.042969 104.761719 192.324219 L 106.183594 186.414062 C 106.648438 189.128906 107.082031 191.851562 107.496094 194.546875 C 107.820312 196.679688 108.039062 198.457031 107.835938 200.191406 C 107.679688 201.613281 107.222656 203.03125 106.742188 204.535156 L 106.648438 204.796875 C 102.738281 216.914062 100.042969 229.453125 98.617188 242.097656 C 97.972656 247.90625 98.121094 252.859375 98.28125 258.113281 C 98.34375 259.820312 98.398438 261.574219 98.421875 263.410156 C 98.445312 265.148438 99.414062 265.503906 107.773438 266.898438 L 108.109375 266.960938 C 110.855469 267.433594 113.773438 267.796875 116.792969 268.070312 C 119.570312 268.308594 122.425781 268.457031 125.539062 268.542969 C 125.925781 268.550781 126.304688 268.542969 126.6875 268.542969 C 127.585938 268.542969 128.433594 268.542969 129.207031 268.683594 C 129.511719 268.730469 129.84375 268.828125 130.1875 268.945312 C 130.597656 269.070312 131.007812 269.203125 131.429688 269.28125 C 132.515625 269.511719 133.625 269.582031 134.742188 269.582031 C 135.773438 269.582031 136.820312 269.511719 137.839844 269.457031 C 138.621094 269.410156 139.398438 269.363281 140.136719 269.347656 L 167.21875 268.867188 C 167.847656 268.851562 168.414062 268.777344 168.964844 268.714844 C 169.492188 268.644531 169.972656 268.589844 170.441406 268.589844 C 171.835938 268.574219 173.25 268.566406 174.644531 268.527344 C 177.71875 268.457031 180.527344 268.300781 183.261719 268.054688 C 189.453125 267.511719 195.019531 266.527344 200.265625 265.0625 C 200.992188 264.851562 201.511719 264.1875 201.519531 263.417969 C 201.542969 261.574219 201.605469 259.820312 201.660156 258.113281 C 201.824219 252.859375 201.988281 247.90625 201.328125 242.097656 C 199.90625 229.453125 197.207031 216.914062 193.292969 204.796875 L 193.210938 204.527344 C 192.71875 203.023438 192.269531 201.613281 192.109375 200.191406 C 191.90625 198.457031 192.136719 196.679688 192.457031 194.546875 C 192.859375 191.835938 193.292969 189.121094 193.761719 186.398438 L 195.203125 192.410156 C 195.855469 195.105469 196.523438 197.90625 197.019531 200.664062 C 197.183594 201.589844 197.316406 202.511719 197.429688 203.425781 C 197.664062 205.148438 197.890625 206.914062 198.386719 208.675781 C 199.875 213.882812 202.195312 218.761719 205.269531 223.164062 L 205.363281 223.304688 C 205.71875 223.800781 206.046875 224.289062 206.191406 224.722656 C 206.394531 225.328125 206.324219 226.148438 206.246094 226.933594 L 205.804688 231.988281 C 205.671875 233.414062 205.539062 235.035156 205.765625 236.664062 C 205.828125 237.011719 205.898438 237.359375 205.96875 237.710938 C 206.054688 238.191406 206.152344 238.65625 206.167969 239.058594 C 206.191406 239.59375 206.113281 240.167969 206.023438 240.804688 L 204.945312 248.355469 C 204.84375 249.042969 205.167969 249.726562 205.765625 250.082031 C 212.050781 253.867188 219.511719 255.410156 226.773438 254.433594 C 227.238281 254.371094 227.660156 254.128906 227.945312 253.75 C 228.226562 253.371094 228.339844 252.890625 228.257812 252.433594 C 227.160156 245.8125 226.640625 239.035156 226.679688 232.3125 C 226.679688 231.808594 226.664062 231.335938 226.648438 230.863281 C 226.609375 230.035156 226.585938 229.242188 226.695312 228.460938 C 226.953125 226.53125 227.160156 224.816406 227.308594 223.234375 C 227.660156 219.511719 227.757812 216.210938 227.636719 213.148438 C 227.355469 206.835938 226.019531 200.648438 224.742188 194.664062 C 223.636719 189.5 222.589844 184.136719 221.574219 178.957031 C 220.703125 174.523438 219.8125 169.957031 218.867188 165.476562 L 218.945312 165.484375 C 219.433594 165.527344 219.898438 165.382812 220.253906 165.078125 C 220.613281 164.769531 220.828125 164.328125 220.851562 163.855469 C 221.015625 160.976562 221.054688 158.039062 220.976562 155.140625 C 220.78125 147.292969 219.765625 139.457031 217.941406 131.828125 C 216.390625 125.375 212.765625 120.214844 207.195312 116.492188 C 196.539062 109.382812 185.535156 102.046875 173.421875 97.007812 L 173.4375 96.921875 C 173.660156 92.613281 173.910156 88.164062 173.109375 83.96875 C 172.410156 80.394531 173.132812 76.480469 173.832031 72.6875 C 173.980469 71.84375 174.125 71.011719 174.265625 70.191406 C 175.160156 64.792969 175.964844 57.707031 174.375 50.714844 C 172.707031 43.480469 168.5625 37.566406 163.019531 34.503906 C 162.78125 34.363281 162.570312 34.203125 162.363281 34.054688 C 161.910156 33.707031 161.34375 33.277344 160.546875 33.015625 C 159.863281 32.789062 159.109375 32.589844 158.28125 32.378906 C 150.386719 30.480469 139.46875 30.921875 132.46875 37.851562 C 129.140625 41.171875 126.757812 45.605469 125.585938 50.714844 C 123.976562 57.699219 124.785156 64.792969 125.675781 70.191406 C 125.816406 71.011719 125.964844 71.84375 126.128906 72.6875 C 126.808594 76.480469 127.53125 80.394531 126.847656 83.96875 C 126.035156 88.164062 126.28125 92.613281 126.523438 96.914062 L 126.523438 97.007812 C 114.410156 102.046875 103.40625 109.382812 92.757812 116.492188 C 87.175781 120.214844 83.5625 125.375 82.007812 131.828125 C 80.175781 139.457031 79.160156 147.300781 78.96875 155.140625 C 78.898438 158.039062 78.929688 160.976562 79.089844 163.855469 C 79.113281 164.328125 79.332031 164.769531 79.6875 165.070312 C 80.054688 165.382812 80.511719 165.527344 81 165.484375 L 81.085938 165.476562 C 80.148438 169.941406 79.253906 174.507812 78.386719 178.933594 C 77.367188 184.128906 76.3125 189.484375 75.203125 194.664062 C 73.921875 200.648438 72.585938 206.84375 72.308594 213.148438 C 72.183594 216.210938 72.292969 219.511719 72.648438 223.234375 C 72.789062 224.808594 73 226.523438 73.246094 228.445312 C 73.355469 229.242188 73.332031 230.035156 73.292969 230.855469 C 73.285156 231.328125 73.261719 231.808594 73.269531 232.3125 " fill-opacity="1" fill-rule="nonzero"/><path fill="#000000" d="M 96.503906 130.71875 C 95.707031 126.964844 95.070312 123.175781 94.757812 119.335938 C 94.734375 119.34375 94.707031 119.359375 94.683594 119.367188 C 89.847656 122.59375 86.726562 127.066406 85.386719 132.640625 C 83.617188 140.039062 82.621094 147.628906 82.4375 155.21875 C 82.375 157.425781 82.390625 159.644531 82.46875 161.847656 L 82.972656 161.800781 C 84.042969 161.3125 84.964844 160.351562 85.507812 159.351562 C 86.371094 157.785156 86.695312 155.960938 87.039062 154.039062 L 87.175781 153.28125 C 88.257812 147.410156 90.09375 141.695312 92.664062 136.300781 C 93.625 134.269531 94.765625 132.207031 96.503906 130.71875 Z M 102.101562 188.554688 L 104.011719 180.578125 C 103.847656 178.507812 103.28125 175.941406 102.550781 173.144531 C 100.78125 166.304688 98.445312 161 98.941406 160.746094 C 99.316406 160.527344 101.613281 164.023438 103.4375 169.3125 L 103.421875 168.871094 C 103.40625 167.414062 103.382812 165.910156 103.304688 164.453125 C 102.90625 156.644531 100.921875 148.820312 99.011719 141.246094 C 98.351562 138.65625 97.691406 136.042969 97.09375 133.402344 C 96.140625 134.53125 95.402344 135.90625 94.742188 137.292969 C 92.285156 142.511719 90.484375 148.023438 89.445312 153.699219 L 89.320312 154.441406 C 88.953125 156.464844 88.589844 158.558594 87.550781 160.457031 C 87.199219 161.09375 86.78125 161.660156 86.324219 162.164062 C 85.671875 164.023438 84.886719 166.40625 84.757812 169.058594 C 84.609375 172.082031 85.191406 174.894531 85.523438 176.949219 C 85.890625 178.996094 86.058594 180.3125 85.789062 180.390625 C 85.53125 180.460938 84.910156 179.296875 84.199219 177.296875 C 83.800781 176.152344 83.359375 174.707031 83.078125 173.058594 C 82.644531 175.25 82.21875 177.445312 81.785156 179.609375 C 80.765625 184.8125 79.703125 190.183594 78.59375 195.394531 C 77.398438 200.953125 76.1875 206.683594 75.839844 212.394531 C 75.933594 213.699219 76.035156 215.132812 76.195312 216.636719 C 76.777344 222.589844 77.886719 227.375 77.34375 227.539062 C 77.183594 227.589844 76.847656 227.09375 76.46875 226.195312 C 76.53125 226.769531 76.609375 227.359375 76.683594 227.988281 C 76.832031 229.074219 76.800781 230.042969 76.769531 230.980469 C 76.753906 231.40625 76.730469 231.832031 76.746094 232.289062 C 76.746094 232.808594 76.722656 233.328125 76.722656 233.847656 C 77.136719 235.121094 77.578125 236.800781 77.957031 238.679688 C 78.167969 239.703125 78.339844 240.6875 78.46875 241.585938 C 78.59375 242.492188 78.6875 243.207031 78.882812 243.75 C 79.246094 244.835938 79.945312 245.230469 79.890625 245.492188 C 79.859375 245.625 79.601562 245.71875 79.144531 245.585938 C 78.710938 245.460938 78.121094 245.066406 77.65625 244.382812 C 77.191406 243.71875 76.925781 242.820312 76.707031 241.949219 C 76.632812 241.648438 76.546875 241.320312 76.476562 241.003906 C 76.257812 244.40625 75.910156 247.804688 75.40625 251.183594 C 80.945312 251.578125 86.535156 250.355469 91.398438 247.679688 L 90.484375 241.292969 C 90.4375 240.964844 90.398438 240.609375 90.359375 240.253906 C 89.847656 240.839844 89.296875 241.335938 88.753906 241.765625 C 87.675781 242.609375 86.609375 243.199219 85.710938 243.632812 C 83.902344 244.492188 82.699219 244.789062 82.582031 244.570312 C 82.445312 244.316406 83.445312 243.5625 85.003906 242.445312 C 86.542969 241.316406 88.714844 239.773438 89.988281 237.390625 C 90.359375 236.703125 90.625 235.980469 90.824219 235.265625 C 90.863281 234.296875 90.777344 233.28125 90.683594 232.289062 L 90.242188 227.234375 C 90.148438 226.203125 90.035156 224.933594 90.453125 223.660156 C 90.554688 223.351562 90.667969 223.070312 90.808594 222.808594 C 90.195312 223.28125 89.582031 223.699219 89.015625 224.03125 C 86.898438 225.28125 85.371094 225.558594 85.292969 225.328125 C 85.175781 225.0625 86.449219 224.34375 88.234375 222.902344 C 90.011719 221.46875 92.246094 219.210938 94.175781 216.304688 C 95.332031 214.582031 96.273438 212.84375 97.050781 211.289062 C 97.484375 210.117188 97.878906 208.929688 98.214844 207.730469 C 98.429688 206.960938 98.601562 206.1875 98.734375 205.394531 C 97.753906 206.503906 96.699219 207.378906 95.761719 208.0625 C 93.003906 209.96875 91.136719 210.746094 91.011719 210.550781 C 90.832031 210.300781 92.484375 209.078125 94.890625 206.984375 C 96.070312 205.921875 97.414062 204.582031 98.429688 202.859375 C 98.796875 202.261719 99.097656 201.589844 99.371094 200.882812 C 99.414062 200.605469 99.460938 200.332031 99.507812 200.054688 C 99.890625 197.929688 100.378906 195.820312 100.867188 193.75 C 99.136719 195.867188 97.289062 197.496094 95.777344 198.542969 C 93.984375 199.765625 92.703125 200.238281 92.578125 200.03125 C 92.261719 199.542969 96.535156 196.550781 100.191406 191.441406 C 100.90625 190.460938 101.535156 189.484375 102.101562 188.554688 Z M 113.796875 240.445312 C 113.421875 240.328125 113.058594 240.136719 112.734375 239.863281 C 112.222656 239.453125 111.808594 238.871094 111.46875 238.121094 C 108.292969 234.703125 105.964844 230.546875 104.667969 226.078125 C 103.574219 231.515625 102.691406 236.988281 102.070312 242.476562 C 101.441406 248.035156 101.597656 252.648438 101.75 258 C 101.796875 259.378906 101.84375 260.773438 101.867188 262.230469 C 102.480469 262.378906 103.550781 262.628906 105.375 262.960938 C 106.601562 255 109.503906 247.261719 113.796875 240.445312 Z M 112.78125 227.066406 C 113.796875 225.722656 115.160156 224.746094 116.636719 224.265625 C 112.871094 221.28125 109.855469 217.433594 107.804688 213.0625 C 107.128906 215.488281 106.492188 217.917969 105.917969 220.375 C 106.363281 225.042969 108.015625 229.546875 110.652344 233.40625 C 110.675781 233.035156 110.683594 232.65625 110.746094 232.273438 C 111.011719 230.265625 111.714844 228.460938 112.78125 227.066406 Z M 120.089844 214.496094 C 120.113281 212.164062 120.253906 209.503906 121.214844 207.101562 C 117.589844 206.132812 114.121094 204.71875 110.847656 202.898438 C 110.605469 203.820312 110.328125 204.71875 110.039062 205.597656 L 109.953125 205.867188 C 109.496094 207.261719 109.0625 208.675781 108.652344 210.085938 C 108.675781 210.117188 108.699219 210.164062 108.730469 210.203125 C 108.96875 210.316406 109.195312 210.511719 109.296875 210.792969 C 109.339844 210.882812 109.386719 210.960938 109.425781 211.054688 C 112.234375 214.378906 116.03125 216.847656 120.230469 218.03125 C 120.082031 216.832031 120.066406 215.644531 120.089844 214.496094 Z M 120.75 227.042969 C 120.394531 226.832031 120.042969 226.613281 119.6875 226.390625 C 119.167969 226.25 118.625 226.195312 118.078125 226.289062 C 116.785156 226.484375 115.519531 227.273438 114.632812 228.445312 C 113.8125 229.539062 113.253906 230.964844 113.035156 232.585938 C 112.824219 234.160156 112.964844 235.625 113.4375 236.847656 C 113.859375 237.28125 114.285156 237.710938 114.726562 238.113281 C 114.734375 237.359375 114.898438 236.632812 115.085938 235.949219 C 115.472656 234.46875 116.007812 232.746094 116.953125 231.171875 C 117.949219 229.523438 119.289062 228.179688 120.75 227.042969 Z M 122.519531 246.757812 C 122.117188 246.601562 121.734375 246.410156 121.394531 246.222656 C 119.351562 245.066406 117.519531 243.476562 116.101562 241.585938 C 116.054688 241.515625 116 241.453125 115.945312 241.375 C 111.699219 248.011719 108.84375 255.570312 107.65625 263.363281 C 107.890625 263.402344 108.109375 263.433594 108.347656 263.480469 L 108.699219 263.542969 C 111.359375 264 114.175781 264.355469 117.09375 264.613281 C 117.398438 264.652344 117.699219 264.660156 117.988281 264.683594 C 119.625 258.75 121.152344 252.734375 122.519531 246.757812 Z M 122.851562 225.515625 C 123.289062 225.226562 123.714844 224.949219 124.140625 224.667969 C 123.890625 224.542969 123.652344 224.390625 123.425781 224.226562 C 122.261719 223.375 121.363281 222.054688 120.8125 220.488281 C 120.734375 220.496094 120.679688 220.519531 120.625 220.519531 C 120.53125 220.519531 120.4375 220.503906 120.347656 220.488281 C 117.722656 219.839844 115.246094 218.707031 112.988281 217.242188 C 115.070312 220 117.644531 222.375 120.585938 224.226562 C 121.449219 224.5 122.222656 224.925781 122.851562 225.515625 Z M 125.722656 244.144531 C 127.75 242.894531 129.589844 241.390625 131.210938 239.65625 C 126.871094 237.59375 123.179688 234.304688 120.625 230.226562 C 119.972656 230.886719 119.398438 231.59375 118.933594 232.367188 C 118.132812 233.691406 117.667969 235.21875 117.3125 236.546875 C 117.132812 237.246094 116.96875 237.925781 117.070312 238.515625 C 117.171875 239.113281 117.566406 239.703125 117.941406 240.191406 C 119.175781 241.820312 120.757812 243.207031 122.542969 244.214844 C 123.054688 244.5 123.652344 244.789062 124.195312 244.765625 C 124.683594 244.742188 125.234375 244.429688 125.722656 244.144531 Z M 129.078125 235.753906 L 132.101562 231.011719 C 130.410156 229.003906 128.199219 227.382812 125.769531 226.382812 C 124.660156 227.085938 123.480469 227.839844 122.378906 228.691406 C 124.09375 231.5 126.382812 233.894531 129.078125 235.753906 Z M 131.667969 207.449219 C 132.011719 207.457031 132.351562 207.472656 132.683594 207.480469 C 132.570312 207.1875 132.367188 206.882812 132.050781 206.628906 C 131.519531 206.179688 130.769531 205.890625 130.109375 205.644531 C 128.648438 205.117188 126.78125 204.597656 125.390625 205.324219 C 124.496094 205.78125 123.890625 206.75 123.558594 207.472656 C 122.558594 209.636719 122.441406 212.140625 122.402344 214.535156 C 122.378906 216.015625 122.394531 217.574219 122.75 219.007812 C 123.109375 220.472656 123.839844 221.660156 124.800781 222.359375 C 125.585938 222.949219 126.671875 223.304688 128.199219 223.515625 C 128.9375 223.605469 129.78125 223.660156 130.464844 223.414062 C 130.839844 223.273438 131.140625 223.003906 131.289062 222.730469 L 130.289062 221.824219 C 129.820312 222.078125 129.285156 222.21875 128.765625 222.21875 C 128.003906 222.21875 127.238281 221.980469 126.648438 221.574219 C 125.375 220.691406 124.824219 219.273438 124.519531 218.289062 C 123.847656 216.140625 123.691406 213.832031 124.070312 211.597656 C 124.289062 210.28125 124.675781 209.21875 125.25 208.371094 C 126.050781 207.210938 127.214844 206.441406 128.464844 206.269531 C 129.691406 206.109375 130.90625 206.582031 131.667969 207.449219 Z M 140.546875 207.730469 L 140.546875 160.816406 L 115.269531 160.816406 C 114.527344 160.816406 113.9375 160.210938 113.9375 159.488281 L 113.9375 143.308594 C 113.9375 142.566406 114.527344 141.976562 115.269531 141.976562 L 140.546875 141.976562 L 140.546875 134.292969 C 137.621094 133.609375 134.851562 132.703125 132.390625 131.820312 C 129.039062 130.617188 125.507812 129.191406 122.441406 127.011719 C 118.761719 124.382812 116.015625 120.894531 113.363281 117.507812 C 111.691406 115.390625 109.855469 113.050781 108.566406 110.367188 C 105.019531 112.554688 101.519531 114.824219 98.074219 117.113281 C 98.46875 124.949219 100.449219 132.796875 102.363281 140.394531 C 104.335938 148.125 106.363281 156.125 106.773438 164.273438 C 106.859375 165.792969 106.867188 167.335938 106.890625 168.808594 L 106.90625 169.320312 C 106.90625 169.714844 106.882812 170.140625 106.84375 170.5625 C 106.8125 171.113281 106.773438 171.628906 106.84375 172.011719 C 106.914062 172.328125 107.019531 172.644531 107.105469 172.964844 C 107.238281 173.367188 107.386719 173.816406 107.480469 174.304688 C 107.921875 176.484375 108.332031 178.671875 108.742188 180.855469 C 109.542969 185.238281 110.28125 189.671875 110.925781 194.042969 C 111.203125 195.890625 111.546875 198.199219 111.296875 200.503906 C 114.75 202.503906 118.460938 204.039062 122.332031 205.023438 C 122.332031 205.023438 122.347656 205.023438 122.355469 205.023438 C 122.921875 204.261719 123.574219 203.660156 124.328125 203.277344 C 126.546875 202.125 129.140625 202.835938 130.90625 203.472656 C 131.738281 203.773438 132.707031 204.171875 133.53125 204.851562 C 134.421875 205.589844 134.960938 206.558594 135.058594 207.566406 C 136.875 207.621094 138.707031 207.683594 140.546875 207.730469 Z M 140.546875 228.21875 L 140.546875 224.242188 C 140.476562 224.242188 140.40625 224.25 140.335938 224.25 C 137.953125 224.25 135.570312 224.1875 133.183594 224.054688 C 132.761719 224.722656 132.101562 225.265625 131.28125 225.574219 C 130.769531 225.769531 130.25 225.839844 129.742188 225.871094 C 131.21875 226.839844 132.570312 228.019531 133.734375 229.351562 C 136.007812 229.019531 138.273438 228.628906 140.546875 228.21875 Z M 140.546875 265.875 L 140.546875 239.6875 C 138.117188 240.089844 135.710938 240.476562 133.3125 240.863281 C 133.273438 240.871094 133.242188 240.871094 133.207031 240.871094 C 131.375 242.902344 129.277344 244.679688 126.925781 246.105469 C 126.335938 246.46875 125.644531 246.851562 124.847656 246.996094 C 123.480469 252.953125 121.96875 258.9375 120.363281 264.851562 C 122.046875 264.960938 123.785156 265.03125 125.625 265.078125 C 125.964844 265.085938 126.3125 265.078125 126.671875 265.078125 C 127.679688 265.078125 128.742188 265.078125 129.820312 265.253906 C 130.339844 265.347656 130.816406 265.503906 131.234375 265.644531 C 131.535156 265.738281 131.824219 265.820312 132.132812 265.898438 C 133.78125 266.234375 135.734375 266.101562 137.628906 266 C 138.46875 265.945312 139.28125 265.898438 140.074219 265.882812 Z M 156.742188 224.574219 L 156.742188 223.257812 C 152.242188 223.800781 147.726562 224.117188 143.207031 224.21875 L 143.207031 227.722656 C 147.765625 226.832031 152.273438 225.777344 156.742188 224.574219 Z M 156.742188 265.582031 L 156.742188 236.625 C 152.242188 237.617188 147.71875 238.46875 143.207031 239.230469 L 143.207031 265.644531 L 153.609375 265.644531 Z M 159.398438 223.839844 C 161.648438 223.203125 163.890625 222.527344 166.109375 221.816406 C 163.875 222.234375 161.648438 222.597656 159.398438 222.910156 Z M 183.347656 158.15625 L 183.347656 144.636719 L 158.070312 144.636719 C 157.332031 144.636719 156.742188 144.03125 156.742188 143.308594 L 156.742188 134.835938 C 155.671875 135.027344 154.59375 135.191406 153.5 135.308594 C 153.195312 135.339844 152.902344 135.378906 152.589844 135.402344 C 152.429688 135.410156 152.265625 135.433594 152.09375 135.433594 C 151.402344 135.480469 150.714844 135.515625 150.03125 135.515625 C 150.007812 135.515625 150 135.515625 149.976562 135.515625 C 149.960938 135.515625 149.9375 135.515625 149.914062 135.515625 C 149.230469 135.515625 148.539062 135.480469 147.855469 135.433594 C 147.695312 135.433594 147.523438 135.410156 147.359375 135.402344 C 147.050781 135.378906 146.746094 135.339844 146.445312 135.308594 C 145.34375 135.191406 144.273438 135.027344 143.207031 134.835938 L 143.207031 143.308594 C 143.207031 144.03125 142.601562 144.636719 141.875 144.636719 L 116.597656 144.636719 L 116.597656 158.15625 L 141.875 158.15625 C 142.601562 158.15625 143.207031 158.746094 143.207031 159.488281 L 143.207031 207.78125 C 147.71875 207.867188 152.242188 207.851562 156.742188 207.644531 L 156.742188 159.488281 C 156.742188 158.746094 157.332031 158.15625 158.070312 158.15625 Z M 186 223.910156 C 184.992188 221.941406 183.953125 219.976562 182.894531 218.046875 C 167.398438 224.566406 151.164062 229.105469 134.492188 231.570312 C 134.492188 231.585938 134.492188 231.585938 134.484375 231.59375 L 131.046875 236.957031 C 131.855469 237.40625 132.683594 237.816406 133.554688 238.167969 C 133.695312 238.230469 133.808594 238.328125 133.910156 238.421875 C 144.363281 236.753906 155.128906 235.003906 165.441406 232.058594 C 173.203125 229.839844 179.992188 227.140625 186 223.910156 Z M 183.867188 115.367188 C 185.558594 113.21875 187.296875 111.003906 188.40625 108.550781 C 183.308594 105.519531 178.039062 102.753906 172.605469 100.449219 C 172.605469 100.574219 172.613281 100.707031 172.628906 100.847656 C 172.855469 104.753906 172.402344 107.917969 171.875 107.902344 C 171.316406 107.902344 170.914062 104.785156 170.664062 100.953125 C 170.648438 100.472656 170.625 99.984375 170.601562 99.527344 C 170.601562 99.527344 170.585938 99.527344 170.570312 99.511719 C 169.6875 101.550781 168.320312 103.117188 167.078125 103.976562 C 165.589844 105 164.441406 105.132812 164.363281 104.910156 C 164.238281 104.636719 165.117188 104.078125 166.179688 102.925781 C 167.242188 101.792969 168.460938 99.984375 169.175781 97.738281 C 169.898438 95.457031 170.050781 93.242188 170.160156 91.613281 C 170.167969 91.480469 170.167969 91.363281 170.183594 91.238281 C 170.207031 88.960938 170.105469 86.71875 169.695312 84.625 C 169.570312 83.96875 169.492188 83.308594 169.4375 82.640625 C 168.839844 85.167969 168.421875 86.914062 168.042969 86.890625 C 167.523438 86.882812 167.265625 82.953125 168.507812 78.316406 C 168.941406 76.625 169.515625 75.105469 170.089844 73.882812 C 170.191406 73.277344 170.300781 72.664062 170.417969 72.066406 C 170.546875 71.246094 170.703125 70.429688 170.84375 69.625 C 171.675781 64.539062 172.449219 57.894531 170.984375 51.492188 C 169.546875 45.21875 166.03125 40.132812 161.335938 37.535156 C 160.917969 37.304688 160.570312 37.046875 160.28125 36.8125 C 159.957031 36.574219 159.699219 36.386719 159.472656 36.308594 C 158.871094 36.109375 158.210938 35.921875 157.472656 35.753906 C 150.496094 34.0625 140.902344 34.386719 134.921875 40.320312 C 132.042969 43.171875 129.984375 47.03125 128.960938 51.492188 C 127.492188 57.886719 128.269531 64.539062 129.101562 69.625 C 129.238281 70.429688 129.394531 71.246094 129.542969 72.066406 C 129.652344 72.664062 129.757812 73.277344 129.867188 73.882812 C 130.433594 75.113281 131 76.625 131.4375 78.316406 C 132.675781 82.953125 132.421875 86.882812 131.902344 86.890625 C 131.519531 86.914062 131.101562 85.167969 130.511719 82.640625 C 130.457031 83.308594 130.371094 83.96875 130.25 84.625 C 129.84375 86.71875 129.742188 88.960938 129.757812 91.238281 C 129.773438 91.363281 129.78125 91.480469 129.78125 91.613281 C 129.890625 93.242188 130.054688 95.457031 130.769531 97.738281 C 131.488281 99.984375 132.699219 101.792969 133.78125 102.925781 C 134.828125 104.078125 135.710938 104.636719 135.578125 104.910156 C 135.503906 105.132812 134.355469 105 132.871094 103.976562 C 131.621094 103.117188 130.265625 101.550781 129.371094 99.511719 C 129.355469 99.527344 129.355469 99.527344 129.347656 99.527344 C 129.324219 99.984375 129.300781 100.472656 129.277344 100.953125 C 129.046875 104.785156 128.625 107.902344 128.082031 107.902344 C 127.554688 107.917969 127.089844 104.753906 127.324219 100.847656 C 127.332031 100.707031 127.347656 100.574219 127.355469 100.449219 C 121.90625 102.753906 116.652344 105.519531 111.546875 108.550781 C 112.65625 111.003906 114.386719 113.21875 116.078125 115.367188 C 118.585938 118.5625 121.191406 121.855469 124.453125 124.191406 C 127.183594 126.128906 130.441406 127.4375 133.554688 128.554688 C 136.796875 129.726562 140.3125 130.84375 143.9375 131.492188 C 144.15625 131.453125 144.378906 131.453125 144.613281 131.5 C 145.980469 131.804688 147.359375 131.964844 148.734375 132.035156 C 148.835938 132.035156 148.945312 132.035156 149.042969 132.035156 C 149.371094 132.050781 149.679688 132.058594 150.007812 132.058594 C 150.253906 132.058594 150.496094 132.050781 150.734375 132.050781 C 150.921875 132.035156 151.09375 132.035156 151.273438 132.027344 C 152.621094 131.964844 153.988281 131.796875 155.332031 131.5 C 155.5625 131.453125 155.789062 131.445312 156.011719 131.492188 C 159.628906 130.84375 163.152344 129.726562 166.390625 128.554688 C 169.5 127.4375 172.761719 126.128906 175.492188 124.191406 C 178.75 121.855469 181.359375 118.5625 183.867188 115.367188 Z M 188.761719 201.230469 C 188.730469 201.046875 188.691406 200.859375 188.667969 200.664062 C 185.699219 200.875 182.75 201.378906 179.875 202.167969 C 180.0625 202.8125 180.257812 203.464844 180.488281 204.109375 C 183.382812 203.285156 186.140625 202.324219 188.761719 201.230469 Z M 191.527344 211.621094 C 191.585938 211.597656 191.65625 211.597656 191.726562 211.574219 C 191.175781 209.667969 190.601562 207.757812 190.003906 205.867188 L 189.902344 205.589844 C 189.6875 204.90625 189.46875 204.214844 189.273438 203.519531 C 181.164062 206.859375 171.9375 208.890625 161.113281 209.714844 C 156.820312 210.039062 152.496094 210.15625 148.175781 210.15625 C 143.589844 210.15625 138.996094 210.015625 134.46875 209.859375 C 133.765625 209.953125 133.050781 210 132.34375 210 C 131.949219 210 131.550781 209.992188 131.164062 209.96875 C 130.824219 209.929688 130.550781 209.777344 130.347656 209.527344 C 130.242188 209.433594 130.132812 209.308594 130.0625 209.15625 C 129.875 208.753906 129.300781 208.488281 128.765625 208.574219 C 128.191406 208.636719 127.585938 209.054688 127.175781 209.667969 C 126.78125 210.234375 126.515625 211 126.34375 211.992188 C 126.035156 213.851562 126.167969 215.792969 126.734375 217.597656 C 127.058594 218.636719 127.460938 219.320312 127.96875 219.667969 C 128.425781 219.976562 129.09375 219.984375 129.332031 219.691406 C 129.675781 219.273438 130.242188 219.164062 130.707031 219.390625 C 130.914062 219.414062 131.140625 219.488281 131.3125 219.644531 L 133.375 221.480469 C 133.46875 221.558594 133.53125 221.660156 133.59375 221.769531 C 152.039062 222.707031 170.78125 219.777344 188.085938 213.25 C 189.234375 212.722656 190.382812 212.179688 191.527344 211.621094 Z M 193.738281 219.132812 C 193.316406 217.417969 192.882812 215.722656 192.417969 214.023438 C 191.285156 214.488281 190.152344 214.9375 189.003906 215.367188 C 187.683594 215.976562 186.355469 216.566406 185.03125 217.148438 C 186.046875 219.007812 187.046875 220.894531 188.027344 222.785156 C 190.019531 221.628906 191.921875 220.414062 193.738281 219.132812 Z M 189.847656 224.414062 L 196.421875 232.1875 C 195.816406 228.628906 195.101562 225.085938 194.304688 221.558594 C 192.859375 222.542969 191.386719 223.5 189.847656 224.414062 Z M 198.191406 258 C 198.363281 252.648438 198.503906 248.035156 197.882812 242.476562 C 197.65625 240.515625 197.390625 238.546875 197.113281 236.601562 L 187.816406 225.582031 C 187.792969 225.582031 187.753906 225.589844 187.730469 225.589844 C 181.429688 229.066406 174.273438 231.941406 166.078125 234.273438 C 163.867188 234.894531 161.632812 235.460938 159.398438 235.996094 L 159.398438 265.535156 L 167.148438 265.394531 C 167.601562 265.386719 168.050781 265.324219 168.539062 265.269531 C 169.144531 265.195312 169.757812 265.117188 170.425781 265.117188 C 171.796875 265.109375 173.1875 265.101562 174.570312 265.0625 C 177.554688 264.992188 180.296875 264.84375 182.957031 264.613281 C 188.453125 264.117188 193.410156 263.277344 198.074219 262.054688 C 198.105469 260.65625 198.144531 259.316406 198.191406 258 Z M 197.578125 140.394531 C 199.496094 132.796875 201.472656 124.949219 201.871094 117.113281 C 198.425781 114.824219 194.933594 112.554688 191.378906 110.367188 C 190.097656 113.050781 188.265625 115.390625 186.597656 117.507812 C 183.9375 120.894531 181.1875 124.382812 177.503906 127.011719 C 174.445312 129.191406 170.914062 130.617188 167.570312 131.820312 C 165.09375 132.703125 162.332031 133.59375 159.398438 134.292969 L 159.398438 141.976562 L 184.679688 141.976562 C 185.410156 141.976562 186.007812 142.566406 186.007812 143.308594 L 186.007812 159.488281 C 186.007812 160.210938 185.410156 160.816406 184.679688 160.816406 L 159.398438 160.816406 L 159.398438 207.496094 C 159.910156 207.457031 160.429688 207.441406 160.941406 207.402344 C 167.242188 206.929688 172.96875 206.03125 178.246094 204.695312 C 177.914062 203.726562 177.601562 202.742188 177.355469 201.75 C 177.347656 201.742188 177.355469 201.710938 177.355469 201.6875 C 177.347656 201.6875 177.347656 201.6875 177.347656 201.679688 C 177.160156 201.070312 177.503906 200.425781 178.117188 200.246094 C 181.484375 199.230469 184.96875 198.601562 188.476562 198.363281 C 188.523438 198.339844 188.546875 198.316406 188.59375 198.292969 C 188.636719 196.773438 188.832031 195.300781 189.019531 194.042969 C 189.679688 189.640625 190.414062 185.199219 191.207031 180.855469 C 191.609375 178.671875 192.023438 176.484375 192.464844 174.304688 C 192.558594 173.847656 192.699219 173.398438 192.835938 172.964844 C 192.929688 172.644531 193.039062 172.328125 193.101562 172.011719 C 193.171875 171.628906 193.132812 171.113281 193.101562 170.5625 C 193.070312 170.140625 193.039062 169.714844 193.039062 169.320312 L 193.054688 168.808594 C 193.078125 167.335938 193.101562 165.792969 193.171875 164.273438 C 193.597656 156.125 195.621094 148.125 197.578125 140.394531 Z M 217.476562 161.847656 C 217.5625 159.644531 217.570312 157.425781 217.507812 155.21875 C 217.328125 147.628906 216.328125 140.023438 214.558594 132.640625 C 213.214844 127.058594 210.097656 122.59375 205.261719 119.367188 C 205.238281 119.359375 205.214844 119.34375 205.199219 119.335938 C 204.882812 123.175781 204.246094 126.964844 203.453125 130.71875 C 205.175781 132.207031 206.324219 134.269531 207.28125 136.300781 C 209.855469 141.695312 211.695312 147.410156 212.765625 153.28125 L 212.90625 154.03125 C 213.253906 155.960938 213.582031 157.777344 214.433594 159.351562 C 214.976562 160.34375 215.894531 161.3125 216.964844 161.800781 Z M 223.761719 216.636719 C 223.910156 215.132812 224.027344 213.714844 224.105469 212.410156 C 223.761719 206.683594 222.542969 200.953125 221.347656 195.394531 C 220.238281 190.191406 219.191406 184.820312 218.175781 179.632812 C 217.742188 177.460938 217.304688 175.25 216.871094 173.058594 C 216.585938 174.707031 216.140625 176.152344 215.753906 177.296875 C 215.03125 179.296875 214.410156 180.460938 214.15625 180.390625 C 213.898438 180.3125 214.054688 178.996094 214.425781 176.949219 C 214.769531 174.894531 215.335938 172.082031 215.1875 169.058594 C 215.0625 166.40625 214.273438 164.023438 213.621094 162.164062 C 213.160156 161.660156 212.757812 161.09375 212.394531 160.457031 C 211.367188 158.558594 210.988281 156.457031 210.632812 154.433594 L 210.5 153.699219 C 209.460938 148.023438 207.675781 142.511719 205.199219 137.292969 C 204.539062 135.90625 203.800781 134.53125 202.855469 133.402344 C 202.25 136.042969 201.589844 138.65625 200.945312 141.238281 C 199.023438 148.804688 197.042969 156.644531 196.640625 164.453125 C 196.5625 165.910156 196.546875 167.414062 196.523438 168.871094 L 196.515625 169.3125 C 198.332031 164.023438 200.628906 160.527344 201 160.746094 C 201.496094 161 199.160156 166.304688 197.390625 173.144531 C 196.664062 175.941406 196.097656 178.507812 195.933594 180.570312 L 197.84375 188.554688 C 198.410156 189.484375 199.046875 190.460938 199.75 191.441406 C 203.40625 196.550781 207.691406 199.542969 207.378906 200.03125 C 207.242188 200.238281 205.96875 199.765625 204.183594 198.542969 C 202.652344 197.496094 200.808594 195.867188 199.085938 193.75 C 199.582031 195.84375 200.054688 197.953125 200.433594 200.054688 C 200.480469 200.332031 200.527344 200.605469 200.574219 200.882812 C 200.855469 201.589844 201.15625 202.261719 201.511719 202.859375 C 202.546875 204.582031 203.871094 205.921875 205.050781 206.984375 C 207.457031 209.078125 209.109375 210.300781 208.941406 210.550781 C 208.808594 210.746094 206.9375 209.96875 204.183594 208.0625 C 203.242188 207.378906 202.203125 206.503906 201.21875 205.394531 C 201.351562 206.1875 201.511719 206.960938 201.730469 207.730469 C 202.078125 208.9375 202.46875 210.117188 202.902344 211.289062 C 203.6875 212.84375 204.625 214.582031 205.765625 216.304688 C 207.699219 219.210938 209.933594 221.46875 211.71875 222.902344 C 213.496094 224.34375 214.769531 225.0625 214.652344 225.328125 C 214.574219 225.558594 213.0625 225.28125 210.925781 224.03125 C 210.359375 223.699219 209.761719 223.28125 209.132812 222.808594 C 209.273438 223.070312 209.398438 223.351562 209.492188 223.660156 C 209.910156 224.933594 209.792969 226.203125 209.699219 227.234375 L 209.265625 232.289062 C 209.164062 233.28125 209.085938 234.296875 209.125 235.265625 C 209.320312 235.980469 209.585938 236.703125 209.957031 237.390625 C 211.230469 239.773438 213.417969 241.316406 214.945312 242.445312 C 216.507812 243.5625 217.5 244.316406 217.359375 244.570312 C 217.242188 244.789062 216.054688 244.492188 214.234375 243.632812 C 213.332031 243.199219 212.269531 242.609375 211.199219 241.765625 C 210.648438 241.335938 210.097656 240.839844 209.585938 240.253906 C 209.554688 240.609375 209.507812 240.957031 209.460938 241.277344 L 208.542969 247.679688 C 213.425781 250.355469 219.011719 251.578125 224.546875 251.183594 C 224.050781 247.804688 223.691406 244.40625 223.46875 241.003906 C 223.398438 241.320312 223.320312 241.648438 223.234375 241.949219 C 223.019531 242.820312 222.753906 243.71875 222.289062 244.382812 C 221.839844 245.066406 221.25 245.460938 220.796875 245.585938 C 220.347656 245.71875 220.09375 245.625 220.054688 245.492188 C 220 245.230469 220.703125 244.835938 221.0625 243.75 C 221.265625 243.207031 221.347656 242.492188 221.480469 241.585938 C 221.621094 240.6875 221.785156 239.703125 222 238.679688 C 222.382812 236.800781 222.808594 235.121094 223.226562 233.847656 C 223.226562 233.328125 223.203125 232.808594 223.210938 232.289062 C 223.210938 231.847656 223.1875 231.40625 223.179688 230.996094 C 223.140625 230.042969 223.109375 229.074219 223.257812 227.988281 C 223.34375 227.359375 223.414062 226.769531 223.492188 226.195312 C 223.101562 227.09375 222.761719 227.589844 222.597656 227.539062 C 222.070312 227.375 223.164062 222.589844 223.761719 216.636719 Z M 228.257812 252.433594 C 228.339844 252.890625 228.226562 253.371094 227.945312 253.75 C 227.660156 254.128906 227.238281 254.371094 226.773438 254.433594 C 219.511719 255.410156 212.050781 253.867188 205.765625 250.082031 C 205.167969 249.726562 204.84375 249.042969 204.945312 248.355469 L 206.023438 240.804688 C 206.113281 240.167969 206.191406 239.59375 206.167969 239.058594 C 206.152344 238.65625 206.054688 238.191406 205.96875 237.710938 C 205.898438 237.359375 205.828125 237.011719 205.765625 236.664062 C 205.539062 235.035156 205.671875 233.414062 205.804688 231.988281 L 206.246094 226.933594 C 206.324219 226.148438 206.394531 225.328125 206.191406 224.722656 C 206.046875 224.289062 205.71875 223.800781 205.363281 223.304688 L 205.269531 223.164062 C 202.195312 218.761719 199.875 213.882812 198.386719 208.675781 C 197.890625 206.914062 197.65625 205.148438 197.429688 203.425781 C 197.316406 202.511719 197.183594 201.589844 197.019531 200.664062 C 196.523438 197.90625 195.855469 195.105469 195.203125 192.410156 L 193.761719 186.398438 C 193.292969 189.121094 192.859375 191.835938 192.457031 194.546875 C 192.136719 196.679688 191.90625 198.457031 192.109375 200.191406 C 192.269531 201.613281 192.71875 203.023438 193.210938 204.527344 L 193.292969 204.796875 C 197.207031 216.914062 199.90625 229.453125 201.328125 242.097656 C 201.988281 247.90625 201.824219 252.859375 201.660156 258.113281 C 201.605469 259.820312 201.542969 261.574219 201.519531 263.417969 C 201.511719 264.1875 200.992188 264.851562 200.265625 265.0625 C 195.019531 266.527344 189.453125 267.511719 183.261719 268.054688 C 180.527344 268.300781 177.710938 268.457031 174.644531 268.527344 C 173.25 268.566406 171.835938 268.574219 170.441406 268.589844 C 169.972656 268.589844 169.492188 268.644531 168.964844 268.714844 C 168.414062 268.777344 167.847656 268.851562 167.21875 268.867188 L 140.136719 269.347656 C 139.398438 269.363281 138.621094 269.410156 137.839844 269.457031 C 136.820312 269.511719 135.773438 269.582031 134.734375 269.582031 C 133.625 269.582031 132.515625 269.511719 131.429688 269.28125 C 131.007812 269.203125 130.597656 269.070312 130.1875 268.945312 C 129.84375 268.828125 129.511719 268.730469 129.207031 268.683594 C 128.433594 268.542969 127.585938 268.542969 126.6875 268.542969 C 126.304688 268.542969 125.925781 268.550781 125.539062 268.542969 C 122.425781 268.457031 119.570312 268.308594 116.792969 268.070312 C 113.773438 267.796875 110.855469 267.433594 108.109375 266.960938 L 107.773438 266.898438 C 99.414062 265.503906 98.445312 265.148438 98.421875 263.410156 C 98.398438 261.574219 98.34375 259.820312 98.28125 258.113281 C 98.121094 252.859375 97.972656 247.90625 98.617188 242.097656 C 100.042969 229.453125 102.738281 216.914062 106.648438 204.796875 L 106.742188 204.535156 C 107.222656 203.03125 107.679688 201.613281 107.835938 200.191406 C 108.039062 198.457031 107.820312 196.679688 107.496094 194.546875 C 107.082031 191.851562 106.648438 189.128906 106.183594 186.414062 L 104.761719 192.324219 C 104.101562 195.042969 103.4375 197.867188 102.921875 200.664062 C 102.761719 201.589844 102.636719 202.511719 102.519531 203.441406 C 102.289062 205.148438 102.054688 206.914062 101.558594 208.675781 C 100.066406 213.882812 97.753906 218.761719 94.675781 223.164062 L 94.589844 223.296875 C 94.238281 223.800781 93.898438 224.273438 93.75 224.722656 C 93.550781 225.328125 93.632812 226.148438 93.703125 226.933594 L 94.148438 231.988281 C 94.269531 233.414062 94.417969 235.035156 94.175781 236.664062 C 94.132812 237.011719 94.0625 237.359375 93.992188 237.710938 C 93.890625 238.191406 93.796875 238.65625 93.773438 239.058594 C 93.75 239.59375 93.828125 240.167969 93.921875 240.796875 L 95 248.355469 C 95.101562 249.042969 94.78125 249.726562 94.175781 250.082031 C 89.117188 253.121094 83.304688 254.71875 77.4375 254.71875 C 76.019531 254.71875 74.589844 254.625 73.167969 254.433594 C 72.703125 254.371094 72.292969 254.128906 72.011719 253.75 C 71.734375 253.371094 71.617188 252.890625 71.6875 252.433594 C 72.789062 245.8125 73.316406 239.035156 73.269531 232.3125 C 73.261719 231.808594 73.285156 231.328125 73.292969 230.855469 C 73.332031 230.035156 73.355469 229.242188 73.246094 228.445312 C 73 226.523438 72.789062 224.808594 72.648438 223.234375 C 72.292969 219.511719 72.183594 216.210938 72.308594 213.148438 C 72.585938 206.84375 73.921875 200.648438 75.203125 194.664062 C 76.3125 189.484375 77.367188 184.128906 78.386719 178.933594 C 79.253906 174.507812 80.148438 169.949219 81.085938 165.476562 L 81 165.484375 C 80.511719 165.527344 80.054688 165.382812 79.6875 165.070312 C 79.332031 164.769531 79.113281 164.328125 79.089844 163.855469 C 78.929688 160.976562 78.898438 158.039062 78.96875 155.140625 C 79.160156 147.300781 80.175781 139.457031 82.007812 131.828125 C 83.5625 125.375 87.175781 120.214844 92.757812 116.492188 C 103.40625 109.382812 114.410156 102.046875 126.523438 97.007812 L 126.523438 96.914062 C 126.28125 92.613281 126.035156 88.164062 126.847656 83.96875 C 127.53125 80.394531 126.808594 76.480469 126.128906 72.6875 C 125.964844 71.84375 125.816406 71.011719 125.675781 70.191406 C 124.785156 64.792969 123.976562 57.699219 125.585938 50.714844 C 126.757812 45.605469 129.140625 41.171875 132.46875 37.851562 C 139.46875 30.921875 150.386719 30.480469 158.28125 32.378906 C 159.109375 32.589844 159.863281 32.789062 160.546875 33.015625 C 161.34375 33.277344 161.910156 33.707031 162.363281 34.054688 C 162.570312 34.203125 162.78125 34.363281 163.019531 34.503906 C 168.5625 37.566406 172.707031 43.480469 174.375 50.714844 C 175.964844 57.707031 175.160156 64.792969 174.265625 70.191406 C 174.125 71.011719 173.980469 71.84375 173.832031 72.6875 C 173.132812 76.480469 172.410156 80.394531 173.109375 83.96875 C 173.910156 88.164062 173.660156 92.613281 173.4375 96.921875 L 173.421875 97.007812 C 185.535156 102.046875 196.539062 109.382812 207.195312 116.492188 C 212.765625 120.214844 216.390625 125.375 217.941406 131.828125 C 219.765625 139.457031 220.78125 147.292969 220.984375 155.140625 C 221.054688 158.039062 221.015625 160.976562 220.851562 163.855469 C 220.828125 164.328125 220.613281 164.769531 220.253906 165.078125 C 219.898438 165.382812 219.433594 165.527344 218.945312 165.484375 L 218.867188 165.476562 C 219.8125 169.957031 220.703125 174.523438 221.574219 178.957031 C 222.589844 184.136719 223.636719 189.5 224.742188 194.664062 C 226.019531 200.648438 227.355469 206.835938 227.636719 213.148438 C 227.757812 216.210938 227.660156 219.511719 227.308594 223.234375 C 227.160156 224.816406 226.953125 226.53125 226.695312 228.460938 C 226.585938 229.242188 226.609375 230.035156 226.648438 230.863281 C 226.664062 231.335938 226.679688 231.808594 226.679688 232.3125 C 226.640625 239.035156 227.160156 245.8125 228.257812 252.433594 " fill-opacity="1" fill-rule="nonzero"/></g><path fill="#808080" d="M 224.105469 212.410156 C 224.027344 213.714844 223.910156 215.132812 223.761719 216.636719 C 223.164062 222.589844 222.070312 227.375 222.597656 227.539062 C 222.761719 227.589844 223.101562 227.09375 223.492188 226.195312 C 223.414062 226.769531 223.34375 227.359375 223.257812 227.988281 C 223.109375 229.074219 223.140625 230.042969 223.179688 230.996094 C 223.1875 231.40625 223.210938 231.847656 223.210938 232.289062 C 223.203125 232.808594 223.226562 233.328125 223.226562 233.847656 C 222.808594 235.121094 222.382812 236.800781 222 238.679688 C 221.785156 239.703125 221.621094 240.6875 221.480469 241.585938 C 221.347656 242.492188 221.265625 243.207031 221.0625 243.75 C 220.703125 244.835938 220 245.230469 220.054688 245.492188 C 220.09375 245.625 220.347656 245.71875 220.796875 245.585938 C 221.25 245.460938 221.839844 245.066406 222.289062 244.382812 C 222.753906 243.71875 223.019531 242.820312 223.234375 241.949219 C 223.320312 241.648438 223.398438 241.320312 223.46875 241.003906 C 223.691406 244.40625 224.050781 247.804688 224.546875 251.183594 C 219.011719 251.578125 213.425781 250.355469 208.542969 247.679688 L 209.460938 241.277344 C 209.507812 240.957031 209.554688 240.609375 209.585938 240.253906 C 210.097656 240.839844 210.648438 241.335938 211.199219 241.765625 C 212.269531 242.609375 213.332031 243.199219 214.234375 243.632812 C 216.054688 244.492188 217.242188 244.789062 217.359375 244.570312 C 217.5 244.316406 216.507812 243.5625 214.945312 242.445312 C 213.417969 241.316406 211.230469 239.773438 209.957031 237.390625 C 209.585938 236.703125 209.320312 235.980469 209.125 235.265625 C 209.085938 234.296875 209.164062 233.28125 209.265625 232.289062 L 209.699219 227.234375 C 209.792969 226.203125 209.910156 224.933594 209.492188 223.660156 C 209.398438 223.351562 209.273438 223.070312 209.132812 222.808594 C 209.761719 223.28125 210.359375 223.699219 210.925781 224.03125 C 213.0625 225.28125 214.574219 225.558594 214.652344 225.328125 C 214.769531 225.0625 213.496094 224.34375 211.71875 222.902344 C 209.933594 221.46875 207.699219 219.210938 205.765625 216.304688 C 204.625 214.582031 203.6875 212.84375 202.902344 211.289062 C 202.46875 210.117188 202.078125 208.9375 201.730469 207.730469 C 201.511719 206.960938 201.351562 206.1875 201.21875 205.394531 C 202.203125 206.503906 203.242188 207.378906 204.183594 208.0625 C 206.9375 209.96875 208.808594 210.746094 208.941406 210.550781 C 209.109375 210.300781 207.457031 209.078125 205.050781 206.984375 C 203.871094 205.921875 202.546875 204.582031 201.511719 202.859375 C 201.15625 202.261719 200.855469 201.589844 200.574219 200.882812 C 200.527344 200.605469 200.480469 200.332031 200.433594 200.054688 C 200.054688 197.953125 199.582031 195.84375 199.085938 193.75 C 200.808594 195.867188 202.652344 197.496094 204.183594 198.542969 C 205.96875 199.765625 207.242188 200.238281 207.378906 200.03125 C 207.691406 199.542969 203.40625 196.550781 199.75 191.441406 C 199.046875 190.460938 198.410156 189.484375 197.84375 188.554688 L 195.933594 180.570312 C 196.097656 178.507812 196.664062 175.941406 197.390625 173.144531 C 199.160156 166.304688 201.496094 161 201 160.746094 C 200.628906 160.527344 198.332031 164.023438 196.515625 169.3125 L 196.523438 168.871094 C 196.546875 167.414062 196.5625 165.910156 196.640625 164.453125 C 197.042969 156.644531 199.023438 148.804688 200.945312 141.238281 C 201.589844 138.65625 202.25 136.042969 202.855469 133.402344 C 203.800781 134.53125 204.539062 135.90625 205.199219 137.292969 C 207.675781 142.511719 209.460938 148.023438 210.5 153.699219 L 210.632812 154.433594 C 210.988281 156.457031 211.367188 158.558594 212.394531 160.457031 C 212.757812 161.09375 213.160156 161.660156 213.621094 162.164062 C 214.273438 164.023438 215.0625 166.40625 215.1875 169.058594 C 215.335938 172.082031 214.769531 174.894531 214.425781 176.949219 C 214.054688 178.996094 213.898438 180.3125 214.15625 180.390625 C 214.410156 180.460938 215.03125 179.296875 215.753906 177.296875 C 216.140625 176.152344 216.585938 174.707031 216.871094 173.058594 C 217.304688 175.25 217.742188 177.460938 218.175781 179.632812 C 219.191406 184.820312 220.238281 190.191406 221.347656 195.394531 C 222.542969 200.953125 223.761719 206.683594 224.105469 212.410156 " fill-opacity="1" fill-rule="nonzero"/><path fill="#666666" d="M 217.507812 155.21875 C 217.570312 157.425781 217.5625 159.644531 217.476562 161.847656 L 216.964844 161.800781 C 215.894531 161.3125 214.976562 160.34375 214.433594 159.351562 C 213.582031 157.777344 213.253906 155.960938 212.90625 154.03125 L 212.765625 153.28125 C 211.695312 147.410156 209.855469 141.695312 207.28125 136.300781 C 206.324219 134.269531 205.175781 132.207031 203.453125 130.71875 C 204.246094 126.964844 204.882812 123.175781 205.199219 119.335938 C 205.214844 119.34375 205.238281 119.359375 205.261719 119.367188 C 210.097656 122.59375 213.214844 127.058594 214.558594 132.640625 C 216.328125 140.023438 217.328125 147.628906 217.507812 155.21875 " fill-opacity="1" fill-rule="nonzero"/><path fill="#f2f2f2" d="M 201.871094 117.113281 C 201.472656 124.949219 199.496094 132.796875 197.578125 140.394531 C 195.621094 148.125 193.597656 156.125 193.171875 164.273438 C 193.101562 165.792969 193.078125 167.335938 193.054688 168.808594 L 193.039062 169.320312 C 193.039062 169.714844 193.070312 170.140625 193.101562 170.5625 C 193.132812 171.113281 193.171875 171.628906 193.101562 172.011719 C 193.039062 172.328125 192.929688 172.644531 192.835938 172.964844 C 192.699219 173.398438 192.558594 173.847656 192.464844 174.304688 C 192.023438 176.484375 191.609375 178.671875 191.207031 180.855469 C 190.414062 185.199219 189.679688 189.640625 189.019531 194.042969 C 188.832031 195.300781 188.636719 196.773438 188.59375 198.292969 C 188.546875 198.316406 188.523438 198.339844 188.476562 198.363281 C 184.96875 198.601562 181.484375 199.230469 178.117188 200.246094 C 177.503906 200.425781 177.160156 201.070312 177.347656 201.679688 C 177.347656 201.6875 177.347656 201.6875 177.355469 201.6875 C 177.355469 201.710938 177.347656 201.742188 177.355469 201.75 C 177.601562 202.742188 177.914062 203.726562 178.246094 204.695312 C 172.96875 206.03125 167.242188 206.929688 160.941406 207.402344 C 160.429688 207.441406 159.910156 207.457031 159.398438 207.496094 L 159.398438 160.816406 L 184.679688 160.816406 C 185.410156 160.816406 186.007812 160.210938 186.007812 159.488281 L 186.007812 143.308594 C 186.007812 142.566406 185.410156 141.976562 184.679688 141.976562 L 159.398438 141.976562 L 159.398438 134.292969 C 162.332031 133.59375 165.09375 132.703125 167.570312 131.820312 C 170.914062 130.617188 174.445312 129.191406 177.503906 127.011719 C 181.1875 124.382812 183.9375 120.894531 186.597656 117.507812 C 188.265625 115.390625 190.097656 113.050781 191.378906 110.367188 C 194.933594 112.554688 198.425781 114.824219 201.871094 117.113281 " fill-opacity="1" fill-rule="nonzero"/><path fill="#f2f2f2" d="M 197.882812 242.476562 C 198.503906 248.035156 198.363281 252.648438 198.191406 258 C 198.144531 259.316406 198.105469 260.65625 198.074219 262.054688 C 193.410156 263.277344 188.453125 264.117188 182.957031 264.613281 C 180.296875 264.84375 177.554688 264.992188 174.570312 265.0625 C 173.1875 265.101562 171.796875 265.109375 170.425781 265.117188 C 169.757812 265.117188 169.144531 265.195312 168.539062 265.269531 C 168.050781 265.324219 167.601562 265.386719 167.148438 265.394531 L 159.398438 265.535156 L 159.398438 235.996094 C 161.632812 235.460938 163.867188 234.894531 166.078125 234.273438 C 174.273438 231.941406 181.429688 229.066406 187.730469 225.589844 C 187.753906 225.589844 187.792969 225.582031 187.816406 225.582031 L 197.113281 236.601562 C 197.390625 238.546875 197.65625 240.515625 197.882812 242.476562 " fill-opacity="1" fill-rule="nonzero"/><path fill="#8c6239" d="M 196.421875 232.1875 L 189.847656 224.414062 C 191.386719 223.5 192.859375 222.542969 194.304688 221.558594 C 195.101562 225.085938 195.816406 228.628906 196.421875 232.1875 " fill-opacity="1" fill-rule="nonzero"/><path fill="#8c6239" d="M 192.417969 214.023438 C 192.882812 215.722656 193.316406 217.417969 193.738281 219.132812 C 191.921875 220.414062 190.019531 221.628906 188.027344 222.785156 C 187.046875 220.894531 186.046875 219.007812 185.03125 217.148438 C 186.355469 216.566406 187.683594 215.976562 189.003906 215.367188 C 190.152344 214.9375 191.285156 214.488281 192.417969 214.023438 " fill-opacity="1" fill-rule="nonzero"/><path fill="#8c6239" d="M 191.726562 211.574219 C 191.65625 211.597656 191.585938 211.597656 191.527344 211.621094 C 190.382812 212.179688 189.234375 212.722656 188.085938 213.25 C 170.78125 219.777344 152.039062 222.707031 133.59375 221.769531 C 133.53125 221.660156 133.46875 221.558594 133.375 221.480469 L 131.3125 219.644531 C 131.140625 219.488281 130.914062 219.414062 130.707031 219.390625 C 130.242188 219.164062 129.675781 219.273438 129.332031 219.691406 C 129.09375 219.984375 128.425781 219.976562 127.96875 219.667969 C 127.460938 219.320312 127.058594 218.636719 126.734375 217.597656 C 126.167969 215.792969 126.035156 213.851562 126.34375 211.992188 C 126.515625 211 126.78125 210.234375 127.175781 209.667969 C 127.585938 209.054688 128.191406 208.636719 128.765625 208.574219 C 129.300781 208.488281 129.875 208.753906 130.0625 209.15625 C 130.132812 209.308594 130.242188 209.433594 130.347656 209.527344 C 130.550781 209.777344 130.824219 209.929688 131.164062 209.96875 C 131.550781 209.992188 131.949219 210 132.34375 210 C 133.050781 210 133.765625 209.953125 134.46875 209.859375 C 138.996094 210.015625 143.589844 210.15625 148.175781 210.15625 C 152.496094 210.15625 156.820312 210.039062 161.113281 209.714844 C 171.9375 208.890625 181.164062 206.859375 189.273438 203.519531 C 189.46875 204.214844 189.6875 204.90625 189.902344 205.589844 L 190.003906 205.867188 C 190.601562 207.757812 191.175781 209.667969 191.726562 211.574219 " fill-opacity="1" fill-rule="nonzero"/><path fill="#8c6239" d="M 188.667969 200.664062 C 188.691406 200.859375 188.730469 201.046875 188.761719 201.230469 C 186.140625 202.324219 183.382812 203.285156 180.488281 204.109375 C 180.257812 203.464844 180.0625 202.8125 179.875 202.167969 C 182.75 201.378906 185.699219 200.875 188.667969 200.664062 " fill-opacity="1" fill-rule="nonzero"/><path fill="#808080" d="M 164.542969 86.796875 C 165.984375 82.128906 167.476562 76.695312 166.925781 71.253906 C 166.429688 66.460938 163.890625 60.476562 158.234375 58.011719 C 155.640625 56.878906 152.863281 56.707031 149.976562 56.761719 C 147.089844 56.707031 144.300781 56.878906 141.710938 58.011719 C 136.070312 60.476562 133.523438 66.460938 133.027344 71.253906 C 132.46875 76.695312 133.964844 82.128906 135.417969 86.796875 C 137.394531 93.195312 139.894531 99.730469 144.730469 104.359375 L 145.203125 104.816406 C 146.375 105.988281 147.839844 107.429688 149.867188 107.566406 C 149.976562 107.566406 150.078125 107.582031 150.167969 107.582031 C 152.171875 107.582031 153.445312 106.226562 154.460938 105.132812 C 154.703125 104.878906 154.957031 104.613281 155.214844 104.359375 C 160.046875 99.730469 162.546875 93.179688 164.542969 86.796875 Z M 188.40625 108.550781 C 187.296875 111.003906 185.558594 113.21875 183.867188 115.367188 C 181.359375 118.5625 178.75 121.855469 175.492188 124.191406 C 172.761719 126.128906 169.5 127.4375 166.390625 128.554688 C 163.152344 129.726562 159.628906 130.84375 156.011719 131.492188 C 155.789062 131.445312 155.5625 131.453125 155.332031 131.5 C 153.988281 131.796875 152.621094 131.964844 151.273438 132.027344 C 151.09375 132.035156 150.921875 132.035156 150.734375 132.050781 C 150.496094 132.050781 150.253906 132.058594 150.007812 132.058594 C 149.679688 132.058594 149.371094 132.050781 149.042969 132.035156 C 148.945312 132.035156 148.835938 132.035156 148.734375 132.035156 C 147.359375 131.964844 145.980469 131.804688 144.613281 131.5 C 144.378906 131.453125 144.15625 131.453125 143.9375 131.492188 C 140.3125 130.84375 136.796875 129.726562 133.554688 128.554688 C 130.441406 127.4375 127.183594 126.128906 124.453125 124.191406 C 121.191406 121.855469 118.585938 118.5625 116.078125 115.367188 C 114.386719 113.21875 112.65625 111.003906 111.546875 108.550781 C 116.652344 105.519531 121.90625 102.753906 127.355469 100.449219 C 127.347656 100.574219 127.332031 100.707031 127.324219 100.847656 C 127.089844 104.753906 127.554688 107.917969 128.082031 107.902344 C 128.625 107.902344 129.046875 104.785156 129.277344 100.953125 C 129.300781 100.472656 129.324219 99.984375 129.347656 99.527344 C 129.355469 99.527344 129.355469 99.527344 129.371094 99.511719 C 130.265625 101.550781 131.621094 103.117188 132.871094 103.976562 C 134.355469 105 135.503906 105.132812 135.578125 104.910156 C 135.710938 104.636719 134.828125 104.078125 133.78125 102.925781 C 132.699219 101.792969 131.488281 99.984375 130.769531 97.738281 C 130.054688 95.457031 129.890625 93.242188 129.78125 91.613281 C 129.78125 91.480469 129.773438 91.363281 129.757812 91.238281 C 129.742188 88.960938 129.84375 86.71875 130.25 84.625 C 130.371094 83.96875 130.457031 83.308594 130.511719 82.640625 C 131.101562 85.167969 131.519531 86.914062 131.902344 86.890625 C 132.421875 86.882812 132.675781 82.953125 131.4375 78.316406 C 131 76.625 130.433594 75.113281 129.867188 73.882812 C 129.757812 73.277344 129.652344 72.664062 129.542969 72.066406 C 129.394531 71.246094 129.238281 70.429688 129.101562 69.625 C 128.269531 64.539062 127.492188 57.886719 128.960938 51.492188 C 129.984375 47.03125 132.042969 43.171875 134.921875 40.320312 C 140.902344 34.386719 150.496094 34.0625 157.472656 35.753906 C 158.210938 35.921875 158.871094 36.109375 159.472656 36.308594 C 159.699219 36.386719 159.957031 36.574219 160.28125 36.8125 C 160.570312 37.046875 160.917969 37.304688 161.335938 37.535156 C 166.03125 40.132812 169.546875 45.21875 170.984375 51.492188 C 172.449219 57.894531 171.675781 64.539062 170.84375 69.625 C 170.703125 70.429688 170.546875 71.246094 170.417969 72.066406 C 170.300781 72.664062 170.191406 73.277344 170.089844 73.882812 C 169.515625 75.105469 168.941406 76.625 168.507812 78.316406 C 167.265625 82.953125 167.523438 86.882812 168.042969 86.890625 C 168.421875 86.914062 168.839844 85.167969 169.4375 82.640625 C 169.492188 83.308594 169.570312 83.96875 169.695312 84.625 C 170.105469 86.71875 170.207031 88.960938 170.183594 91.238281 C 170.167969 91.363281 170.167969 91.480469 170.160156 91.613281 C 170.050781 93.242188 169.898438 95.457031 169.175781 97.738281 C 168.460938 99.984375 167.242188 101.792969 166.179688 102.925781 C 165.117188 104.078125 164.238281 104.636719 164.363281 104.910156 C 164.441406 105.132812 165.589844 105 167.078125 103.976562 C 168.320312 103.117188 169.6875 101.550781 170.570312 99.511719 C 170.585938 99.527344 170.601562 99.527344 170.601562 99.527344 C 170.625 99.984375 170.648438 100.472656 170.664062 100.953125 C 170.914062 104.785156 171.316406 107.902344 171.875 107.902344 C 172.402344 107.917969 172.855469 104.753906 172.628906 100.847656 C 172.613281 100.707031 172.605469 100.574219 172.605469 100.449219 C 178.039062 102.753906 183.308594 105.519531 188.40625 108.550781 " fill-opacity="1" fill-rule="nonzero"/><path fill="#8c6239" d="M 182.894531 218.046875 C 183.953125 219.976562 184.992188 221.941406 186 223.910156 C 179.992188 227.140625 173.203125 229.839844 165.441406 232.058594 C 155.128906 235.003906 144.363281 236.753906 133.910156 238.421875 C 133.808594 238.328125 133.695312 238.230469 133.554688 238.167969 C 132.683594 237.816406 131.855469 237.40625 131.046875 236.957031 L 134.484375 231.59375 C 134.492188 231.585938 134.492188 231.585938 134.492188 231.570312 C 151.164062 229.105469 167.398438 224.566406 182.894531 218.046875 " fill-opacity="1" fill-rule="nonzero"/><path fill="#cd3542" d="M 183.347656 144.636719 L 183.347656 158.15625 L 158.070312 158.15625 C 157.332031 158.15625 156.742188 158.746094 156.742188 159.488281 L 156.742188 207.644531 C 152.242188 207.851562 147.71875 207.867188 143.207031 207.78125 L 143.207031 159.488281 C 143.207031 158.746094 142.601562 158.15625 141.875 158.15625 L 116.597656 158.15625 L 116.597656 144.636719 L 141.875 144.636719 C 142.601562 144.636719 143.207031 144.03125 143.207031 143.308594 L 143.207031 134.835938 C 144.273438 135.027344 145.34375 135.191406 146.445312 135.308594 C 146.746094 135.339844 147.050781 135.378906 147.359375 135.402344 C 147.523438 135.410156 147.695312 135.433594 147.855469 135.433594 C 148.539062 135.480469 149.230469 135.515625 149.914062 135.515625 C 149.9375 135.515625 149.960938 135.515625 149.976562 135.515625 C 150 135.515625 150.007812 135.515625 150.03125 135.515625 C 150.714844 135.515625 151.402344 135.480469 152.09375 135.433594 C 152.265625 135.433594 152.429688 135.410156 152.589844 135.402344 C 152.902344 135.378906 153.195312 135.339844 153.5 135.308594 C 154.59375 135.191406 155.671875 135.027344 156.742188 134.835938 L 156.742188 143.308594 C 156.742188 144.03125 157.332031 144.636719 158.070312 144.636719 L 183.347656 144.636719 " fill-opacity="1" fill-rule="nonzero"/><path fill="#000000" d="M 162.332031 86.117188 C 163.703125 81.671875 165.140625 76.5 164.621094 71.484375 C 164.078125 66.285156 161.210938 61.824219 157.316406 60.128906 C 155.726562 59.429688 153.988281 59.167969 152.148438 59.089844 C 152.023438 59.136719 151.890625 59.144531 151.746094 59.144531 C 151.15625 59.105469 150.566406 59.089844 149.976562 59.074219 C 149.386719 59.089844 148.796875 59.105469 148.199219 59.144531 C 148.050781 59.144531 147.925781 59.136719 147.800781 59.089844 C 145.972656 59.167969 144.226562 59.429688 142.632812 60.128906 C 138.738281 61.824219 135.875 66.285156 135.332031 71.484375 C 134.820312 76.5 136.238281 81.671875 137.628906 86.117188 C 139.390625 91.789062 141.65625 98.21875 146.335938 102.691406 L 146.824219 103.179688 C 147.832031 104.15625 148.867188 105.1875 150.023438 105.257812 C 151.046875 105.3125 151.746094 104.660156 152.769531 103.558594 C 153.046875 103.257812 153.328125 102.96875 153.617188 102.691406 C 158.289062 98.21875 160.5625 91.78125 162.332031 86.117188 Z M 166.925781 71.253906 C 167.476562 76.695312 165.984375 82.128906 164.542969 86.796875 C 162.546875 93.179688 160.046875 99.730469 155.214844 104.359375 C 154.957031 104.613281 154.703125 104.878906 154.460938 105.132812 C 153.445312 106.226562 152.171875 107.582031 150.167969 107.582031 C 150.078125 107.582031 149.976562 107.566406 149.867188 107.566406 C 147.839844 107.429688 146.375 105.988281 145.203125 104.816406 L 144.730469 104.359375 C 139.894531 99.730469 137.394531 93.195312 135.417969 86.796875 C 133.964844 82.128906 132.46875 76.695312 133.027344 71.253906 C 133.523438 66.460938 136.070312 60.476562 141.710938 58.011719 C 144.300781 56.878906 147.089844 56.707031 149.976562 56.761719 C 152.863281 56.707031 155.640625 56.878906 158.234375 58.011719 C 163.890625 60.476562 166.429688 66.460938 166.925781 71.253906 " fill-opacity="1" fill-rule="nonzero"/><path fill="#4d4d4d" d="M 164.621094 71.484375 C 165.140625 76.5 163.703125 81.671875 162.332031 86.117188 C 160.5625 91.78125 158.289062 98.21875 153.617188 102.691406 C 153.328125 102.96875 153.046875 103.257812 152.769531 103.558594 C 151.746094 104.660156 151.046875 105.3125 150.023438 105.257812 C 148.867188 105.1875 147.832031 104.15625 146.824219 103.179688 L 146.335938 102.691406 C 141.65625 98.21875 139.390625 91.789062 137.628906 86.117188 C 136.238281 81.671875 134.820312 76.5 135.332031 71.484375 C 135.875 66.285156 138.738281 61.824219 142.632812 60.128906 C 144.226562 59.429688 145.972656 59.167969 147.800781 59.089844 C 147.925781 59.136719 148.050781 59.144531 148.199219 59.144531 C 148.796875 59.105469 149.386719 59.089844 149.976562 59.074219 C 150.566406 59.089844 151.15625 59.105469 151.746094 59.144531 C 151.890625 59.144531 152.023438 59.136719 152.148438 59.089844 C 153.988281 59.167969 155.726562 59.429688 157.316406 60.128906 C 161.210938 61.824219 164.078125 66.285156 164.621094 71.484375 " fill-opacity="1" fill-rule="nonzero"/><path fill="#f2f2f2" d="M 166.109375 221.816406 C 163.890625 222.527344 161.648438 223.203125 159.398438 223.839844 L 159.398438 222.910156 C 161.648438 222.597656 163.875 222.234375 166.109375 221.816406 " fill-opacity="1" fill-rule="nonzero"/><path fill="#cd3542" d="M 156.742188 236.625 L 156.742188 265.582031 L 153.609375 265.644531 L 143.207031 265.644531 L 143.207031 239.230469 C 147.71875 238.46875 152.242188 237.617188 156.742188 236.625 " fill-opacity="1" fill-rule="nonzero"/><path fill="#cd3542" d="M 156.742188 223.257812 L 156.742188 224.574219 C 152.273438 225.777344 147.765625 226.832031 143.207031 227.722656 L 143.207031 224.21875 C 147.726562 224.117188 152.242188 223.800781 156.742188 223.257812 " fill-opacity="1" fill-rule="nonzero"/><path fill="#f2f2f2" d="M 140.546875 239.6875 L 140.546875 265.875 L 140.074219 265.882812 C 139.28125 265.898438 138.46875 265.945312 137.628906 266 C 135.734375 266.101562 133.78125 266.234375 132.132812 265.898438 C 131.824219 265.820312 131.535156 265.738281 131.234375 265.644531 C 130.816406 265.503906 130.339844 265.347656 129.820312 265.253906 C 128.742188 265.078125 127.679688 265.078125 126.671875 265.078125 C 126.3125 265.078125 125.964844 265.085938 125.625 265.078125 C 123.785156 265.03125 122.046875 264.960938 120.363281 264.851562 C 121.96875 258.9375 123.480469 252.953125 124.847656 246.996094 C 125.644531 246.851562 126.335938 246.46875 126.925781 246.105469 C 129.277344 244.679688 131.375 242.902344 133.207031 240.871094 C 133.242188 240.871094 133.273438 240.871094 133.3125 240.863281 C 135.710938 240.476562 138.117188 240.089844 140.546875 239.6875 " fill-opacity="1" fill-rule="nonzero"/><path fill="#f2f2f2" d="M 140.546875 224.242188 L 140.546875 228.21875 C 138.273438 228.628906 136.007812 229.019531 133.734375 229.351562 C 132.570312 228.019531 131.21875 226.839844 129.742188 225.871094 C 130.25 225.839844 130.769531 225.769531 131.28125 225.574219 C 132.101562 225.265625 132.761719 224.722656 133.183594 224.054688 C 135.570312 224.1875 137.953125 224.25 140.335938 224.25 C 140.40625 224.25 140.476562 224.242188 140.546875 224.242188 " fill-opacity="1" fill-rule="nonzero"/><path fill="#f2f2f2" d="M 140.546875 160.816406 L 140.546875 207.730469 C 138.707031 207.683594 136.875 207.621094 135.058594 207.566406 C 134.960938 206.558594 134.421875 205.589844 133.53125 204.851562 C 132.707031 204.171875 131.738281 203.773438 130.90625 203.472656 C 129.140625 202.835938 126.546875 202.125 124.328125 203.277344 C 123.574219 203.660156 122.921875 204.261719 122.355469 205.023438 C 122.347656 205.023438 122.332031 205.023438 122.332031 205.023438 C 118.460938 204.039062 114.75 202.503906 111.296875 200.503906 C 111.546875 198.199219 111.203125 195.890625 110.925781 194.042969 C 110.28125 189.671875 109.542969 185.238281 108.742188 180.855469 C 108.332031 178.671875 107.921875 176.484375 107.480469 174.304688 C 107.386719 173.816406 107.238281 173.367188 107.105469 172.964844 C 107.019531 172.644531 106.914062 172.328125 106.84375 172.011719 C 106.773438 171.628906 106.8125 171.113281 106.84375 170.5625 C 106.882812 170.140625 106.90625 169.714844 106.90625 169.320312 L 106.890625 168.808594 C 106.867188 167.335938 106.859375 165.792969 106.773438 164.273438 C 106.363281 156.125 104.335938 148.125 102.363281 140.394531 C 100.449219 132.796875 98.46875 124.949219 98.074219 117.113281 C 101.519531 114.824219 105.019531 112.554688 108.566406 110.367188 C 109.855469 113.050781 111.691406 115.390625 113.363281 117.507812 C 116.015625 120.894531 118.761719 124.382812 122.441406 127.011719 C 125.507812 129.191406 129.039062 130.617188 132.390625 131.820312 C 134.851562 132.703125 137.621094 133.609375 140.546875 134.292969 L 140.546875 141.976562 L 115.269531 141.976562 C 114.527344 141.976562 113.9375 142.566406 113.9375 143.308594 L 113.9375 159.488281 C 113.9375 160.210938 114.527344 160.816406 115.269531 160.816406 L 140.546875 160.816406 " fill-opacity="1" fill-rule="nonzero"/><path fill="#999999" d="M 132.683594 207.480469 C 132.351562 207.472656 132.011719 207.457031 131.667969 207.449219 C 130.90625 206.582031 129.691406 206.109375 128.464844 206.269531 C 127.214844 206.441406 126.050781 207.210938 125.25 208.371094 C 124.675781 209.21875 124.289062 210.28125 124.070312 211.597656 C 123.691406 213.832031 123.847656 216.140625 124.519531 218.289062 C 124.824219 219.273438 125.375 220.691406 126.648438 221.574219 C 127.238281 221.980469 128.003906 222.21875 128.765625 222.21875 C 129.285156 222.21875 129.820312 222.078125 130.289062 221.824219 L 131.289062 222.730469 C 131.140625 223.003906 130.839844 223.273438 130.464844 223.414062 C 129.78125 223.660156 128.9375 223.605469 128.199219 223.515625 C 126.671875 223.304688 125.585938 222.949219 124.800781 222.359375 C 123.839844 221.660156 123.109375 220.472656 122.75 219.007812 C 122.394531 217.574219 122.378906 216.015625 122.402344 214.535156 C 122.441406 212.140625 122.558594 209.636719 123.558594 207.472656 C 123.890625 206.75 124.496094 205.78125 125.390625 205.324219 C 126.78125 204.597656 128.648438 205.117188 130.109375 205.644531 C 130.769531 205.890625 131.519531 206.179688 132.050781 206.628906 C 132.367188 206.882812 132.570312 207.1875 132.683594 207.480469 " fill-opacity="1" fill-rule="nonzero"/><path fill="#8c6239" d="M 132.101562 231.011719 L 129.078125 235.753906 C 126.382812 233.894531 124.09375 231.5 122.378906 228.691406 C 123.480469 227.839844 124.660156 227.085938 125.769531 226.382812 C 128.199219 227.382812 130.410156 229.003906 132.101562 231.011719 " fill-opacity="1" fill-rule="nonzero"/><path fill="#8c6239" d="M 131.210938 239.65625 C 129.589844 241.390625 127.75 242.894531 125.722656 244.144531 C 125.234375 244.429688 124.683594 244.742188 124.195312 244.765625 C 123.652344 244.789062 123.054688 244.5 122.542969 244.214844 C 120.757812 243.207031 119.175781 241.820312 117.941406 240.191406 C 117.566406 239.703125 117.171875 239.113281 117.070312 238.515625 C 116.96875 237.925781 117.132812 237.246094 117.3125 236.546875 C 117.667969 235.21875 118.132812 233.691406 118.933594 232.367188 C 119.398438 231.59375 119.972656 230.886719 120.625 230.226562 C 123.179688 234.304688 126.871094 237.59375 131.210938 239.65625 " fill-opacity="1" fill-rule="nonzero"/><path fill="#f2f2f2" d="M 124.140625 224.667969 C 123.714844 224.949219 123.289062 225.226562 122.851562 225.515625 C 122.222656 224.925781 121.449219 224.5 120.585938 224.226562 C 117.644531 222.375 115.070312 220 112.988281 217.242188 C 115.246094 218.707031 117.722656 219.839844 120.347656 220.488281 C 120.4375 220.503906 120.53125 220.519531 120.625 220.519531 C 120.679688 220.519531 120.734375 220.496094 120.8125 220.488281 C 121.363281 222.054688 122.261719 223.375 123.425781 224.226562 C 123.652344 224.390625 123.890625 224.542969 124.140625 224.667969 " fill-opacity="1" fill-rule="nonzero"/><path fill="#8c6239" d="M 121.394531 246.222656 C 121.734375 246.410156 122.117188 246.601562 122.519531 246.757812 C 121.152344 252.734375 119.625 258.75 117.988281 264.683594 C 117.699219 264.660156 117.398438 264.652344 117.09375 264.613281 C 114.175781 264.355469 111.359375 264 108.699219 263.542969 L 108.347656 263.480469 C 108.109375 263.433594 107.890625 263.402344 107.65625 263.363281 C 108.84375 255.570312 111.699219 248.011719 115.945312 241.375 C 116 241.453125 116.054688 241.515625 116.101562 241.585938 C 117.519531 243.476562 119.351562 245.066406 121.394531 246.222656 " fill-opacity="1" fill-rule="nonzero"/><path fill="#999999" d="M 119.6875 226.390625 C 120.042969 226.613281 120.394531 226.832031 120.75 227.042969 C 119.289062 228.179688 117.949219 229.523438 116.953125 231.171875 C 116.007812 232.746094 115.472656 234.46875 115.085938 235.949219 C 114.898438 236.632812 114.734375 237.359375 114.726562 238.113281 C 114.285156 237.710938 113.859375 237.28125 113.4375 236.847656 C 112.964844 235.625 112.824219 234.160156 113.035156 232.585938 C 113.253906 230.964844 113.8125 229.539062 114.632812 228.445312 C 115.519531 227.273438 116.785156 226.484375 118.078125 226.289062 C 118.625 226.195312 119.167969 226.25 119.6875 226.390625 " fill-opacity="1" fill-rule="nonzero"/><path fill="#8c6239" d="M 121.214844 207.101562 C 120.253906 209.503906 120.113281 212.164062 120.089844 214.496094 C 120.066406 215.644531 120.082031 216.832031 120.230469 218.03125 C 116.03125 216.847656 112.234375 214.378906 109.425781 211.054688 C 109.386719 210.960938 109.339844 210.882812 109.296875 210.792969 C 109.195312 210.511719 108.96875 210.316406 108.730469 210.203125 C 108.699219 210.164062 108.675781 210.117188 108.652344 210.085938 C 109.0625 208.675781 109.496094 207.261719 109.953125 205.867188 L 110.039062 205.597656 C 110.328125 204.71875 110.605469 203.820312 110.847656 202.898438 C 114.121094 204.71875 117.589844 206.132812 121.214844 207.101562 " fill-opacity="1" fill-rule="nonzero"/><path fill="#8c6239" d="M 116.636719 224.265625 C 115.160156 224.746094 113.796875 225.722656 112.78125 227.066406 C 111.714844 228.460938 111.011719 230.265625 110.746094 232.273438 C 110.683594 232.65625 110.675781 233.035156 110.652344 233.40625 C 108.015625 229.546875 106.363281 225.042969 105.917969 220.375 C 106.492188 217.917969 107.128906 215.488281 107.804688 213.0625 C 109.855469 217.433594 112.871094 221.28125 116.636719 224.265625 " fill-opacity="1" fill-rule="nonzero"/><path fill="#f2f2f2" d="M 112.734375 239.863281 C 113.058594 240.136719 113.421875 240.328125 113.796875 240.445312 C 109.503906 247.261719 106.601562 255 105.375 262.960938 C 103.550781 262.628906 102.480469 262.378906 101.867188 262.230469 C 101.84375 260.773438 101.796875 259.378906 101.75 258 C 101.597656 252.648438 101.441406 248.035156 102.070312 242.476562 C 102.691406 236.988281 103.574219 231.515625 104.667969 226.078125 C 105.964844 230.546875 108.292969 234.703125 111.46875 238.121094 C 111.808594 238.871094 112.222656 239.453125 112.734375 239.863281 " fill-opacity="1" fill-rule="nonzero"/><path fill="#808080" d="M 104.011719 180.578125 L 102.101562 188.554688 C 101.535156 189.484375 100.90625 190.460938 100.191406 191.441406 C 96.535156 196.550781 92.261719 199.542969 92.578125 200.03125 C 92.703125 200.238281 93.984375 199.765625 95.777344 198.542969 C 97.289062 197.496094 99.136719 195.867188 100.867188 193.75 C 100.378906 195.820312 99.890625 197.929688 99.507812 200.054688 C 99.460938 200.332031 99.414062 200.605469 99.371094 200.882812 C 99.097656 201.589844 98.796875 202.261719 98.429688 202.859375 C 97.414062 204.582031 96.070312 205.921875 94.890625 206.984375 C 92.484375 209.078125 90.832031 210.300781 91.011719 210.550781 C 91.136719 210.746094 93.003906 209.96875 95.761719 208.0625 C 96.699219 207.378906 97.753906 206.503906 98.734375 205.394531 C 98.601562 206.1875 98.429688 206.960938 98.214844 207.730469 C 97.878906 208.929688 97.484375 210.117188 97.050781 211.289062 C 96.273438 212.84375 95.332031 214.582031 94.175781 216.304688 C 92.246094 219.210938 90.011719 221.46875 88.234375 222.902344 C 86.449219 224.34375 85.175781 225.0625 85.292969 225.328125 C 85.371094 225.558594 86.898438 225.28125 89.015625 224.03125 C 89.582031 223.699219 90.195312 223.28125 90.808594 222.808594 C 90.667969 223.070312 90.554688 223.351562 90.453125 223.660156 C 90.035156 224.933594 90.148438 226.203125 90.242188 227.234375 L 90.683594 232.289062 C 90.777344 233.28125 90.863281 234.296875 90.824219 235.265625 C 90.625 235.980469 90.359375 236.703125 89.988281 237.390625 C 88.714844 239.773438 86.542969 241.316406 85.003906 242.445312 C 83.445312 243.5625 82.445312 244.316406 82.582031 244.570312 C 82.699219 244.789062 83.902344 244.492188 85.710938 243.632812 C 86.609375 243.199219 87.675781 242.609375 88.753906 241.765625 C 89.296875 241.335938 89.847656 240.839844 90.359375 240.253906 C 90.398438 240.609375 90.4375 240.964844 90.484375 241.292969 L 91.398438 247.679688 C 86.535156 250.355469 80.945312 251.578125 75.40625 251.183594 C 75.910156 247.804688 76.257812 244.40625 76.476562 241.003906 C 76.546875 241.320312 76.632812 241.648438 76.707031 241.949219 C 76.925781 242.820312 77.191406 243.71875 77.65625 244.382812 C 78.121094 245.066406 78.710938 245.460938 79.144531 245.585938 C 79.601562 245.71875 79.859375 245.625 79.890625 245.492188 C 79.945312 245.230469 79.246094 244.835938 78.882812 243.75 C 78.6875 243.207031 78.59375 242.492188 78.46875 241.585938 C 78.339844 240.6875 78.167969 239.703125 77.957031 238.679688 C 77.578125 236.800781 77.136719 235.121094 76.722656 233.847656 C 76.722656 233.328125 76.746094 232.808594 76.746094 232.289062 C 76.730469 231.832031 76.753906 231.40625 76.769531 230.980469 C 76.800781 230.042969 76.832031 229.074219 76.683594 227.988281 C 76.609375 227.359375 76.53125 226.769531 76.46875 226.195312 C 76.847656 227.09375 77.183594 227.589844 77.34375 227.539062 C 77.886719 227.375 76.777344 222.589844 76.195312 216.636719 C 76.035156 215.132812 75.933594 213.699219 75.839844 212.394531 C 76.1875 206.683594 77.398438 200.953125 78.59375 195.394531 C 79.703125 190.183594 80.765625 184.8125 81.785156 179.609375 C 82.21875 177.445312 82.644531 175.25 83.078125 173.058594 C 83.359375 174.707031 83.800781 176.152344 84.199219 177.296875 C 84.910156 179.296875 85.53125 180.460938 85.789062 180.390625 C 86.058594 180.3125 85.890625 178.996094 85.523438 176.949219 C 85.191406 174.894531 84.609375 172.082031 84.757812 169.058594 C 84.886719 166.40625 85.671875 164.023438 86.324219 162.164062 C 86.78125 161.660156 87.199219 161.09375 87.550781 160.457031 C 88.589844 158.558594 88.953125 156.464844 89.320312 154.441406 L 89.445312 153.699219 C 90.484375 148.023438 92.285156 142.511719 94.742188 137.292969 C 95.402344 135.90625 96.140625 134.53125 97.09375 133.402344 C 97.691406 136.042969 98.351562 138.65625 99.011719 141.246094 C 100.921875 148.820312 102.90625 156.644531 103.304688 164.453125 C 103.382812 165.910156 103.40625 167.414062 103.421875 168.871094 L 103.4375 169.3125 C 101.613281 164.023438 99.316406 160.527344 98.941406 160.746094 C 98.445312 161 100.78125 166.304688 102.550781 173.144531 C 103.28125 175.941406 103.847656 178.507812 104.011719 180.578125 " fill-opacity="1" fill-rule="nonzero"/><path fill="#666666" d="M 94.757812 119.335938 C 95.070312 123.175781 95.707031 126.964844 96.503906 130.71875 C 94.765625 132.207031 93.625 134.269531 92.664062 136.300781 C 90.09375 141.695312 88.257812 147.410156 87.175781 153.28125 L 87.039062 154.039062 C 86.695312 155.960938 86.371094 157.785156 85.507812 159.351562 C 84.964844 160.351562 84.042969 161.3125 82.972656 161.800781 L 82.46875 161.847656 C 82.390625 159.644531 82.375 157.425781 82.4375 155.21875 C 82.621094 147.628906 83.617188 140.039062 85.386719 132.640625 C 86.726562 127.066406 89.847656 122.59375 94.683594 119.367188 C 94.707031 119.359375 94.734375 119.34375 94.757812 119.335938 " fill-opacity="1" fill-rule="nonzero"/></svg>