<svg xmlns="http://www.w3.org/2000/svg" xmlns:xlink="http://www.w3.org/1999/xlink" width="400" zoomAndPan="magnify" viewBox="0 0 300 299.999988" height="400" preserveAspectRatio="xMidYMid meet" version="1.0"><defs><clipPath id="46c3727952"><path d="M 63.148438 164 L 237.148438 164 L 237.148438 270 L 63.148438 270 Z M 63.148438 164 " clip-rule="nonzero"/></clipPath></defs><g clip-path="url(#46c3727952)"><path fill="#000000" d="M 235 269.480469 L 65.144531 269.480469 C 64.003906 269.480469 63.082031 268.5625 63.082031 267.425781 L 63.082031 216.625 C 63.082031 204.046875 67.628906 191.835938 75.890625 182.246094 C 84.0625 172.761719 95.304688 166.445312 107.546875 164.453125 C 108.667969 164.269531 109.730469 165.03125 109.910156 166.15625 C 110.09375 167.277344 109.332031 168.335938 108.207031 168.515625 C 84.832031 172.316406 67.207031 193 67.207031 216.628906 L 67.207031 265.367188 L 232.9375 265.367188 L 232.9375 216.625 C 232.9375 192.996094 215.308594 172.3125 191.929688 168.515625 C 190.804688 168.332031 190.042969 167.277344 190.226562 166.15625 C 190.40625 165.03125 191.464844 164.269531 192.589844 164.453125 C 204.835938 166.441406 216.078125 172.761719 224.25 182.246094 C 232.511719 191.835938 237.058594 204.046875 237.058594 216.628906 L 237.058594 267.425781 C 237.058594 268.558594 236.136719 269.484375 235 269.480469 Z M 235 269.480469 " fill-opacity="1" fill-rule="evenodd"/></g><path fill="#000000" d="M 92.757812 269.480469 C 91.621094 269.480469 90.699219 268.5625 90.699219 267.425781 L 90.699219 219.078125 C 90.699219 217.941406 91.621094 217.019531 92.757812 217.019531 C 93.898438 217.019531 94.820312 217.941406 94.820312 219.078125 L 94.820312 267.425781 C 94.820312 268.558594 93.898438 269.484375 92.757812 269.480469 Z M 92.757812 269.480469 " fill-opacity="1" fill-rule="evenodd"/><path fill="#000000" d="M 207.382812 269.480469 C 206.246094 269.480469 205.324219 268.5625 205.324219 267.425781 L 205.324219 219.078125 C 205.324219 217.941406 206.246094 217.019531 207.382812 217.019531 C 208.523438 217.019531 209.445312 217.941406 209.445312 219.078125 L 209.445312 267.425781 C 209.445312 268.558594 208.523438 269.484375 207.382812 269.480469 Z M 207.382812 269.480469 " fill-opacity="1" fill-rule="evenodd"/><path fill="#000000" d="M 171.246094 167.886719 C 170.46875 167.886719 169.726562 167.449219 169.375 166.703125 C 164.144531 155.527344 164.828125 149.898438 166.324219 147.148438 C 166.867188 146.148438 168.117188 145.777344 169.117188 146.316406 C 170.121094 146.859375 170.492188 148.109375 169.949219 149.105469 C 169.566406 149.808594 167.925781 153.878906 173.113281 164.957031 C 173.59375 165.988281 173.148438 167.214844 172.117188 167.695312 C 171.835938 167.828125 171.539062 167.886719 171.246094 167.886719 Z M 171.246094 167.886719 " fill-opacity="1" fill-rule="evenodd"/><path fill="#000000" d="M 150.652344 155.589844 C 150.320312 155.589844 149.992188 155.585938 149.660156 155.578125 C 134.925781 155.113281 116.085938 143.574219 111.484375 112.558594 C 111.316406 111.433594 112.09375 110.386719 113.21875 110.21875 C 114.347656 110.050781 115.394531 110.828125 115.5625 111.953125 C 119.792969 140.457031 136.644531 151.050781 149.789062 151.460938 C 166.78125 151.980469 180.8125 138.0625 185.523438 115.972656 C 185.757812 114.859375 186.855469 114.152344 187.96875 114.386719 C 189.082031 114.621094 189.792969 115.714844 189.554688 116.828125 C 186.941406 129.097656 181.574219 139.222656 174.039062 146.113281 C 167.332031 152.25 159.0625 155.59375 150.652344 155.589844 Z M 150.652344 155.589844 " fill-opacity="1" fill-rule="evenodd"/><path fill="#000000" d="M 170.703125 68.953125 C 173.753906 68.953125 176.507812 70.105469 178.894531 72.386719 C 187.066406 80.1875 189.011719 100.089844 189.46875 110.269531 C 201.503906 91.382812 194.078125 72.425781 191.5 65.847656 C 190.980469 64.515625 190.65625 63.695312 190.585938 63.039062 C 184.691406 50.949219 176.378906 43.324219 165.867188 40.359375 C 150.261719 35.957031 131.851562 42.722656 119.824219 50.523438 C 111.371094 56.003906 106.074219 64.019531 104.5 73.703125 C 102.800781 84.171875 105.519531 96.105469 111.667969 106.042969 C 112.492188 86.195312 115.765625 74.0625 121.410156 69.941406 C 123.601562 68.34375 126.1875 67.929688 128.890625 68.738281 C 148.476562 74.613281 169.378906 69.097656 169.589844 69.039062 C 169.726562 69.003906 169.871094 68.980469 170.015625 68.972656 C 170.246094 68.957031 170.472656 68.953125 170.703125 68.953125 Z M 187.539062 118.457031 C 187.300781 118.457031 187.0625 118.417969 186.832031 118.332031 C 186.011719 118.03125 185.46875 117.25 185.476562 116.378906 C 185.480469 116.058594 185.710938 84.589844 176.042969 75.359375 C 174.363281 73.753906 172.519531 73.003906 170.441406 73.074219 C 167.933594 73.71875 147.550781 78.632812 127.707031 72.679688 C 126.226562 72.238281 124.996094 72.425781 123.84375 73.265625 C 121.542969 74.945312 116.132812 82.070312 115.625 111.914062 L 115.617188 112.332031 C 115.601562 113.199219 115.039062 113.964844 114.21875 114.246094 C 113.394531 114.523438 112.484375 114.257812 111.941406 113.578125 C 102.667969 101.96875 98.253906 86.4375 100.429688 73.046875 C 102.195312 62.183594 108.125 53.203125 117.578125 47.070312 C 123.78125 43.046875 145.675781 30.386719 166.988281 36.398438 C 178.851562 39.742188 188.128906 48.292969 194.574219 61.816406 C 194.730469 62.140625 194.792969 62.496094 194.769531 62.84375 C 194.894531 63.207031 195.128906 63.804688 195.34375 64.351562 C 198.355469 72.042969 207.53125 95.460938 189.128906 117.710938 C 188.730469 118.191406 188.140625 118.457031 187.539062 118.457031 Z M 187.539062 118.457031 " fill-opacity="1" fill-rule="evenodd"/><path fill="#000000" d="M 128.898438 167.886719 C 128.605469 167.886719 128.308594 167.828125 128.027344 167.695312 C 126.996094 167.214844 126.550781 165.988281 127.03125 164.957031 C 132.9375 152.339844 129.949219 148.246094 129.820312 148.078125 C 129.125 147.179688 129.289062 145.886719 130.191406 145.191406 C 131.09375 144.496094 132.386719 144.664062 133.082031 145.5625 C 134.503906 147.398438 137.117188 153.132812 130.765625 166.703125 C 130.417969 167.449219 129.675781 167.886719 128.898438 167.886719 Z M 128.898438 167.886719 " fill-opacity="1" fill-rule="evenodd"/><path fill="#000000" d="M 153.199219 185.003906 L 170.511719 199.554688 L 179.636719 175.855469 L 171.273438 168.585938 Z M 171.398438 205.046875 C 170.917969 205.046875 170.449219 204.878906 170.070312 204.5625 L 148.742188 186.636719 C 148.289062 186.257812 148.019531 185.699219 148.007812 185.105469 C 148 184.511719 148.242188 183.941406 148.683594 183.542969 L 169.855469 164.308594 C 170.628906 163.605469 171.808594 163.59375 172.597656 164.277344 L 183.433594 173.699219 C 184.085938 174.265625 184.316406 175.183594 184.003906 175.988281 L 173.324219 203.726562 C 173.085938 204.347656 172.558594 204.816406 171.914062 204.984375 C 171.742188 205.027344 171.570312 205.046875 171.398438 205.046875 Z M 171.398438 205.046875 " fill-opacity="1" fill-rule="evenodd"/><path fill="#000000" d="M 120.503906 175.855469 L 129.628906 199.554688 L 146.941406 185.003906 L 128.871094 168.585938 Z M 128.742188 205.046875 C 128.570312 205.046875 128.398438 205.027344 128.226562 204.984375 C 127.582031 204.816406 127.058594 204.347656 126.816406 203.726562 L 116.136719 175.988281 C 115.828125 175.179688 116.054688 174.265625 116.707031 173.699219 L 127.546875 164.277344 C 128.335938 163.589844 129.511719 163.605469 130.289062 164.308594 L 151.460938 183.542969 C 151.898438 183.941406 152.144531 184.511719 152.132812 185.105469 C 152.121094 185.695312 151.855469 186.257812 151.398438 186.636719 L 130.070312 204.5625 C 129.695312 204.878906 129.222656 205.046875 128.742188 205.046875 Z M 128.742188 205.046875 " fill-opacity="1" fill-rule="evenodd"/><path fill="#000000" d="M 155.027344 206.820312 L 145.113281 206.820312 C 144.324219 206.820312 143.601562 206.371094 143.257812 205.660156 L 137.910156 194.621094 C 137.414062 193.597656 137.84375 192.367188 138.867188 191.871094 C 139.894531 191.378906 141.125 191.804688 141.621094 192.828125 L 146.40625 202.703125 L 153.734375 202.703125 L 158.519531 192.828125 C 159.015625 191.804688 160.246094 191.375 161.273438 191.871094 C 162.300781 192.367188 162.726562 193.597656 162.230469 194.621094 L 156.886719 205.660156 C 156.539062 206.367188 155.820312 206.820312 155.027344 206.820312 Z M 155.027344 206.820312 " fill-opacity="1" fill-rule="evenodd"/><path fill="#000000" d="M 135.007812 269.480469 C 134.902344 269.480469 134.789062 269.472656 134.679688 269.457031 C 133.554688 269.277344 132.789062 268.21875 132.972656 267.097656 L 143.078125 204.433594 C 143.257812 203.3125 144.320312 202.550781 145.441406 202.730469 C 146.566406 202.910156 147.332031 203.96875 147.148438 205.089844 L 137.042969 267.75 C 136.878906 268.761719 136.003906 269.484375 135.007812 269.480469 Z M 165.132812 269.480469 C 164.140625 269.480469 163.261719 268.761719 163.101562 267.75 L 152.992188 205.089844 C 152.8125 203.96875 153.578125 202.910156 154.699219 202.730469 C 155.824219 202.550781 156.882812 203.3125 157.0625 204.433594 L 167.171875 267.097656 C 167.351562 268.21875 166.585938 269.277344 165.464844 269.457031 C 165.351562 269.472656 165.242188 269.484375 165.132812 269.480469 Z M 165.132812 269.480469 " fill-opacity="1" fill-rule="evenodd"/><path fill="#000000" d="M 161.699219 248.175781 C 161.179688 248.175781 160.664062 247.980469 160.261719 247.59375 C 159.445312 246.800781 159.425781 245.5 160.21875 244.683594 C 167.273438 237.429688 179.773438 223.222656 185.03125 208.855469 L 182.265625 200.242188 C 182.082031 199.671875 182.15625 199.050781 182.46875 198.539062 C 182.78125 198.027344 183.300781 197.679688 183.894531 197.582031 L 194.5625 195.835938 C 194.15625 182.960938 192.667969 154.621094 178.625 154.621094 L 167.328125 154.621094 C 166.191406 154.621094 165.269531 153.699219 165.269531 152.5625 C 165.269531 151.425781 166.191406 150.503906 167.328125 150.503906 L 178.625 150.503906 C 186.867188 150.503906 192.644531 157.023438 195.796875 169.878906 C 198.222656 179.773438 198.558594 191.296875 198.738281 197.488281 C 198.765625 198.515625 198.03125 199.441406 197.011719 199.609375 L 186.921875 201.257812 L 189.171875 208.261719 C 189.308594 208.6875 189.300781 209.144531 189.152344 209.570312 C 183.777344 224.902344 170.570312 239.945312 163.179688 247.550781 C 162.773438 247.964844 162.238281 248.175781 161.699219 248.175781 Z M 138.445312 248.175781 C 137.90625 248.175781 137.367188 247.964844 136.964844 247.550781 C 129.570312 239.945312 116.363281 224.902344 110.988281 209.570312 C 110.839844 209.144531 110.835938 208.6875 110.972656 208.261719 L 113.222656 201.257812 L 103.132812 199.609375 C 102.113281 199.441406 101.375 198.550781 101.402344 197.519531 C 101.777344 184.660156 102.769531 150.503906 121.335938 150.503906 L 132.746094 150.503906 C 133.882812 150.503906 134.808594 151.425781 134.808594 152.5625 C 134.808594 153.699219 133.882812 154.621094 132.746094 154.621094 L 121.335938 154.621094 C 107.523438 154.621094 105.96875 183.765625 105.582031 195.839844 L 116.25 197.582031 C 116.839844 197.679688 117.359375 198.03125 117.671875 198.539062 C 117.988281 199.050781 118.0625 199.671875 117.878906 200.242188 L 115.113281 208.851562 C 120.367188 223.222656 132.871094 237.429688 139.921875 244.683594 C 140.71875 245.496094 140.695312 246.800781 139.878906 247.59375 C 139.480469 247.980469 138.960938 248.175781 138.445312 248.175781 Z M 138.445312 248.175781 " fill-opacity="1" fill-rule="evenodd"/><path fill="#9a9a9a" d="M 128.890625 68.738281 C 148.476562 74.613281 169.378906 69.097656 169.589844 69.039062 C 169.726562 69.003906 169.871094 68.980469 170.015625 68.972656 C 170.246094 68.957031 170.472656 68.953125 170.703125 68.953125 C 173.753906 68.953125 176.507812 70.105469 178.894531 72.386719 C 187.066406 80.1875 189.011719 100.089844 189.46875 110.269531 C 201.503906 91.382812 194.078125 72.425781 191.5 65.847656 C 190.980469 64.515625 190.65625 63.695312 190.585938 63.039062 C 184.691406 50.949219 176.378906 43.324219 165.867188 40.359375 C 150.261719 35.957031 131.851562 42.722656 119.824219 50.523438 C 111.371094 56.003906 106.074219 64.019531 104.5 73.703125 C 102.800781 84.171875 105.519531 96.105469 111.667969 106.042969 C 112.492188 86.195312 115.765625 74.0625 121.410156 69.941406 C 123.601562 68.34375 126.1875 67.929688 128.890625 68.738281 Z M 128.890625 68.738281 " fill-opacity="1" fill-rule="evenodd"/><path fill="#fcc09c" d="M 170.441406 73.074219 C 167.933594 73.71875 147.550781 78.632812 127.707031 72.679688 C 126.226562 72.238281 124.996094 72.425781 123.84375 73.265625 C 121.542969 74.945312 116.132812 82.070312 115.625 111.914062 L 115.617188 112.3125 C 119.9375 140.546875 136.699219 151.050781 149.789062 151.460938 C 155.863281 151.648438 161.558594 149.988281 166.582031 146.773438 C 166.828125 146.492188 167.140625 146.289062 167.484375 146.175781 C 176.035156 140.289062 182.53125 129.796875 185.476562 116.175781 C 185.484375 113.457031 185.304688 84.203125 176.042969 75.359375 C 174.363281 73.753906 172.519531 73.003906 170.441406 73.074219 Z M 170.441406 73.074219 " fill-opacity="1" fill-rule="evenodd"/><path fill="#fcc09c" d="M 165.246094 152.140625 C 160.632812 154.402344 155.667969 155.589844 150.652344 155.589844 C 150.320312 155.589844 149.992188 155.585938 149.660156 155.578125 C 144.9375 155.429688 139.796875 154.140625 134.832031 151.441406 C 134.921875 154.585938 134.152344 159.0625 131.398438 165.316406 L 150.070312 182.28125 L 168.746094 165.316406 C 166.140625 159.433594 165.257812 155.1875 165.246094 152.140625 Z M 165.246094 152.140625 " fill-opacity="1" fill-rule="evenodd"/><path fill="#a5d6a7" d="M 146.941406 185.003906 L 128.871094 168.585938 L 120.503906 175.855469 L 129.628906 199.554688 Z M 146.941406 185.003906 " fill-opacity="1" fill-rule="evenodd"/><path fill="#a5d6a7" d="M 171.273438 168.585938 L 153.199219 185.003906 L 161.683594 192.132812 C 161.699219 192.144531 161.710938 192.15625 161.726562 192.167969 L 170.511719 199.554688 L 179.636719 175.855469 Z M 171.273438 168.585938 " fill-opacity="1" fill-rule="evenodd"/><path fill="#cfd8dc" d="M 157.824219 194.269531 L 150.070312 187.753906 L 142.320312 194.269531 L 146.40625 202.703125 L 153.734375 202.703125 Z M 157.824219 194.269531 " fill-opacity="1" fill-rule="evenodd"/><path fill="#cfd8dc" d="M 159.65625 246.414062 L 153.273438 206.820312 L 146.871094 206.820312 L 140.488281 246.394531 C 140.484375 246.429688 140.476562 246.460938 140.46875 246.496094 L 137.425781 265.367188 L 162.714844 265.367188 L 159.667969 246.480469 C 159.664062 246.457031 159.660156 246.433594 159.65625 246.414062 Z M 159.65625 246.414062 " fill-opacity="1" fill-rule="evenodd"/><path fill="#86ae87" d="M 157.167969 205.078125 L 163.070312 241.675781 C 170.261719 233.90625 180.425781 221.441406 185.03125 208.855469 L 182.265625 200.242188 C 182.082031 199.671875 182.15625 199.050781 182.46875 198.539062 C 182.78125 198.03125 183.300781 197.679688 183.894531 197.582031 L 194.5625 195.839844 C 194.339844 188.84375 193.800781 177.289062 191.105469 168.191406 C 190.460938 167.753906 190.09375 166.972656 190.226562 166.15625 C 190.246094 166.027344 190.277344 165.90625 190.320312 165.789062 C 187.992188 159.335938 184.351562 154.621094 178.625 154.621094 L 169.621094 154.621094 C 169.996094 156.984375 170.929688 160.226562 172.929688 164.566406 L 183.433594 173.699219 C 184.085938 174.265625 184.316406 175.183594 184.003906 175.988281 L 173.324219 203.726562 C 173.085938 204.347656 172.558594 204.816406 171.914062 204.984375 C 171.742188 205.027344 171.570312 205.046875 171.398438 205.046875 C 170.917969 205.046875 170.449219 204.878906 170.070312 204.566406 L 161.078125 197.003906 Z M 157.167969 205.078125 " fill-opacity="1" fill-rule="evenodd"/><path fill="#86ae87" d="M 137.070312 241.675781 L 142.976562 205.074219 L 139.066406 197.003906 L 130.070312 204.5625 C 129.695312 204.878906 129.222656 205.046875 128.742188 205.046875 C 128.570312 205.046875 128.398438 205.027344 128.226562 204.980469 C 127.582031 204.816406 127.058594 204.347656 126.816406 203.726562 L 116.136719 175.988281 C 115.828125 175.179688 116.054688 174.265625 116.707031 173.699219 L 127.214844 164.566406 C 129.164062 160.328125 130.09375 157.070312 130.472656 154.621094 L 121.335938 154.617188 C 115.742188 154.617188 112.160156 159.398438 109.851562 165.886719 C 109.875 165.972656 109.898438 166.0625 109.910156 166.15625 C 110.039062 166.933594 109.710938 167.683594 109.121094 168.128906 C 106.359375 177.40625 105.792969 189.199219 105.582031 195.839844 L 116.25 197.582031 C 116.839844 197.679688 117.359375 198.027344 117.671875 198.539062 C 117.988281 199.050781 118.0625 199.671875 117.878906 200.242188 L 115.113281 208.851562 C 119.714844 221.4375 129.878906 233.902344 137.070312 241.675781 Z M 137.070312 241.675781 " fill-opacity="1" fill-rule="evenodd"/><path fill="#a5d6a7" d="M 136.242188 246.804688 C 128.742188 238.992188 116.191406 224.414062 110.988281 209.570312 C 110.839844 209.144531 110.835938 208.6875 110.972656 208.261719 L 113.222656 201.257812 L 103.132812 199.609375 C 102.113281 199.441406 101.375 198.550781 101.402344 197.519531 C 101.589844 191.105469 101.929688 179.394531 104.527344 169.265625 C 83.007812 174.523438 67.207031 194.253906 67.207031 216.625 L 67.207031 265.367188 L 90.699219 265.367188 L 90.699219 219.078125 C 90.699219 217.941406 91.621094 217.019531 92.757812 217.019531 C 93.898438 217.019531 94.820312 217.941406 94.820312 219.078125 L 94.820312 265.367188 L 133.25 265.367188 Z M 136.242188 246.804688 " fill-opacity="1" fill-rule="evenodd"/><path fill="#a5d6a7" d="M 189.152344 209.570312 C 183.949219 224.417969 171.402344 238.992188 163.898438 246.804688 L 166.890625 265.367188 L 205.320312 265.367188 L 205.320312 219.078125 C 205.320312 217.945312 206.246094 217.023438 207.382812 217.023438 C 208.523438 217.023438 209.445312 217.945312 209.445312 219.082031 L 209.445312 265.367188 L 232.9375 265.367188 L 232.9375 216.628906 C 232.9375 194.265625 217.148438 174.542969 195.644531 169.273438 C 195.695312 169.472656 195.746094 169.675781 195.796875 169.878906 C 198.222656 179.773438 198.558594 191.296875 198.738281 197.488281 C 198.769531 198.519531 198.03125 199.445312 197.011719 199.609375 L 186.921875 201.257812 L 189.171875 208.261719 C 189.308594 208.6875 189.300781 209.148438 189.152344 209.570312 Z M 189.152344 209.570312 " fill-opacity="1" fill-rule="evenodd"/></svg>