<svg xmlns="http://www.w3.org/2000/svg" xmlns:xlink="http://www.w3.org/1999/xlink" width="400" zoomAndPan="magnify" viewBox="0 0 300 299.999988" height="400" preserveAspectRatio="xMidYMid meet" version="1.0"><defs><clipPath id="da5e62fa90"><path d="M 31.800781 121 L 208 121 L 208 270 L 31.800781 270 Z M 31.800781 121 " clip-rule="nonzero"/></clipPath></defs><path fill="#c6d0dc" d="M 199.574219 152.632812 L 199.574219 127.339844 C 199.574219 115.28125 195.546875 103.488281 187.820312 94.238281 C 182.441406 87.796875 179.210938 79.507812 179.210938 70.460938 C 179.222656 50.449219 195.382812 33.878906 215.375 33.410156 C 236.25 32.917969 253.324219 49.699219 253.324219 70.476562 C 253.324219 79.507812 250.097656 87.785156 244.734375 94.21875 C 237.019531 103.464844 233.007812 115.242188 233.007812 127.285156 L 233.007812 152.632812 Z M 199.574219 152.632812 " fill-opacity="1" fill-rule="nonzero"/><path fill="#59aee4" d="M 203.183594 254.046875 L 203.183594 266.8125 L 35.507812 266.8125 L 35.507812 254.257812 C 35.507812 249.285156 35.953125 244.316406 36.835938 239.425781 L 36.882812 239.148438 C 37.757812 234.347656 39.890625 229.996094 42.933594 226.464844 C 46.902344 221.847656 52.425781 218.613281 58.71875 217.542969 L 73.152344 214.585938 L 86.894531 211.769531 L 87.417969 211.664062 L 100.117188 209.058594 L 119.199219 221.417969 L 138.882812 209.058594 L 151.148438 211.589844 L 152.460938 211.859375 L 165.414062 214.527344 L 180.011719 217.542969 C 183.269531 218.097656 186.328125 219.230469 189.070312 220.847656 C 190.996094 221.972656 192.765625 223.335938 194.34375 224.898438 C 198.164062 228.671875 200.839844 233.609375 201.847656 239.148438 C 202.734375 244.0625 203.183594 249.046875 203.183594 254.046875 Z M 203.183594 254.046875 " fill-opacity="1" fill-rule="nonzero"/><path fill="#ffffff" d="M 152.460938 211.859375 L 152.460938 266.8125 L 86.894531 266.8125 L 86.894531 211.769531 L 100.117188 209.058594 L 118.871094 221.207031 L 119.199219 221.417969 L 119.753906 221.070312 L 138.882812 209.058594 Z M 152.460938 211.859375 " fill-opacity="1" fill-rule="nonzero"/><path fill="#c6d0dc" d="M 139.863281 207.90625 L 119.402344 220.800781 L 99.410156 207.90625 L 99.410156 192.628906 L 139.863281 192.628906 Z M 139.863281 207.90625 " fill-opacity="1" fill-rule="nonzero"/><path fill="#548fbf" d="M 87.417969 211.664062 L 87.417969 266.8125 L 73.152344 266.8125 L 73.152344 214.589844 L 86.894531 211.769531 Z M 87.417969 211.664062 " fill-opacity="1" fill-rule="nonzero"/><path fill="#548fbf" d="M 165.414062 214.53125 L 165.414062 266.8125 L 151.148438 266.8125 L 151.148438 211.589844 L 152.460938 211.859375 Z M 165.414062 214.53125 " fill-opacity="1" fill-rule="nonzero"/><path fill="#ef835e" d="M 130.371094 229.289062 L 130.371094 266.8125 L 108.304688 266.8125 L 108.304688 229.289062 L 118.699219 221.339844 L 118.871094 221.207031 L 119.40625 220.800781 L 119.753906 221.070312 L 120.0625 221.308594 Z M 130.371094 229.289062 " fill-opacity="1" fill-rule="nonzero"/><path fill="#c6d0dc" d="M 156.335938 162.460938 C 162.410156 162.460938 167.339844 157.230469 167.339844 150.78125 L 167.339844 143.121094 C 167.339844 135.996094 165.96875 129.199219 163.496094 123.03125 C 163.128906 122.113281 162.734375 121.214844 162.316406 120.332031 C 159.972656 115.300781 156.871094 110.746094 153.171875 106.820312 C 144.414062 97.523438 132.316406 91.777344 118.960938 91.777344 C 99.957031 91.777344 83.511719 103.410156 75.605469 120.332031 C 75.1875 121.214844 74.792969 122.117188 74.425781 123.03125 C 71.953125 129.199219 70.582031 135.996094 70.582031 143.121094 L 70.582031 150.78125 C 70.582031 157.230469 75.507812 162.460938 81.585938 162.460938 Z M 156.335938 162.460938 " fill-opacity="1" fill-rule="nonzero"/><path fill="#ffffff" d="M 152.082031 145.261719 C 154.921875 147.097656 156.550781 150.328125 156.550781 153.714844 L 156.550781 167.023438 C 156.550781 187.585938 139.890625 204.257812 119.339844 204.257812 C 98.785156 204.257812 82.125 187.585938 82.125 167.023438 L 82.125 152.007812 C 82.125 149.113281 84.324219 146.699219 87.203125 146.421875 C 96.886719 145.492188 118.421875 141.675781 134.160156 126.078125 C 136.257812 124 139.820312 124.75 140.902344 127.492188 C 142.855469 132.441406 146.613281 141.722656 152.082031 145.261719 Z M 152.082031 145.261719 " fill-opacity="1" fill-rule="nonzero"/><path fill="#ffffff" d="M 81.003906 169.261719 C 80.214844 169.53125 79.367188 169.675781 78.488281 169.675781 C 74.097656 169.675781 70.535156 166.117188 70.535156 161.726562 C 70.535156 157.332031 74.097656 153.773438 78.488281 153.773438 C 79.367188 153.773438 80.214844 153.921875 81.003906 154.1875 Z M 81.003906 169.261719 " fill-opacity="1" fill-rule="nonzero"/><path fill="#ffffff" d="M 157.019531 153.628906 C 157.871094 153.339844 158.78125 153.183594 159.726562 153.183594 C 164.441406 153.183594 168.269531 157.007812 168.269531 161.726562 C 168.269531 166.441406 164.441406 170.265625 159.726562 170.265625 C 158.78125 170.265625 157.867188 170.109375 157.019531 169.820312 Z M 157.019531 153.628906 " fill-opacity="1" fill-rule="nonzero"/><path fill="#ffffff" d="M 265.078125 70.363281 C 265.078125 79.449219 261.832031 87.769531 256.4375 94.238281 C 249.507812 102.550781 245.546875 112.898438 244.785156 123.652344 L 210.890625 123.652344 C 210.121094 112.90625 206.148438 102.5625 199.210938 94.257812 C 193.808594 87.78125 190.554688 79.449219 190.558594 70.347656 C 190.566406 50.230469 206.816406 33.570312 226.917969 33.097656 C 228.277344 33.066406 229.621094 33.105469 230.945312 33.21875 C 250.0625 34.804688 265.078125 50.832031 265.078125 70.363281 Z M 265.078125 70.363281 " fill-opacity="1" fill-rule="nonzero"/><path fill="#f7c648" d="M 265.078125 70.363281 C 265.078125 79.449219 261.832031 87.769531 256.4375 94.238281 C 249.507812 102.550781 245.546875 112.898438 244.785156 123.652344 L 217.144531 123.652344 C 216.371094 112.90625 212.402344 102.5625 205.464844 94.257812 C 200.058594 87.78125 196.804688 79.449219 196.808594 70.347656 C 196.820312 50.976562 211.882812 34.8125 230.945312 33.21875 C 250.0625 34.804688 265.078125 50.832031 265.078125 70.363281 Z M 265.078125 70.363281 " fill-opacity="1" fill-rule="nonzero"/><path fill="#ef835e" d="M 227.839844 51.867188 L 233.632812 63.609375 L 246.582031 65.492188 L 237.210938 74.632812 L 239.421875 87.539062 L 227.839844 81.445312 L 216.253906 87.539062 L 218.46875 74.632812 L 209.09375 65.492188 L 222.046875 63.609375 Z M 227.839844 51.867188 " fill-opacity="1" fill-rule="nonzero"/><path fill="#ffffff" d="M 211.03125 143.039062 L 244.648438 143.039062 L 244.648438 152.632812 L 211.03125 152.632812 Z M 211.03125 143.039062 " fill-opacity="1" fill-rule="nonzero"/><path fill="#ffffff" d="M 211.03125 123.683594 L 244.648438 123.683594 L 244.648438 133.28125 L 211.03125 133.28125 Z M 211.03125 123.683594 " fill-opacity="1" fill-rule="nonzero"/><path fill="#f7c648" d="M 211.03125 133.601562 L 244.648438 133.601562 L 244.648438 143.195312 L 211.03125 143.195312 Z M 211.03125 133.601562 " fill-opacity="1" fill-rule="nonzero"/><path fill="#000000" d="M 258.511719 96.253906 C 264.527344 89.039062 267.839844 79.886719 267.839844 70.476562 C 267.839844 59.542969 263.535156 49.316406 255.71875 41.675781 C 247.90625 34.039062 237.589844 29.976562 226.640625 30.230469 C 205 30.742188 187.386719 48.785156 187.378906 70.457031 C 187.375 79.882812 190.695312 89.050781 196.722656 96.273438 C 203.828125 104.78125 207.738281 115.8125 207.738281 127.339844 L 207.738281 130.476562 L 204.476562 130.476562 L 204.476562 136.828125 L 207.738281 136.828125 L 207.738281 140.113281 L 204.476562 140.113281 L 204.476562 146.46875 L 207.738281 146.46875 L 207.738281 155.8125 L 224.644531 155.8125 L 224.644531 165.023438 C 224.644531 173.550781 217.707031 180.488281 209.1875 180.488281 C 200.664062 180.488281 193.730469 173.550781 193.730469 165.023438 L 193.730469 146.550781 C 193.730469 132.167969 182.035156 120.46875 167.660156 120.46875 L 167.660156 121.40625 C 167.492188 120.976562 167.316406 120.546875 167.136719 120.121094 C 166.761719 119.238281 166.332031 118.316406 165.875 117.402344 C 163.382812 112.355469 160.089844 107.769531 156.09375 103.769531 C 146.3125 93.988281 133.316406 88.597656 119.496094 88.597656 C 99.695312 88.597656 81.921875 99.632812 73.121094 117.390625 C 72.660156 118.3125 72.234375 119.230469 71.855469 120.121094 C 69.128906 126.539062 67.742188 133.359375 67.742188 140.390625 L 67.742188 146.242188 L 74.09375 146.242188 L 74.09375 140.386719 C 74.09375 134.21875 75.308594 128.238281 77.699219 122.609375 C 78.027344 121.839844 78.398438 121.039062 78.804688 120.222656 C 86.53125 104.636719 102.125 94.953125 119.496094 94.953125 C 131.621094 94.953125 143.023438 99.679688 151.601562 108.265625 C 155.109375 111.773438 157.996094 115.796875 160.191406 120.230469 C 160.597656 121.042969 160.96875 121.84375 161.292969 122.609375 C 163.683594 128.238281 164.898438 134.21875 164.898438 140.386719 L 164.898438 146.242188 L 171.246094 146.242188 L 171.246094 140.386719 C 171.246094 135.789062 170.652344 131.277344 169.476562 126.910156 C 179.5 127.832031 187.378906 136.285156 187.378906 146.550781 L 187.378906 165.023438 C 187.378906 177.054688 197.160156 186.84375 209.1875 186.84375 C 221.210938 186.84375 230.992188 177.054688 230.992188 165.023438 L 230.992188 155.8125 L 247.523438 155.8125 L 247.523438 146.46875 L 251.160156 146.46875 L 251.160156 140.113281 L 247.523438 140.113281 L 247.523438 136.828125 L 251.160156 136.828125 L 251.160156 130.476562 L 247.523438 130.476562 L 247.523438 127.285156 C 247.523438 115.773438 251.425781 104.75 258.511719 96.253906 Z M 201.597656 92.199219 C 196.519531 86.121094 193.726562 78.398438 193.730469 70.460938 C 193.738281 52.210938 208.566406 37.015625 226.792969 36.585938 C 236.003906 36.359375 244.699219 39.792969 251.28125 46.222656 C 257.863281 52.65625 261.492188 61.269531 261.492188 70.476562 C 261.492188 78.398438 258.699219 86.109375 253.636719 92.179688 C 246.941406 100.210938 242.761719 110.207031 241.550781 120.835938 L 236.164062 120.835938 L 236.164062 114.632812 L 229.8125 114.632812 L 229.8125 120.835938 L 225.40625 120.835938 L 225.40625 114.632812 L 219.054688 114.632812 L 219.054688 120.835938 L 213.707031 120.835938 C 212.484375 110.210938 208.300781 100.222656 201.597656 92.199219 Z M 241.171875 149.457031 L 214.089844 149.457031 L 214.089844 146.46875 L 241.171875 146.46875 Z M 241.171875 140.117188 L 214.089844 140.117188 L 214.089844 136.832031 L 241.171875 136.832031 Z M 214.089844 130.476562 L 214.089844 127.339844 C 214.089844 127.289062 214.085938 127.242188 214.085938 127.191406 L 241.175781 127.191406 C 241.175781 127.222656 241.171875 127.253906 241.171875 127.289062 L 241.171875 130.476562 Z M 214.089844 130.476562 " fill-opacity="1" fill-rule="nonzero"/><path fill="#000000" d="M 116.464844 169.070312 L 122.816406 169.070312 L 122.816406 178.65625 L 116.464844 178.65625 Z M 116.464844 169.070312 " fill-opacity="1" fill-rule="nonzero"/><path fill="#000000" d="M 116.320312 39.863281 L 122.671875 39.863281 L 122.671875 73.0625 L 116.320312 73.0625 Z M 116.320312 39.863281 " fill-opacity="1" fill-rule="nonzero"/><path fill="#000000" d="M 147.78125 77.691406 L 171.242188 54.214844 L 175.734375 58.710938 L 152.273438 82.183594 Z M 147.78125 77.691406 " fill-opacity="1" fill-rule="nonzero"/><path fill="#000000" d="M 91.207031 77.6875 L 86.71875 82.183594 L 63.257812 58.707031 L 67.746094 54.214844 Z M 91.207031 77.6875 " fill-opacity="1" fill-rule="nonzero"/><path fill="#000000" d="M 212.015625 93.347656 L 227.816406 85.035156 L 243.617188 93.347656 L 240.601562 75.742188 L 253.386719 63.273438 L 235.71875 60.707031 L 227.816406 44.6875 L 219.914062 60.707031 L 202.25 63.273438 L 215.03125 75.742188 Z M 224.132812 66.511719 L 227.816406 59.046875 L 231.5 66.511719 L 239.738281 67.710938 L 233.777344 73.523438 L 235.183594 81.730469 L 227.816406 77.855469 L 220.449219 81.730469 L 221.859375 73.523438 L 215.898438 67.710938 Z M 224.132812 66.511719 " fill-opacity="1" fill-rule="nonzero"/><g clip-path="url(#da5e62fa90)"><path fill="#000000" d="M 33.34375 239.308594 C 32.421875 244.417969 31.957031 249.628906 31.957031 254.804688 L 31.957031 269.992188 L 207.03125 269.992188 L 207.03125 254.589844 C 207.03125 249.386719 206.5625 244.152344 205.636719 239.035156 C 204.535156 232.917969 201.613281 227.375 197.195312 223.003906 C 195.253906 221.078125 193.039062 219.417969 190.609375 218.070312 C 187.664062 216.433594 184.476562 215.3125 181.125 214.738281 L 142.285156 206.726562 L 142.285156 200.433594 C 151.648438 194.082031 158.222656 183.929688 159.816406 172.214844 C 160.078125 172.234375 160.339844 172.246094 160.605469 172.246094 C 166.40625 172.246094 171.125 167.527344 171.125 161.726562 C 171.125 155.925781 166.40625 151.207031 160.605469 151.207031 C 160.417969 151.207031 160.226562 151.21875 160.039062 151.230469 C 159.476562 147.46875 157.402344 144.148438 154.242188 142.101562 L 154.238281 142.101562 C 149.449219 138.996094 145.769531 129.667969 144.195312 125.683594 C 143.289062 123.390625 141.304688 121.714844 138.878906 121.207031 C 136.457031 120.695312 133.960938 121.429688 132.207031 123.167969 C 116.839844 138.398438 95.324219 141.957031 86.789062 142.777344 C 82.351562 143.203125 78.988281 146.800781 78.8125 151.210938 C 78.765625 151.210938 78.722656 151.207031 78.679688 151.207031 C 72.878906 151.207031 68.160156 155.925781 68.160156 161.726562 C 68.160156 167.527344 72.878906 172.25 78.679688 172.25 C 78.847656 172.25 79.011719 172.234375 79.175781 172.226562 C 80.78125 184.027344 87.449219 194.234375 96.917969 200.574219 L 96.917969 206.746094 L 57.90625 214.738281 C 51.234375 215.882812 45.078125 219.292969 40.566406 224.347656 C 36.863281 228.484375 34.382812 233.5625 33.390625 239.054688 Z M 164.773438 161.726562 C 164.773438 164.023438 162.90625 165.890625 160.605469 165.890625 C 160.46875 165.890625 160.332031 165.871094 160.195312 165.859375 L 160.195312 157.59375 C 160.332031 157.578125 160.46875 157.558594 160.605469 157.558594 C 162.90625 157.558594 164.773438 159.429688 164.773438 161.726562 Z M 119.601562 225.492188 L 126.773438 230.65625 L 126.773438 241.125 L 112.859375 230.34375 Z M 112.429688 238.046875 L 126.773438 249.160156 L 126.773438 260.046875 L 112.429688 248.9375 Z M 112.429688 256.972656 L 121.035156 263.636719 L 112.429688 263.636719 Z M 133.125 235.230469 L 142.285156 241.828125 L 142.285156 213.214844 L 148.675781 214.53125 L 148.675781 263.636719 L 133.125 263.636719 Z M 135.933594 229.425781 L 125.308594 221.769531 L 135.933594 215.097656 Z M 103.265625 229.425781 L 103.265625 215.128906 L 113.71875 221.898438 Z M 106.082031 235.226562 L 106.082031 263.636719 L 90.59375 263.636719 L 90.59375 214.527344 L 96.914062 213.230469 L 96.914062 241.828125 Z M 180.007812 220.992188 C 182.664062 221.445312 185.195312 222.332031 187.53125 223.625 C 189.449219 224.691406 191.199219 226 192.726562 227.519531 C 196.214844 230.96875 198.519531 235.34375 199.386719 240.164062 C 200.246094 244.910156 200.683594 249.765625 200.683594 254.589844 L 200.683594 263.636719 L 155.027344 263.636719 L 155.027344 215.84375 L 179.898438 220.972656 Z M 74.507812 161.726562 C 74.507812 159.429688 76.378906 157.558594 78.679688 157.558594 C 78.71875 157.558594 78.753906 157.566406 78.792969 157.570312 L 78.792969 165.882812 C 78.753906 165.882812 78.71875 165.890625 78.679688 165.890625 C 76.378906 165.890625 74.507812 164.023438 74.507812 161.726562 Z M 85.144531 166.710938 L 85.144531 151.570312 C 85.144531 150.285156 86.113281 149.226562 87.394531 149.101562 C 96.609375 148.214844 119.855469 144.351562 136.675781 127.679688 C 136.902344 127.457031 137.152344 127.402344 137.351562 127.402344 C 137.4375 127.402344 137.515625 127.410156 137.574219 127.421875 C 137.769531 127.464844 138.121094 127.597656 138.289062 128.019531 C 140.234375 132.953125 144.285156 143.226562 150.789062 147.433594 C 152.675781 148.65625 153.84375 150.898438 153.84375 153.289062 L 153.84375 166.710938 C 153.84375 185.664062 138.4375 201.082031 119.496094 201.082031 C 100.554688 201.082031 85.144531 185.664062 85.144531 166.710938 Z M 119.496094 207.433594 C 125.34375 207.433594 130.902344 206.183594 135.933594 203.953125 L 135.933594 207.597656 L 119.371094 217.988281 L 103.265625 207.558594 L 103.265625 204.046875 C 108.242188 206.222656 113.726562 207.433594 119.496094 207.433594 Z M 38.308594 254.804688 C 38.308594 250.007812 38.742188 245.175781 39.597656 240.417969 L 39.644531 240.164062 C 40.421875 235.851562 42.378906 231.847656 45.300781 228.582031 C 48.871094 224.582031 53.742188 221.886719 59.023438 220.996094 L 84.242188 215.828125 L 84.242188 263.636719 L 38.308594 263.636719 Z M 38.308594 254.804688 " fill-opacity="1" fill-rule="nonzero"/></g></svg>