<svg xmlns="http://www.w3.org/2000/svg" xmlns:xlink="http://www.w3.org/1999/xlink" width="400" zoomAndPan="magnify" viewBox="0 0 300 299.999988" height="400" preserveAspectRatio="xMidYMid meet" version="1.0"><path fill="#91cced" d="M 80.6875 212.53125 C 73.925781 198.015625 80.203125 180.761719 94.703125 174 C 109.203125 167.226562 126.441406 173.511719 133.195312 188.027344 C 139.953125 202.542969 133.683594 219.796875 119.183594 226.558594 C 104.691406 233.320312 87.453125 227.046875 80.6875 212.53125 Z M 144.449219 182.410156 C 144.449219 182.410156 155.398438 187.167969 163.199219 187.113281 C 164.351562 186.300781 184.472656 169.460938 185.847656 168.984375 C 185.289062 167.75 177.550781 145.320312 177.550781 145.320312 C 177.550781 145.320312 195.886719 141.519531 199.984375 137.789062 C 199.410156 135.589844 192.539062 107.558594 186.101562 103.773438 C 185.066406 103.109375 177.929688 100.65625 170.972656 99.328125 C 168.378906 98.226562 166.457031 97.21875 166.457031 97.21875 C 166.457031 97.21875 160.09375 107.621094 151.558594 108.1875 C 149.691406 108.3125 141.171875 108.109375 140.277344 99.59375 C 138.878906 100.601562 127.511719 104.351562 124.070312 118.398438 C 123.324219 121.453125 120.386719 146.648438 120.386719 146.648438 C 120.386719 146.648438 131.621094 150.746094 139.207031 149.902344 C 141.03125 154.050781 148.140625 168.71875 146.539062 175.167969 C 146.007812 178.011719 144.449219 182.410156 144.449219 182.410156 Z M 145.316406 183.375 C 141.953125 180.796875 131.992188 182.59375 130.25 182.675781 C 137.878906 191.75 135.648438 204.210938 134.957031 208.277344 C 136.296875 206.496094 148.203125 199.726562 149.8125 199.265625 C 150.265625 198.519531 163.394531 186.917969 163.394531 186.917969 C 160.367188 187.601562 146.964844 184.109375 145.316406 183.375 Z M 142.476562 222.113281 C 142.476562 222.113281 140.96875 222.289062 140.128906 222.113281 C 138.730469 221.898438 138.554688 220.003906 138.554688 220.003906 C 138.554688 220.003906 137.570312 220.109375 136.765625 219.71875 C 134.941406 219.230469 136.136719 214.3125 136.136719 214.3125 C 136.136719 214.3125 131.808594 216.28125 130.664062 216.945312 C 129.789062 218.875 125.195312 223.113281 125.195312 223.113281 C 125.195312 223.113281 135.816406 224.601562 138.554688 224.804688 C 139.15625 224.230469 143.148438 223.492188 143.148438 223.492188 C 142.695312 223.414062 142.476562 222.113281 142.476562 222.113281 Z M 162.050781 207.976562 C 162.050781 207.976562 160.214844 209.03125 159.984375 209.945312 C 159.011719 217.042969 151.53125 218.621094 151.53125 218.621094 C 151.53125 218.621094 150.523438 221.101562 149 222.429688 C 151.390625 233.507812 156.84375 239.355469 158.019531 239.675781 C 160.074219 240.191406 160.515625 237.558594 160.515625 237.558594 C 160.515625 237.558594 216.230469 213.152344 219.769531 209.960938 C 235.421875 199.238281 233.324219 187.460938 232.511719 183.84375 C 228.003906 171.632812 208.386719 177.730469 208.386719 177.730469 Z M 162.050781 207.976562 " fill-opacity="1" fill-rule="nonzero"/><path fill="#5346b2" d="M 179.558594 229.449219 C 188.183594 234.730469 196.425781 245.914062 200.703125 255.085938 C 201.851562 257.558594 203.269531 260.492188 205.976562 260.855469 C 207.765625 261.097656 209.535156 259.988281 210.546875 258.480469 C 211.554688 256.976562 211.917969 255.140625 212.132812 253.351562 C 213.253906 243.734375 209.722656 232.230469 203.464844 224.851562 L 208.527344 223.378906 L 207.828125 220.425781 L 201.199219 219.257812 Z M 149.390625 222.183594 C 148.210938 222.980469 146.832031 223.714844 145.378906 223.75 C 144.609375 223.769531 143.707031 223.671875 143.316406 223.007812 L 143.730469 223.574219 C 139.808594 223.980469 134.789062 225.382812 131.371094 226.683594 C 130.734375 226.921875 130.769531 229.058594 131.867188 230.140625 C 133.109375 231.363281 137.898438 230.085938 137.960938 230.992188 C 138.03125 231.949219 130.710938 233.402344 130.585938 233.976562 C 129.753906 237.78125 130.84375 241.890625 128.894531 245.464844 C 127.40625 248.175781 125.539062 250.699219 124.421875 253.597656 C 123.140625 256.914062 122.945312 260.660156 123.625 264.136719 C 124.042969 266.253906 125.246094 268.683594 127.40625 268.796875 C 129.503906 268.902344 130.921875 266.785156 131.964844 264.960938 C 137.808594 254.734375 145.566406 245.597656 154.710938 238.179688 L 154.710938 237.9375 C 152.3125 233.695312 150.496094 227.878906 149.441406 223.113281 M 89.304688 167.394531 C 88.816406 166.34375 89.269531 165.09375 90.320312 164.597656 C 91.375 164.109375 92.621094 164.558594 93.117188 165.613281 L 96.605469 173.105469 L 92.792969 174.886719 Z M 120.765625 234.933594 C 121.253906 235.988281 122.511719 236.441406 123.566406 235.953125 C 124.617188 235.464844 125.070312 234.207031 124.582031 233.152344 L 121.09375 225.664062 L 117.277344 227.445312 Z M 105.246094 242.707031 L 109.488281 242.707031 L 109.488281 237.160156 L 105.246094 237.160156 Z M 89.84375 247.003906 L 124.890625 247.003906 C 124.890625 244.628906 122.972656 242.707031 120.597656 242.707031 L 94.136719 242.707031 C 91.765625 242.707031 89.84375 244.628906 89.84375 247.003906 Z M 89.160156 167.085938 C 71.898438 176.363281 64.671875 197.632812 73.058594 215.632812 C 81.425781 233.605469 102.300781 241.75 120.464844 234.527344 L 118.792969 230.964844 C 102.589844 237.257812 84.0625 229.964844 76.609375 213.96875 C 69.164062 197.988281 75.464844 179.128906 90.65625 170.730469 M 117.234375 56.867188 C 117.234375 56.867188 118.492188 53.710938 119.988281 52.019531 C 121.273438 52.207031 148.566406 60.085938 168.671875 57.1875 C 169.140625 59.117188 170.617188 62.945312 170.617188 62.945312 C 170.617188 62.945312 174.816406 62.460938 176.894531 58.097656 C 177.488281 56.929688 173.027344 52.914062 167.058594 53.492188 C 167.113281 50.53125 168.238281 37.253906 149.511719 34.648438 C 145.414062 34.136719 125.910156 30.007812 124.609375 46.082031 C 124.679688 46.800781 123.707031 47.101562 122.546875 47.03125 C 121.386719 46.960938 112.765625 45.558594 111.382812 49.09375 C 110.886719 50.601562 109.992188 53.660156 117.234375 56.867188 Z M 135.816406 102.605469 C 135.816406 102.605469 130.46875 105.867188 129.699219 107.84375 C 130.195312 109.171875 134.117188 112.476562 133.375 122.183594 C 132.894531 124.867188 131.566406 133.109375 137.464844 146.320312 C 141.296875 155.847656 143.378906 159.578125 143.378906 159.578125 C 143.378906 159.578125 143.6875 171.996094 143.023438 176.1875 C 143.855469 178.226562 146.167969 182.230469 150.601562 176.941406 C 151.65625 173.820312 151.914062 172.570312 151.515625 168.902344 C 151.117188 165.234375 146.539062 123.015625 146.539062 123.015625 C 146.539062 123.015625 136.535156 117.847656 135.898438 109.652344 C 135.898438 105.183594 135.816406 102.605469 135.816406 102.605469 Z M 170.414062 99.308594 C 170.414062 99.308594 169.121094 114.144531 155.585938 121.472656 C 156.445312 126.675781 163.492188 168.859375 168.953125 173.28125 C 171.601562 175.035156 172.761719 176.097656 177.824219 175.160156 C 180.773438 172.785156 185.925781 168.691406 185.925781 168.691406 L 172.378906 129.308594 C 172.378906 129.308594 167.714844 112.972656 183.234375 103.144531 C 181.914062 102.046875 176.375 100.707031 176.375 100.707031 Z M 183.988281 102.84375 C 191.121094 106.761719 194.707031 119.726562 194.707031 119.726562 C 194.707031 119.726562 204.074219 154.671875 205.226562 158.257812 C 208.757812 158.117188 208.402344 154.867188 208.402344 154.867188 C 208.402344 154.867188 203.542969 115.011719 202.773438 109.074219 C 202.003906 103.136719 200.878906 102.703125 198.761719 100.035156 C 195.886719 95.703125 173.566406 99.308594 173.566406 99.308594 C 173.566406 99.308594 179.949219 101.84375 183.988281 102.84375 Z M 183.988281 102.84375 " fill-opacity="1" fill-rule="nonzero"/><path fill="#249150" d="M 99.582031 185.441406 C 100.175781 185.191406 100.925781 185.34375 101.386719 185.792969 C 101.6875 186.085938 101.847656 186.496094 102.105469 186.832031 C 102.371094 187.1875 102.75 187.476562 102.875 187.902344 C 102.917969 188.054688 102.929688 188.214844 102.882812 188.355469 C 102.832031 188.523438 102.699219 188.664062 102.539062 188.746094 C 102.363281 188.832031 102.148438 188.84375 101.953125 188.816406 C 101.574219 188.773438 101.210938 188.605469 100.839844 188.515625 C 100.386719 188.410156 99.875 188.417969 99.519531 188.117188 C 99.234375 187.875 99.121094 187.488281 99.058594 187.113281 C 99.023438 186.882812 99.007812 186.644531 99.015625 186.40625 C 99.023438 186.183594 99.023438 185.9375 99.175781 185.757812 C 99.296875 185.632812 99.441406 185.539062 99.582031 185.441406 M 121.316406 175.160156 C 120.875 176.410156 119.414062 177.199219 118.128906 176.886719 C 117.039062 177.402344 115.960938 177.914062 114.871094 178.429688 C 113.789062 178.945312 112.558594 179.679688 112.523438 180.867188 C 112.488281 181.839844 113.339844 182.648438 114.242188 183.019531 C 115.144531 183.390625 116.144531 183.480469 117.058594 183.816406 C 119.121094 184.589844 120.476562 186.539062 121.695312 188.375 C 122.128906 189.027344 122.589844 189.808594 122.351562 190.5625 C 122.128906 191.269531 121.386719 191.652344 120.714844 191.953125 C 119.925781 192.316406 119.121094 192.679688 118.253906 192.714844 C 116.535156 192.796875 115.058594 191.597656 113.480469 190.898438 C 112.976562 190.675781 112.417969 190.5 111.878906 190.589844 C 111.339844 190.675781 110.808594 191.113281 110.78125 191.660156 C 110.726562 192.707031 112.1875 193.105469 112.683594 194.019531 C 113.277344 195.097656 112.347656 196.410156 112.488281 197.625 C 112.613281 198.722656 113.621094 199.558594 114.683594 199.867188 C 115.746094 200.175781 116.878906 200.070312 117.996094 200.019531 C 119.101562 199.964844 120.261719 199.992188 121.246094 200.503906 C 122.226562 201.027344 122.953125 202.1875 122.617188 203.242188 C 122.492188 203.632812 122.246094 204.007812 122.289062 204.40625 C 122.371094 205.167969 123.394531 205.40625 124.132812 205.195312 C 124.867188 204.980469 125.539062 204.492188 126.300781 204.519531 C 127.65625 204.574219 128.378906 206.089844 128.824219 207.363281 C 129.460938 209.253906 130.105469 211.203125 129.902344 213.1875 C 129.742188 214.660156 129.132812 216.246094 129.839844 217.546875 C 129.839844 217.546875 136.675781 208.792969 135.824219 197.757812 C 134.957031 186.769531 126.328125 177.988281 121.316406 175.160156 M 98.464844 213.992188 C 98.394531 214.066406 98.324219 214.136719 98.253906 214.214844 C 98.066406 214.429688 97.898438 214.667969 97.765625 214.914062 C 97.632812 215.164062 97.535156 215.429688 97.5 215.710938 C 97.484375 215.871094 97.492188 216.050781 97.554688 216.199219 C 97.679688 216.492188 97.988281 216.660156 98.289062 216.742188 C 98.632812 216.839844 98.988281 216.847656 99.34375 216.898438 C 99.695312 216.953125 100.050781 217.042969 100.335938 217.265625 C 100.617188 217.496094 100.8125 217.847656 101.148438 217.992188 C 101.644531 218.203125 102.210938 217.847656 102.75 217.875 C 103.050781 217.894531 103.335938 218.027344 103.628906 218.070312 C 103.917969 218.113281 104.28125 218.027344 104.398438 217.742188 C 104.441406 217.636719 104.441406 217.519531 104.433594 217.40625 C 104.398438 216.917969 104.183594 216.449219 103.859375 216.085938 C 103.503906 215.703125 103.023438 215.457031 102.636719 215.109375 C 102.230469 214.746094 101.925781 214.277344 101.492188 213.949219 C 101.070312 213.621094 100.527344 213.453125 99.988281 213.460938 C 99.722656 213.460938 99.457031 213.515625 99.199219 213.59375 C 99.066406 213.640625 98.933594 213.699219 98.800781 213.761719 C 98.742188 213.796875 98.679688 213.835938 98.617188 213.871094 C 98.589844 213.886719 98.554688 213.90625 98.527344 213.929688 C 98.5 213.949219 98.492188 213.96875 98.464844 213.992188 M 102.574219 171.730469 C 98.75 171.554688 93.117188 174.789062 88.277344 177.84375 C 83.433594 180.902344 81.34375 186.929688 81.34375 186.929688 C 82.742188 186.679688 83.566406 185.269531 84.628906 184.339844 C 85.46875 183.605469 86.515625 183.144531 87.542969 182.691406 C 87.726562 182.613281 87.921875 182.523438 88.125 182.550781 C 88.578125 182.59375 88.808594 183.117188 88.886719 183.570312 C 88.964844 184.023438 88.992188 184.535156 89.355469 184.820312 C 89.746094 185.128906 90.320312 185.003906 90.753906 184.773438 C 91.1875 184.542969 91.597656 184.214844 92.082031 184.128906 C 92.464844 184.066406 92.84375 184.15625 93.226562 184.242188 C 94.296875 184.5 95.367188 184.757812 96.429688 185.015625 C 96.730469 183.988281 95.492188 182.96875 95.773438 181.929688 C 95.996094 181.125 96.960938 180.859375 97.738281 180.558594 C 98.730469 180.167969 99.609375 179.539062 100.46875 178.910156 C 100.609375 178.8125 100.75 178.695312 100.785156 178.527344 C 100.828125 178.332031 100.695312 178.136719 100.601562 177.960938 C 100.289062 177.394531 100.273438 176.675781 100.554688 176.089844 C 100.769531 175.664062 101.113281 175.320312 101.394531 174.9375 C 102.140625 173.929688 102.40625 172.953125 102.652344 171.730469 M 114.941406 228.15625 C 123.589844 226.667969 129.65625 218.195312 129.65625 218.195312 C 128.609375 218.140625 127.546875 218.089844 126.523438 218.316406 C 125.496094 218.546875 124.503906 219.089844 123.953125 219.984375 C 123.386719 219.390625 122.6875 218.929688 121.917969 218.65625 C 121.589844 218.539062 121.226562 218.453125 120.898438 218.546875 C 120.617188 218.636719 120.386719 218.851562 120.183594 219.0625 C 119.605469 219.683594 119.128906 220.402344 118.792969 221.179688 C 118.703125 221.394531 118.617188 221.613281 118.457031 221.785156 C 118.316406 221.925781 118.128906 222.023438 117.960938 222.121094 C 116.597656 222.960938 115.933594 224.851562 114.375 225.230469 C 112.542969 225.675781 110.984375 223.714844 109.117188 223.484375 C 108.007812 223.351562 106.9375 223.839844 105.964844 224.371094 C 105.839844 224.433594 105.714844 224.503906 105.636719 224.609375 C 105.398438 224.902344 105.53125 225.347656 105.734375 225.664062 C 105.9375 225.984375 106.195312 226.292969 106.210938 226.667969 C 106.238281 227.347656 105.46875 227.757812 104.804688 227.90625 C 104.140625 228.058594 103.363281 228.226562 103.085938 228.847656 C 103.085938 228.855469 106.292969 229.636719 114.941406 228.15625 Z M 91.429688 224.699219 C 91.136719 223.964844 91.3125 223.191406 91.871094 222.625 C 92.25 222.246094 92.808594 221.960938 92.925781 221.4375 C 92.996094 221.101562 92.851562 220.753906 92.816406 220.417969 C 92.648438 218.894531 94.472656 217.796875 94.570312 216.269531 C 94.632812 215.347656 94.046875 214.523438 93.570312 213.738281 C 93.09375 212.949219 92.675781 211.957031 93.074219 211.121094 C 93.464844 210.308594 94.457031 210.003906 95.332031 209.792969 C 97.289062 209.3125 99.40625 208.84375 101.246094 209.652344 C 101.875 209.925781 102.574219 210.34375 103.183594 210.03125 C 103.832031 209.703125 103.875 208.816406 103.832031 208.101562 C 103.761719 206.832031 103.671875 205.539062 103.15625 204.378906 C 102.46875 202.808594 101.070312 201.675781 100.148438 200.222656 C 100.042969 200.054688 99.9375 199.859375 99.953125 199.65625 C 99.972656 199.460938 100.09375 199.300781 100.164062 199.113281 C 100.371094 198.601562 100.105469 197.996094 99.660156 197.660156 C 99.21875 197.332031 98.652344 197.234375 98.101562 197.21875 C 97.597656 197.207031 97.066406 197.253906 96.625 197.015625 C 96.351562 196.863281 96.148438 196.625 95.917969 196.421875 C 95.074219 195.675781 93.84375 195.402344 92.765625 195.71875 C 91.523438 196.09375 90.402344 197.199219 89.136719 196.90625 C 88.035156 196.660156 87.445312 195.472656 86.523438 194.824219 C 86.152344 194.566406 85.71875 194.390625 85.40625 194.0625 C 85.152344 193.789062 85 193.433594 84.804688 193.105469 C 83.8125 191.402344 81.511719 190.617188 79.679688 191.34375 C 79.679688 191.34375 74.4375 197.296875 81.34375 214.746094 C 82.617188 217.335938 88.390625 222.945312 91.429688 224.699219 M 208.660156 154.148438 C 210.8125 154.75 210.8125 152.515625 210.8125 152.515625 C 210.8125 152.515625 209.847656 141.109375 209.378906 138.664062 C 208.910156 136.21875 206.632812 136.761719 206.632812 136.761719 C 206.632812 136.761719 208.191406 151.683594 208.660156 154.148438 Z M 204.527344 122.703125 C 204.527344 122.703125 205.421875 122.703125 207.570312 122.269531 C 207.847656 108.789062 202.039062 105.203125 202.039062 105.203125 Z M 165.527344 119.390625 C 164.234375 135.765625 174.082031 145.824219 174.082031 145.824219 C 174.082031 145.824219 178.304688 149.964844 179.074219 149.761719 C 174.273438 139.320312 171.761719 125.425781 171.859375 121.933594 C 171.449219 109.941406 180.4375 98.722656 180.4375 98.722656 L 172.8125 99.113281 C 167.792969 104.519531 166.261719 113.523438 165.527344 119.390625 Z M 129.699219 108.152344 C 129.699219 108.152344 126.503906 117.199219 127.433594 126.859375 C 128.34375 132.71875 130.804688 144.949219 138.667969 149.070312 C 136.96875 145.152344 132.265625 135.039062 132.691406 128.121094 C 132.964844 123.164062 134.082031 117.09375 132.964844 114.375 C 131.851562 111.652344 131.035156 109.4375 129.699219 108.152344 Z M 129.699219 108.152344 " fill-opacity="1" fill-rule="nonzero"/><path fill="#d3715b" d="M 125.078125 85.679688 C 122.8125 81.097656 121.875 76.046875 121.308594 70.933594 L 121.8125 70.683594 C 128.476562 68.167969 133.871094 62.636719 136.296875 55.9375 C 139.722656 63.894531 147.644531 69.734375 156.25 70.640625 L 156.621094 71.550781 C 156.753906 69.78125 156.941406 67.925781 157.921875 66.4375 C 158.90625 64.949219 160.914062 63.992188 162.507812 64.789062 C 164.199219 65.632812 164.703125 67.890625 165.015625 69.585938 C 165.625 72.882812 165.351562 76.96875 162.542969 79.21875 C 161.261719 80.246094 159.332031 80.707031 157.71875 80.289062 C 157.382812 84.164062 158.535156 87.910156 160.515625 91.261719 C 161.925781 93.644531 163.871094 95.691406 166.15625 97.242188 C 164.644531 99.671875 162.703125 102.019531 160.410156 104.003906 C 158.082031 106.015625 154.472656 113.300781 151.140625 113.734375 C 148.246094 114.125 145.9375 107.90625 143.722656 106.320312 C 141.511719 104.730469 140.21875 102.242188 140.269531 99.824219 C 141.148438 99.335938 142.023438 98.855469 142.890625 98.386719 L 142.890625 96.914062 C 142.359375 96.988281 141.828125 97.03125 141.296875 97.039062 C 134.339844 97.171875 128.167969 91.925781 125.078125 85.679688 Z M 130.753906 183.375 C 132.292969 179.742188 143.148438 159.171875 138.722656 149.902344 C 136.71875 149.832031 123.75 148.617188 120.378906 146.648438 C 120.15625 149.078125 118.792969 165.269531 115.78125 172.652344 C 115.78125 172.652344 129.257812 177.878906 130.753906 183.375 Z M 199.796875 138.257812 C 189.511719 142.652344 177.84375 145.558594 177.84375 145.558594 C 177.84375 145.558594 185.066406 165.667969 185.925781 168.699219 C 179.863281 173.03125 152.886719 196.890625 150.574219 198.917969 C 143.652344 201.179688 142.625 203.207031 140.835938 203.960938 C 138.207031 205.050781 133.347656 210.8125 131.363281 211.433594 C 126.496094 212.496094 125.539062 215.128906 126.308594 216.464844 C 127.734375 218.949219 135.871094 214.242188 136.71875 213.84375 C 133.675781 220.1875 138.023438 220.304688 138.800781 220.304688 C 139.296875 223.394531 142.4375 222.367188 142.980469 222.164062 C 143.007812 222.742188 143.164062 223.253906 143.980469 223.503906 C 148.824219 224.390625 150.789062 220.339844 151.054688 219.460938 C 159.871094 216.304688 159.84375 209.835938 160.199219 209.039062 C 161.570312 208.640625 205.128906 184.695312 208.023438 178.773438 C 209.5625 175.636719 201.703125 144.160156 199.796875 138.257812 Z M 199.796875 138.257812 " fill-opacity="1" fill-rule="nonzero"/><path fill="#000000" d="M 99.492188 184.765625 C 99.484375 184.765625 99.476562 184.773438 99.464844 184.773438 C 99.449219 184.785156 99.421875 184.785156 99.40625 184.792969 C 99.394531 184.800781 99.386719 184.808594 99.367188 184.808594 C 99.324219 184.828125 99.28125 184.828125 99.246094 184.855469 C 99.015625 185.015625 98.792969 185.183594 98.625 185.402344 C 98.429688 185.652344 98.378906 185.953125 98.359375 186.265625 C 98.332031 186.742188 98.308594 187.230469 98.476562 187.683594 C 98.660156 188.1875 98.988281 188.648438 99.492188 188.871094 C 99.9375 189.0625 100.40625 189.074219 100.863281 189.207031 C 101.394531 189.355469 101.910156 189.5625 102.46875 189.453125 C 103.078125 189.347656 103.539062 188.832031 103.574219 188.214844 C 103.609375 187.65625 103.300781 187.1875 102.953125 186.785156 C 102.894531 186.714844 102.820312 186.644531 102.761719 186.566406 C 102.722656 186.519531 102.679688 186.476562 102.644531 186.433594 C 102.644531 186.433594 102.636719 186.421875 102.636719 186.421875 C 102.511719 186.226562 102.386719 186.035156 102.265625 185.839844 C 101.9375 185.332031 101.519531 184.960938 100.953125 184.765625 C 100.492188 184.617188 99.953125 184.617188 99.492188 184.765625 Z M 102.246094 188.152344 Z M 102.265625 188.132812 C 102.28125 188.125 102.289062 188.125 102.253906 188.144531 C 102.265625 188.144531 102.265625 188.144531 102.265625 188.132812 Z M 102.253906 188.144531 C 102.253906 188.117188 102.265625 188.089844 102.253906 188.144531 Z M 102.253906 188.144531 C 102.253906 188.144531 102.265625 188.132812 102.265625 188.132812 C 102.253906 188.144531 102.253906 188.144531 102.253906 188.144531 C 102.253906 188.152344 102.253906 188.144531 102.253906 188.144531 Z M 102.246094 188.152344 C 102.253906 188.152344 102.253906 188.152344 102.246094 188.152344 Z M 101.023438 186.378906 C 101.023438 186.378906 101.023438 186.378906 101.035156 186.386719 C 101.058594 186.421875 101.078125 186.457031 101.105469 186.496094 C 101.148438 186.566406 101.191406 186.636719 101.238281 186.707031 C 101.335938 186.859375 101.421875 187.015625 101.527344 187.160156 C 101.644531 187.320312 101.769531 187.460938 101.902344 187.601562 C 101.953125 187.664062 102.007812 187.71875 102.058594 187.78125 C 102.078125 187.796875 102.085938 187.816406 102.105469 187.832031 C 102.113281 187.839844 102.15625 187.914062 102.167969 187.921875 C 102.183594 187.957031 102.203125 187.984375 102.21875 188.019531 C 102.21875 188.027344 102.230469 188.027344 102.230469 188.035156 C 102.230469 188.027344 102.230469 188.027344 102.21875 188.019531 C 102.21875 188.027344 102.21875 188.035156 102.230469 188.035156 C 102.238281 188.054688 102.238281 188.0625 102.238281 188.070312 C 102.246094 188.089844 102.246094 188.117188 102.253906 188.132812 C 102.253906 188.144531 102.253906 188.144531 102.253906 188.152344 C 102.246094 188.152344 102.246094 188.152344 102.246094 188.160156 C 102.246094 188.160156 102.238281 188.160156 102.21875 188.167969 C 102.21875 188.167969 102.203125 188.167969 102.203125 188.167969 C 102.148438 188.167969 102.058594 188.167969 102.050781 188.167969 C 101.855469 188.144531 101.671875 188.070312 101.492188 188.019531 C 101.148438 187.914062 100.8125 187.851562 100.457031 187.78125 C 100.378906 187.761719 100.296875 187.742188 100.21875 187.726562 C 100.183594 187.71875 100.140625 187.699219 100.105469 187.691406 C 100.09375 187.691406 100.105469 187.691406 100.09375 187.691406 C 100.058594 187.671875 100.023438 187.644531 99.988281 187.636719 C 99.980469 187.636719 99.988281 187.636719 99.980469 187.636719 C 99.953125 187.609375 99.925781 187.585938 99.890625 187.558594 C 99.875 187.539062 99.863281 187.523438 99.855469 187.503906 C 99.839844 187.476562 99.820312 187.453125 99.8125 187.425781 C 99.804688 187.414062 99.777344 187.34375 99.765625 187.328125 C 99.742188 187.257812 99.714844 187.1875 99.695312 187.105469 C 99.695312 187.097656 99.6875 187.070312 99.6875 187.050781 C 99.6875 187.027344 99.679688 186.957031 99.679688 186.9375 C 99.679688 186.820312 99.679688 186.714844 99.6875 186.601562 C 99.695312 186.503906 99.695312 186.414062 99.695312 186.316406 C 99.695312 186.28125 99.707031 186.238281 99.707031 186.203125 C 99.707031 186.191406 99.707031 186.191406 99.714844 186.183594 C 99.730469 186.15625 99.757812 186.140625 99.757812 186.132812 C 99.765625 186.121094 99.785156 186.105469 99.804688 186.09375 C 99.839844 186.070312 99.863281 186.050781 99.898438 186.023438 C 99.925781 186.015625 99.953125 186.007812 99.988281 186 C 100.007812 186 100.015625 185.988281 100.03125 185.988281 C 100.023438 185.988281 100.042969 185.988281 100.085938 185.980469 C 100.085938 185.980469 100.085938 185.980469 100.078125 185.980469 C 100.085938 185.980469 100.085938 185.980469 100.09375 185.980469 C 100.085938 185.980469 100.085938 185.980469 100.085938 185.980469 C 100.15625 185.980469 100.238281 185.972656 100.308594 185.980469 C 100.324219 185.980469 100.34375 185.980469 100.359375 185.980469 C 100.359375 185.980469 100.449219 186 100.46875 186 C 100.539062 186.015625 100.609375 186.042969 100.679688 186.058594 C 100.546875 186.015625 100.734375 186.09375 100.769531 186.113281 C 100.804688 186.132812 100.828125 186.148438 100.863281 186.175781 C 100.863281 186.175781 100.863281 186.175781 100.875 186.175781 C 100.902344 186.253906 100.960938 186.308594 101.023438 186.378906 Z M 104.015625 215.3125 C 103.742188 215.09375 103.421875 214.90625 103.148438 214.683594 C 102.847656 214.4375 102.628906 214.117188 102.371094 213.835938 C 101.289062 212.648438 99.554688 212.511719 98.246094 213.355469 C 98.15625 213.382812 98.078125 213.433594 97.996094 213.515625 C 97.464844 214.039062 97.003906 214.695312 96.871094 215.445312 C 96.714844 216.34375 97.183594 217.058594 98.042969 217.34375 C 98.617188 217.53125 99.429688 217.378906 99.9375 217.761719 C 100.210938 217.964844 100.371094 218.273438 100.652344 218.46875 C 101.023438 218.707031 101.457031 218.742188 101.882812 218.683594 C 102.238281 218.628906 102.574219 218.488281 102.9375 218.574219 C 103.238281 218.644531 103.539062 218.742188 103.847656 218.734375 C 104.726562 218.726562 105.210938 217.992188 105.089844 217.167969 C 104.972656 216.441406 104.574219 215.773438 104.015625 215.3125 Z M 103.726562 217.398438 C 103.582031 217.371094 103.351562 217.300781 103.175781 217.265625 C 102.832031 217.191406 102.519531 217.203125 102.175781 217.265625 C 101.964844 217.300781 101.679688 217.433594 101.449219 217.378906 C 101.253906 217.335938 101.121094 217.078125 100.988281 216.9375 C 100.582031 216.5 100.023438 216.316406 99.449219 216.234375 C 99.15625 216.191406 98.199219 216.226562 98.15625 215.828125 C 98.128906 215.625 98.28125 215.339844 98.378906 215.164062 C 98.527344 214.898438 98.722656 214.675781 98.933594 214.453125 C 99.5625 213.96875 100.589844 214.019531 101.183594 214.535156 C 101.652344 214.933594 101.972656 215.457031 102.476562 215.835938 C 102.902344 216.15625 103.363281 216.394531 103.609375 216.882812 C 103.699219 217.050781 103.742188 217.21875 103.777344 217.40625 C 103.761719 217.398438 103.742188 217.40625 103.726562 217.398438 Z M 137.214844 87.414062 C 136.667969 87.085938 136.117188 86.75 135.578125 86.421875 C 135.109375 86.140625 134.59375 85.882812 134.1875 85.519531 C 133.339844 84.773438 133.515625 83.789062 134.019531 82.90625 C 135.109375 80.992188 135.472656 78.820312 134.914062 76.675781 C 134.703125 75.839844 135.976562 75.496094 136.199219 76.320312 C 136.695312 78.242188 136.597656 80.316406 135.863281 82.179688 C 135.675781 82.640625 135.464844 83.082031 135.214844 83.507812 C 134.992188 83.886719 134.726562 84.25 135.136719 84.578125 C 135.515625 84.898438 136.011719 85.128906 136.4375 85.386719 C 136.925781 85.679688 137.417969 85.980469 137.90625 86.273438 C 138.613281 86.707031 137.941406 87.859375 137.214844 87.414062 Z M 137.515625 91.4375 C 136.703125 91.171875 137.058594 89.886719 137.871094 90.152344 C 139.941406 90.835938 142.210938 90.03125 143.34375 88.152344 C 143.785156 87.414062 144.9375 88.089844 144.492188 88.824219 C 143.058594 91.183594 140.15625 92.296875 137.515625 91.4375 Z M 131.976562 79.171875 C 132.1875 79.484375 132.019531 79.898438 131.734375 80.085938 C 131.417969 80.289062 131.027344 80.128906 130.824219 79.847656 C 130.152344 78.871094 129.789062 77.703125 129.753906 76.523438 C 129.742188 76.152344 130.0625 75.875 130.417969 75.859375 C 130.78125 75.839844 131.070312 76.179688 131.082031 76.523438 C 131.082031 76.65625 131.089844 76.796875 131.105469 76.929688 C 131.105469 76.957031 131.117188 76.984375 131.117188 77.019531 C 131.125 77.066406 131.132812 77.117188 131.144531 77.160156 C 131.1875 77.417969 131.25 77.667969 131.328125 77.90625 C 131.363281 78.023438 131.410156 78.136719 131.453125 78.242188 C 131.453125 78.242188 131.453125 78.242188 131.453125 78.253906 C 131.460938 78.277344 131.46875 78.296875 131.488281 78.324219 C 131.515625 78.386719 131.550781 78.445312 131.578125 78.507812 C 131.699219 78.738281 131.832031 78.960938 131.976562 79.171875 Z M 142.679688 77.171875 C 141.933594 76.285156 141.511719 75.167969 141.527344 74.007812 C 141.535156 73.636719 141.828125 73.359375 142.191406 73.34375 C 142.546875 73.324219 142.863281 73.660156 142.855469 74.007812 C 142.855469 74.132812 142.855469 74.246094 142.863281 74.371094 C 142.863281 74.421875 142.875 74.484375 142.882812 74.539062 C 142.882812 74.554688 142.890625 74.574219 142.890625 74.59375 C 142.925781 74.8125 142.988281 75.035156 143.058594 75.246094 C 143.078125 75.300781 143.101562 75.355469 143.121094 75.40625 C 143.128906 75.425781 143.140625 75.441406 143.148438 75.460938 C 143.191406 75.558594 143.234375 75.648438 143.289062 75.742188 C 143.351562 75.851562 143.414062 75.949219 143.476562 76.046875 C 143.5 76.082031 143.527344 76.125 143.5625 76.160156 C 143.582031 76.1875 143.597656 76.203125 143.617188 76.230469 C 143.855469 76.515625 143.875 76.886719 143.617188 77.171875 C 143.386719 77.429688 142.898438 77.445312 142.679688 77.171875 Z M 232.050781 181.40625 C 229.960938 178.046875 226.304688 176.152344 222.472656 175.558594 C 218.007812 174.867188 213.566406 175.84375 209.246094 176.914062 C 209.457031 175.257812 209.148438 173.5625 208.777344 171.941406 C 208.234375 169.613281 207.722656 167.28125 207.21875 164.941406 C 206.785156 162.921875 206.332031 160.902344 205.878906 158.878906 C 207.890625 158.5625 208.925781 156.53125 209.058594 154.574219 C 210.15625 154.5625 211.246094 153.339844 211.414062 152.347656 C 211.582031 151.355469 211.378906 150.300781 211.28125 149.308594 C 211.164062 148.101562 211.050781 146.90625 210.945312 145.703125 C 210.742188 143.582031 210.730469 141.351562 210.261719 139.269531 C 209.890625 137.644531 208.667969 136.023438 206.882812 136.085938 C 206.339844 131.832031 205.800781 127.578125 205.269531 123.316406 C 205.367188 123.34375 205.472656 123.359375 205.597656 123.332031 C 206.3125 123.191406 207.03125 123.042969 207.75 122.898438 C 208.015625 122.847656 208.253906 122.535156 208.234375 122.261719 C 207.960938 118.582031 207.714844 114.816406 206.640625 111.261719 C 205.695312 108.144531 204.003906 105.273438 201.753906 102.925781 C 200.746094 100.886719 199.207031 99.097656 197.089844 98.164062 C 194.511719 97.03125 191.617188 97.253906 188.890625 97.457031 C 182.863281 97.898438 176.832031 98.253906 170.804688 98.707031 C 169.316406 98.15625 167.917969 97.449219 166.625 96.570312 C 173.824219 93.140625 180.242188 88.167969 185.261719 81.957031 C 185.261719 81.949219 185.261719 81.949219 185.269531 81.9375 C 185.324219 81.867188 185.367188 81.796875 185.394531 81.707031 C 185.394531 81.699219 185.402344 81.699219 185.402344 81.691406 C 185.484375 81.40625 185.394531 81.089844 185.101562 80.910156 C 185.050781 80.875 184.996094 80.839844 184.941406 80.820312 C 177.0625 78.128906 173.46875 70.480469 170.75 63.007812 C 172.089844 62.707031 173.398438 62.28125 174.613281 61.644531 C 175.804688 61.023438 177.011719 60.128906 177.453125 58.800781 C 178.410156 55.929688 174.886719 53.882812 172.609375 53.347656 C 171.050781 52.984375 169.457031 52.949219 167.867188 52.863281 C 168.015625 51.550781 167.792969 50.1875 167.527344 48.917969 C 167.175781 47.199219 166.652344 45.488281 165.945312 43.882812 C 165.175781 42.148438 164.058594 40.492188 162.640625 39.222656 C 161.03125 37.789062 158.96875 36.875 156.992188 36.066406 C 152.425781 34.234375 147.53125 33.472656 142.652344 33.3125 C 138.179688 33.171875 132.914062 33.542969 129.070312 36.09375 C 125.617188 38.390625 124.035156 42.503906 123.792969 46.515625 C 121.324219 46.222656 118.835938 46.199219 116.359375 46.402344 C 114.597656 46.542969 112.632812 46.878906 111.3125 48.15625 C 109.710938 49.707031 110.132812 51.894531 111.339844 53.542969 C 112.71875 55.441406 114.621094 56.496094 116.722656 57.433594 C 116.792969 57.46875 116.863281 57.46875 116.925781 57.480469 C 116.746094 57.914062 116.578125 58.347656 116.421875 58.78125 C 115.605469 61.03125 114.78125 63.488281 114.851562 65.90625 C 114.90625 67.847656 115.625 69.707031 117.394531 70.664062 C 118.410156 71.214844 119.597656 71.453125 120.742188 71.304688 C 121.113281 74.363281 121.652344 77.453125 122.527344 80.40625 C 121.34375 84.933594 118.09375 89.054688 113.976562 91.269531 C 113.808594 91.359375 113.71875 91.492188 113.675781 91.632812 C 113.675781 91.644531 113.667969 91.644531 113.667969 91.652344 C 113.667969 91.667969 113.65625 91.679688 113.65625 91.695312 C 113.578125 91.898438 113.613281 92.128906 113.84375 92.316406 C 120.421875 97.5625 128.476562 100.328125 136.765625 101.203125 C 134.605469 102.550781 132.53125 104.023438 130.671875 105.75 C 129.859375 106.511719 129.125 107.328125 128.433594 108.171875 C 128.425781 108.1875 128.40625 108.195312 128.398438 108.214844 C 125.929688 111.289062 124.289062 114.886719 123.261719 118.777344 C 121.820312 124.246094 121.183594 129.9375 120.652344 135.546875 C 120.09375 141.464844 119.679688 147.394531 119.085938 153.3125 C 118.457031 159.589844 117.554688 165.917969 114.976562 171.722656 C 109.027344 170.027344 102.785156 170.242188 96.980469 172.324219 L 93.710938 165.324219 C 93.402344 164.648438 92.84375 164.144531 92.152344 163.886719 C 91.464844 163.628906 90.710938 163.664062 90.039062 163.976562 C 89.363281 164.285156 88.859375 164.84375 88.605469 165.535156 C 88.460938 165.917969 88.417969 166.304688 88.453125 166.695312 C 71.074219 176.328125 64.035156 197.835938 72.457031 215.917969 C 78.511719 228.917969 91.101562 236.929688 104.582031 237.734375 L 104.582031 242.035156 L 94.136719 242.035156 C 91.402344 242.035156 89.179688 244.257812 89.179688 246.996094 C 89.179688 247.359375 89.480469 247.660156 89.84375 247.660156 L 124.890625 247.660156 C 125.253906 247.660156 125.554688 247.359375 125.554688 246.996094 C 125.554688 244.257812 123.335938 242.035156 120.597656 242.035156 L 110.152344 242.035156 L 110.152344 237.664062 C 113.535156 237.363281 116.925781 236.59375 120.234375 235.324219 C 120.554688 235.9375 121.078125 236.40625 121.730469 236.644531 C 122.042969 236.761719 122.359375 236.8125 122.679688 236.8125 C 123.078125 236.8125 123.476562 236.726562 123.847656 236.558594 C 125.230469 235.910156 125.832031 234.261719 125.183594 232.871094 L 121.917969 225.851562 C 122.972656 225.238281 123.980469 224.558594 124.945312 223.820312 C 124.953125 223.820312 124.953125 223.820312 124.964844 223.832031 C 128.453125 224.265625 131.949219 224.628906 135.445312 224.972656 C 133.992188 225.347656 132.542969 225.710938 131.082031 226.082031 C 130.789062 226.152344 130.601562 226.4375 130.59375 226.71875 C 130.558594 227.828125 130.515625 228.945312 130.480469 230.050781 C 130.46875 230.441406 130.796875 230.671875 131.144531 230.714844 C 132.558594 230.886719 133.96875 231.054688 135.382812 231.210938 C 134.933594 231.398438 134.480469 231.585938 134.027344 231.769531 C 132.808594 232.277344 131.417969 232.675781 130.265625 233.332031 C 129.257812 233.90625 129.453125 236.308594 129.417969 237.34375 C 129.355469 239.164062 129.417969 241.003906 129.019531 242.785156 C 128.59375 244.691406 127.503906 246.3125 126.503906 247.953125 C 125.566406 249.496094 124.625 251.046875 123.917969 252.710938 C 122.527344 255.964844 122.15625 259.554688 122.625 263.046875 C 122.953125 265.472656 123.890625 268.753906 126.644531 269.363281 C 129.453125 269.992188 131.277344 267.191406 132.472656 265.121094 C 134.242188 262.042969 136.171875 259.066406 138.269531 256.203125 C 143.058594 249.664062 148.707031 243.777344 154.984375 238.65625 C 155.53125 239.320312 156.1875 239.871094 157.027344 240.15625 C 158.527344 240.652344 160.234375 239.925781 160.632812 238.445312 C 166.757812 235.671875 172.894531 232.898438 179.019531 230.121094 C 183.277344 233.394531 187.351562 236.929688 190.882812 240.996094 C 194.726562 245.417969 197.753906 250.398438 200.25 255.691406 C 201.214844 257.746094 202.375 260.128906 204.550781 261.121094 C 206.953125 262.222656 209.574219 260.980469 211.007812 258.953125 C 212.722656 256.53125 212.910156 253.164062 213.007812 250.292969 C 213.113281 246.980469 212.777344 243.636719 211.988281 240.421875 C 211.128906 236.910156 209.714844 233.527344 207.8125 230.449219 C 206.703125 228.660156 205.339844 227.003906 204.375 225.125 C 205.878906 224.761719 207.394531 224.371094 208.828125 223.804688 C 209.15625 223.671875 209.402344 223.359375 209.289062 222.988281 C 208.996094 222.03125 208.703125 221.074219 208.414062 220.117188 C 208.324219 219.832031 208.066406 219.628906 207.773438 219.628906 C 205.996094 219.621094 204.226562 219.601562 202.445312 219.59375 C 205.519531 218.195312 208.589844 216.785156 211.617188 215.304688 C 218.699219 211.847656 225.660156 207.488281 230.136719 200.824219 C 233.867188 195.3125 235.804688 187.425781 232.050781 181.40625 Z M 206.570312 168.257812 C 207.015625 170.339844 207.667969 172.421875 207.917969 174.53125 C 208.183594 176.824219 207.625 178.820312 205.960938 180.46875 C 204.324219 182.089844 202.242188 183.3125 200.328125 184.582031 C 196.308594 187.222656 192.195312 189.683594 188.050781 192.121094 C 178.90625 197.519531 169.9375 203.332031 160.464844 208.136719 C 160.410156 208.164062 160.382812 208.199219 160.339844 208.234375 C 160.339844 208.234375 160.332031 208.234375 160.332031 208.242188 C 160.324219 208.25 160.324219 208.25 160.3125 208.261719 C 160.289062 208.285156 160.261719 208.304688 160.242188 208.332031 C 159.226562 209.234375 158.878906 210.449219 158.542969 211.734375 C 158.171875 213.125 157.425781 214.285156 156.425781 215.304688 C 154.445312 217.324219 151.683594 218.496094 148.859375 218.476562 C 148 218.46875 148 219.796875 148.859375 219.808594 C 149.441406 219.808594 150.019531 219.753906 150.585938 219.675781 C 150.246094 220.78125 149.160156 221.5 148.183594 222.074219 C 147.078125 222.730469 145.386719 223.503906 144.085938 222.953125 C 143.359375 222.644531 143.792969 221.746094 144.050781 221.25 C 144.464844 220.445312 144.910156 219.648438 145.335938 218.851562 C 146.226562 217.175781 147.132812 215.507812 148.027344 213.835938 C 148.433594 213.082031 147.28125 212.40625 146.875 213.160156 C 146.007812 214.773438 145.148438 216.386719 144.28125 218 C 143.847656 218.804688 143.414062 219.613281 142.988281 220.417969 C 142.785156 220.808594 142.589844 221.214844 142.464844 221.640625 C 141.632812 221.855469 140.269531 222.148438 139.792969 221.179688 C 139.269531 220.136719 140.066406 218.726562 140.5 217.777344 C 141.535156 215.519531 142.875 213.398438 144.476562 211.484375 C 145.023438 210.828125 144.085938 209.890625 143.539062 210.546875 C 141.535156 212.9375 139.890625 215.617188 138.746094 218.523438 C 138.613281 218.859375 138.507812 219.214844 138.429688 219.585938 C 138.375 219.585938 138.324219 219.578125 138.269531 219.59375 C 137.472656 219.816406 136.472656 218.910156 136.3125 218.160156 C 136.046875 216.898438 137.019531 215.5 137.605469 214.464844 C 137.890625 213.957031 138.191406 213.453125 138.492188 212.957031 C 138.5 212.929688 138.527344 212.914062 138.535156 212.886719 C 139.625 211.09375 140.800781 209.367188 142.066406 207.703125 C 142.582031 207.019531 141.429688 206.355469 140.917969 207.027344 C 139.878906 208.382812 138.90625 209.785156 137.984375 211.230469 C 137.773438 211.566406 137.5625 211.902344 137.339844 212.246094 C 136.003906 213.433594 134.5 214.390625 132.871094 215.128906 C 131.453125 215.765625 129.46875 216.632812 127.894531 216.457031 C 126.476562 216.296875 126.125 214.925781 127.195312 213.984375 C 127.804688 213.445312 128.609375 213.203125 129.355469 212.894531 C 130.816406 212.292969 132.179688 211.503906 133.472656 210.582031 C 138.773438 206.804688 143.199219 200.769531 150.113281 200.035156 C 150.125 200.035156 150.132812 200.027344 150.140625 200.027344 C 150.292969 200.027344 150.453125 199.972656 150.585938 199.839844 C 161.597656 188.851562 173.515625 178.792969 186.085938 169.628906 C 186.101562 169.621094 186.113281 169.59375 186.128906 169.585938 C 186.359375 169.453125 186.5 169.203125 186.394531 168.875 C 183.785156 161.175781 181.109375 153.492188 178.4375 145.816406 C 185.765625 144.320312 192.867188 141.855469 199.558594 138.503906 C 200.3125 141.304688 201.027344 144.105469 201.726562 146.914062 C 202.898438 151.613281 203.984375 156.320312 205.03125 161.042969 C 205.542969 163.460938 206.058594 165.855469 206.570312 168.257812 Z M 119.472656 199.40625 C 118.074219 199.28125 116.640625 199.628906 115.261719 199.363281 C 114.570312 199.230469 113.886719 198.929688 113.464844 198.335938 C 112.886719 197.535156 113.25 196.6875 113.417969 195.816406 C 113.585938 194.949219 113.570312 194.105469 113.011719 193.378906 C 112.691406 192.972656 112.257812 192.714844 111.886719 192.371094 C 111.789062 192.28125 111.550781 192.105469 111.515625 191.988281 C 111.214844 190.988281 112.570312 191.289062 112.984375 191.4375 C 114.074219 191.828125 115.019531 192.546875 116.101562 192.972656 C 117.359375 193.476562 118.589844 193.511719 119.855469 193.050781 C 121.910156 192.300781 123.890625 191.03125 122.617188 188.640625 C 121.589844 186.707031 119.953125 184.535156 117.96875 183.515625 C 116.738281 182.886719 115.179688 182.941406 114.03125 182.179688 C 111.949219 180.804688 114.261719 179.449219 115.550781 178.835938 C 116.277344 178.492188 116.996094 178.136719 117.722656 177.808594 C 118.261719 177.5625 118.617188 177.667969 119.191406 177.578125 C 120.183594 177.429688 121.042969 176.851562 121.582031 176.027344 C 126.351562 178.910156 130.179688 183.136719 132.578125 188.300781 C 135.535156 194.65625 136.039062 201.824219 134.003906 208.527344 C 132.878906 209.410156 131.691406 210.226562 130.425781 210.910156 C 130.238281 209.792969 129.929688 208.703125 129.566406 207.621094 C 129.222656 206.601562 128.839844 205.511719 128.070312 204.734375 C 127.460938 204.113281 126.644531 203.800781 125.777344 203.945312 C 125.230469 204.03125 124.757812 204.308594 124.238281 204.492188 C 124 204.574219 123.484375 204.785156 123.238281 204.609375 C 122.730469 204.246094 123.167969 203.714844 123.261719 203.316406 C 123.832031 201 121.441406 199.574219 119.472656 199.40625 Z M 139.820312 153.234375 C 140.640625 155.058594 141.457031 156.886719 142.199219 158.746094 C 142.21875 158.78125 142.246094 158.808594 142.261719 158.835938 C 142.261719 158.84375 142.261719 158.851562 142.261719 158.863281 C 142.828125 164.417969 143.386719 169.949219 142.429688 175.488281 C 142.101562 177.359375 143.226562 179.101562 144.953125 179.785156 C 144.839844 180.132812 144.722656 180.484375 144.574219 180.8125 C 144.644531 180.664062 144.546875 180.875 144.527344 180.902344 C 144.511719 180.957031 144.484375 181 144.457031 181.054688 C 144.394531 181.1875 144.332031 181.328125 144.273438 181.460938 C 144.21875 181.574219 144.15625 181.683594 144.105469 181.796875 C 140.074219 180.726562 135.816406 181.585938 131.726562 181.949219 C 137.074219 173.421875 140.128906 163.320312 139.820312 153.234375 Z M 144.273438 183.222656 C 144.296875 183.234375 144.324219 183.222656 144.351562 183.234375 C 144.359375 183.234375 144.359375 183.234375 144.371094 183.234375 C 144.394531 183.242188 144.429688 183.242188 144.457031 183.242188 C 146.742188 185.148438 149.582031 185.820312 152.46875 186.28125 C 155.523438 186.769531 158.578125 187.265625 161.652344 187.609375 C 158.5625 190.359375 155.53125 193.175781 152.566406 196.046875 C 152.257812 195.871094 151.957031 195.683594 151.664062 195.472656 C 151.585938 195.410156 151.503906 195.355469 151.425781 195.292969 C 151.417969 195.285156 151.417969 195.292969 151.40625 195.285156 C 151.363281 195.25 151.320312 195.214844 151.285156 195.179688 C 151.140625 195.054688 150.992188 194.929688 150.859375 194.808594 C 150.585938 194.550781 150.320312 194.273438 150.070312 193.984375 C 150.007812 193.902344 149.9375 193.832031 149.875 193.753906 C 149.847656 193.726562 149.832031 193.691406 149.804688 193.664062 C 149.796875 193.644531 149.796875 193.65625 149.789062 193.644531 C 149.777344 193.636719 149.789062 193.636719 149.769531 193.621094 C 149.644531 193.449219 149.523438 193.28125 149.40625 193.105469 C 149.210938 192.820312 148.8125 192.664062 148.496094 192.867188 C 148.210938 193.050781 148.050781 193.46875 148.253906 193.777344 C 148.734375 194.488281 149.28125 195.160156 149.910156 195.746094 C 150.425781 196.226562 151 196.632812 151.59375 197.003906 C 151.363281 197.226562 151.132812 197.457031 150.902344 197.679688 C 145.734375 197.960938 140.933594 195.835938 136.054688 194.425781 C 136.03125 194.417969 136.011719 194.425781 135.984375 194.417969 C 135.523438 192.128906 134.800781 189.886719 133.789062 187.734375 C 133.0625 186.175781 132.207031 184.703125 131.25 183.3125 C 135.535156 182.984375 140.074219 181.921875 144.273438 183.222656 Z M 136.242188 195.871094 C 140.304688 197.085938 144.332031 198.6875 148.566406 198.988281 C 143.464844 200.089844 139.695312 203.765625 135.773438 207.089844 C 136.648438 203.386719 136.808594 199.582031 136.242188 195.871094 Z M 164.589844 133.304688 C 164.464844 133.332031 164.332031 133.347656 164.210938 133.375 C 164.199219 133.375 164.191406 133.375 164.191406 133.375 C 164.199219 133.375 164.199219 133.375 164.21875 133.375 C 164.210938 133.375 164.191406 133.375 164.183594 133.375 C 164.183594 133.375 164.191406 133.375 164.191406 133.375 C 164.136719 133.382812 164.15625 133.382812 164.183594 133.375 C 164.164062 133.375 164.148438 133.375 164.136719 133.382812 C 164.050781 133.390625 163.96875 133.402344 163.882812 133.390625 C 163.855469 133.390625 163.828125 133.390625 163.792969 133.390625 C 163.785156 133.390625 163.757812 133.390625 163.730469 133.382812 C 163.730469 133.382812 163.722656 133.382812 163.722656 133.382812 C 163.6875 133.375 163.652344 133.367188 163.617188 133.355469 C 163.617188 133.355469 163.617188 133.355469 163.605469 133.355469 C 163.589844 133.347656 163.554688 133.320312 163.554688 133.320312 C 163.546875 133.3125 163.535156 133.304688 163.527344 133.292969 C 163.507812 133.277344 163.472656 133.222656 163.464844 133.207031 C 163.4375 133.160156 163.386719 132.992188 163.429688 133.144531 C 163.394531 133.011719 163.351562 132.886719 163.324219 132.753906 C 163.324219 132.746094 163.316406 132.71875 163.316406 132.699219 C 163.316406 132.691406 163.316406 132.691406 163.316406 132.683594 C 163.316406 132.621094 163.304688 132.558594 163.304688 132.488281 C 163.304688 132.453125 163.304688 132.410156 163.316406 132.375 C 163.316406 132.382812 163.304688 132.355469 163.316406 132.328125 C 163.316406 132.328125 163.316406 132.320312 163.316406 132.320312 C 163.316406 132.3125 163.316406 132.3125 163.316406 132.300781 C 163.316406 132.3125 163.316406 132.3125 163.316406 132.3125 C 163.324219 132.277344 163.332031 132.242188 163.339844 132.214844 C 163.339844 132.214844 163.351562 132.195312 163.359375 132.160156 C 163.359375 132.160156 163.359375 132.160156 163.359375 132.167969 C 163.359375 132.179688 163.351562 132.195312 163.351562 132.203125 C 163.351562 132.203125 163.339844 132.195312 163.359375 132.179688 C 163.359375 132.179688 163.359375 132.179688 163.359375 132.167969 C 163.359375 132.160156 163.367188 132.152344 163.367188 132.144531 C 163.367188 132.152344 163.367188 132.160156 163.359375 132.160156 C 163.367188 132.152344 163.367188 132.144531 163.375 132.132812 C 163.394531 132.125 163.421875 132.097656 163.4375 132.082031 C 163.5 132.046875 163.554688 132.011719 163.617188 131.984375 C 163.652344 131.972656 163.679688 131.957031 163.714844 131.949219 C 163.773438 131.929688 163.835938 131.914062 163.90625 131.894531 C 164.050781 131.859375 164.191406 131.832031 164.332031 131.804688 C 164.828125 131.71875 165.316406 131.601562 165.800781 131.488281 C 165.933594 132 166.085938 132.515625 166.246094 133.019531 C 165.679688 133.117188 165.128906 133.214844 164.589844 133.304688 Z M 166.652344 134.296875 C 167.414062 136.457031 168.378906 138.550781 169.53125 140.535156 C 169.085938 140.464844 168.652344 140.382812 168.210938 140.339844 C 167.644531 140.277344 166.769531 140.261719 166.371094 139.789062 C 166.148438 139.535156 166.078125 139.152344 165.996094 138.832031 C 165.875 138.320312 165.757812 137.804688 165.632812 137.300781 C 165.421875 136.398438 165.210938 135.492188 164.988281 134.589844 C 165.535156 134.492188 166.09375 134.402344 166.652344 134.296875 Z M 164.625 120.230469 C 164.421875 123.582031 164.714844 126.941406 165.457031 130.203125 C 164.945312 130.324219 164.4375 130.441406 163.925781 130.539062 C 163.15625 130.679688 162.394531 130.972656 162.085938 131.753906 C 161.828125 132.398438 161.976562 133.257812 162.296875 133.863281 C 162.589844 134.410156 163.09375 134.632812 163.640625 134.695312 C 163.898438 135.777344 164.15625 136.847656 164.414062 137.929688 C 164.632812 138.867188 164.75 140.074219 165.476562 140.785156 C 166.121094 141.421875 167.09375 141.546875 167.960938 141.652344 C 168.777344 141.75 169.589844 141.917969 170.414062 141.988281 C 172.496094 145.242188 175.070312 148.164062 178.054688 150.621094 C 178.269531 150.796875 178.507812 150.804688 178.71875 150.734375 C 178.878906 151.195312 179.039062 151.667969 179.207031 152.125 C 181.144531 157.703125 183.066406 163.265625 184.96875 168.851562 C 182.492188 170.65625 180.046875 172.511719 177.621094 174.386719 C 176.0625 174.523438 174.441406 174.839844 172.886719 174.65625 C 170.980469 174.425781 169.484375 173.164062 168.519531 171.5625 C 167.539062 169.929688 166.953125 168.070312 166.324219 166.289062 C 165.609375 164.257812 164.945312 162.203125 164.324219 160.136719 C 161.898438 152.074219 160.144531 143.8125 158.648438 135.527344 C 157.824219 130.964844 157.074219 126.382812 156.320312 121.800781 C 160.09375 119.480469 163.316406 116.457031 165.792969 112.921875 C 165.175781 115.324219 164.777344 117.769531 164.625 120.230469 Z M 183.925781 103.542969 C 184.191406 103.675781 184.449219 103.808594 184.703125 103.960938 C 186.246094 104.875 187.519531 106.160156 188.519531 107.640625 C 190.867188 111.085938 192.308594 115.234375 193.664062 119.152344 C 194.203125 120.703125 194.71875 122.269531 195.230469 123.839844 C 195.238281 123.890625 195.25 123.945312 195.257812 124 C 195.273438 124.113281 195.320312 124.203125 195.371094 124.273438 C 196.265625 127.066406 197.125 129.875 197.929688 132.691406 C 191.300781 136.519531 184.003906 139.027344 176.433594 140.117188 C 174.9375 135.820312 173.320312 131.496094 172.621094 126.96875 C 172.167969 124.007812 172.210938 121.039062 172.839844 118.175781 C 172.851562 118.148438 172.867188 118.132812 172.875 118.097656 C 172.910156 117.917969 172.957031 117.75 172.992188 117.574219 C 173.390625 115.988281 173.949219 114.4375 174.71875 112.949219 C 176.796875 108.96875 179.984375 105.714844 183.925781 103.542969 Z M 175.0625 109.855469 C 175.992188 107.082031 177.171875 104.414062 178.738281 101.933594 C 179.957031 102.1875 181.199219 102.480469 182.382812 102.898438 C 179.453125 104.679688 176.964844 107.070312 175.0625 109.855469 Z M 198.300781 134.011719 C 198.601562 135.085938 198.90625 136.15625 199.195312 137.222656 C 192.484375 140.613281 185.359375 143.078125 177.984375 144.578125 C 177.613281 143.511719 177.25 142.449219 176.878906 141.386719 C 184.410156 140.296875 191.679688 137.789062 198.300781 134.011719 Z M 209.128906 140.554688 C 209.296875 142.042969 209.414062 143.546875 209.554688 145.046875 C 209.695312 146.578125 209.847656 148.101562 209.988281 149.636719 C 210.050781 150.328125 210.183594 151.035156 210.148438 151.738281 C 210.128906 152.164062 210.058594 152.585938 209.722656 152.890625 C 209.5625 153.03125 209.28125 153.199219 209.03125 153.191406 C 208.945312 151.800781 208.6875 150.40625 208.519531 149.042969 C 208.296875 147.296875 208.078125 145.558594 207.855469 143.8125 C 207.589844 141.6875 207.316406 139.550781 207.050781 137.425781 C 208.5 137.53125 208.980469 139.277344 209.128906 140.554688 Z M 205.445312 111.929688 C 206.351562 115.109375 206.617188 118.441406 206.863281 121.730469 C 206.324219 121.835938 205.785156 121.953125 205.242188 122.058594 C 205.191406 122.066406 205.15625 122.09375 205.109375 122.109375 C 204.703125 118.894531 204.296875 115.667969 203.886719 112.449219 C 203.640625 110.519531 203.445312 108.542969 203.011719 106.636719 C 204.082031 108.269531 204.90625 110.050781 205.445312 111.929688 Z M 180.402344 99.574219 C 180.453125 99.511719 180.480469 99.441406 180.507812 99.371094 C 182.136719 99.265625 183.757812 99.15625 185.386719 99.042969 C 190.273438 98.707031 196.425781 97.375 199.699219 102.054688 C 201.402344 104.476562 201.914062 107.460938 202.296875 110.332031 C 202.695312 113.363281 203.066406 116.386719 203.445312 119.417969 C 204.234375 125.65625 205.023438 131.902344 205.808594 138.140625 C 206.253906 141.625 206.695312 145.109375 207.128906 148.589844 C 207.394531 150.683594 209.058594 157.214844 205.578125 157.558594 C 204.988281 154.945312 204.382812 152.339844 203.757812 149.734375 C 201.648438 140.976562 199.277344 132.257812 196.53125 123.679688 C 196.53125 123.671875 196.53125 123.660156 196.53125 123.652344 C 195.425781 116.535156 194.414062 109.410156 193.308594 102.296875 C 193.175781 101.453125 191.902344 101.808594 192.027344 102.648438 C 192.734375 107.195312 193.40625 111.75 194.089844 116.296875 C 192.929688 113.035156 191.574219 109.773438 189.660156 106.964844 C 188.617188 105.421875 187.332031 104.066406 185.765625 103.058594 C 183.890625 101.84375 181.703125 101.222656 179.523438 100.746094 C 179.816406 100.355469 180.101562 99.957031 180.402344 99.574219 Z M 173.558594 99.847656 C 175.3125 99.726562 177.074219 99.601562 178.824219 99.484375 C 175.019531 104.6875 173.140625 110.777344 171.761719 117.023438 C 171.203125 119.105469 170.929688 121.269531 170.980469 123.476562 C 171.097656 128.242188 172.523438 132.859375 174.0625 137.328125 C 175.382812 141.171875 176.726562 145.011719 178.0625 148.847656 C 173.054688 144.417969 169.300781 138.65625 167.359375 132.230469 C 165.253906 125.238281 165.5 117.796875 167.777344 110.863281 C 169.070312 106.9375 171 103.253906 173.503906 99.964844 C 173.53125 99.929688 173.539062 99.882812 173.558594 99.847656 Z M 170.945312 100.167969 C 171.148438 100.238281 171.355469 100.300781 171.566406 100.363281 C 171.257812 100.796875 170.957031 101.242188 170.671875 101.691406 C 170.777344 101.195312 170.867188 100.683594 170.945312 100.167969 Z M 129.1875 37.644531 C 132.472656 35.039062 137.429688 34.597656 141.464844 34.613281 C 145.777344 34.640625 150.113281 35.171875 154.230469 36.492188 C 156.339844 37.167969 158.402344 38.035156 160.304688 39.179688 C 161.988281 40.179688 163.234375 41.695312 164.183594 43.386719 C 164.996094 44.851562 165.527344 46.472656 165.945312 48.09375 C 166.324219 49.566406 166.742188 51.265625 166.511719 52.816406 C 152.503906 52.65625 138.605469 50.40625 125.105469 46.757812 C 125.265625 43.363281 126.460938 39.816406 129.1875 37.644531 Z M 118.582031 50.328125 C 117.828125 49.917969 117.164062 51.0625 117.90625 51.480469 C 118.410156 51.753906 118.933594 52.011719 119.472656 52.25 C 118.714844 53.570312 118.03125 54.925781 117.429688 56.316406 C 117.421875 56.308594 117.410156 56.300781 117.402344 56.300781 C 115.605469 55.492188 113.886719 54.644531 112.640625 53.066406 C 111.578125 51.726562 111.003906 49.929688 112.640625 48.792969 C 113.933594 47.890625 115.632812 47.773438 117.15625 47.675781 C 119.527344 47.527344 121.917969 47.554688 124.273438 47.898438 C 124.28125 47.898438 124.289062 47.898438 124.289062 47.898438 C 124.316406 47.90625 124.335938 47.925781 124.371094 47.933594 C 138.289062 51.738281 152.636719 54.050781 167.078125 54.164062 C 168.832031 54.304688 170.609375 54.253906 172.328125 54.667969 C 173.699219 55.007812 175.1875 55.6875 175.941406 56.957031 C 176.753906 58.304688 175.675781 59.472656 174.539062 60.171875 C 173.238281 60.972656 171.769531 61.449219 170.28125 61.769531 C 169.804688 60.429688 169.351562 59.109375 168.902344 57.832031 C 169.050781 57.824219 169.210938 57.816406 169.363281 57.808594 C 170.210938 57.753906 170.21875 56.414062 169.363281 56.476562 C 160.554688 57.070312 151.691406 56.921875 142.917969 55.980469 C 136.648438 55.308594 130.363281 54.269531 124.308594 52.5 C 122.351562 51.921875 120.359375 51.300781 118.582031 50.328125 Z M 143.863281 97.066406 C 146.988281 96.4375 149.921875 94.824219 152.167969 92.5625 C 154.886719 89.824219 156.535156 86.253906 157.234375 82.496094 C 157.445312 86.371094 158.941406 90.179688 161.253906 93.265625 C 162.464844 94.878906 163.898438 96.242188 165.492188 97.386719 C 163.660156 100.1875 161.421875 102.675781 159.136719 105.121094 C 157.941406 106.40625 156.726562 107.675781 155.523438 108.949219 C 154.558594 109.96875 153.65625 111.09375 152.613281 112.035156 C 151.390625 113.140625 150.070312 113.417969 148.777344 112.175781 C 147.484375 110.9375 146.484375 109.234375 145.414062 107.796875 C 144.527344 106.609375 143.632812 105.421875 142.722656 104.261719 C 141.800781 103.09375 140.730469 101.738281 141.164062 100.175781 C 141.855469 99.796875 142.554688 99.40625 143.246094 99.035156 C 143.679688 100.265625 143.996094 101.542969 144.140625 102.835938 C 144.183594 103.191406 144.414062 103.5 144.804688 103.5 C 145.128906 103.5 145.511719 103.199219 145.46875 102.835938 C 145.246094 100.832031 144.695312 98.902344 143.863281 97.066406 Z M 125.566406 84.828125 C 123.46875 80.503906 122.574219 75.71875 122.023438 70.976562 C 128.363281 68.546875 133.59375 63.859375 136.347656 57.664062 C 140.164062 65.074219 147.761719 69.929688 155.992188 70.933594 C 155.984375 71.03125 155.976562 71.117188 155.96875 71.214844 C 155.90625 72.066406 157.234375 72.066406 157.292969 71.214844 C 157.453125 69.167969 157.675781 66.632812 159.5625 65.394531 C 160.324219 64.898438 161.3125 64.632812 162.171875 65.03125 C 162.960938 65.394531 163.449219 66.21875 163.75 66.996094 C 164.945312 70.089844 165.210938 74.519531 163.148438 77.3125 C 161.84375 79.066406 159.320312 80.050781 157.25 79.101562 C 157.242188 79.101562 157.242188 79.101562 157.234375 79.09375 C 157.160156 79.066406 157.089844 79.050781 157.011719 79.039062 C 156.992188 79.039062 156.976562 79.03125 156.957031 79.03125 C 156.667969 79.03125 156.382812 79.199219 156.292969 79.519531 C 156.269531 79.582031 156.257812 79.644531 156.25 79.714844 C 155.78125 87.59375 150.378906 95.398438 142.003906 96.011719 C 134.765625 96.535156 128.558594 90.996094 125.566406 84.828125 Z M 136.597656 102.890625 C 137.625 102.222656 138.667969 101.59375 139.730469 100.984375 C 139.757812 102.074219 140.242188 103.101562 140.898438 104.050781 C 141.960938 105.566406 143.15625 107 144.261719 108.480469 C 145.414062 110.015625 146.46875 111.777344 147.832031 113.125 C 148.832031 114.109375 150.203125 114.683594 151.59375 114.230469 C 152.914062 113.808594 153.878906 112.679688 154.773438 111.699219 C 156.125 110.207031 157.535156 108.765625 158.914062 107.300781 C 161.652344 104.402344 164.402344 101.480469 166.597656 98.136719 C 167.582031 98.742188 168.609375 99.265625 169.6875 99.707031 C 168.441406 108.632812 162.941406 116.324219 155.25 120.90625 C 154.976562 121.066406 154.894531 121.359375 154.949219 121.660156 C 156.410156 130.601562 157.871094 139.550781 159.878906 148.386719 C 160.863281 152.730469 161.976562 157.035156 163.28125 161.289062 C 163.933594 163.417969 164.632812 165.527344 165.386719 167.625 C 165.449219 167.796875 165.511719 167.964844 165.574219 168.140625 C 162.304688 170.3125 158.515625 171.527344 155 173.226562 C 154.230469 173.601562 154.90625 174.742188 155.675781 174.378906 C 159.117188 172.714844 162.828125 171.515625 166.050781 169.425781 C 166.503906 170.613281 167.015625 171.78125 167.734375 172.820312 C 168.757812 174.28125 170.230469 175.46875 171.992188 175.859375 C 173.1875 176.125 174.417969 176.0625 175.636719 175.941406 C 171.335938 179.332031 167.113281 182.84375 162.996094 186.457031 C 159.683594 186.132812 156.410156 185.589844 153.125 185.078125 C 150.378906 184.640625 147.53125 184.121094 145.351562 182.285156 C 145.699219 181.574219 146 180.847656 146.246094 180.097656 C 147.894531 180.203125 149.523438 179.359375 150.601562 178.101562 C 152.214844 176.230469 152.503906 173.707031 152.390625 171.324219 C 152.238281 168.34375 151.789062 165.359375 151.46875 162.390625 C 150.796875 156.195312 150.125 150.007812 149.449219 143.8125 C 148.699219 136.894531 147.945312 129.972656 147.203125 123.050781 C 147.167969 122.722656 147.015625 122.527344 146.714844 122.410156 C 139.003906 119.238281 135.011719 110.953125 136.597656 102.890625 Z M 135.101562 103.90625 C 134.605469 107.816406 135.207031 111.980469 137.074219 115.457031 C 139.011719 119.0625 142.191406 121.835938 145.910156 123.476562 C 147.078125 134.253906 148.246094 145.039062 149.414062 155.8125 C 149.714844 158.578125 150.019531 161.351562 150.320312 164.117188 C 150.59375 166.632812 150.992188 169.167969 151.070312 171.695312 C 151.152344 174.167969 150.644531 176.976562 148.28125 178.289062 C 147.316406 178.820312 146.140625 178.953125 145.140625 178.429688 C 143.785156 177.710938 143.589844 176.507812 143.863281 175.125 C 144.9375 169.84375 144.121094 164.171875 143.582031 158.871094 C 143.574219 158.800781 143.546875 158.746094 143.519531 158.683594 C 143.527344 158.597656 143.511719 158.507812 143.476562 158.402344 C 141.667969 153.898438 139.472656 149.546875 137.632812 145.054688 C 138.480469 144.929688 139.242188 144.488281 140.03125 144.117188 C 141.039062 143.644531 142.210938 143.265625 142.988281 142.421875 C 143.792969 141.5625 143.722656 140.464844 143.625 139.375 C 143.511719 138.082031 143.394531 136.785156 143.28125 135.492188 C 143.332031 135.464844 143.386719 135.457031 143.441406 135.421875 C 144.519531 134.820312 144.546875 133.277344 143.917969 132.320312 C 143.539062 131.734375 142.875 131.539062 142.199219 131.566406 C 141.472656 131.601562 140.75 131.742188 140.03125 131.796875 C 138.03125 131.964844 136.03125 132.089844 134.039062 132.230469 C 134.027344 132.230469 134.019531 132.242188 134.011719 132.242188 C 133.824219 130.929688 133.683594 129.617188 133.613281 128.296875 C 133.515625 126.480469 133.53125 124.664062 133.648438 122.855469 C 133.761719 121.074219 134.011719 119.292969 133.949219 117.503906 C 133.84375 114.011719 132.460938 110.695312 130.363281 107.941406 C 131.796875 106.433594 133.398438 105.105469 135.101562 103.90625 Z M 139.074219 136.253906 C 139.933594 136.128906 140.792969 135.988281 141.652344 135.855469 C 141.757812 135.839844 141.871094 135.820312 141.980469 135.8125 C 142.066406 136.820312 142.164062 137.839844 142.253906 138.851562 C 142.324219 139.648438 142.644531 140.808594 142.058594 141.484375 C 141.429688 142.191406 140.351562 142.519531 139.507812 142.902344 C 138.710938 143.265625 137.984375 143.742188 137.109375 143.753906 C 136.5 142.203125 135.941406 140.640625 135.464844 139.039062 C 135.234375 138.265625 135.03125 137.488281 134.84375 136.699219 C 136.261719 136.609375 137.675781 136.457031 139.074219 136.253906 Z M 134.558594 135.394531 C 134.425781 134.785156 134.304688 134.171875 134.195312 133.5625 C 136.019531 133.4375 137.84375 133.320312 139.667969 133.171875 C 140.464844 133.109375 141.261719 132.984375 142.066406 132.914062 C 142.304688 132.894531 142.625 132.851562 142.800781 133.039062 C 142.960938 133.207031 142.988281 133.542969 142.996094 133.753906 C 143.023438 134.339844 142.511719 134.375 142.03125 134.457031 C 141.191406 134.589844 140.351562 134.722656 139.507812 134.847656 C 137.871094 135.101562 136.222656 135.304688 134.558594 135.394531 Z M 129.539062 109.066406 C 131.46875 111.6875 132.640625 114.863281 132.628906 118.132812 C 132.621094 121.613281 132.097656 125.027344 132.292969 128.527344 C 132.65625 134.941406 134.480469 140.960938 136.960938 146.820312 C 132.738281 142.882812 130.089844 137.546875 128.832031 131.921875 C 127.148438 124.363281 128.273438 116.589844 129.539062 109.066406 Z M 121.574219 140.285156 C 122.058594 134.347656 122.609375 128.402344 123.769531 122.5625 C 124.566406 118.574219 125.726562 114.648438 127.847656 111.226562 C 126.742188 118.203125 126.007812 125.308594 127.558594 132.277344 C 128.539062 136.6875 130.390625 140.960938 133.132812 144.550781 C 129.132812 144.214844 125.238281 143.160156 121.449219 141.839844 C 121.484375 141.316406 121.527344 140.800781 121.574219 140.285156 Z M 121.332031 143.195312 C 125.519531 144.636719 129.832031 145.738281 134.269531 145.949219 C 135.277344 147.09375 136.367188 148.15625 137.585938 149.105469 C 137.640625 149.148438 137.695312 149.167969 137.746094 149.183594 C 132.0625 148.980469 126.484375 147.945312 121.085938 146.101562 C 121.175781 145.132812 121.253906 144.167969 121.332031 143.195312 Z M 119.96875 157.347656 C 120.386719 154.066406 120.695312 150.769531 120.980469 147.464844 C 126.59375 149.351562 132.417969 150.382812 138.332031 150.539062 C 139.324219 161.539062 136.144531 172.652344 130.195312 181.886719 C 126.824219 177.597656 122.324219 174.316406 117.074219 172.402344 C 116.800781 172.304688 116.527344 172.21875 116.25 172.128906 C 118.296875 167.421875 119.324219 162.425781 119.96875 157.347656 Z M 116.625 173.652344 C 117.941406 174.132812 119.21875 174.707031 120.4375 175.363281 C 120.128906 175.796875 119.714844 176.125 119.15625 176.242188 C 118.6875 176.339844 118.253906 176.195312 117.792969 176.320312 C 117.179688 176.480469 116.554688 176.90625 115.976562 177.179688 C 115.226562 177.535156 114.429688 177.863281 113.710938 178.296875 C 112.011719 179.324219 111.117188 181.292969 112.753906 182.871094 C 113.597656 183.675781 114.71875 183.898438 115.808594 184.171875 C 117.179688 184.519531 118.253906 185.15625 119.207031 186.183594 C 120.050781 187.089844 120.910156 188.214844 121.476562 189.320312 C 121.980469 190.3125 121.492188 190.84375 120.660156 191.269531 C 119.871094 191.679688 118.96875 192.085938 118.074219 192.085938 C 115.800781 192.085938 113.570312 189.101562 111.257812 190.128906 C 110.515625 190.457031 110 191.191406 110.125 192.023438 C 110.265625 192.972656 111.125 193.355469 111.726562 193.964844 C 112.726562 194.976562 111.703125 196.4375 111.808594 197.667969 C 111.886719 198.609375 112.472656 199.425781 113.234375 199.957031 C 114.261719 200.664062 115.507812 200.796875 116.722656 200.78125 C 118.226562 200.761719 120.324219 200.328125 121.484375 201.578125 C 122.140625 202.277344 121.988281 202.871094 121.730469 203.695312 C 121.597656 204.140625 121.539062 204.589844 121.757812 205.035156 C 122.183594 205.894531 123.300781 206.113281 124.15625 205.921875 C 124.855469 205.761719 125.539062 205.195312 126.28125 205.246094 C 127.035156 205.300781 127.476562 206.054688 127.777344 206.648438 C 128.503906 208.109375 128.992188 209.890625 129.195312 211.519531 C 128.089844 211.980469 126.882812 212.371094 126.050781 213.222656 C 125.195312 214.109375 124.820312 215.492188 125.539062 216.5625 C 125.882812 217.085938 126.378906 217.414062 126.9375 217.601562 C 125.785156 217.769531 124.722656 218.175781 123.890625 219.027344 C 123.050781 218.328125 121.953125 217.6875 120.898438 217.867188 C 119.828125 218.050781 119.039062 219.292969 118.542969 220.171875 C 118.316406 220.585938 118.191406 220.996094 117.855469 221.332031 C 117.640625 221.542969 117.375 221.6875 117.144531 221.871094 C 116.660156 222.269531 116.269531 222.765625 115.863281 223.246094 C 114.835938 224.460938 113.871094 224.921875 112.367188 224.160156 C 111.320312 223.625 110.320312 222.917969 109.117188 222.800781 C 107.914062 222.6875 106.328125 223.175781 105.378906 223.945312 C 105.015625 224.238281 104.8125 224.636719 104.847656 225.125 C 104.894531 225.65625 105.398438 226.019531 105.460938 226.480469 C 105.566406 227.296875 104.265625 227.320312 103.75 227.507812 C 103.300781 227.675781 102.953125 227.917969 102.679688 228.269531 C 98.898438 227.695312 95.269531 226.347656 92.019531 224.335938 C 91.765625 223.09375 93.039062 222.855469 93.457031 221.84375 C 93.605469 221.472656 93.5625 221.128906 93.527344 220.738281 C 93.457031 220.011719 93.535156 219.628906 93.914062 219.007812 C 94.332031 218.34375 94.863281 217.722656 95.09375 216.953125 C 95.386719 215.953125 95.074219 215.011719 94.578125 214.136719 C 93.925781 212.972656 92.808594 211.398438 94.597656 210.679688 C 95.710938 210.226562 97.113281 209.980469 98.308594 209.890625 C 98.988281 209.835938 99.6875 209.855469 100.34375 210.03125 C 100.925781 210.191406 101.441406 210.519531 102.015625 210.6875 C 102.804688 210.910156 103.636719 210.730469 104.105469 210.015625 C 104.546875 209.351562 104.484375 208.464844 104.441406 207.703125 C 104.363281 206.476562 104.238281 205.238281 103.742188 204.101562 C 103.335938 203.183594 102.714844 202.402344 102.078125 201.632812 C 101.699219 201.171875 101.140625 200.691406 100.890625 200.152344 C 100.644531 199.628906 100.839844 199.378906 100.875 198.839844 C 100.925781 198.023438 100.394531 197.28125 99.695312 196.90625 C 99.351562 196.722656 98.96875 196.640625 98.589844 196.589844 C 98.289062 196.554688 97.996094 196.5625 97.703125 196.542969 C 97.113281 196.507812 96.835938 196.3125 96.367188 195.941406 C 94.648438 194.585938 92.898438 194.796875 91.054688 195.753906 C 90.375 196.109375 89.65625 196.480469 88.90625 196.109375 C 88.375 195.84375 87.984375 195.269531 87.566406 194.859375 C 87.160156 194.460938 86.71875 194.214844 86.265625 193.894531 C 85.636719 193.441406 85.453125 192.796875 84.984375 192.21875 C 83.875 190.855469 82.085938 190.234375 80.386719 190.492188 C 80.761719 189.472656 81.195312 188.480469 81.679688 187.511719 C 82.945312 187.132812 83.734375 186.148438 84.644531 185.234375 C 85.292969 184.589844 86.027344 184.128906 86.851562 183.730469 C 87.179688 183.570312 87.832031 183.136719 88.179688 183.472656 C 88.339844 183.621094 88.300781 184.214844 88.375 184.429688 C 88.726562 185.546875 89.761719 185.890625 90.808594 185.464844 C 91.089844 185.351562 91.332031 185.164062 91.597656 185.039062 C 92.277344 184.714844 92.71875 184.8125 93.4375 184.96875 C 94.375 185.183594 95.304688 185.421875 96.242188 185.644531 C 96.570312 185.722656 96.996094 185.546875 97.058594 185.183594 C 97.164062 184.589844 97.085938 184.101562 96.855469 183.542969 C 96.527344 182.738281 96.050781 182.132812 97.003906 181.550781 C 97.625 181.167969 98.386719 181.015625 99.023438 180.652344 C 99.660156 180.300781 100.296875 179.875 100.863281 179.414062 C 101.273438 179.078125 101.503906 178.757812 101.414062 178.21875 C 101.34375 177.78125 101.042969 177.472656 101.023438 177.011719 C 101.007812 176.472656 101.34375 176.074219 101.652344 175.671875 C 102.496094 174.601562 102.9375 173.46875 103.238281 172.15625 C 107.699219 171.578125 112.269531 172.066406 116.625 173.652344 Z M 100.601562 201.921875 C 101.371094 202.855469 102.21875 203.75 102.652344 204.902344 C 103.0625 205.972656 103.175781 207.230469 103.167969 208.375 C 103.15625 209.3125 102.589844 209.5 101.734375 209.144531 C 101.21875 208.933594 100.722656 208.746094 100.164062 208.648438 C 98.21875 208.320312 95.773438 208.746094 93.96875 209.519531 C 92.296875 210.234375 91.898438 211.839844 92.640625 213.433594 C 93.207031 214.640625 94.332031 215.667969 93.605469 217.070312 C 93.179688 217.882812 92.488281 218.558594 92.234375 219.46875 C 92.128906 219.859375 92.164062 220.207031 92.152344 220.597656 C 92.144531 220.933594 92.234375 221.304688 92.011719 221.625 C 91.863281 221.835938 91.570312 221.976562 91.382812 222.164062 C 91.011719 222.546875 90.78125 222.996094 90.691406 223.476562 C 86.753906 220.71875 83.460938 216.925781 81.28125 212.265625 C 78.210938 205.664062 77.898438 198.46875 79.882812 191.996094 C 80.839844 191.667969 81.832031 191.695312 82.75 192.140625 C 83.859375 192.671875 84.105469 193.644531 84.867188 194.488281 C 85.496094 195.1875 86.398438 195.585938 87.0625 196.285156 C 87.683594 196.933594 88.339844 197.519531 89.257812 197.625 C 91.429688 197.882812 93.058594 195.277344 95.226562 196.773438 C 95.96875 197.289062 96.351562 197.800781 97.324219 197.890625 C 97.933594 197.945312 98.660156 197.785156 99.164062 198.226562 C 99.75 198.742188 99.234375 199.210938 99.296875 199.847656 C 99.378906 200.621094 100.121094 201.339844 100.601562 201.921875 Z M 80.085938 212.816406 C 85.105469 223.601562 95.820312 229.9375 106.992188 229.9375 C 110.300781 229.9375 113.648438 229.371094 116.898438 228.207031 L 117.996094 230.558594 C 102.183594 236.363281 84.371094 229.050781 77.21875 213.691406 C 70.074219 198.351562 75.925781 179.972656 90.523438 171.589844 L 91.96875 174.679688 C 78.925781 182.320312 73.578125 198.839844 80.085938 212.816406 Z M 101.832031 172.402344 C 101.714844 172.882812 101.566406 173.351562 101.34375 173.785156 C 100.980469 174.503906 100.351562 175.042969 99.988281 175.761719 C 99.714844 176.304688 99.625 176.941406 99.75 177.535156 C 99.847656 177.996094 100.085938 178.128906 99.839844 178.546875 C 99.679688 178.8125 99.078125 179.085938 98.8125 179.253906 C 97.777344 179.910156 96.074219 180.15625 95.367188 181.246094 C 95.066406 181.707031 95.011719 182.230469 95.121094 182.761719 C 95.21875 183.222656 95.535156 183.695312 95.695312 184.171875 C 94.988281 184.003906 94.289062 183.828125 93.578125 183.667969 C 92.851562 183.5 92.164062 183.355469 91.445312 183.648438 C 91.164062 183.765625 90.933594 183.949219 90.667969 184.074219 C 89.914062 184.402344 89.667969 184.046875 89.515625 183.417969 C 89.390625 182.90625 89.1875 182.363281 88.699219 182.082031 C 87.601562 181.453125 85.761719 182.738281 84.875 183.339844 C 84.238281 183.773438 83.691406 184.429688 83.113281 185.015625 C 85.914062 180.636719 89.921875 176.96875 94.96875 174.617188 C 97.191406 173.5625 99.492188 172.835938 101.832031 172.402344 Z M 89.859375 166.015625 C 89.992188 165.652344 90.257812 165.367188 90.605469 165.199219 C 90.800781 165.109375 91.003906 165.066406 91.214844 165.066406 C 91.382812 165.066406 91.550781 165.09375 91.710938 165.152344 C 92.074219 165.289062 92.355469 165.554688 92.527344 165.898438 L 95.730469 172.785156 L 94.4375 173.386719 C 94.429688 173.386719 94.429688 173.386719 94.421875 173.394531 C 94.410156 173.394531 94.410156 173.40625 94.402344 173.40625 L 93.109375 174.007812 L 89.90625 167.121094 C 89.746094 166.765625 89.726562 166.378906 89.859375 166.015625 Z M 120.589844 243.371094 C 122.371094 243.371094 123.847656 244.65625 124.167969 246.339844 L 90.570312 246.339844 C 90.878906 244.648438 92.367188 243.371094 94.144531 243.371094 Z M 105.910156 242.042969 L 105.910156 237.824219 L 108.824219 237.824219 L 108.824219 242.042969 Z M 73.660156 215.359375 C 65.566406 197.996094 72.261719 177.359375 88.859375 168.027344 L 89.957031 170.382812 C 74.6875 179.085938 68.558594 198.261719 76.003906 214.257812 C 81.726562 226.542969 94.003906 233.878906 106.839844 233.878906 C 110.746094 233.878906 114.703125 233.1875 118.542969 231.761719 L 119.644531 234.121094 C 101.855469 240.863281 81.742188 232.703125 73.660156 215.359375 Z M 123.980469 233.4375 C 124.316406 234.15625 124.007812 235.015625 123.28125 235.351562 C 122.9375 235.511719 122.539062 235.527344 122.183594 235.394531 C 121.820312 235.261719 121.539062 234.996094 121.367188 234.652344 L 118.164062 227.765625 L 120.777344 226.542969 Z M 118.90625 225.957031 C 114.410156 228.058594 109.648438 228.863281 105.015625 228.535156 C 105.160156 228.5 105.300781 228.464844 105.425781 228.421875 C 105.847656 228.261719 106.257812 228.023438 106.539062 227.660156 C 106.777344 227.347656 106.902344 226.976562 106.875 226.585938 C 106.839844 226.089844 106.390625 225.761719 106.320312 225.335938 C 106.210938 224.65625 107.496094 224.351562 108.046875 224.230469 C 108.832031 224.050781 109.503906 224.195312 110.222656 224.53125 C 111.179688 224.972656 112.046875 225.636719 113.089844 225.878906 C 115.402344 226.390625 116.347656 224.460938 117.785156 223.128906 C 118.136719 222.800781 118.605469 222.609375 118.941406 222.261719 C 119.351562 221.84375 119.511719 221.207031 119.800781 220.71875 C 120.136719 220.144531 120.667969 219.179688 121.421875 219.203125 C 122.148438 219.230469 123.015625 220.003906 123.492188 220.472656 C 123.8125 220.789062 124.300781 220.695312 124.539062 220.339844 C 125.40625 219.070312 126.894531 218.832031 128.335938 218.832031 C 125.742188 221.808594 122.539062 224.265625 118.90625 225.957031 Z M 126.371094 222.667969 C 128.210938 221.066406 129.867188 219.25 131.265625 217.226562 C 132.832031 216.75 134.355469 216.003906 135.746094 215.109375 C 135.65625 215.296875 135.558594 215.484375 135.480469 215.667969 C 134.933594 216.910156 134.65625 218.355469 135.515625 219.523438 C 136.152344 220.402344 137.25 221.09375 138.367188 220.921875 C 138.4375 221.5 138.667969 222.050781 139.144531 222.492188 C 140.050781 223.316406 141.332031 223.253906 142.457031 223.015625 C 142.476562 223.078125 142.5 223.128906 142.527344 223.183594 C 141.429688 223.457031 140.339844 223.742188 139.242188 224.015625 C 134.941406 223.636719 130.648438 223.183594 126.371094 222.667969 Z M 154.082031 237.707031 C 146.175781 244.152344 139.304688 251.816406 133.796875 260.40625 C 132.488281 262.453125 131.445312 264.828125 129.867188 266.6875 C 129.203125 267.46875 128.335938 268.203125 127.246094 268.140625 C 125.980469 268.070312 125.15625 266.902344 124.679688 265.847656 C 123.652344 263.558594 123.589844 260.679688 123.847656 258.226562 C 124.140625 255.425781 125.15625 252.898438 126.546875 250.480469 C 127.964844 248.007812 129.832031 245.65625 130.363281 242.796875 C 130.886719 240.039062 130.53125 237.210938 131.027344 234.457031 C 133.398438 233.472656 135.765625 232.488281 138.136719 231.503906 C 138.835938 231.210938 138.730469 230.292969 137.960938 230.203125 C 135.914062 229.964844 133.859375 229.722656 131.816406 229.476562 C 131.84375 228.730469 131.867188 227.988281 131.894531 227.242188 C 134.390625 226.613281 136.886719 225.976562 139.394531 225.347656 C 139.519531 225.347656 139.613281 225.320312 139.703125 225.265625 C 141.066406 224.921875 142.429688 224.574219 143.792969 224.230469 C 143.792969 224.230469 143.792969 224.230469 143.800781 224.230469 C 144.289062 224.390625 144.820312 224.441406 145.324219 224.414062 C 146.519531 224.363281 147.644531 223.917969 148.679688 223.324219 C 149.679688 227.632812 151.195312 231.84375 153.238281 235.769531 C 153.550781 236.371094 153.878906 237.007812 154.257812 237.628906 C 154.1875 237.648438 154.132812 237.664062 154.082031 237.707031 Z M 207.289062 220.96875 C 207.472656 221.570312 207.652344 222.164062 207.835938 222.765625 C 206.351562 223.300781 204.78125 223.679688 203.261719 224.050781 C 202.800781 224.167969 202.703125 224.65625 202.863281 225.027344 C 203.5625 226.640625 204.597656 228.085938 205.605469 229.519531 C 207.367188 232.027344 208.785156 234.773438 209.792969 237.664062 C 210.863281 240.757812 211.492188 243.992188 211.660156 247.253906 C 211.8125 250.214844 211.804688 253.546875 210.828125 256.371094 C 209.898438 259.085938 206.890625 261.59375 204.199219 259.351562 C 202.339844 257.800781 201.488281 255.148438 200.445312 253.050781 C 198.117188 248.386719 195.238281 244.007812 191.820312 240.066406 C 188.40625 236.132812 184.484375 232.710938 180.382812 229.519531 C 182.367188 228.625 184.359375 227.722656 186.34375 226.824219 C 190.75 224.832031 195.175781 222.882812 199.59375 220.898438 C 199.621094 220.898438 199.628906 220.90625 199.65625 220.90625 C 202.207031 220.921875 204.746094 220.949219 207.289062 220.96875 Z M 228.808594 200.453125 C 224.367188 206.867188 217.488281 211.007812 210.597656 214.339844 C 202.851562 218.089844 194.921875 221.492188 187.085938 225.042969 C 178.152344 229.085938 169.210938 233.136719 160.277344 237.175781 C 159.890625 237.0625 159.402344 237.257812 159.402344 237.78125 C 159.410156 238.789062 158.367188 239.171875 157.523438 238.921875 C 156.648438 238.664062 156.027344 237.929688 155.558594 237.195312 C 154.640625 235.769531 153.894531 234.207031 153.195312 232.667969 C 151.734375 229.429688 150.628906 226.027344 149.847656 222.5625 C 150.957031 221.757812 151.789062 220.773438 151.964844 219.390625 C 153.816406 218.886719 155.550781 217.9375 156.96875 216.625 C 158.046875 215.625 159.011719 214.390625 159.535156 213 C 160.03125 211.671875 160.082031 210.246094 161.199219 209.253906 C 170.085938 204.734375 178.496094 199.292969 187.085938 194.238281 C 191.40625 191.695312 195.726562 189.144531 199.941406 186.421875 C 201.914062 185.148438 203.933594 183.890625 205.773438 182.417969 C 207.136719 181.328125 208.339844 180.007812 208.917969 178.359375 C 215.832031 176.640625 225.5 174.617188 230.472656 181.425781 C 234.652344 187.148438 232.511719 195.097656 228.808594 200.453125 Z M 157.675781 177.960938 C 157.773438 177.597656 158.136719 177.429688 158.488281 177.5 C 160.261719 177.828125 162.109375 177.394531 163.589844 176.390625 C 163.890625 176.1875 164.324219 176.339844 164.5 176.628906 C 164.6875 176.957031 164.5625 177.339844 164.261719 177.542969 C 162.472656 178.757812 160.25 179.175781 158.136719 178.785156 C 157.789062 178.714844 157.585938 178.277344 157.675781 177.960938 Z M 163.304688 132.320312 C 163.304688 132.355469 163.304688 132.375 163.304688 132.382812 C 163.304688 132.363281 163.304688 132.347656 163.304688 132.320312 Z M 163.304688 132.320312 " fill-opacity="1" fill-rule="nonzero"/></svg>