<svg xmlns="http://www.w3.org/2000/svg" xmlns:xlink="http://www.w3.org/1999/xlink" width="400" zoomAndPan="magnify" viewBox="0 0 300 299.999988" height="400" preserveAspectRatio="xMidYMid meet" version="1.0"><path fill="#000000" d="M 152.773438 151.894531 C 152.554688 151.90625 152.351562 151.910156 152.152344 151.910156 C 147.207031 151.910156 143.082031 148.046875 142.757812 143.113281 C 142.046875 132.234375 141.964844 122.984375 142.3125 115.085938 C 141.464844 114.675781 140.519531 114.441406 139.515625 114.441406 L 107.308594 114.441406 C 104.9375 114.441406 102.875 115.722656 101.753906 117.628906 C 100.382812 119.296875 98.507812 122.230469 96.738281 127.136719 C 94.96875 122.230469 93.09375 119.300781 91.722656 117.628906 C 90.601562 115.722656 88.535156 114.441406 86.167969 114.441406 L 53.960938 114.441406 C 51.589844 114.441406 49.523438 115.722656 48.402344 117.628906 C 44.3125 122.601562 35.769531 138.753906 38.800781 185.140625 C 39.03125 188.664062 41.964844 191.371094 45.449219 191.371094 C 45.597656 191.371094 45.746094 191.363281 45.890625 191.355469 C 46.910156 191.289062 47.859375 190.992188 48.695312 190.523438 L 53.203125 260.054688 C 53.574219 265.734375 58.476562 270.035156 64.15625 269.667969 C 66.414062 269.519531 68.445312 268.652344 70.0625 267.308594 C 71.679688 268.652344 73.714844 269.519531 75.96875 269.667969 C 81.648438 270.035156 86.554688 265.734375 86.921875 260.054688 L 91.429688 190.523438 C 92.265625 190.988281 93.214844 191.289062 94.234375 191.355469 C 94.382812 191.363281 94.527344 191.371094 94.675781 191.371094 C 95.390625 191.371094 96.085938 191.25 96.738281 191.035156 C 97.390625 191.25 98.082031 191.371094 98.800781 191.371094 C 98.945312 191.371094 99.09375 191.363281 99.242188 191.355469 C 100.261719 191.289062 101.207031 190.992188 102.042969 190.523438 L 106.554688 260.054688 C 106.921875 265.734375 111.824219 270.035156 117.503906 269.667969 C 119.761719 269.519531 121.796875 268.652344 123.414062 267.308594 C 125.027344 268.652344 127.0625 269.519531 129.320312 269.667969 C 135 270.035156 139.902344 265.734375 140.269531 260.054688 L 144.78125 190.523438 C 145.617188 190.988281 146.5625 191.289062 147.582031 191.355469 C 147.730469 191.363281 147.878906 191.371094 148.023438 191.371094 C 151.507812 191.371094 154.441406 188.664062 154.671875 185.140625 C 154.734375 184.1875 154.792969 183.253906 154.84375 182.328125 L 152.871094 151.882812 C 152.839844 151.886719 152.804688 151.890625 152.773438 151.894531 Z M 152.773438 151.894531 " fill-opacity="1" fill-rule="nonzero"/><path fill="#000000" d="M 123.414062 109.695312 C 133.773438 109.695312 142.167969 101.304688 142.167969 90.953125 C 142.167969 80.597656 133.773438 72.207031 123.414062 72.207031 C 113.054688 72.207031 104.65625 80.597656 104.65625 90.953125 C 104.65625 101.300781 113.054688 109.695312 123.414062 109.695312 Z M 130.601562 87.238281 C 132.386719 87.238281 133.832031 88.683594 133.832031 90.46875 C 133.832031 92.25 132.386719 93.695312 130.601562 93.695312 C 128.820312 93.695312 127.371094 92.25 127.371094 90.46875 C 127.371094 88.683594 128.820312 87.238281 130.601562 87.238281 Z M 116.222656 87.238281 C 118.007812 87.238281 119.453125 88.683594 119.453125 90.46875 C 119.453125 92.25 118.007812 93.695312 116.222656 93.695312 C 114.441406 93.695312 112.992188 92.25 112.992188 90.46875 C 112.992188 88.683594 114.441406 87.238281 116.222656 87.238281 Z M 116.222656 87.238281 " fill-opacity="1" fill-rule="nonzero"/><path fill="#000000" d="M 246.214844 114.441406 L 214.011719 114.441406 C 213.007812 114.441406 212.0625 114.675781 211.214844 115.085938 C 211.5625 122.980469 211.480469 132.234375 210.769531 143.113281 C 210.445312 148.046875 206.320312 151.910156 201.375 151.910156 C 201.171875 151.910156 200.972656 151.90625 200.769531 151.894531 C 200.730469 151.890625 200.691406 151.886719 200.65625 151.882812 L 198.679688 182.324219 C 198.734375 183.25 198.789062 184.1875 198.851562 185.140625 C 199.082031 188.664062 202.015625 191.371094 205.5 191.371094 C 205.648438 191.371094 205.796875 191.363281 205.941406 191.355469 C 206.960938 191.289062 207.910156 190.992188 208.746094 190.523438 L 213.253906 260.054688 C 213.621094 265.734375 218.527344 270.035156 224.207031 269.667969 C 226.460938 269.519531 228.496094 268.652344 230.113281 267.308594 C 231.730469 268.652344 233.761719 269.519531 236.019531 269.667969 C 241.699219 270.035156 246.601562 265.734375 246.972656 260.054688 L 251.480469 190.523438 C 252.316406 190.988281 253.265625 191.289062 254.285156 191.355469 C 254.433594 191.363281 254.578125 191.371094 254.726562 191.371094 C 258.210938 191.371094 261.140625 188.664062 261.375 185.140625 C 264.40625 138.753906 255.863281 122.601562 251.769531 117.628906 C 250.652344 115.726562 248.589844 114.441406 246.214844 114.441406 Z M 246.214844 114.441406 " fill-opacity="1" fill-rule="nonzero"/><path fill="#000000" d="M 211.359375 90.953125 C 211.359375 101.304688 219.753906 109.695312 230.113281 109.695312 C 240.472656 109.695312 248.871094 101.304688 248.871094 90.953125 C 248.871094 80.597656 240.472656 72.207031 230.113281 72.207031 C 219.753906 72.207031 211.359375 80.597656 211.359375 90.953125 Z M 237.304688 87.238281 C 239.085938 87.238281 240.535156 88.683594 240.535156 90.46875 C 240.535156 92.25 239.085938 93.695312 237.304688 93.695312 C 235.519531 93.695312 234.074219 92.25 234.074219 90.46875 C 234.074219 88.683594 235.519531 87.238281 237.304688 87.238281 Z M 222.925781 87.238281 C 224.707031 87.238281 226.152344 88.683594 226.152344 90.46875 C 226.152344 92.25 224.707031 93.695312 222.925781 93.695312 C 221.140625 93.695312 219.695312 92.25 219.695312 90.46875 C 219.695312 88.683594 221.140625 87.238281 222.925781 87.238281 Z M 222.925781 87.238281 " fill-opacity="1" fill-rule="nonzero"/><path fill="#000000" d="M 70.0625 72.207031 C 59.703125 72.207031 51.308594 80.597656 51.308594 90.953125 C 51.308594 101.304688 59.703125 109.695312 70.0625 109.695312 C 80.421875 109.695312 88.820312 101.304688 88.820312 90.953125 C 88.820312 80.597656 80.421875 72.207031 70.0625 72.207031 Z M 62.871094 93.695312 C 61.089844 93.695312 59.644531 92.25 59.644531 90.46875 C 59.644531 88.683594 61.089844 87.238281 62.871094 87.238281 C 64.65625 87.238281 66.101562 88.683594 66.101562 90.46875 C 66.101562 92.25 64.65625 93.695312 62.871094 93.695312 Z M 77.253906 93.695312 C 75.46875 93.695312 74.023438 92.25 74.023438 90.46875 C 74.023438 88.683594 75.46875 87.238281 77.253906 87.238281 C 79.035156 87.238281 80.484375 88.683594 80.484375 90.46875 C 80.484375 92.25 79.035156 93.695312 77.253906 93.695312 Z M 77.253906 93.695312 " fill-opacity="1" fill-rule="nonzero"/><path fill="#000000" d="M 200.933594 149.148438 C 201.082031 149.160156 201.230469 149.164062 201.375 149.164062 C 204.859375 149.164062 207.792969 146.457031 208.023438 142.933594 C 211.058594 96.550781 202.511719 80.398438 198.421875 75.421875 C 197.300781 73.515625 195.238281 72.234375 192.867188 72.234375 L 160.660156 72.234375 C 158.289062 72.234375 156.222656 73.515625 155.105469 75.421875 C 151.011719 80.394531 142.46875 96.546875 145.5 142.933594 C 145.730469 146.457031 148.664062 149.164062 152.148438 149.164062 C 152.296875 149.164062 152.445312 149.160156 152.589844 149.148438 C 153.609375 149.082031 154.558594 148.785156 155.394531 148.316406 L 159.902344 217.847656 C 160.273438 223.527344 165.175781 227.828125 170.855469 227.460938 C 173.113281 227.316406 175.144531 226.445312 176.761719 225.101562 C 178.378906 226.445312 180.414062 227.316406 182.667969 227.460938 C 188.347656 227.828125 193.253906 223.527344 193.621094 217.847656 L 198.128906 148.316406 C 198.96875 148.785156 199.914062 149.082031 200.933594 149.148438 Z M 176.761719 122.507812 C 166.636719 122.507812 158.425781 114.304688 158.425781 104.183594 C 158.425781 94.058594 166.636719 85.855469 176.761719 85.855469 C 186.890625 85.855469 195.101562 94.058594 195.101562 104.183594 C 195.101562 114.304688 186.890625 122.507812 176.761719 122.507812 Z M 176.761719 122.507812 " fill-opacity="1" fill-rule="nonzero"/><path fill="#000000" d="M 176.761719 67.488281 C 187.125 67.488281 195.519531 59.097656 195.519531 48.742188 C 195.519531 38.390625 187.125 30 176.761719 30 C 166.40625 30 158.007812 38.390625 158.007812 48.742188 C 158.007812 59.097656 166.40625 67.488281 176.761719 67.488281 Z M 188.464844 54.726562 C 186.039062 58.652344 181.707031 61.28125 176.761719 61.28125 C 171.820312 61.28125 167.488281 58.652344 165.0625 54.726562 Z M 188.464844 54.726562 " fill-opacity="1" fill-rule="nonzero"/><path fill="#000000" d="M 179.960938 99.328125 L 176.765625 92.855469 L 173.566406 99.328125 L 166.417969 100.367188 L 171.589844 105.40625 L 170.371094 112.519531 L 176.765625 109.164062 L 183.15625 112.519531 L 181.9375 105.40625 L 187.109375 100.367188 Z M 179.960938 99.328125 " fill-opacity="1" fill-rule="nonzero"/><path fill="#000000" d="M 150.367188 232.734375 L 203.160156 232.734375 L 203.160156 269.941406 L 150.367188 269.941406 Z M 150.367188 232.734375 " fill-opacity="1" fill-rule="nonzero"/></svg>