<svg xmlns="http://www.w3.org/2000/svg" xmlns:xlink="http://www.w3.org/1999/xlink" width="400" zoomAndPan="magnify" viewBox="0 0 300 299.999988" height="400" preserveAspectRatio="xMidYMid meet" version="1.0"><defs><clipPath id="b5d836af1a"><path d="M 30 54.449219 L 270 54.449219 L 270 245.699219 L 30 245.699219 Z M 30 54.449219 " clip-rule="nonzero"/></clipPath></defs><path fill="#333333" d="M 111.851562 124.410156 L 106.125 128.109375 L 95.515625 116.152344 Z M 111.851562 124.410156 " fill-opacity="1" fill-rule="nonzero"/><path fill="#333333" d="M 138.613281 128.109375 L 132.886719 124.410156 L 149.226562 116.152344 Z M 138.613281 128.109375 " fill-opacity="1" fill-rule="nonzero"/><g clip-path="url(#b5d836af1a)"><path fill="#333333" d="M 85.175781 101.59375 C 92.769531 112.464844 106.5625 119.765625 122.371094 119.765625 C 138.175781 119.765625 151.972656 112.464844 159.566406 101.59375 C 157.785156 120.589844 141.816406 135.457031 122.371094 135.457031 C 102.921875 135.457031 86.957031 120.589844 85.175781 101.59375 Z M 123.707031 157.632812 L 149.226562 199.308594 L 154.132812 202.007812 L 149.792969 203.738281 L 147.996094 202.785156 Z M 154.886719 156.402344 L 153.871094 151.355469 L 165.792969 140.265625 Z M 165.792969 208.417969 L 174.203125 214.683594 L 169.460938 220.953125 Z M 30.003906 245.53125 L 65.777344 245.53125 L 74.050781 235.109375 L 76.988281 219.082031 L 90.511719 207.054688 L 80.160156 189.074219 L 90.546875 203.574219 L 129.84375 198.507812 L 114.894531 179.273438 L 136.964844 202.785156 L 137.316406 208.640625 L 121.167969 214.539062 L 121.167969 220.816406 L 137.828125 217.078125 L 138.210938 223.445312 L 156.183594 222.019531 L 161.28125 211.816406 L 168.398438 221.691406 L 162.949219 225.492188 L 175.761719 245.53125 L 204.324219 245.53125 L 193.113281 228.699219 L 215.316406 217.921875 L 210.253906 198.457031 L 204.621094 196.046875 L 165.542969 207.5625 L 260.117188 175.796875 L 269.996094 156.03125 L 190.757812 189.152344 L 159.832031 176.066406 L 160.542969 184.613281 L 157.710938 170.472656 L 187.238281 148.816406 L 192.578125 129.3125 L 166.398438 112.375 C 161.019531 127.003906 148.035156 137.945312 132.226562 140.34375 C 151.453125 135.871094 165.792969 118.65625 165.792969 98.054688 C 165.792969 74.054688 146.351562 54.59375 122.371094 54.59375 C 98.386719 54.59375 78.949219 74.054688 78.949219 98.054688 C 78.949219 100.019531 79.121094 101.941406 79.375 103.835938 L 70.3125 114.621094 L 42.550781 130.382812 L 56.699219 137.859375 L 72.449219 119.726562 L 76.722656 113.015625 L 74.273438 122.132812 L 52.964844 148.335938 L 67.109375 148.335938 L 78.949219 122.132812 L 81.425781 112.425781 C 82.910156 116.652344 85.023438 120.582031 87.65625 124.101562 L 78.949219 140 L 78.949219 149.347656 L 102.613281 169.480469 L 53.761719 158.433594 L 34.007812 188.625 L 40.949219 208.929688 L 62.574219 217.476562 L 52.164062 215.074219 L 52.429688 224.15625 L 38.28125 234.84375 L 30.003906 245.53125 " fill-opacity="1" fill-rule="nonzero"/></g></svg>