<svg xmlns="http://www.w3.org/2000/svg" xmlns:xlink="http://www.w3.org/1999/xlink" width="400" zoomAndPan="magnify" viewBox="0 0 300 299.999988" height="400" preserveAspectRatio="xMidYMid meet" version="1.0"><defs><clipPath id="efe248bbad"><path d="M 40.050781 90 L 259.800781 90 L 259.800781 215 L 40.050781 215 Z M 40.050781 90 " clip-rule="nonzero"/></clipPath><clipPath id="c54f2f72eb"><path d="M 44 172 L 259.800781 172 L 259.800781 180 L 44 180 Z M 44 172 " clip-rule="nonzero"/></clipPath><clipPath id="8ed8ba039c"><path d="M 44 162 L 259.800781 162 L 259.800781 173 L 44 173 Z M 44 162 " clip-rule="nonzero"/></clipPath><clipPath id="27fd45ad54"><path d="M 43 179 L 259.800781 179 L 259.800781 188 L 43 188 Z M 43 179 " clip-rule="nonzero"/></clipPath><clipPath id="215d8f9d0e"><path d="M 44 162 L 259.800781 162 L 259.800781 173 L 44 173 Z M 44 162 " clip-rule="nonzero"/></clipPath></defs><path fill="#775248" d="M 208.554688 200.996094 C 207.761719 200.480469 206.734375 200.292969 205.84375 200.292969 L 203.085938 200.292969 C 199.4375 200.246094 195.792969 200.199219 192.144531 200.105469 L 170.21875 199.546875 C 155.628906 199.125 140.996094 198.984375 126.40625 198.9375 L 104.480469 198.984375 L 99.007812 199.03125 L 95.546875 199.03125 C 95.269531 199.03125 94.941406 199.03125 94.660156 199.125 C 94.050781 199.21875 93.445312 199.40625 92.929688 199.6875 C 90.734375 200.761719 89.332031 203.242188 89.609375 205.675781 L 90.453125 211.148438 C 92.601562 225.605469 94.941406 240.0625 97.324219 254.472656 C 97.933594 258.121094 98.449219 261.628906 99.148438 265.371094 C 99.664062 267.429688 101.578125 268.929688 103.636719 269.113281 C 105.601562 269.160156 107.332031 269.113281 109.15625 269.113281 C 116.449219 269.070312 123.742188 269.023438 131.082031 269.070312 C 145.671875 269.160156 160.304688 269.628906 174.890625 269.816406 L 185.878906 269.910156 C 189.574219 269.910156 193.082031 269.957031 196.960938 269.863281 C 199.34375 269.675781 201.449219 267.992188 202.152344 265.699219 C 202.246094 265.417969 202.289062 265.136719 202.335938 264.859375 L 202.429688 264.15625 L 202.617188 262.800781 L 203.039062 260.085938 L 204.582031 249.230469 C 206.59375 234.773438 208.460938 220.269531 210.894531 205.816406 C 211.128906 203.988281 210.191406 201.976562 208.554688 200.996094 Z M 210.519531 205.816406 C 208.183594 220.269531 205.375 234.585938 202.664062 248.949219 L 200.65625 259.710938 L 200.140625 262.425781 L 199.90625 263.78125 L 199.765625 264.484375 C 199.71875 264.671875 199.71875 264.8125 199.671875 264.953125 C 199.296875 266.214844 198.082031 267.148438 196.773438 267.195312 C 189.667969 267.148438 182.234375 267.195312 174.984375 267.289062 C 160.398438 267.523438 145.765625 267.945312 131.175781 268.085938 C 123.882812 268.132812 116.589844 268.085938 109.246094 268.039062 C 107.425781 268.039062 105.554688 268.039062 103.824219 267.992188 C 102.234375 267.804688 100.832031 266.589844 100.457031 265.042969 C 99.945312 261.582031 99.523438 257.839844 99.054688 254.238281 C 97.230469 239.734375 95.363281 225.230469 93.351562 210.773438 L 92.601562 205.441406 C 92.507812 204.175781 93.210938 202.914062 94.332031 202.398438 C 94.613281 202.257812 94.894531 202.164062 95.222656 202.117188 C 95.363281 202.070312 95.5 202.117188 95.6875 202.070312 L 99.148438 202.070312 L 104.617188 202.117188 L 126.546875 202.164062 C 141.136719 202.117188 155.769531 201.976562 170.355469 201.558594 L 192.285156 200.996094 C 195.933594 200.902344 199.578125 200.902344 203.226562 200.808594 L 205.984375 200.761719 C 206.871094 200.714844 207.761719 200.902344 208.507812 201.371094 C 209.910156 202.210938 210.800781 204.035156 210.519531 205.816406 Z M 210.519531 205.816406 " fill-opacity="1" fill-rule="nonzero"/><path fill="#fff5c4" d="M 210.519531 205.816406 C 208.183594 220.269531 205.375 234.585938 202.664062 248.949219 L 200.65625 259.710938 L 200.140625 262.425781 L 199.90625 263.78125 L 199.765625 264.484375 C 199.71875 264.671875 199.71875 264.8125 199.671875 264.953125 C 199.296875 266.214844 198.082031 267.148438 196.773438 267.195312 C 192.941406 267.195312 189.011719 267.195312 185.085938 267.195312 C 181.71875 267.195312 178.304688 267.242188 174.9375 267.289062 C 160.351562 267.523438 145.71875 267.945312 131.128906 268.085938 C 123.835938 268.132812 116.542969 268.085938 109.199219 268.039062 C 107.378906 268.039062 105.507812 268.039062 103.777344 267.992188 C 102.1875 267.804688 100.785156 266.589844 100.410156 265.042969 C 99.898438 261.582031 99.476562 257.839844 99.007812 254.238281 C 97.183594 239.734375 95.316406 225.230469 93.304688 210.773438 L 92.554688 205.441406 C 92.460938 204.457031 92.882812 203.523438 93.585938 202.867188 C 93.820312 202.679688 94.003906 202.539062 94.285156 202.445312 C 94.566406 202.304688 94.847656 202.210938 95.175781 202.164062 C 95.316406 202.117188 95.453125 202.164062 95.640625 202.117188 L 99.101562 202.117188 L 104.574219 202.164062 L 126.5 202.210938 C 141.089844 202.164062 155.722656 202.023438 170.308594 201.605469 L 192.238281 201.042969 C 195.886719 200.949219 199.53125 200.949219 203.179688 200.855469 L 205.9375 200.808594 C 206.828125 200.761719 207.714844 200.949219 208.460938 201.417969 C 209.910156 202.210938 210.800781 204.035156 210.519531 205.816406 Z M 210.519531 205.816406 " fill-opacity="1" fill-rule="nonzero"/><g clip-path="url(#efe248bbad)"><path fill="#775248" d="M 259.660156 173.859375 L 259.707031 172.550781 L 259.707031 172.269531 L 259.660156 172.269531 L 259.660156 169.230469 C 259.660156 166.609375 258.257812 163.988281 256.011719 162.585938 C 254.890625 161.882812 253.582031 161.460938 252.226562 161.414062 C 250.917969 161.367188 249.652344 161.414062 248.390625 161.367188 L 240.863281 161.226562 C 241.984375 158.65625 242.828125 155.941406 243.527344 153.226562 C 244.277344 150.328125 244.886719 147.425781 245.117188 144.433594 C 245.351562 141.4375 245.210938 138.445312 245.398438 135.449219 C 245.539062 132.457031 245.867188 129.507812 246.007812 126.46875 C 246.195312 123.472656 246.101562 120.339844 245.164062 117.296875 C 244.886719 116.5 244.605469 115.753906 244.183594 115.003906 C 243.761719 114.257812 243.390625 113.695312 242.96875 112.992188 C 242.125 111.683594 241.144531 110.464844 240.164062 109.34375 C 238.058594 107.050781 235.769531 105.039062 233.195312 103.402344 C 230.953125 101.953125 228.613281 100.734375 226.136719 99.847656 C 226.230469 99.566406 226.371094 99.285156 226.511719 98.863281 C 226.652344 98.394531 226.652344 97.929688 226.605469 97.507812 C 226.464844 96.570312 225.949219 95.683594 225.0625 95.121094 C 223.796875 94.183594 222.441406 93.34375 221.085938 92.640625 L 219.03125 91.519531 C 218.703125 91.332031 218.328125 91.144531 218 91.003906 C 217.578125 90.816406 217.441406 90.722656 216.691406 90.488281 C 215.476562 90.113281 214.074219 90.441406 213.136719 91.238281 C 212.671875 91.660156 212.34375 92.171875 212.15625 92.734375 C 212.015625 93.203125 211.96875 93.53125 211.875 93.953125 C 211.828125 94.324219 211.734375 94.699219 211.6875 95.261719 C 211.640625 95.777344 211.734375 96.242188 211.921875 96.664062 C 212.25 97.507812 212.90625 98.160156 213.652344 98.488281 C 215.101562 99.097656 216.316406 100.171875 217.53125 101.15625 C 218.140625 101.671875 218.796875 102.140625 219.496094 102.464844 C 219.824219 102.652344 220.199219 102.792969 220.527344 102.980469 C 220.945312 103.121094 221.132812 103.261719 221.789062 103.449219 C 222.957031 103.683594 224.125 103.261719 224.875 102.511719 C 225.246094 102.140625 225.527344 101.71875 225.667969 101.25 L 225.902344 100.546875 C 230.296875 103.871094 234.363281 107.472656 237.777344 111.496094 C 238.714844 112.570312 239.554688 113.695312 240.441406 114.816406 C 240.816406 115.378906 241.285156 115.988281 241.660156 116.546875 C 241.984375 117.0625 242.265625 117.671875 242.546875 118.28125 C 243.480469 120.804688 244.042969 123.707031 244.417969 126.605469 C 244.792969 129.507812 244.839844 132.503906 244.464844 135.402344 C 244.136719 138.351562 243.296875 141.203125 242.6875 144.105469 C 242.078125 146.957031 241.660156 149.90625 241.285156 152.808594 C 240.910156 155.613281 240.582031 158.421875 240.441406 161.273438 L 233.148438 161.136719 L 202.617188 160.292969 C 182.234375 159.589844 161.894531 159.214844 141.507812 159.167969 C 121.125 158.984375 100.785156 159.078125 80.398438 159.261719 L 64.316406 159.355469 C 64.128906 157.15625 63.894531 155.007812 63.613281 152.808594 C 63.242188 149.90625 62.820312 146.960938 62.210938 144.105469 C 61.605469 141.203125 60.761719 138.351562 60.433594 135.402344 C 60.109375 132.457031 60.15625 129.507812 60.480469 126.605469 C 60.902344 123.707031 61.417969 120.851562 62.351562 118.28125 C 62.632812 117.671875 62.914062 117.0625 63.242188 116.546875 C 63.566406 115.988281 64.035156 115.378906 64.457031 114.816406 C 65.296875 113.695312 66.1875 112.570312 67.121094 111.496094 C 70.535156 107.425781 74.554688 103.824219 78.996094 100.546875 L 79.230469 101.25 C 79.371094 101.71875 79.652344 102.140625 80.027344 102.511719 C 80.773438 103.261719 81.941406 103.683594 83.113281 103.449219 C 83.765625 103.261719 84 103.167969 84.375 102.980469 C 84.75 102.839844 85.074219 102.652344 85.402344 102.464844 C 86.105469 102.09375 86.757812 101.625 87.367188 101.15625 C 88.628906 100.128906 89.84375 99.097656 91.246094 98.488281 C 91.996094 98.160156 92.648438 97.554688 92.976562 96.664062 C 93.164062 96.242188 93.257812 95.777344 93.210938 95.261719 C 93.164062 94.699219 93.070312 94.324219 93.023438 93.953125 C 92.929688 93.53125 92.929688 93.203125 92.742188 92.734375 C 92.554688 92.171875 92.230469 91.660156 91.714844 91.238281 C 90.78125 90.441406 89.421875 90.113281 88.160156 90.488281 C 87.460938 90.722656 87.273438 90.863281 86.898438 91.003906 C 86.570312 91.191406 86.199219 91.332031 85.871094 91.519531 L 83.8125 92.640625 C 82.457031 93.34375 81.148438 94.230469 79.839844 95.121094 C 78.949219 95.683594 78.390625 96.617188 78.296875 97.507812 C 78.25 97.976562 78.25 98.441406 78.390625 98.863281 C 78.484375 99.238281 78.625 99.566406 78.761719 99.847656 C 76.285156 100.734375 73.902344 101.953125 71.703125 103.402344 C 69.132812 105.039062 66.792969 107.050781 64.738281 109.34375 C 63.707031 110.511719 62.773438 111.730469 61.929688 112.992188 C 61.511719 113.695312 61.136719 114.257812 60.714844 115.003906 C 60.296875 115.753906 60.015625 116.546875 59.734375 117.296875 C 58.800781 120.386719 58.707031 123.472656 58.890625 126.46875 C 59.078125 129.507812 59.359375 132.457031 59.5 135.449219 C 59.640625 138.398438 59.5 141.4375 59.78125 144.433594 C 60.0625 147.378906 60.621094 150.328125 61.371094 153.226562 C 61.929688 155.285156 62.492188 157.34375 63.289062 159.355469 L 49.820312 159.449219 C 48.277344 159.402344 46.503906 159.871094 45.097656 160.621094 C 43.648438 161.414062 42.433594 162.539062 41.546875 163.941406 C 40.703125 165.34375 40.144531 166.984375 40.097656 168.574219 L 40.050781 169.183594 L 40.050781 170.585938 L 40.097656 172.503906 L 40.285156 187.800781 L 40.285156 188.363281 L 40.5625 188.785156 L 55.992188 213.207031 L 56.414062 213.863281 L 57.164062 213.863281 C 66.933594 213.722656 76.707031 213.488281 86.476562 213.394531 L 87.507812 213.394531 L 87.367188 212.410156 L 85.824219 202.304688 C 85.730469 201.464844 85.542969 200.574219 85.542969 199.917969 C 85.542969 199.21875 85.730469 198.46875 86.105469 197.859375 C 86.804688 196.597656 88.207031 195.757812 89.65625 195.710938 C 96.4375 195.664062 103.261719 195.710938 110.089844 195.804688 C 123.742188 195.894531 137.347656 196.316406 151 196.550781 L 171.480469 196.972656 C 178.304688 197.019531 185.132812 197.160156 191.910156 197.160156 L 202.152344 197.160156 L 212.296875 197.113281 C 213.277344 197.113281 214.214844 197.675781 214.726562 198.5625 C 215.007812 198.984375 215.148438 199.5 215.148438 199.964844 C 215.195312 200.339844 215.007812 201.324219 214.867188 202.164062 C 214.402344 205.535156 213.886719 208.902344 213.417969 212.316406 L 213.136719 214.46875 L 215.195312 214.421875 L 244.464844 213.628906 L 245.070312 213.628906 L 245.351562 213.160156 L 252.507812 200.574219 C 254.84375 196.410156 257.320312 192.246094 259.753906 188.082031 L 259.800781 187.988281 L 259.800781 187.894531 C 259.660156 183.21875 259.660156 178.539062 259.660156 173.859375 Z M 225.15625 99.566406 C 225.109375 99.566406 225.0625 99.519531 224.96875 99.519531 L 224.875 99.800781 C 224.921875 99.847656 224.921875 99.847656 224.96875 99.894531 C 224.265625 101.0625 223.144531 101.90625 222.441406 101.015625 C 222.347656 100.921875 221.929688 100.6875 221.601562 100.5 C 221.273438 100.3125 220.898438 100.171875 220.527344 100.035156 C 219.824219 99.753906 219.03125 99.566406 218.234375 99.425781 C 216.644531 99.144531 215.054688 98.910156 213.652344 98.207031 C 212.996094 97.882812 212.53125 97.179688 212.578125 96.476562 C 212.578125 96.148438 212.671875 95.824219 212.859375 95.589844 L 213.558594 94.746094 L 214.308594 93.859375 C 214.449219 93.71875 214.632812 93.625 214.773438 93.578125 C 215.101562 93.4375 215.382812 93.4375 215.664062 93.578125 L 216.503906 93.953125 C 216.832031 94.089844 217.207031 94.277344 217.578125 94.417969 L 219.730469 95.261719 C 221.179688 95.824219 222.675781 96.289062 224.21875 96.664062 C 225.808594 96.804688 225.808594 98.300781 225.15625 99.566406 Z M 80.492188 96.617188 C 82.035156 96.242188 83.53125 95.777344 84.980469 95.214844 L 87.132812 94.371094 C 87.507812 94.230469 87.832031 94.089844 88.207031 93.90625 L 89.050781 93.53125 C 89.285156 93.4375 89.609375 93.4375 89.9375 93.53125 C 90.078125 93.578125 90.265625 93.671875 90.40625 93.8125 L 91.152344 94.699219 L 91.855469 95.542969 C 92.042969 95.777344 92.136719 96.101562 92.136719 96.429688 C 92.183594 97.132812 91.714844 97.835938 91.058594 98.160156 C 89.65625 98.863281 88.066406 99.097656 86.476562 99.378906 C 85.683594 99.519531 84.933594 99.707031 84.1875 99.988281 C 83.8125 100.125 83.4375 100.265625 83.113281 100.453125 C 82.785156 100.640625 82.363281 100.875 82.269531 100.96875 C 81.570312 101.8125 80.445312 101.015625 79.746094 99.847656 C 79.792969 99.800781 79.839844 99.800781 79.839844 99.753906 L 79.746094 99.472656 C 79.699219 99.472656 79.652344 99.519531 79.558594 99.519531 C 78.996094 98.300781 78.949219 96.804688 80.492188 96.617188 Z M 251.382812 199.875 L 243.902344 211.523438 L 217.347656 210.773438 C 217.859375 208.105469 218.328125 205.441406 218.84375 202.726562 C 218.9375 201.886719 219.214844 201.183594 219.261719 199.871094 C 219.261719 198.65625 218.984375 197.441406 218.375 196.410156 C 217.207031 194.304688 214.867188 192.855469 212.4375 192.761719 C 205.46875 192.667969 198.738281 192.667969 191.910156 192.714844 C 185.085938 192.714844 178.257812 192.808594 171.480469 192.902344 L 151 193.324219 C 137.347656 193.558594 123.742188 193.976562 110.089844 194.117188 L 89.609375 194.210938 C 87.648438 194.257812 85.730469 195.382812 84.75 197.066406 C 84.234375 197.90625 84 198.890625 83.953125 199.875 C 83.953125 200.902344 84.140625 201.699219 84.234375 202.539062 L 85.496094 211.664062 C 76.332031 211.570312 67.121094 211.382812 57.957031 211.242188 L 44.867188 188.597656 C 53.046875 188.503906 61.230469 188.410156 69.414062 188.363281 C 78.484375 188.316406 87.507812 188.269531 96.578125 188.363281 C 114.671875 188.410156 132.765625 188.832031 150.90625 189.019531 C 159.929688 189.160156 169 189.113281 178.070312 189.207031 C 187.140625 189.253906 196.167969 189.113281 205.238281 189.019531 L 258.957031 188.082031 C 256.292969 192.058594 253.863281 195.988281 251.382812 199.875 Z M 259.003906 187.617188 L 205.050781 186.679688 C 195.980469 186.632812 186.957031 186.492188 177.882812 186.492188 C 168.8125 186.539062 159.789062 186.539062 150.71875 186.679688 C 132.625 186.914062 114.53125 187.289062 96.390625 187.335938 C 87.320312 187.429688 78.296875 187.382812 69.226562 187.335938 C 60.808594 187.335938 52.394531 187.195312 43.976562 187.101562 L 44.070312 179.894531 C 52.488281 179.800781 60.855469 179.707031 69.273438 179.660156 C 78.34375 179.566406 87.414062 179.660156 96.484375 179.707031 L 151.1875 180.316406 C 169.46875 180.410156 187.5625 180.222656 205.65625 180.082031 C 223.566406 179.894531 241.425781 179.613281 259.003906 179.242188 C 259.050781 182.09375 259.050781 184.855469 259.003906 187.617188 Z M 259.050781 179.101562 C 240.628906 178.726562 222.488281 178.492188 204.394531 178.257812 C 186.300781 178.117188 168.207031 177.929688 150.253906 178.023438 L 96.34375 178.679688 C 87.320312 178.726562 78.296875 178.820312 69.226562 178.726562 C 60.855469 178.726562 52.488281 178.632812 44.117188 178.492188 L 44.164062 173.4375 C 61.558594 173.71875 78.996094 173.90625 96.390625 174 C 114.484375 174.09375 132.578125 174.234375 150.71875 174.140625 L 177.882812 174.09375 L 205.050781 173.8125 C 223.050781 173.625 241.050781 173.347656 259.050781 172.878906 L 259.097656 173.8125 C 259.097656 175.589844 259.097656 177.324219 259.050781 179.101562 Z M 259.097656 172.269531 C 241.097656 171.800781 223.050781 171.519531 205.050781 171.335938 L 177.882812 171.054688 L 150.71875 171.007812 C 132.625 170.914062 114.53125 171.054688 96.390625 171.148438 C 78.996094 171.242188 61.558594 171.425781 44.164062 171.707031 L 44.164062 168.902344 C 44.210938 167.964844 44.585938 167.125 45.054688 166.375 C 46.082031 164.878906 47.8125 163.988281 49.679688 164.035156 L 80.210938 164.269531 C 100.597656 164.457031 120.9375 164.503906 141.320312 164.316406 C 161.707031 164.269531 182.046875 163.847656 202.429688 163.195312 L 232.960938 162.351562 L 248.25 162.070312 C 250.777344 162.117188 253.441406 161.648438 255.546875 163.101562 C 257.648438 164.363281 259.003906 166.75 259.003906 169.230469 C 259.097656 170.257812 259.097656 171.242188 259.097656 172.269531 Z M 259.097656 172.269531 " fill-opacity="1" fill-rule="nonzero"/></g><path fill="#775248" d="M 225.15625 99.566406 C 225.109375 99.566406 225.0625 99.519531 224.96875 99.519531 L 224.875 99.800781 C 224.921875 99.847656 224.921875 99.847656 224.96875 99.894531 C 224.265625 101.0625 223.144531 101.90625 222.441406 101.015625 C 222.347656 100.921875 221.929688 100.6875 221.601562 100.5 C 221.273438 100.3125 220.898438 100.171875 220.527344 100.035156 C 219.824219 99.753906 219.03125 99.566406 218.234375 99.425781 C 216.644531 99.144531 215.054688 98.910156 213.652344 98.207031 C 212.996094 97.882812 212.53125 97.179688 212.578125 96.476562 C 212.578125 96.148438 212.671875 95.824219 212.859375 95.589844 L 213.558594 94.746094 L 214.308594 93.859375 C 214.449219 93.71875 214.632812 93.625 214.773438 93.578125 C 215.101562 93.4375 215.382812 93.4375 215.664062 93.578125 L 216.503906 93.953125 C 216.832031 94.089844 217.207031 94.277344 217.578125 94.417969 L 219.730469 95.261719 C 221.179688 95.824219 222.675781 96.289062 224.21875 96.664062 C 225.808594 96.804688 225.808594 98.300781 225.15625 99.566406 Z M 225.15625 99.566406 " fill-opacity="1" fill-rule="nonzero"/><path fill="#775248" d="M 92.136719 96.476562 C 92.183594 97.179688 91.714844 97.882812 91.058594 98.207031 C 89.65625 98.910156 88.066406 99.144531 86.476562 99.425781 C 85.683594 99.566406 84.933594 99.753906 84.1875 100.035156 C 83.8125 100.171875 83.4375 100.3125 83.113281 100.5 C 82.785156 100.6875 82.363281 100.921875 82.269531 101.015625 C 81.570312 101.859375 80.445312 101.0625 79.746094 99.894531 C 79.792969 99.847656 79.839844 99.847656 79.839844 99.800781 L 79.746094 99.519531 C 79.699219 99.519531 79.652344 99.566406 79.558594 99.566406 C 78.949219 98.300781 78.902344 96.851562 80.398438 96.664062 C 81.941406 96.289062 83.4375 95.824219 84.886719 95.261719 L 87.039062 94.417969 C 87.414062 94.277344 87.742188 94.136719 88.113281 93.953125 L 88.957031 93.578125 C 89.191406 93.484375 89.515625 93.484375 89.84375 93.578125 C 89.984375 93.625 90.171875 93.71875 90.3125 93.859375 L 91.058594 94.746094 L 91.761719 95.589844 C 91.996094 95.824219 92.136719 96.148438 92.136719 96.476562 Z M 92.136719 96.476562 " fill-opacity="1" fill-rule="nonzero"/><g clip-path="url(#c54f2f72eb)"><path fill="#fff5c4" d="M 259.097656 173.8125 C 259.097656 175.589844 259.097656 177.324219 259.050781 179.054688 C 240.628906 178.679688 222.488281 178.445312 204.394531 178.210938 C 186.300781 178.070312 168.207031 177.882812 150.253906 177.976562 L 96.34375 178.679688 C 87.320312 178.726562 78.296875 178.820312 69.226562 178.726562 C 66.234375 178.726562 63.242188 178.726562 60.25 178.679688 C 54.871094 178.632812 49.496094 178.585938 44.164062 178.492188 L 44.210938 173.4375 C 49.820312 173.53125 55.480469 173.625 61.089844 173.671875 C 72.871094 173.8125 84.65625 173.953125 96.4375 174 C 114.53125 174.09375 132.625 174.234375 150.765625 174.140625 L 177.929688 174.09375 L 205.097656 173.8125 C 223.097656 173.625 241.097656 173.347656 259.097656 172.878906 Z M 259.097656 173.8125 " fill-opacity="1" fill-rule="nonzero"/></g><g clip-path="url(#8ed8ba039c)"><path fill="#fff5c4" d="M 259.144531 169.230469 C 259.144531 170.257812 259.144531 171.242188 259.144531 172.269531 C 241.144531 171.800781 223.097656 171.519531 205.097656 171.335938 L 177.929688 171.054688 L 150.765625 171.007812 C 132.671875 170.914062 114.578125 171.054688 96.4375 171.148438 C 85.777344 171.195312 75.070312 171.289062 64.363281 171.425781 C 57.628906 171.519531 50.945312 171.613281 44.210938 171.707031 L 44.210938 168.902344 C 44.257812 167.964844 44.632812 167.125 45.097656 166.375 C 46.128906 164.878906 47.859375 163.988281 49.726562 164.035156 L 80.257812 164.269531 C 100.644531 164.457031 120.984375 164.503906 141.367188 164.316406 C 161.753906 164.269531 182.09375 163.847656 202.476562 163.195312 L 233.007812 162.351562 L 248.296875 162.070312 C 250.824219 162.117188 253.488281 161.648438 255.59375 163.101562 C 257.742188 164.363281 259.097656 166.75 259.144531 169.230469 Z M 259.144531 169.230469 " fill-opacity="1" fill-rule="nonzero"/></g><g clip-path="url(#27fd45ad54)"><path fill="#fff5c4" d="M 259.050781 179.335938 C 259.050781 182.09375 259.003906 184.855469 259.003906 187.617188 L 205.050781 186.679688 C 195.980469 186.632812 186.957031 186.492188 177.882812 186.492188 C 168.8125 186.539062 159.789062 186.539062 150.71875 186.679688 C 132.625 186.914062 114.53125 187.289062 96.390625 187.335938 C 87.320312 187.429688 78.296875 187.382812 69.226562 187.335938 C 68.617188 187.335938 68.054688 187.335938 67.449219 187.335938 C 59.640625 187.335938 51.785156 187.242188 43.976562 187.101562 L 44.070312 179.894531 C 49.589844 179.800781 55.152344 179.753906 60.667969 179.707031 C 63.519531 179.660156 66.421875 179.660156 69.273438 179.660156 C 78.34375 179.566406 87.414062 179.660156 96.484375 179.707031 L 151.1875 180.316406 C 169.46875 180.410156 187.5625 180.222656 205.65625 180.082031 C 223.613281 179.941406 241.472656 179.707031 259.050781 179.335938 Z M 259.050781 179.335938 " fill-opacity="1" fill-rule="nonzero"/></g><path fill="#f6d356" d="M 258.769531 188.128906 C 256.292969 192.058594 253.863281 195.988281 251.335938 199.875 L 243.855469 211.523438 L 217.300781 210.773438 C 217.8125 208.105469 218.28125 205.441406 218.796875 202.726562 C 218.890625 201.886719 219.167969 201.183594 219.214844 199.875 C 219.214844 198.65625 218.9375 197.441406 218.328125 196.410156 C 217.160156 194.304688 214.820312 192.855469 212.390625 192.761719 C 205.421875 192.667969 198.691406 192.667969 191.863281 192.714844 C 185.039062 192.714844 178.210938 192.808594 171.433594 192.902344 L 150.953125 193.324219 C 137.300781 193.558594 123.695312 193.976562 110.042969 194.117188 L 89.5625 194.210938 C 87.601562 194.257812 85.683594 195.382812 84.703125 197.066406 C 84.1875 197.90625 83.953125 198.890625 83.90625 199.875 C 83.90625 200.902344 84.09375 201.699219 84.1875 202.539062 L 85.449219 211.664062 C 76.285156 211.570312 67.074219 211.382812 57.910156 211.242188 L 44.820312 188.597656 C 53 188.503906 61.183594 188.410156 69.367188 188.363281 C 78.4375 188.316406 87.460938 188.269531 96.53125 188.363281 C 114.625 188.410156 132.71875 188.832031 150.859375 189.019531 C 159.882812 189.160156 168.953125 189.113281 178.023438 189.207031 C 187.09375 189.253906 196.121094 189.113281 205.191406 189.019531 Z M 258.769531 188.128906 " fill-opacity="1" fill-rule="nonzero"/><path fill="#775248" d="M 207.761719 142.609375 C 203.414062 139.519531 198.597656 137.226562 193.6875 135.355469 C 183.730469 131.753906 173.257812 129.742188 162.78125 128.851562 L 162.78125 128.386719 C 162.78125 127.730469 162.875 127.074219 162.921875 126.421875 C 163.0625 125.203125 163.296875 124.082031 163.625 122.957031 C 164.886719 122.023438 166.101562 120.992188 167.175781 119.871094 C 171.386719 115.472656 174.050781 109.90625 175.3125 104.152344 C 177.324219 103.308594 179.007812 102.140625 180.550781 100.640625 C 182.09375 99.144531 183.402344 97.367188 184.335938 95.402344 C 185.226562 93.4375 185.878906 91.285156 186.113281 89.132812 C 186.347656 88.054688 186.253906 86.980469 186.300781 85.859375 C 186.300781 84.78125 186.160156 83.707031 186.113281 82.628906 C 186.066406 82.207031 186.019531 81.878906 185.925781 81.507812 C 185.832031 81.085938 185.691406 80.710938 185.460938 80.335938 C 185.226562 79.914062 184.898438 79.542969 184.476562 79.214844 C 184.148438 78.980469 183.777344 78.839844 183.402344 78.746094 C 184.617188 74.816406 185.367188 70.792969 185.644531 66.675781 C 185.878906 62.183594 185.503906 57.550781 184.148438 53.109375 C 183.449219 50.910156 182.464844 48.757812 181.203125 46.792969 C 179.894531 44.828125 178.304688 43.003906 176.339844 41.597656 C 174.378906 40.148438 172.039062 39.164062 169.703125 38.746094 C 167.597656 38.324219 165.449219 38.324219 163.34375 38.511719 C 160.632812 35.796875 157.40625 33.503906 153.757812 32.054688 C 149.878906 30.511719 145.578125 30.042969 141.460938 30.605469 C 137.347656 31.257812 133.421875 32.804688 130.007812 35 C 126.59375 37.199219 123.507812 39.914062 121.03125 43.140625 C 119.769531 44.734375 118.644531 46.417969 117.710938 48.242188 C 116.730469 50.019531 115.933594 51.890625 115.371094 53.855469 C 114.203125 57.738281 113.828125 61.808594 114.0625 65.785156 C 114.296875 69.761719 115.1875 73.648438 116.449219 77.390625 C 116.777344 78.324219 117.148438 79.214844 117.570312 80.148438 C 117.101562 80.289062 116.683594 80.476562 116.308594 80.851562 C 115.792969 81.320312 115.464844 82.066406 115.417969 82.769531 C 115.371094 83.984375 115.324219 85.15625 115.28125 86.417969 C 115.28125 88.851562 115.652344 91.332031 116.496094 93.671875 C 117.289062 96.011719 118.597656 98.160156 120.1875 100.082031 C 121.730469 101.859375 123.601562 103.355469 125.519531 104.664062 C 127.015625 110.371094 129.726562 115.941406 134.027344 120.199219 C 135.195312 121.367188 136.460938 122.398438 137.816406 123.332031 C 138.050781 124.316406 138.234375 125.296875 138.28125 126.28125 C 138.328125 127.121094 138.28125 128.011719 138.1875 128.898438 C 127.808594 129.882812 117.429688 131.660156 107.613281 135.308594 C 102.65625 137.132812 97.839844 139.378906 93.539062 142.46875 L 91.949219 143.636719 L 90.453125 144.945312 C 89.421875 145.789062 88.582031 146.867188 87.648438 147.800781 C 86.011719 149.90625 84.609375 152.339844 84.046875 155.007812 L 83.859375 155.800781 L 84.65625 155.800781 C 95.734375 155.613281 106.722656 155.519531 117.851562 155.753906 C 128.980469 155.988281 140.199219 156.316406 151.375 156.363281 C 162.550781 156.410156 173.535156 156.128906 184.570312 156.035156 C 195.511719 155.800781 206.40625 155.613281 217.019531 155.238281 C 216.082031 149.671875 212.015625 145.695312 207.761719 142.609375 Z M 117.476562 77.015625 C 116.261719 73.367188 115.652344 69.484375 115.605469 65.691406 C 115.558594 61.855469 116.167969 58.066406 117.429688 54.511719 C 118.738281 51.003906 120.609375 47.679688 123.085938 44.828125 C 127.902344 39.070312 134.589844 34.675781 141.882812 33.738281 C 145.484375 33.316406 149.175781 33.738281 152.589844 35.046875 C 155.957031 36.40625 159.089844 38.511719 161.660156 41.175781 L 162.222656 41.738281 L 162.96875 41.644531 C 167.085938 41.082031 171.433594 41.503906 174.796875 43.796875 C 176.480469 44.96875 177.929688 46.464844 179.148438 48.148438 C 180.363281 49.878906 181.25 51.796875 182.046875 53.808594 C 183.542969 57.832031 184.148438 62.230469 184.195312 66.628906 C 184.289062 70.605469 183.777344 74.722656 182.980469 78.652344 C 182.980469 78.652344 182.980469 78.652344 182.933594 78.652344 L 182.511719 78.605469 L 182.140625 78.886719 C 180.878906 79.820312 179.753906 80.992188 178.773438 82.300781 C 178.210938 77.996094 176.667969 73.832031 174.285156 70.136719 C 170.871094 64.898438 165.726562 60.828125 159.882812 58.675781 L 159.648438 58.582031 L 159.464844 58.582031 C 155.019531 58.253906 150.578125 58.675781 146.324219 59.890625 C 142.070312 61.109375 138.050781 63.121094 134.589844 65.832031 C 132.8125 67.191406 131.222656 68.6875 129.773438 70.324219 C 128.324219 72.007812 127.015625 73.738281 125.941406 75.660156 C 123.976562 78.933594 122.527344 82.441406 121.589844 86.089844 C 120.703125 84.265625 119.816406 82.488281 118.878906 80.664062 C 118.738281 80.335938 118.597656 80.054688 118.457031 79.730469 C 118.132812 78.839844 117.757812 77.949219 117.476562 77.015625 Z M 135.945312 118.234375 C 131.878906 114.351562 128.933594 109.296875 127.203125 103.824219 L 126.96875 103.121094 L 126.546875 103.121094 C 124.628906 102 122.761719 100.6875 121.21875 99.050781 C 119.628906 97.367188 118.320312 95.402344 117.476562 93.203125 C 116.589844 91.050781 116.261719 88.664062 116.214844 86.277344 C 116.167969 85.109375 116.308594 83.890625 116.355469 82.722656 C 116.402344 81.789062 117.101562 81.179688 117.992188 80.898438 C 119.113281 83.238281 120.234375 85.625 121.265625 88.054688 L 121.964844 89.695312 L 122.433594 87.960938 C 124.535156 79.867188 129.445312 72.570312 136.132812 67.796875 C 139.453125 65.414062 143.191406 63.679688 147.167969 62.605469 C 151.046875 61.574219 155.066406 61.296875 159.042969 61.621094 C 161.566406 62.652344 163.953125 64.054688 166.054688 65.738281 C 168.207031 67.472656 170.125 69.578125 171.667969 71.867188 C 174.753906 76.5 176.386719 82.113281 176.296875 87.730469 L 176.0625 101.296875 L 178.960938 88.101562 C 179.566406 85.390625 181.0625 82.910156 183.167969 81.085938 C 183.261719 81.132812 183.355469 81.226562 183.449219 81.414062 C 183.542969 81.601562 183.683594 81.789062 183.730469 82.019531 C 183.777344 82.253906 183.871094 82.535156 183.917969 82.769531 L 183.917969 82.863281 C 184.007812 83.84375 184.195312 84.875 184.289062 85.859375 C 184.289062 86.839844 184.429688 87.871094 184.289062 88.898438 C 184.195312 90.910156 183.730469 92.875 183.027344 94.792969 C 182.28125 96.664062 181.203125 98.441406 179.894531 99.988281 C 178.539062 101.53125 176.902344 102.886719 175.125 103.824219 L 175.171875 103.824219 L 175.03125 103.917969 C 173.117188 109.4375 170.078125 114.582031 165.867188 118.464844 C 164.933594 119.308594 163.953125 120.105469 162.921875 120.804688 L 161.894531 121.367188 C 158.292969 123.332031 154.367188 124.316406 150.4375 124.316406 C 148.476562 124.363281 146.511719 124.082031 144.546875 123.519531 C 144.359375 123.472656 144.175781 123.378906 143.988281 123.332031 C 140.996094 122.304688 138.234375 120.476562 135.945312 118.234375 Z M 161.988281 128.945312 L 161.660156 129.179688 C 158.527344 131.707031 154.507812 133.0625 150.53125 133.109375 C 148.523438 133.109375 146.558594 132.78125 144.640625 132.082031 C 142.769531 131.378906 140.949219 130.445312 139.40625 129.179688 L 139.125 128.945312 C 139.21875 128.011719 139.359375 127.121094 139.40625 126.234375 C 139.453125 125.578125 139.453125 124.921875 139.453125 124.222656 C 140.527344 124.828125 141.648438 125.34375 142.816406 125.765625 C 143.144531 125.90625 143.425781 126.046875 143.753906 126.1875 C 145.855469 126.980469 148.148438 127.449219 150.4375 127.542969 C 152.730469 127.636719 155.066406 127.261719 157.21875 126.515625 C 158.667969 126 160.023438 125.34375 161.332031 124.546875 C 161.332031 125.15625 161.378906 125.765625 161.425781 126.328125 C 161.519531 127.027344 161.660156 127.683594 161.847656 128.386719 C 161.894531 128.617188 161.941406 128.804688 161.988281 128.945312 Z M 183.121094 154.257812 C 172.085938 154.164062 161.054688 153.882812 150.207031 153.976562 C 139.359375 154.023438 128.511719 154.398438 117.570312 154.585938 C 106.910156 154.773438 96.203125 154.679688 85.496094 154.539062 C 86.199219 152.433594 87.367188 150.5625 88.769531 148.878906 C 89.703125 147.988281 90.5 147.050781 91.527344 146.304688 L 92.976562 145.085938 L 94.566406 144.058594 C 98.820312 141.296875 103.542969 139.332031 108.359375 137.695312 C 113.222656 136.105469 118.179688 134.886719 123.226562 133.90625 C 128.089844 133.015625 133 132.457031 137.910156 132.082031 C 141.460938 134.839844 145.949219 136.386719 150.484375 136.386719 C 155.019531 136.433594 159.511719 134.792969 163.0625 132.035156 C 168.019531 132.457031 172.976562 132.96875 177.882812 133.765625 C 182.980469 134.703125 187.984375 135.871094 192.894531 137.460938 C 197.800781 139.003906 202.570312 141.015625 206.917969 143.777344 L 208.507812 144.808594 L 210.003906 145.976562 C 211.082031 146.726562 211.921875 147.707031 212.859375 148.550781 C 214.539062 150.46875 215.898438 152.714844 216.691406 155.007812 C 205.375 154.726562 194.203125 154.492188 183.121094 154.257812 Z M 183.121094 154.257812 " fill-opacity="1" fill-rule="nonzero"/><path fill="#fff5c4" d="M 216.785156 155.054688 C 205.375 154.726562 194.203125 154.492188 183.121094 154.257812 C 172.085938 154.164062 161.054688 153.882812 150.207031 153.976562 C 139.359375 154.023438 128.511719 154.398438 117.570312 154.585938 C 106.910156 154.773438 96.203125 154.679688 85.496094 154.539062 C 86.152344 152.527344 87.273438 150.703125 88.628906 149.0625 C 88.675781 149.015625 88.722656 148.925781 88.816406 148.878906 C 89.75 147.988281 90.546875 147.050781 91.574219 146.304688 L 93.023438 145.085938 L 94.613281 144.058594 C 98.867188 141.296875 103.589844 139.332031 108.40625 137.695312 C 113.269531 136.105469 118.226562 134.886719 123.273438 133.90625 C 128.136719 133.015625 133.046875 132.457031 137.957031 132.082031 C 141.507812 134.839844 145.996094 136.386719 150.53125 136.386719 C 155.066406 136.433594 159.554688 134.792969 163.109375 132.035156 C 168.066406 132.457031 173.023438 132.96875 177.929688 133.765625 C 183.027344 134.703125 188.03125 135.871094 192.941406 137.460938 C 197.847656 139.003906 202.617188 141.015625 206.964844 143.777344 L 208.554688 144.808594 L 210.050781 145.976562 C 211.128906 146.726562 211.96875 147.707031 212.90625 148.550781 C 214.214844 150.046875 215.289062 151.683594 216.082031 153.460938 C 216.410156 154.023438 216.597656 154.539062 216.785156 155.054688 Z M 216.785156 155.054688 " fill-opacity="1" fill-rule="nonzero"/><path fill="#fabcb1" d="M 161.988281 128.945312 L 161.660156 129.179688 C 158.527344 131.707031 154.507812 133.0625 150.53125 133.109375 C 148.523438 133.109375 146.558594 132.78125 144.640625 132.082031 C 142.769531 131.378906 140.949219 130.445312 139.40625 129.179688 L 139.125 128.945312 C 139.21875 128.011719 139.359375 127.121094 139.40625 126.234375 C 139.453125 125.578125 139.453125 124.921875 139.453125 124.222656 C 140.527344 124.828125 141.648438 125.34375 142.816406 125.765625 C 143.144531 125.90625 143.425781 126.046875 143.753906 126.1875 C 145.855469 126.980469 148.148438 127.449219 150.4375 127.542969 C 152.730469 127.636719 155.066406 127.261719 157.21875 126.515625 C 158.667969 126 160.023438 125.34375 161.332031 124.546875 C 161.332031 125.15625 161.378906 125.765625 161.425781 126.328125 C 161.519531 127.027344 161.660156 127.683594 161.847656 128.386719 C 161.894531 128.617188 161.941406 128.804688 161.988281 128.945312 Z M 161.988281 128.945312 " fill-opacity="1" fill-rule="nonzero"/><path fill="#ffd2cc" d="M 184.382812 88.992188 C 184.289062 91.003906 183.824219 92.96875 183.121094 94.886719 C 182.375 96.757812 181.296875 98.535156 179.988281 100.082031 C 178.632812 101.625 176.996094 102.980469 175.21875 103.917969 L 175.265625 103.917969 L 175.125 104.011719 C 173.210938 109.53125 170.171875 114.675781 165.960938 118.558594 C 165.027344 119.402344 164.046875 120.199219 163.015625 120.898438 L 161.988281 121.460938 C 158.386719 123.425781 154.460938 124.410156 150.53125 124.410156 C 148.570312 124.457031 146.605469 124.175781 144.640625 123.613281 C 144.453125 123.566406 144.269531 123.472656 144.082031 123.425781 C 141.042969 122.304688 138.28125 120.480469 135.992188 118.1875 C 131.925781 114.304688 128.980469 109.25 127.25 103.777344 L 127.015625 103.074219 L 126.59375 103.074219 C 124.675781 101.953125 122.808594 100.640625 121.265625 99.003906 C 119.675781 97.320312 118.363281 95.355469 117.523438 93.15625 C 116.636719 91.003906 116.308594 88.617188 116.261719 86.230469 C 116.214844 85.0625 116.355469 83.84375 116.402344 82.675781 C 116.449219 81.742188 117.148438 81.132812 118.039062 80.851562 C 119.160156 83.191406 120.28125 85.578125 121.3125 88.007812 L 122.011719 89.648438 L 122.480469 87.914062 C 124.582031 79.820312 129.492188 72.523438 136.179688 67.75 C 139.5 65.367188 143.238281 63.632812 147.214844 62.558594 C 151.09375 61.527344 155.113281 61.25 159.089844 61.574219 C 161.613281 62.605469 164 64.007812 166.101562 65.691406 C 168.253906 67.425781 170.171875 69.53125 171.714844 71.820312 C 174.796875 76.453125 176.433594 82.066406 176.339844 87.683594 L 176.109375 101.25 L 179.007812 88.054688 C 179.613281 85.34375 181.109375 82.863281 183.214844 81.039062 C 183.308594 81.085938 183.402344 81.179688 183.496094 81.367188 C 183.589844 81.554688 183.730469 81.742188 183.777344 81.972656 C 183.824219 82.207031 183.917969 82.488281 183.960938 82.722656 L 183.960938 82.816406 C 184.054688 83.800781 184.242188 84.828125 184.335938 85.8125 C 184.335938 86.933594 184.476562 87.960938 184.382812 88.992188 Z M 184.382812 88.992188 " fill-opacity="1" fill-rule="nonzero"/><path fill="#ab6642" d="M 184.195312 66.628906 C 184.289062 70.605469 183.777344 74.722656 182.980469 78.652344 C 182.980469 78.652344 182.980469 78.652344 182.933594 78.652344 L 182.511719 78.605469 L 182.140625 78.886719 C 180.878906 79.820312 179.753906 80.992188 178.773438 82.300781 C 178.210938 77.996094 176.667969 73.832031 174.285156 70.136719 C 170.871094 64.898438 165.726562 60.828125 159.882812 58.675781 L 159.648438 58.582031 L 159.464844 58.582031 C 155.019531 58.253906 150.578125 58.675781 146.324219 59.890625 C 142.070312 61.109375 138.050781 63.121094 134.589844 65.832031 C 132.8125 67.191406 131.222656 68.6875 129.773438 70.324219 C 128.324219 72.007812 127.015625 73.738281 125.941406 75.660156 C 123.976562 78.933594 122.527344 82.441406 121.589844 86.089844 C 120.703125 84.265625 119.816406 82.488281 118.878906 80.664062 C 118.738281 80.335938 118.597656 80.054688 118.457031 79.730469 C 118.085938 78.839844 117.757812 77.949219 117.429688 77.015625 C 116.214844 73.367188 115.605469 69.484375 115.558594 65.691406 C 115.511719 61.855469 116.121094 58.066406 117.382812 54.511719 C 118.691406 51.003906 120.5625 47.679688 123.039062 44.828125 C 127.902344 39.070312 134.589844 34.675781 141.882812 33.738281 C 145.484375 33.316406 149.175781 33.738281 152.589844 35.046875 C 155.957031 36.40625 159.089844 38.511719 161.660156 41.175781 L 162.222656 41.738281 L 162.96875 41.644531 C 167.085938 41.082031 171.433594 41.503906 174.796875 43.796875 C 176.480469 44.96875 177.929688 46.464844 179.148438 48.148438 C 180.363281 49.878906 181.25 51.796875 182.046875 53.808594 C 183.496094 57.878906 184.148438 62.277344 184.195312 66.628906 Z M 184.195312 66.628906 " fill-opacity="1" fill-rule="nonzero"/><path fill="#f6d356" d="M 210.519531 205.816406 C 208.183594 220.269531 205.375 234.585938 202.664062 248.949219 L 200.65625 259.710938 L 200.140625 262.425781 L 199.90625 263.78125 L 199.765625 264.484375 C 199.71875 264.671875 199.71875 264.8125 199.671875 264.953125 C 199.296875 266.214844 198.082031 267.148438 196.773438 267.195312 C 192.941406 267.195312 189.011719 267.195312 185.085938 267.195312 C 187.890625 254.238281 191.304688 235.382812 190.042969 225.605469 C 188.265625 211.804688 112.101562 204.363281 93.679688 202.773438 C 93.914062 202.585938 94.097656 202.445312 94.378906 202.351562 C 94.660156 202.210938 94.941406 202.117188 95.269531 202.070312 C 95.410156 202.023438 95.546875 202.070312 95.734375 202.023438 L 99.195312 202.023438 L 104.664062 202.070312 L 126.59375 202.117188 C 141.183594 202.070312 155.816406 201.929688 170.402344 201.511719 L 192.332031 200.949219 C 195.980469 200.855469 199.625 200.855469 203.273438 200.761719 L 206.03125 200.714844 C 206.917969 200.667969 207.808594 200.855469 208.554688 201.324219 C 209.910156 202.210938 210.800781 204.035156 210.519531 205.816406 Z M 210.519531 205.816406 " fill-opacity="0.698" fill-rule="nonzero"/><path fill="#f6d356" d="M 60.25 178.679688 C 54.871094 178.632812 49.496094 178.585938 44.164062 178.492188 L 44.210938 173.4375 C 49.820312 173.53125 55.480469 173.625 61.089844 173.671875 C 59.78125 175.171875 59.6875 176.902344 60.25 178.679688 Z M 60.25 178.679688 " fill-opacity="0.698" fill-rule="nonzero"/><path fill="#f6d356" d="M 67.542969 187.335938 C 59.734375 187.335938 51.878906 187.242188 44.070312 187.101562 L 44.164062 179.894531 C 49.679688 179.800781 55.246094 179.753906 60.761719 179.707031 C 62.070312 182.515625 64.96875 185.277344 67.542969 187.335938 Z M 67.542969 187.335938 " fill-opacity="0.698" fill-rule="nonzero"/><g clip-path="url(#215d8f9d0e)"><path fill="#f6d356" d="M 259.144531 169.230469 C 259.144531 170.257812 259.144531 171.242188 259.144531 172.269531 C 238.105469 159.449219 120.515625 166.75 80.121094 168.667969 C 72.546875 169.042969 67.542969 170.023438 64.410156 171.425781 C 57.675781 171.519531 50.992188 171.613281 44.257812 171.707031 L 44.257812 168.902344 C 44.304688 167.964844 44.679688 167.125 45.144531 166.375 C 46.175781 164.878906 47.90625 163.988281 49.773438 164.035156 L 80.304688 164.269531 C 100.691406 164.457031 121.03125 164.503906 141.414062 164.316406 C 161.800781 164.269531 182.140625 163.847656 202.523438 163.195312 L 233.054688 162.351562 L 248.34375 162.070312 C 250.871094 162.117188 253.535156 161.648438 255.640625 163.101562 C 257.742188 164.363281 259.097656 166.75 259.144531 169.230469 Z M 259.144531 169.230469 " fill-opacity="0.698" fill-rule="nonzero"/></g><path fill="#f6d356" d="M 216.175781 153.507812 C 196.867188 145.039062 160.257812 132.828125 116.683594 141.015625 C 106.253906 142.980469 96.859375 145.835938 88.582031 149.0625 C 88.628906 149.015625 88.675781 148.925781 88.769531 148.878906 C 89.703125 147.988281 90.5 147.050781 91.527344 146.304688 L 92.976562 145.085938 L 94.566406 144.058594 C 98.820312 141.296875 103.542969 139.332031 108.359375 137.695312 C 113.222656 136.105469 118.179688 134.886719 123.226562 133.90625 C 128.089844 133.015625 133 132.457031 137.910156 132.082031 C 141.460938 134.839844 145.949219 136.386719 150.484375 136.386719 C 155.019531 136.433594 159.511719 134.792969 163.0625 132.035156 C 168.019531 132.457031 172.976562 132.96875 177.882812 133.765625 C 182.980469 134.703125 187.984375 135.871094 192.894531 137.460938 C 197.800781 139.003906 202.570312 141.015625 206.917969 143.777344 L 208.507812 144.808594 L 210.003906 145.976562 C 211.082031 146.726562 211.921875 147.707031 212.859375 148.550781 C 214.261719 150.09375 215.382812 151.730469 216.175781 153.507812 Z M 216.175781 153.507812 " fill-opacity="0.698" fill-rule="nonzero"/></svg>