<svg xmlns="http://www.w3.org/2000/svg" xmlns:xlink="http://www.w3.org/1999/xlink" width="400" zoomAndPan="magnify" viewBox="0 0 300 299.999988" height="400" preserveAspectRatio="xMidYMid meet" version="1.0"><defs><clipPath id="af533b45c8"><path d="M 38 153 L 47 153 L 47 234.898438 L 38 234.898438 Z M 38 153 " clip-rule="nonzero"/></clipPath><clipPath id="9ca219cb27"><path d="M 41 153 L 47 153 L 47 234.898438 L 41 234.898438 Z M 41 153 " clip-rule="nonzero"/></clipPath><clipPath id="e36abad21e"><path d="M 141.070312 88.230469 L 166 88.230469 L 166 106.21875 L 141.070312 106.21875 Z M 141.070312 88.230469 " clip-rule="nonzero"/></clipPath><clipPath id="bf52e51acd"><path d="M 162.597656 95.203125 C 161.21875 94.46875 159.386719 91.804688 158.101562 90.609375 C 157.230469 89.796875 155.902344 88.222656 154.710938 88.3125 C 153.515625 88.40625 152.972656 88.910156 152.417969 88.957031 C 150.765625 89.09375 145.867188 90.445312 144.636719 91.113281 C 142.582031 92.226562 140.160156 99.496094 141.5 100.328125 C 143.226562 101.402344 144.691406 95.28125 145.636719 94.847656 C 147.117188 94.160156 150.996094 93.71875 152.050781 94.285156 C 153.242188 94.929688 153.929688 98.949219 153.308594 99.429688 L 158.5625 105.035156 C 159.476562 105.21875 161.953125 106.183594 161.953125 106.183594 L 165.988281 96.671875 C 165.988281 96.671875 163.972656 95.9375 162.597656 95.203125 Z M 162.597656 95.203125 " clip-rule="nonzero"/></clipPath><clipPath id="cbf56ad57e"><path d="M 162.597656 95.203125 C 161.21875 94.46875 159.386719 91.804688 158.101562 90.609375 C 157.226562 89.796875 155.902344 88.222656 154.707031 88.3125 C 153.515625 88.40625 152.972656 88.910156 152.414062 88.957031 C 150.765625 89.09375 145.867188 90.445312 144.636719 91.113281 C 142.582031 92.226562 140.160156 99.496094 141.5 100.328125 C 143.226562 101.402344 144.691406 95.28125 145.632812 94.847656 C 147.117188 94.160156 150.996094 93.71875 152.046875 94.285156 C 153.242188 94.929688 153.929688 98.949219 153.308594 99.429688 L 158.558594 105.035156 C 159.476562 105.21875 161.953125 106.183594 161.953125 106.183594 L 165.988281 96.675781 C 165.988281 96.675781 163.972656 95.9375 162.597656 95.203125 " clip-rule="nonzero"/></clipPath><clipPath id="599e3ac841"><path d="M 144.652344 78.414062 L 133.367188 103.058594 L 161.496094 115.988281 L 172.785156 91.347656 Z M 144.652344 78.414062 " clip-rule="nonzero"/></clipPath><linearGradient x1="-0.151904" gradientTransform="matrix(23.134284, 10.633781, -10.614666, 23.175944, 143.541977, 92.126746)" y1="0" x2="1.031419" gradientUnits="userSpaceOnUse" y2="0" id="c128374b66"><stop stop-opacity="1" stop-color="rgb(97.599792%, 65.899658%, 62.69989%)" offset="0"/><stop stop-opacity="1" stop-color="rgb(97.599792%, 65.899658%, 62.69989%)" offset="0.125"/><stop stop-opacity="1" stop-color="rgb(97.599792%, 65.815735%, 62.69989%)" offset="0.1875"/><stop stop-opacity="1" stop-color="rgb(97.541809%, 65.615845%, 62.641907%)" offset="0.21875"/><stop stop-opacity="1" stop-color="rgb(97.392273%, 65.432739%, 62.492371%)" offset="0.234375"/><stop stop-opacity="1" stop-color="rgb(97.299194%, 65.232849%, 62.399292%)" offset="0.25"/><stop stop-opacity="1" stop-color="rgb(97.299194%, 64.981079%, 62.399292%)" offset="0.265625"/><stop stop-opacity="1" stop-color="rgb(97.299194%, 64.732361%, 62.399292%)" offset="0.28125"/><stop stop-opacity="1" stop-color="rgb(97.299194%, 64.450073%, 62.399292%)" offset="0.3125"/><stop stop-opacity="1" stop-color="rgb(97.299194%, 64.265442%, 62.365723%)" offset="0.328125"/><stop stop-opacity="1" stop-color="rgb(97.299194%, 64.065552%, 62.165833%)" offset="0.34375"/><stop stop-opacity="1" stop-color="rgb(97.299194%, 63.874817%, 61.999512%)" offset="0.359375"/><stop stop-opacity="1" stop-color="rgb(97.299194%, 63.659668%, 61.999512%)" offset="0.375"/><stop stop-opacity="1" stop-color="rgb(97.299194%, 63.284302%, 61.999512%)" offset="0.390625"/><stop stop-opacity="1" stop-color="rgb(97.299194%, 63.075256%, 61.975098%)" offset="0.398437"/><stop stop-opacity="1" stop-color="rgb(97.299194%, 62.875366%, 61.775208%)" offset="0.40625"/><stop stop-opacity="1" stop-color="rgb(97.299194%, 62.548828%, 61.599731%)" offset="0.4375"/><stop stop-opacity="1" stop-color="rgb(97.299194%, 62.207031%, 61.599731%)" offset="0.46875"/><stop stop-opacity="1" stop-color="rgb(97.299194%, 61.825562%, 61.599731%)" offset="0.484375"/><stop stop-opacity="1" stop-color="rgb(97.299194%, 61.616516%, 61.444092%)" offset="0.492188"/><stop stop-opacity="1" stop-color="rgb(97.299194%, 61.454773%, 61.244202%)" offset="0.5"/><stop stop-opacity="1" stop-color="rgb(97.299194%, 61.254883%, 61.199951%)" offset="0.507812"/><stop stop-opacity="1" stop-color="rgb(97.299194%, 61.048889%, 61.199951%)" offset="0.515625"/><stop stop-opacity="1" stop-color="rgb(97.299194%, 60.778809%, 61.199951%)" offset="0.523438"/><stop stop-opacity="1" stop-color="rgb(97.299194%, 60.56366%, 61.199951%)" offset="0.53125"/><stop stop-opacity="1" stop-color="rgb(97.143555%, 60.43396%, 61.199951%)" offset="0.546875"/><stop stop-opacity="1" stop-color="rgb(96.943665%, 60.284424%, 61.08551%)" offset="0.554688"/><stop stop-opacity="1" stop-color="rgb(96.899414%, 60.084534%, 60.884094%)" offset="0.5625"/><stop stop-opacity="1" stop-color="rgb(96.899414%, 59.893799%, 60.798645%)" offset="0.570313"/><stop stop-opacity="1" stop-color="rgb(96.899414%, 59.597778%, 60.798645%)" offset="0.578125"/><stop stop-opacity="1" stop-color="rgb(96.899414%, 59.217834%, 60.713196%)" offset="0.59375"/><stop stop-opacity="1" stop-color="rgb(96.899414%, 58.851624%, 60.452271%)" offset="0.625"/><stop stop-opacity="1" stop-color="rgb(96.899414%, 58.480835%, 60.137939%)" offset="0.628906"/><stop stop-opacity="1" stop-color="rgb(96.899414%, 58.283997%, 59.999084%)" offset="0.632812"/><stop stop-opacity="1" stop-color="rgb(96.899414%, 58.140564%, 59.999084%)" offset="0.640625"/><stop stop-opacity="1" stop-color="rgb(96.899414%, 57.9422%, 59.999084%)" offset="0.648438"/><stop stop-opacity="1" stop-color="rgb(96.899414%, 57.74231%, 59.999084%)" offset="0.65625"/><stop stop-opacity="1" stop-color="rgb(96.899414%, 57.513428%, 59.999084%)" offset="0.671875"/><stop stop-opacity="1" stop-color="rgb(96.899414%, 57.363892%, 59.980774%)" offset="0.679688"/><stop stop-opacity="1" stop-color="rgb(96.899414%, 57.267761%, 59.780884%)" offset="0.6875"/><stop stop-opacity="1" stop-color="rgb(96.899414%, 57.05719%, 59.599304%)" offset="0.703125"/><stop stop-opacity="1" stop-color="rgb(96.899414%, 56.687927%, 59.599304%)" offset="0.71875"/><stop stop-opacity="1" stop-color="rgb(96.899414%, 56.298828%, 59.399414%)" offset="0.722656"/><stop stop-opacity="1" stop-color="rgb(96.899414%, 56.098938%, 59.199524%)" offset="0.726562"/><stop stop-opacity="1" stop-color="rgb(96.899414%, 56.098938%, 59.199524%)" offset="0.734375"/><stop stop-opacity="1" stop-color="rgb(96.899414%, 55.912781%, 59.011841%)" offset="0.742188"/><stop stop-opacity="1" stop-color="rgb(96.899414%, 55.535889%, 58.811951%)" offset="0.75"/><stop stop-opacity="1" stop-color="rgb(96.899414%, 55.322266%, 58.799744%)" offset="0.757812"/><stop stop-opacity="1" stop-color="rgb(96.71936%, 55.119324%, 58.799744%)" offset="0.765625"/><stop stop-opacity="1" stop-color="rgb(96.51947%, 54.75769%, 58.799744%)" offset="0.78125"/><stop stop-opacity="1" stop-color="rgb(96.499634%, 54.537964%, 58.647156%)" offset="0.789062"/><stop stop-opacity="1" stop-color="rgb(96.499634%, 54.35791%, 58.447266%)" offset="0.796875"/><stop stop-opacity="1" stop-color="rgb(96.499634%, 54.025269%, 58.399963%)" offset="0.804688"/><stop stop-opacity="1" stop-color="rgb(96.499634%, 53.765869%, 58.399963%)" offset="0.8125"/><stop stop-opacity="1" stop-color="rgb(96.499634%, 53.561401%, 58.399963%)" offset="0.820312"/><stop stop-opacity="1" stop-color="rgb(96.499634%, 53.361511%, 58.399963%)" offset="0.828125"/><stop stop-opacity="1" stop-color="rgb(96.499634%, 53.181458%, 58.282471%)" offset="0.835938"/><stop stop-opacity="1" stop-color="rgb(96.499634%, 52.981567%, 58.081055%)" offset="0.84375"/><stop stop-opacity="1" stop-color="rgb(96.499634%, 52.787781%, 57.998657%)" offset="0.851562"/><stop stop-opacity="1" stop-color="rgb(96.499634%, 52.502441%, 57.998657%)" offset="0.859375"/><stop stop-opacity="1" stop-color="rgb(96.499634%, 52.171326%, 57.998657%)" offset="0.875"/><stop stop-opacity="1" stop-color="rgb(96.499634%, 51.905823%, 57.91626%)" offset="0.882812"/><stop stop-opacity="1" stop-color="rgb(96.499634%, 51.715088%, 57.71637%)" offset="0.890625"/><stop stop-opacity="1" stop-color="rgb(96.499634%, 51.437378%, 57.540894%)" offset="0.90625"/><stop stop-opacity="1" stop-color="rgb(96.499634%, 51.052856%, 57.391357%)" offset="0.914062"/><stop stop-opacity="1" stop-color="rgb(96.499634%, 50.730896%, 57.299805%)" offset="0.921875"/><stop stop-opacity="1" stop-color="rgb(96.499634%, 50.550842%, 57.299805%)" offset="0.929687"/><stop stop-opacity="1" stop-color="rgb(96.455383%, 50.350952%, 57.299805%)" offset="0.9375"/><stop stop-opacity="1" stop-color="rgb(96.255493%, 50.146484%, 57.246399%)" offset="0.945312"/><stop stop-opacity="1" stop-color="rgb(96.099854%, 49.945068%, 57.044983%)" offset="0.953125"/><stop stop-opacity="1" stop-color="rgb(96.099854%, 49.765015%, 56.898499%)" offset="0.960938"/><stop stop-opacity="1" stop-color="rgb(96.099854%, 49.565125%, 56.898499%)" offset="0.96875"/><stop stop-opacity="1" stop-color="rgb(96.099854%, 49.398804%, 56.898499%)" offset="1"/></linearGradient><clipPath id="9c0e92ae61"><path d="M 144.527344 98.234375 L 158.640625 98.234375 L 158.640625 105.0625 L 144.527344 105.0625 Z M 144.527344 98.234375 " clip-rule="nonzero"/></clipPath><clipPath id="74b5e27f22"><path d="M 158.5625 105.035156 C 157 104.851562 151.042969 103.960938 149.023438 103.152344 C 146.730469 102.230469 144.4375 100.164062 144.621094 99.0625 C 145.722656 97.132812 148.601562 99.328125 150.03125 99.570312 C 151.132812 99.753906 153.171875 99.773438 153.722656 98.808594 C 154.355469 97.703125 158.5625 105.035156 158.5625 105.035156 Z M 158.5625 105.035156 " clip-rule="nonzero"/></clipPath><clipPath id="781ff1bc3b"><path d="M 158.5625 105.035156 C 157 104.851562 151.042969 103.960938 149.023438 103.152344 C 146.730469 102.230469 144.4375 100.164062 144.621094 99.0625 C 145.722656 97.132812 148.601562 99.328125 150.03125 99.570312 C 151.132812 99.753906 153.171875 99.773438 153.722656 98.808594 C 154.355469 97.703125 158.5625 105.035156 158.5625 105.035156 " clip-rule="nonzero"/></clipPath><clipPath id="1da1af5af0"><path d="M 146.894531 91.769531 L 141.449219 103.660156 L 156.105469 110.398438 L 161.550781 98.507812 Z M 146.894531 91.769531 " clip-rule="nonzero"/></clipPath><linearGradient x1="0.146813" gradientTransform="matrix(23.784518, 10.932663, -10.913011, 23.82735, 141.2323, 96.200616)" y1="0" x2="0.742388" gradientUnits="userSpaceOnUse" y2="0" id="ba032d2afe"><stop stop-opacity="1" stop-color="rgb(97.299194%, 65.065002%, 62.399292%)" offset="0"/><stop stop-opacity="1" stop-color="rgb(97.299194%, 64.880371%, 62.399292%)" offset="0.0625"/><stop stop-opacity="1" stop-color="rgb(97.299194%, 64.500427%, 62.399292%)" offset="0.09375"/><stop stop-opacity="1" stop-color="rgb(97.299194%, 64.208984%, 62.304688%)" offset="0.125"/><stop stop-opacity="1" stop-color="rgb(97.299194%, 64.004517%, 62.104797%)" offset="0.1875"/><stop stop-opacity="1" stop-color="rgb(97.299194%, 63.729858%, 61.999512%)" offset="0.21875"/><stop stop-opacity="1" stop-color="rgb(97.299194%, 63.529968%, 61.999512%)" offset="0.25"/><stop stop-opacity="1" stop-color="rgb(97.299194%, 63.378906%, 61.999512%)" offset="0.265625"/><stop stop-opacity="1" stop-color="rgb(97.299194%, 63.179016%, 61.999512%)" offset="0.28125"/><stop stop-opacity="1" stop-color="rgb(97.299194%, 62.95166%, 61.851501%)" offset="0.3125"/><stop stop-opacity="1" stop-color="rgb(97.299194%, 62.643433%, 61.651611%)" offset="0.34375"/><stop stop-opacity="1" stop-color="rgb(97.299194%, 62.442017%, 61.599731%)" offset="0.375"/><stop stop-opacity="1" stop-color="rgb(97.299194%, 62.269592%, 61.599731%)" offset="0.40625"/><stop stop-opacity="1" stop-color="rgb(97.299194%, 62.069702%, 61.599731%)" offset="0.4375"/><stop stop-opacity="1" stop-color="rgb(97.299194%, 61.959839%, 61.599731%)" offset="0.453125"/><stop stop-opacity="1" stop-color="rgb(97.299194%, 61.759949%, 61.561584%)" offset="0.46875"/><stop stop-opacity="1" stop-color="rgb(97.299194%, 61.572266%, 61.361694%)" offset="0.484375"/><stop stop-opacity="1" stop-color="rgb(97.299194%, 61.372375%, 61.199951%)" offset="0.5"/><stop stop-opacity="1" stop-color="rgb(97.299194%, 61.183167%, 61.199951%)" offset="0.515625"/><stop stop-opacity="1" stop-color="rgb(97.299194%, 60.977173%, 61.199951%)" offset="0.53125"/><stop stop-opacity="1" stop-color="rgb(97.299194%, 60.592651%, 61.199951%)" offset="0.5625"/><stop stop-opacity="1" stop-color="rgb(97.114563%, 60.398865%, 61.013794%)" offset="0.59375"/><stop stop-opacity="1" stop-color="rgb(96.914673%, 60.224915%, 60.813904%)" offset="0.609375"/><stop stop-opacity="1" stop-color="rgb(96.899414%, 59.861755%, 60.798645%)" offset="0.625"/><stop stop-opacity="1" stop-color="rgb(96.899414%, 59.481812%, 60.798645%)" offset="0.65625"/><stop stop-opacity="1" stop-color="rgb(96.899414%, 59.2453%, 60.656738%)" offset="0.671875"/><stop stop-opacity="1" stop-color="rgb(96.899414%, 59.130859%, 60.456848%)" offset="0.6875"/><stop stop-opacity="1" stop-color="rgb(96.899414%, 58.930969%, 60.398865%)" offset="0.71875"/><stop stop-opacity="1" stop-color="rgb(96.899414%, 58.676147%, 60.275269%)" offset="0.734375"/><stop stop-opacity="1" stop-color="rgb(96.899414%, 58.476257%, 60.075378%)" offset="0.75"/><stop stop-opacity="1" stop-color="rgb(96.899414%, 58.291626%, 59.999084%)" offset="0.765625"/><stop stop-opacity="1" stop-color="rgb(96.899414%, 58.091736%, 59.999084%)" offset="0.78125"/><stop stop-opacity="1" stop-color="rgb(96.899414%, 57.90863%, 59.999084%)" offset="0.796875"/><stop stop-opacity="1" stop-color="rgb(96.899414%, 57.70874%, 59.999084%)" offset="0.8125"/><stop stop-opacity="1" stop-color="rgb(96.899414%, 57.571411%, 59.962463%)" offset="0.84375"/><stop stop-opacity="1" stop-color="rgb(96.899414%, 57.362366%, 59.762573%)" offset="0.875"/><stop stop-opacity="1" stop-color="rgb(96.899414%, 56.988525%, 59.599304%)" offset="0.90625"/><stop stop-opacity="1" stop-color="rgb(96.899414%, 56.610107%, 59.599304%)" offset="0.921875"/><stop stop-opacity="1" stop-color="rgb(96.899414%, 56.260681%, 59.568787%)" offset="0.9375"/><stop stop-opacity="1" stop-color="rgb(96.899414%, 56.069946%, 59.368896%)" offset="0.953125"/><stop stop-opacity="1" stop-color="rgb(96.899414%, 55.870056%, 59.179688%)" offset="0.96875"/><stop stop-opacity="1" stop-color="rgb(96.899414%, 55.679321%, 58.979797%)" offset="0.984375"/><stop stop-opacity="1" stop-color="rgb(96.899414%, 55.479431%, 58.799744%)" offset="1"/></linearGradient><clipPath id="40e86bd312"><path d="M 160 132 L 233 132 L 233 234.898438 L 160 234.898438 Z M 160 132 " clip-rule="nonzero"/></clipPath><clipPath id="584e767134"><path d="M 176 132 L 233 132 L 233 234.898438 L 176 234.898438 Z M 176 132 " clip-rule="nonzero"/></clipPath><clipPath id="8d3a15c5ba"><path d="M 101.792969 100.0625 L 124.558594 100.0625 L 124.558594 128.09375 L 101.792969 128.09375 Z M 101.792969 100.0625 " clip-rule="nonzero"/></clipPath><clipPath id="b3737140f1"><path d="M 102.617188 128.09375 C 102.617188 128.09375 102.480469 124.097656 102.34375 119.964844 C 102.203125 115.828125 101.792969 112.660156 101.792969 109.214844 C 101.792969 105.769531 102.34375 101.496094 104.132812 101.359375 C 105.917969 101.222656 105.644531 103.152344 105.644531 103.152344 C 105.644531 103.152344 106.609375 100.257812 108.535156 100.121094 C 110.460938 99.980469 110.597656 102.1875 110.597656 102.1875 C 110.597656 102.1875 111.421875 100.53125 113.347656 100.53125 C 115.273438 100.53125 116.203125 103.839844 116.203125 103.839844 L 114.585938 103.839844 C 114.585938 103.839844 113.65625 106.425781 113.796875 108.765625 C 113.933594 111.109375 114.691406 112.492188 115.925781 112.660156 C 117.679688 112.902344 117.746094 111.332031 120.515625 110.164062 C 123.289062 108.996094 124.59375 109.957031 124.546875 110.5625 C 124.460938 111.699219 122.726562 112.167969 120.664062 114.417969 C 119.796875 115.363281 118.972656 116.894531 117.679688 118 C 116.390625 119.105469 115.101562 119.636719 114.929688 120.207031 C 114.585938 121.34375 115.6875 127.40625 115.6875 127.40625 Z M 102.617188 128.09375 " clip-rule="nonzero"/></clipPath><clipPath id="ab9a39a1e0"><path d="M 102.617188 128.09375 C 102.617188 128.09375 102.480469 124.097656 102.34375 119.964844 C 102.203125 115.828125 101.792969 112.660156 101.792969 109.214844 C 101.792969 105.769531 102.34375 101.496094 104.132812 101.359375 C 105.917969 101.222656 105.644531 103.152344 105.644531 103.152344 C 105.644531 103.152344 106.609375 100.257812 108.535156 100.121094 C 110.460938 99.980469 110.597656 102.1875 110.597656 102.1875 C 110.597656 102.1875 111.421875 100.53125 113.347656 100.53125 C 115.273438 100.53125 116.203125 103.839844 116.203125 103.839844 L 114.585938 103.839844 C 114.585938 103.839844 113.65625 106.425781 113.796875 108.765625 C 113.933594 111.109375 114.691406 112.492188 115.925781 112.660156 C 117.679688 112.902344 117.746094 111.332031 120.515625 110.164062 C 123.289062 108.996094 124.59375 109.957031 124.546875 110.5625 C 124.460938 111.699219 122.726562 112.167969 120.664062 114.417969 C 119.796875 115.363281 118.972656 116.894531 117.679688 118 C 116.390625 119.105469 115.101562 119.636719 114.929688 120.207031 C 114.585938 121.34375 115.6875 127.40625 115.6875 127.40625 L 102.617188 128.09375 " clip-rule="nonzero"/></clipPath><linearGradient x1="0.0171926" gradientTransform="matrix(0.000000000000001754, 28.698241, -28.646653, 0.000000000000001757, 113.171403, 99.568306)" y1="0" x2="0.994023" gradientUnits="userSpaceOnUse" y2="0" id="c58f832d07"><stop stop-opacity="1" stop-color="rgb(97.599792%, 65.899658%, 62.69989%)" offset="0"/><stop stop-opacity="1" stop-color="rgb(97.599792%, 65.899658%, 62.69989%)" offset="0.03125"/><stop stop-opacity="1" stop-color="rgb(97.599792%, 65.861511%, 62.69989%)" offset="0.046875"/><stop stop-opacity="1" stop-color="rgb(97.599792%, 65.661621%, 62.69989%)" offset="0.0625"/><stop stop-opacity="1" stop-color="rgb(97.58606%, 65.481567%, 62.686157%)" offset="0.09375"/><stop stop-opacity="1" stop-color="rgb(97.497559%, 65.364075%, 62.597656%)" offset="0.109375"/><stop stop-opacity="1" stop-color="rgb(97.360229%, 65.162659%, 62.460327%)" offset="0.125"/><stop stop-opacity="1" stop-color="rgb(97.299194%, 64.961243%, 62.399292%)" offset="0.140625"/><stop stop-opacity="1" stop-color="rgb(97.299194%, 64.761353%, 62.399292%)" offset="0.15625"/><stop stop-opacity="1" stop-color="rgb(97.299194%, 64.480591%, 62.399292%)" offset="0.1875"/><stop stop-opacity="1" stop-color="rgb(97.299194%, 64.268494%, 62.368774%)" offset="0.21875"/><stop stop-opacity="1" stop-color="rgb(97.299194%, 64.068604%, 62.168884%)" offset="0.234375"/><stop stop-opacity="1" stop-color="rgb(97.299194%, 63.868713%, 61.999512%)" offset="0.25"/><stop stop-opacity="1" stop-color="rgb(97.299194%, 63.668823%, 61.999512%)" offset="0.265625"/><stop stop-opacity="1" stop-color="rgb(97.299194%, 63.465881%, 61.999512%)" offset="0.28125"/><stop stop-opacity="1" stop-color="rgb(97.299194%, 63.25531%, 61.987305%)" offset="0.3125"/><stop stop-opacity="1" stop-color="rgb(97.299194%, 62.976074%, 61.875916%)" offset="0.328125"/><stop stop-opacity="1" stop-color="rgb(97.299194%, 62.77771%, 61.686707%)" offset="0.34375"/><stop stop-opacity="1" stop-color="rgb(97.299194%, 62.527466%, 61.599731%)" offset="0.375"/><stop stop-opacity="1" stop-color="rgb(97.299194%, 62.272644%, 61.599731%)" offset="0.390625"/><stop stop-opacity="1" stop-color="rgb(97.299194%, 62.057495%, 61.599731%)" offset="0.40625"/><stop stop-opacity="1" stop-color="rgb(97.299194%, 61.749268%, 61.576843%)" offset="0.421875"/><stop stop-opacity="1" stop-color="rgb(97.299194%, 61.457825%, 61.457825%)" offset="0.429688"/><stop stop-opacity="1" stop-color="rgb(97.299194%, 61.260986%, 61.279297%)" offset="0.4375"/><stop stop-opacity="1" stop-color="rgb(97.288513%, 60.971069%, 61.18927%)" offset="0.46875"/><stop stop-opacity="1" stop-color="rgb(97.17865%, 60.679626%, 61.079407%)" offset="0.484375"/><stop stop-opacity="1" stop-color="rgb(96.989441%, 60.467529%, 60.888672%)" offset="0.5"/><stop stop-opacity="1" stop-color="rgb(96.899414%, 60.162354%, 60.798645%)" offset="0.515625"/><stop stop-opacity="1" stop-color="rgb(96.899414%, 59.863281%, 60.798645%)" offset="0.523438"/><stop stop-opacity="1" stop-color="rgb(96.899414%, 59.657288%, 60.775757%)" offset="0.53125"/><stop stop-opacity="1" stop-color="rgb(96.899414%, 59.359741%, 60.575867%)" offset="0.546875"/><stop stop-opacity="1" stop-color="rgb(96.899414%, 58.981323%, 60.398865%)" offset="0.5625"/><stop stop-opacity="1" stop-color="rgb(96.899414%, 58.779907%, 60.379028%)" offset="0.578125"/><stop stop-opacity="1" stop-color="rgb(96.899414%, 58.566284%, 60.179138%)" offset="0.59375"/><stop stop-opacity="1" stop-color="rgb(96.899414%, 58.265686%, 59.999084%)" offset="0.601562"/><stop stop-opacity="1" stop-color="rgb(96.899414%, 58.059692%, 59.999084%)" offset="0.609375"/><stop stop-opacity="1" stop-color="rgb(96.899414%, 57.771301%, 59.999084%)" offset="0.625"/><stop stop-opacity="1" stop-color="rgb(96.899414%, 57.424927%, 59.980774%)" offset="0.65625"/><stop stop-opacity="1" stop-color="rgb(96.899414%, 57.073975%, 59.780884%)" offset="0.6875"/><stop stop-opacity="1" stop-color="rgb(96.899414%, 56.781006%, 59.599304%)" offset="0.695313"/><stop stop-opacity="1" stop-color="rgb(96.899414%, 56.573486%, 59.585571%)" offset="0.703125"/><stop stop-opacity="1" stop-color="rgb(96.899414%, 56.27594%, 59.376526%)" offset="0.71875"/><stop stop-opacity="1" stop-color="rgb(96.899414%, 55.976868%, 59.077454%)" offset="0.726562"/><stop stop-opacity="1" stop-color="rgb(96.899414%, 55.769348%, 58.886719%)" offset="0.734375"/><stop stop-opacity="1" stop-color="rgb(96.888733%, 55.471802%, 58.799744%)" offset="0.75"/><stop stop-opacity="1" stop-color="rgb(96.688843%, 55.082703%, 58.799744%)" offset="0.765625"/><stop stop-opacity="1" stop-color="rgb(96.499634%, 54.785156%, 58.799744%)" offset="0.773438"/><stop stop-opacity="1" stop-color="rgb(96.499634%, 54.577637%, 58.787537%)" offset="0.78125"/><stop stop-opacity="1" stop-color="rgb(96.499634%, 54.28009%, 58.587646%)" offset="0.796875"/><stop stop-opacity="1" stop-color="rgb(96.499634%, 53.889465%, 58.399963%)" offset="0.8125"/><stop stop-opacity="1" stop-color="rgb(96.499634%, 53.591919%, 58.399963%)" offset="0.820313"/><stop stop-opacity="1" stop-color="rgb(96.499634%, 53.384399%, 58.399963%)" offset="0.828125"/><stop stop-opacity="1" stop-color="rgb(96.499634%, 53.086853%, 58.395386%)" offset="0.84375"/><stop stop-opacity="1" stop-color="rgb(96.499634%, 52.787781%, 58.288574%)" offset="0.851562"/><stop stop-opacity="1" stop-color="rgb(96.499634%, 52.590942%, 58.091736%)" offset="0.859375"/><stop stop-opacity="1" stop-color="rgb(96.499634%, 52.494812%, 57.998657%)" offset="0.875"/><stop stop-opacity="1" stop-color="rgb(96.499634%, 52.345276%, 57.998657%)" offset="0.890625"/><stop stop-opacity="1" stop-color="rgb(96.499634%, 52.095032%, 57.894897%)" offset="0.898438"/><stop stop-opacity="1" stop-color="rgb(96.499634%, 51.887512%, 57.695007%)" offset="0.90625"/><stop stop-opacity="1" stop-color="rgb(96.499634%, 51.589966%, 57.597351%)" offset="0.921875"/><stop stop-opacity="1" stop-color="rgb(96.499634%, 51.200867%, 57.449341%)" offset="0.9375"/><stop stop-opacity="1" stop-color="rgb(96.499634%, 50.901794%, 57.301331%)" offset="0.945313"/><stop stop-opacity="1" stop-color="rgb(96.499634%, 50.695801%, 57.299805%)" offset="0.953125"/><stop stop-opacity="1" stop-color="rgb(96.499634%, 50.396729%, 57.299805%)" offset="0.96875"/><stop stop-opacity="1" stop-color="rgb(96.3974%, 50.099182%, 57.197571%)" offset="0.976562"/><stop stop-opacity="1" stop-color="rgb(96.19751%, 49.891663%, 56.996155%)" offset="0.984375"/><stop stop-opacity="1" stop-color="rgb(96.099854%, 49.59259%, 56.898499%)" offset="1"/></linearGradient><clipPath id="eb79f100d7"><path d="M 176.214844 103.382812 L 208.851562 103.382812 L 208.851562 145.839844 L 176.214844 145.839844 Z M 176.214844 103.382812 " clip-rule="nonzero"/></clipPath><clipPath id="2452e814d6"><path d="M 180.800781 113.4375 C 180.800781 113.4375 179.210938 124.605469 179.792969 130.300781 C 182.0625 131.609375 183.023438 135.8125 181.71875 138.429688 C 180.269531 141.332031 176.214844 142.703125 176.214844 142.703125 C 176.214844 142.703125 179.792969 143.53125 188.046875 145.320312 C 192.28125 146.242188 199.898438 145.867188 204.417969 143.117188 C 209.550781 139.992188 209.519531 133.742188 207.511719 132.644531 C 205.996094 132.644531 204.507812 131.632812 204.507812 131.632812 C 204.507812 131.632812 201.320312 127.703125 203.796875 121.777344 L 183.953125 103.382812 Z M 180.800781 113.4375 " clip-rule="nonzero"/></clipPath><clipPath id="a62c0838be"><path d="M 180.800781 113.4375 C 180.800781 113.4375 179.210938 124.605469 179.792969 130.300781 C 182.0625 131.609375 183.023438 135.8125 181.71875 138.429688 C 180.269531 141.332031 176.214844 142.703125 176.214844 142.703125 C 176.214844 142.703125 179.792969 143.53125 188.046875 145.320312 C 192.28125 146.242188 199.898438 145.867188 204.417969 143.117188 C 209.550781 139.992188 209.519531 133.742188 207.511719 132.644531 C 205.996094 132.644531 204.507812 131.632812 204.507812 131.632812 C 204.507812 131.632812 201.320312 127.703125 203.796875 121.777344 L 183.953125 103.382812 L 180.800781 113.4375 " clip-rule="nonzero"/></clipPath><linearGradient x1="0.325542" gradientTransform="matrix(0.000000000000002576, -42.152349, 42.076578, 0.000000000000002581, 192.492738, 159.563651)" y1="0" x2="1.332805" gradientUnits="userSpaceOnUse" y2="0" id="f3e9253f11"><stop stop-opacity="1" stop-color="rgb(97.299194%, 60.964966%, 61.199951%)" offset="0"/><stop stop-opacity="1" stop-color="rgb(97.299194%, 60.835266%, 61.199951%)" offset="0.015625"/><stop stop-opacity="1" stop-color="rgb(97.259521%, 60.552979%, 61.199951%)" offset="0.0234375"/><stop stop-opacity="1" stop-color="rgb(97.059631%, 60.365295%, 61.166382%)" offset="0.03125"/><stop stop-opacity="1" stop-color="rgb(96.899414%, 60.145569%, 60.964966%)" offset="0.046875"/><stop stop-opacity="1" stop-color="rgb(96.899414%, 59.779358%, 60.798645%)" offset="0.0625"/><stop stop-opacity="1" stop-color="rgb(96.899414%, 59.599304%, 60.798645%)" offset="0.078125"/><stop stop-opacity="1" stop-color="rgb(96.899414%, 59.587097%, 60.798645%)" offset="0.0859375"/><stop stop-opacity="1" stop-color="rgb(96.899414%, 59.379578%, 60.792542%)" offset="0.09375"/><stop stop-opacity="1" stop-color="rgb(96.899414%, 58.992004%, 60.592651%)" offset="0.125"/><stop stop-opacity="1" stop-color="rgb(96.899414%, 58.799744%, 60.398865%)" offset="0.132812"/><stop stop-opacity="1" stop-color="rgb(96.899414%, 58.599854%, 60.198975%)" offset="0.136719"/><stop stop-opacity="1" stop-color="rgb(96.899414%, 58.399963%, 59.999084%)" offset="0.140625"/><stop stop-opacity="1" stop-color="rgb(96.899414%, 58.389282%, 59.999084%)" offset="0.148437"/><stop stop-opacity="1" stop-color="rgb(96.899414%, 58.187866%, 59.999084%)" offset="0.15625"/><stop stop-opacity="1" stop-color="rgb(96.899414%, 57.904053%, 59.999084%)" offset="0.171875"/><stop stop-opacity="1" stop-color="rgb(96.899414%, 57.704163%, 59.999084%)" offset="0.1875"/><stop stop-opacity="1" stop-color="rgb(96.899414%, 57.45697%, 59.809875%)" offset="0.203125"/><stop stop-opacity="1" stop-color="rgb(96.899414%, 57.21283%, 59.609985%)" offset="0.21875"/><stop stop-opacity="1" stop-color="rgb(96.899414%, 57.00531%, 59.599304%)" offset="0.234375"/><stop stop-opacity="1" stop-color="rgb(96.899414%, 56.723022%, 59.599304%)" offset="0.25"/><stop stop-opacity="1" stop-color="rgb(96.899414%, 56.437683%, 59.512329%)" offset="0.265625"/><stop stop-opacity="1" stop-color="rgb(96.899414%, 56.211853%, 59.312439%)" offset="0.28125"/><stop stop-opacity="1" stop-color="rgb(96.899414%, 55.938721%, 59.199524%)" offset="0.296875"/><stop stop-opacity="1" stop-color="rgb(96.899414%, 55.738831%, 59.04541%)" offset="0.304688"/><stop stop-opacity="1" stop-color="rgb(96.899414%, 55.529785%, 58.84552%)" offset="0.3125"/><stop stop-opacity="1" stop-color="rgb(96.739197%, 55.171204%, 58.799744%)" offset="0.328125"/><stop stop-opacity="1" stop-color="rgb(96.539307%, 54.93927%, 58.799744%)" offset="0.34375"/><stop stop-opacity="1" stop-color="rgb(96.499634%, 54.820251%, 58.799744%)" offset="0.359375"/><stop stop-opacity="1" stop-color="rgb(96.499634%, 54.620361%, 58.654785%)" offset="0.375"/><stop stop-opacity="1" stop-color="rgb(96.499634%, 54.360962%, 58.454895%)" offset="0.382813"/><stop stop-opacity="1" stop-color="rgb(96.499634%, 54.159546%, 58.399963%)" offset="0.390625"/><stop stop-opacity="1" stop-color="rgb(96.499634%, 53.948975%, 58.399963%)" offset="0.398438"/><stop stop-opacity="1" stop-color="rgb(96.499634%, 53.749084%, 58.399963%)" offset="0.40625"/><stop stop-opacity="1" stop-color="rgb(96.499634%, 53.561401%, 58.399963%)" offset="0.414063"/><stop stop-opacity="1" stop-color="rgb(96.499634%, 53.361511%, 58.399963%)" offset="0.421875"/><stop stop-opacity="1" stop-color="rgb(96.499634%, 53.236389%, 58.399963%)" offset="0.4375"/><stop stop-opacity="1" stop-color="rgb(96.499634%, 53.036499%, 58.270264%)" offset="0.453125"/><stop stop-opacity="1" stop-color="rgb(96.499634%, 52.775574%, 58.068848%)" offset="0.460938"/><stop stop-opacity="1" stop-color="rgb(96.499634%, 52.575684%, 57.998657%)" offset="0.46875"/><stop stop-opacity="1" stop-color="rgb(96.499634%, 52.348328%, 57.998657%)" offset="0.5"/><stop stop-opacity="1" stop-color="rgb(96.499634%, 52.082825%, 57.88269%)" offset="0.515625"/><stop stop-opacity="1" stop-color="rgb(96.499634%, 51.76239%, 57.6828%)" offset="0.519531"/><stop stop-opacity="1" stop-color="rgb(96.499634%, 51.559448%, 57.598877%)" offset="0.523438"/><stop stop-opacity="1" stop-color="rgb(96.499634%, 51.478577%, 57.598877%)" offset="0.53125"/><stop stop-opacity="1" stop-color="rgb(96.499634%, 51.298523%, 57.524109%)" offset="0.5625"/><stop stop-opacity="1" stop-color="rgb(96.499634%, 50.993347%, 57.374573%)" offset="0.566406"/><stop stop-opacity="1" stop-color="rgb(96.499634%, 50.787354%, 57.299805%)" offset="0.570312"/><stop stop-opacity="1" stop-color="rgb(96.499634%, 50.692749%, 57.299805%)" offset="0.578125"/><stop stop-opacity="1" stop-color="rgb(96.499634%, 50.552368%, 57.299805%)" offset="0.59375"/><stop stop-opacity="1" stop-color="rgb(96.44928%, 50.352478%, 57.299805%)" offset="0.609375"/><stop stop-opacity="1" stop-color="rgb(96.24939%, 50.114441%, 57.214355%)" offset="0.625"/><stop stop-opacity="1" stop-color="rgb(96.099854%, 49.874878%, 57.012939%)" offset="0.640625"/><stop stop-opacity="1" stop-color="rgb(96.099854%, 49.560547%, 56.898499%)" offset="0.65625"/><stop stop-opacity="1" stop-color="rgb(96.099854%, 49.363708%, 56.898499%)" offset="0.671875"/><stop stop-opacity="1" stop-color="rgb(96.099854%, 49.163818%, 56.898499%)" offset="0.6875"/><stop stop-opacity="1" stop-color="rgb(96.099854%, 48.999023%, 56.898499%)" offset="0.75"/><stop stop-opacity="1" stop-color="rgb(96.099854%, 48.999023%, 56.898499%)" offset="1"/></linearGradient><clipPath id="fec0ddace0"><path d="M 164.785156 89.480469 L 182.351562 89.480469 L 182.351562 131.992188 L 164.785156 131.992188 Z M 164.785156 89.480469 " clip-rule="nonzero"/></clipPath><clipPath id="afa09ff7d2"><path d="M 179.375 105.492188 C 178.933594 106.460938 178.410156 107.339844 177.460938 107.558594 C 175.308594 108.050781 173.902344 102.105469 172.777344 96.902344 C 170.390625 85.902344 165.160156 89.914062 164.933594 91.710938 C 164.660156 93.910156 165.351562 103.707031 167.363281 112.453125 C 169.566406 122.007812 171.035156 129.558594 173.132812 131.140625 C 174.535156 132.199219 175.707031 132.128906 176.835938 131.191406 C 178.765625 129.597656 182.492188 121.261719 182.296875 112.894531 Z M 179.375 105.492188 " clip-rule="nonzero"/></clipPath><clipPath id="64ba3b0bff"><path d="M 179.375 105.492188 C 178.933594 106.457031 178.410156 107.339844 177.460938 107.558594 C 175.308594 108.050781 173.90625 102.105469 172.777344 96.902344 C 170.390625 85.902344 165.160156 89.914062 164.933594 91.710938 C 164.660156 93.910156 165.351562 103.707031 167.367188 112.453125 C 169.566406 122.007812 171.035156 129.558594 173.132812 131.140625 C 174.535156 132.199219 175.707031 132.125 176.835938 131.191406 C 178.765625 129.597656 182.492188 121.261719 182.296875 112.894531 L 179.375 105.492188 " clip-rule="nonzero"/></clipPath><clipPath id="53056b2c69"><path d="M 181.84375 82.550781 L 155.996094 87.589844 L 165.3125 135.550781 L 191.160156 130.507812 Z M 181.84375 82.550781 " clip-rule="nonzero"/></clipPath><linearGradient x1="0.0100904" gradientTransform="matrix(11.005442, 56.640882, -56.539068, 11.025261, 169.986499, 87.874776)" y1="0" x2="0.79148" gradientUnits="userSpaceOnUse" y2="0" id="c6b3a552b1"><stop stop-opacity="1" stop-color="rgb(97.599792%, 65.899658%, 62.69989%)" offset="0"/><stop stop-opacity="1" stop-color="rgb(97.599792%, 65.899658%, 62.69989%)" offset="0.0625"/><stop stop-opacity="1" stop-color="rgb(97.599792%, 65.881348%, 62.69989%)" offset="0.09375"/><stop stop-opacity="1" stop-color="rgb(97.599792%, 65.682983%, 62.69989%)" offset="0.125"/><stop stop-opacity="1" stop-color="rgb(97.460938%, 65.316772%, 62.561035%)" offset="0.15625"/><stop stop-opacity="1" stop-color="rgb(97.311401%, 65.113831%, 62.411499%)" offset="0.1875"/><stop stop-opacity="1" stop-color="rgb(97.299194%, 64.941406%, 62.399292%)" offset="0.21875"/><stop stop-opacity="1" stop-color="rgb(97.299194%, 64.645386%, 62.399292%)" offset="0.234375"/><stop stop-opacity="1" stop-color="rgb(97.299194%, 64.402771%, 62.399292%)" offset="0.25"/><stop stop-opacity="1" stop-color="rgb(97.299194%, 64.176941%, 62.275696%)" offset="0.28125"/><stop stop-opacity="1" stop-color="rgb(97.299194%, 63.977051%, 62.075806%)" offset="0.3125"/><stop stop-opacity="1" stop-color="rgb(97.299194%, 63.7146%, 61.999512%)" offset="0.34375"/><stop stop-opacity="1" stop-color="rgb(97.299194%, 63.357544%, 61.999512%)" offset="0.375"/><stop stop-opacity="1" stop-color="rgb(97.299194%, 63.08136%, 61.938477%)" offset="0.40625"/><stop stop-opacity="1" stop-color="rgb(97.299194%, 62.884521%, 61.784363%)" offset="0.421875"/><stop stop-opacity="1" stop-color="rgb(97.299194%, 62.672424%, 61.645508%)" offset="0.4375"/><stop stop-opacity="1" stop-color="rgb(97.299194%, 62.475586%, 61.599731%)" offset="0.46875"/><stop stop-opacity="1" stop-color="rgb(97.299194%, 62.350464%, 61.599731%)" offset="0.484375"/><stop stop-opacity="1" stop-color="rgb(97.299194%, 62.132263%, 61.599731%)" offset="0.5"/><stop stop-opacity="1" stop-color="rgb(97.299194%, 61.781311%, 61.599731%)" offset="0.53125"/><stop stop-opacity="1" stop-color="rgb(97.299194%, 61.599731%, 61.407471%)" offset="0.546875"/><stop stop-opacity="1" stop-color="rgb(97.299194%, 61.427307%, 61.207581%)" offset="0.5625"/><stop stop-opacity="1" stop-color="rgb(97.299194%, 61.064148%, 61.199951%)" offset="0.578125"/><stop stop-opacity="1" stop-color="rgb(97.299194%, 60.691833%, 61.199951%)" offset="0.59375"/><stop stop-opacity="1" stop-color="rgb(97.140503%, 60.453796%, 61.04126%)" offset="0.625"/><stop stop-opacity="1" stop-color="rgb(96.940613%, 60.299683%, 60.84137%)" offset="0.640625"/><stop stop-opacity="1" stop-color="rgb(96.899414%, 60.020447%, 60.798645%)" offset="0.65625"/><stop stop-opacity="1" stop-color="rgb(96.899414%, 59.655762%, 60.798645%)" offset="0.671875"/><stop stop-opacity="1" stop-color="rgb(96.899414%, 59.283447%, 60.745239%)" offset="0.6875"/><stop stop-opacity="1" stop-color="rgb(96.899414%, 58.946228%, 60.545349%)" offset="0.71875"/><stop stop-opacity="1" stop-color="rgb(96.899414%, 58.612061%, 60.212708%)" offset="0.75"/><stop stop-opacity="1" stop-color="rgb(96.899414%, 58.233643%, 60.012817%)" offset="0.765625"/><stop stop-opacity="1" stop-color="rgb(96.899414%, 57.861328%, 59.999084%)" offset="0.78125"/><stop stop-opacity="1" stop-color="rgb(96.899414%, 57.592773%, 59.936523%)" offset="0.8125"/><stop stop-opacity="1" stop-color="rgb(96.899414%, 57.435608%, 59.780884%)" offset="0.828125"/><stop stop-opacity="1" stop-color="rgb(96.899414%, 57.23114%, 59.643555%)" offset="0.84375"/><stop stop-opacity="1" stop-color="rgb(96.899414%, 56.912231%, 59.599304%)" offset="0.859375"/><stop stop-opacity="1" stop-color="rgb(96.899414%, 56.611633%, 59.599304%)" offset="0.875"/><stop stop-opacity="1" stop-color="rgb(96.899414%, 56.448364%, 59.547424%)" offset="0.890625"/><stop stop-opacity="1" stop-color="rgb(96.899414%, 56.207275%, 59.307861%)" offset="0.90625"/><stop stop-opacity="1" stop-color="rgb(96.899414%, 55.838013%, 58.958435%)" offset="0.921875"/><stop stop-opacity="1" stop-color="rgb(96.897888%, 55.476379%, 58.799744%)" offset="0.9375"/><stop stop-opacity="1" stop-color="rgb(96.704102%, 55.104065%, 58.799744%)" offset="0.953125"/><stop stop-opacity="1" stop-color="rgb(96.505737%, 54.905701%, 58.799744%)" offset="0.96875"/><stop stop-opacity="1" stop-color="rgb(96.499634%, 54.733276%, 58.799744%)" offset="0.984375"/><stop stop-opacity="1" stop-color="rgb(96.499634%, 54.385376%, 58.651733%)" offset="1"/></linearGradient><clipPath id="32c5b15639"><path d="M 179.28125 102.371094 L 185.425781 102.371094 L 185.425781 112.949219 L 179.28125 112.949219 Z M 179.28125 102.371094 " clip-rule="nonzero"/></clipPath><clipPath id="ed85b5a66c"><path d="M 185.160156 106.949219 C 184.488281 103.867188 182.710938 101.605469 180.992188 102.75 C 180.246094 103.25 179.859375 104.421875 179.375 105.492188 C 180.058594 107.863281 181.046875 110.332031 182.296875 112.894531 C 184.769531 113.253906 185.8125 109.929688 185.160156 106.949219 Z M 185.160156 106.949219 " clip-rule="nonzero"/></clipPath><clipPath id="ffedb84fa9"><path d="M 185.160156 106.949219 C 184.488281 103.867188 182.714844 101.601562 180.996094 102.75 C 180.246094 103.25 179.859375 104.421875 179.375 105.492188 C 180.058594 107.863281 181.046875 110.332031 182.296875 112.894531 C 184.769531 113.253906 185.8125 109.929688 185.160156 106.949219 " clip-rule="nonzero"/></clipPath><clipPath id="8dada9d6ea"><path d="M 185.121094 99.605469 L 175.773438 102.855469 L 180.066406 115.25 L 189.414062 112.003906 Z M 185.121094 99.605469 " clip-rule="nonzero"/></clipPath><linearGradient x1="0.345879" gradientTransform="matrix(18.878224, 54.516729, -54.418734, 18.912221, 174.251919, 83.024807)" y1="0" x2="0.553517" gradientUnits="userSpaceOnUse" y2="0" id="d87756c4d6"><stop stop-opacity="1" stop-color="rgb(97.299194%, 62.564087%, 61.599731%)" offset="0"/><stop stop-opacity="1" stop-color="rgb(97.299194%, 62.426758%, 61.599731%)" offset="0.25"/><stop stop-opacity="1" stop-color="rgb(97.299194%, 62.197876%, 61.599731%)" offset="0.3125"/><stop stop-opacity="1" stop-color="rgb(97.299194%, 61.979675%, 61.526489%)" offset="0.375"/><stop stop-opacity="1" stop-color="rgb(97.299194%, 61.671448%, 61.326599%)" offset="0.4375"/><stop stop-opacity="1" stop-color="rgb(97.299194%, 61.306763%, 61.199951%)" offset="0.5"/><stop stop-opacity="1" stop-color="rgb(97.299194%, 60.942078%, 61.199951%)" offset="0.5625"/><stop stop-opacity="1" stop-color="rgb(97.297668%, 60.580444%, 61.198425%)" offset="0.625"/><stop stop-opacity="1" stop-color="rgb(97.114563%, 60.398865%, 61.013794%)" offset="0.75"/><stop stop-opacity="1" stop-color="rgb(96.916199%, 60.250854%, 60.81543%)" offset="0.8125"/><stop stop-opacity="1" stop-color="rgb(96.899414%, 59.921265%, 60.798645%)" offset="0.875"/><stop stop-opacity="1" stop-color="rgb(96.899414%, 59.55658%, 60.798645%)" offset="0.9375"/><stop stop-opacity="1" stop-color="rgb(96.899414%, 59.191895%, 60.704041%)" offset="1"/></linearGradient><clipPath id="2175c22576"><path d="M 199 135 L 264 135 L 264 234.898438 L 199 234.898438 Z M 199 135 " clip-rule="nonzero"/></clipPath><clipPath id="c5a950a813"><path d="M 205 133 L 270 133 L 270 234.898438 L 205 234.898438 Z M 205 133 " clip-rule="nonzero"/></clipPath><clipPath id="be4193ea21"><path d="M 205 133 L 251 133 L 251 234.898438 L 205 234.898438 Z M 205 133 " clip-rule="nonzero"/></clipPath></defs><path fill="#373547" d="M 43.464844 192.636719 L 43.464844 187.125 L 124.902344 187.125 L 124.902344 192.636719 L 43.464844 192.636719 " fill-opacity="1" fill-rule="nonzero"/><path fill="#373547" d="M 30.042969 95.8125 L 31.910156 100.878906 L 40.886719 100.878906 L 39.019531 95.8125 L 30.042969 95.8125 " fill-opacity="1" fill-rule="nonzero"/><path fill="#373547" d="M 59.238281 92.265625 L 51.167969 92.265625 L 51.167969 80.550781 L 59.238281 80.550781 L 59.238281 92.265625 " fill-opacity="1" fill-rule="nonzero"/><path fill="#373547" d="M 38.113281 95.847656 L 30.042969 95.847656 L 30.042969 84.820312 L 38.113281 84.820312 L 38.113281 95.847656 " fill-opacity="1" fill-rule="nonzero"/><path fill="#474460" d="M 262.996094 227.613281 L 262.996094 222.46875 L 216.886719 103.703125 L 31.910156 98.558594 L 31.910156 109.492188 L 74.097656 227.550781 L 262.996094 227.613281 " fill-opacity="1" fill-rule="nonzero"/><path fill="#d3c3d6" d="M 262.996094 223.507812 L 262.996094 218.363281 L 216.886719 95.066406 L 31.910156 89.921875 L 31.910156 100.855469 L 75.542969 223.507812 L 262.996094 223.507812 " fill-opacity="1" fill-rule="nonzero"/><path fill="#474460" d="M 72.671875 92.675781 L 68.320312 80.550781 L 51.167969 80.550781 L 55.523438 92.675781 L 72.671875 92.675781 " fill-opacity="1" fill-rule="nonzero"/><path fill="#f4eef4" d="M 262.929688 218.777344 L 216.820312 90.335938 L 31.839844 90.335938 L 77.949219 218.777344 L 262.929688 218.777344 " fill-opacity="1" fill-rule="nonzero"/><g clip-path="url(#af533b45c8)"><path fill="#474460" d="M 46.765625 234.898438 L 38.695312 234.898438 L 38.695312 157.355469 C 38.695312 155.125 40.503906 153.316406 42.730469 153.316406 C 44.960938 153.316406 46.765625 155.125 46.765625 157.355469 L 46.765625 234.898438 " fill-opacity="1" fill-rule="nonzero"/></g><path fill="#645f80" d="M 134.40625 172.757812 L 90.027344 172.757812 C 89.699219 172.757812 89.410156 172.554688 89.296875 172.246094 L 81.214844 149.847656 C 81.128906 149.609375 81.164062 149.347656 81.308594 149.140625 C 81.453125 148.929688 81.691406 148.808594 81.941406 148.808594 L 96.132812 148.808594 L 90.261719 132.542969 L 75.511719 132.542969 C 75.183594 132.542969 74.894531 132.339844 74.78125 132.03125 L 73.25 127.785156 C 73.164062 127.546875 73.199219 127.28125 73.34375 127.074219 C 73.488281 126.867188 73.726562 126.746094 73.980469 126.746094 L 118.359375 126.746094 C 118.683594 126.746094 118.976562 126.949219 119.085938 127.257812 L 122.664062 137.164062 C 122.808594 137.566406 122.601562 138.011719 122.199219 138.15625 C 121.796875 138.300781 121.351562 138.09375 121.207031 137.691406 L 117.816406 128.296875 L 75.082031 128.296875 L 76.054688 130.992188 L 90.804688 130.992188 C 91.128906 130.992188 91.421875 131.195312 91.53125 131.503906 L 97.960938 149.320312 C 98.046875 149.558594 98.011719 149.824219 97.867188 150.03125 C 97.722656 150.238281 97.488281 150.359375 97.234375 150.359375 L 83.046875 150.359375 L 90.570312 171.207031 L 133.304688 171.207031 L 131.363281 165.835938 C 131.21875 165.433594 131.425781 164.988281 131.828125 164.839844 C 132.230469 164.699219 132.675781 164.90625 132.820312 165.308594 L 135.136719 171.71875 C 135.222656 171.957031 135.1875 172.21875 135.039062 172.425781 C 134.894531 172.636719 134.660156 172.757812 134.40625 172.757812 " fill-opacity="1" fill-rule="nonzero"/><path fill="#645f80" d="M 209.398438 196.320312 L 142.914062 196.320312 C 142.585938 196.320312 142.292969 196.117188 142.183594 195.808594 L 131.367188 165.835938 C 131.21875 165.433594 131.425781 164.988281 131.828125 164.839844 C 132.230469 164.699219 132.675781 164.902344 132.820312 165.308594 L 143.453125 194.769531 L 208.296875 194.769531 L 199.65625 170.832031 C 199.570312 170.59375 199.605469 170.328125 199.75 170.121094 C 199.894531 169.914062 200.132812 169.789062 200.382812 169.789062 L 238.140625 169.789062 L 224.636719 132.375 L 211.253906 132.375 C 210.925781 132.375 210.632812 132.171875 210.523438 131.863281 L 200.730469 104.734375 L 110.957031 104.734375 L 122.664062 137.164062 C 122.808594 137.566406 122.601562 138.011719 122.199219 138.160156 C 121.796875 138.300781 121.351562 138.09375 121.207031 137.691406 L 109.125 104.222656 C 109.039062 103.984375 109.074219 103.71875 109.21875 103.511719 C 109.363281 103.304688 109.601562 103.183594 109.855469 103.183594 L 201.273438 103.183594 C 201.601562 103.183594 201.890625 103.386719 202.003906 103.695312 L 211.796875 130.824219 L 225.179688 130.824219 C 225.503906 130.824219 225.796875 131.03125 225.90625 131.335938 L 239.972656 170.300781 C 240.054688 170.539062 240.019531 170.804688 239.875 171.011719 C 239.730469 171.21875 239.496094 171.34375 239.242188 171.34375 L 201.488281 171.34375 L 210.128906 195.28125 C 210.214844 195.519531 210.179688 195.78125 210.035156 195.988281 C 209.890625 196.195312 209.652344 196.320312 209.398438 196.320312 " fill-opacity="1" fill-rule="nonzero"/><path fill="#645f80" d="M 191.066406 145.53125 C 190.75 145.53125 190.453125 145.335938 190.335938 145.019531 L 175.734375 104.554688 C 175.589844 104.152344 175.792969 103.710938 176.199219 103.5625 C 176.597656 103.421875 177.042969 103.625 177.1875 104.03125 L 191.796875 144.492188 C 191.941406 144.894531 191.730469 145.339844 191.328125 145.484375 C 191.242188 145.515625 191.152344 145.53125 191.066406 145.53125 " fill-opacity="1" fill-rule="nonzero"/><path fill="#645f80" d="M 200.382812 171.34375 C 200.066406 171.34375 199.769531 171.144531 199.65625 170.832031 L 196.046875 160.839844 C 195.902344 160.4375 196.113281 159.992188 196.515625 159.84375 C 196.917969 159.699219 197.359375 159.90625 197.507812 160.3125 L 201.113281 170.300781 C 201.257812 170.707031 201.046875 171.148438 200.644531 171.296875 C 200.558594 171.328125 200.472656 171.34375 200.382812 171.34375 " fill-opacity="1" fill-rule="nonzero"/><path fill="#645f80" d="M 221.230469 160.019531 C 220.910156 160.019531 220.613281 159.824219 220.5 159.507812 L 210.550781 131.945312 C 210.40625 131.542969 210.617188 131.097656 211.015625 130.953125 C 211.421875 130.808594 211.863281 131.015625 212.007812 131.417969 L 221.957031 158.980469 C 222.101562 159.382812 221.894531 159.828125 221.492188 159.972656 C 221.40625 160.003906 221.316406 160.019531 221.230469 160.019531 " fill-opacity="1" fill-rule="nonzero"/><path fill="#645f80" d="M 211.28125 132.457031 L 203.304688 132.457031 C 202.875 132.457031 202.527344 132.113281 202.527344 131.683594 C 202.527344 131.253906 202.875 130.90625 203.304688 130.90625 L 211.28125 130.90625 C 211.707031 130.90625 212.054688 131.253906 212.054688 131.683594 C 212.054688 132.113281 211.707031 132.457031 211.28125 132.457031 " fill-opacity="1" fill-rule="nonzero"/><path fill="#645f80" d="M 193.664062 132.457031 L 186.679688 132.457031 C 186.253906 132.457031 185.90625 132.109375 185.90625 131.683594 C 185.90625 131.253906 186.253906 130.90625 186.679688 130.90625 L 193.664062 130.90625 C 194.089844 130.90625 194.4375 131.253906 194.4375 131.683594 C 194.4375 132.109375 194.089844 132.457031 193.664062 132.457031 " fill-opacity="1" fill-rule="nonzero"/><path fill="#645f80" d="M 226.730469 136.882812 L 213.101562 136.882812 C 212.757812 136.882812 212.480469 136.605469 212.480469 136.261719 C 212.480469 135.921875 212.757812 135.644531 213.101562 135.644531 L 226.730469 135.644531 C 227.074219 135.644531 227.351562 135.921875 227.351562 136.261719 C 227.351562 136.605469 227.074219 136.882812 226.730469 136.882812 " fill-opacity="1" fill-rule="nonzero"/><path fill="#645f80" d="M 228.292969 141.214844 L 214.664062 141.214844 C 214.320312 141.214844 214.042969 140.9375 214.042969 140.59375 C 214.042969 140.25 214.320312 139.972656 214.664062 139.972656 L 228.292969 139.972656 C 228.632812 139.972656 228.914062 140.25 228.914062 140.59375 C 228.914062 140.9375 228.632812 141.214844 228.292969 141.214844 " fill-opacity="1" fill-rule="nonzero"/><path fill="#645f80" d="M 229.855469 145.542969 L 216.226562 145.542969 C 215.886719 145.542969 215.605469 145.265625 215.605469 144.921875 C 215.605469 144.578125 215.886719 144.300781 216.226562 144.300781 L 229.855469 144.300781 C 230.199219 144.300781 230.476562 144.578125 230.476562 144.921875 C 230.476562 145.265625 230.199219 145.542969 229.855469 145.542969 " fill-opacity="1" fill-rule="nonzero"/><path fill="#645f80" d="M 231.417969 149.871094 L 217.789062 149.871094 C 217.449219 149.871094 217.167969 149.59375 217.167969 149.25 C 217.167969 148.910156 217.449219 148.632812 217.789062 148.632812 L 231.417969 148.632812 C 231.761719 148.632812 232.039062 148.910156 232.039062 149.25 C 232.039062 149.59375 231.761719 149.871094 231.417969 149.871094 " fill-opacity="1" fill-rule="nonzero"/><path fill="#645f80" d="M 232.980469 154.203125 L 219.351562 154.203125 C 219.011719 154.203125 218.734375 153.925781 218.734375 153.582031 C 218.734375 153.238281 219.011719 152.960938 219.351562 152.960938 L 232.980469 152.960938 C 233.324219 152.960938 233.601562 153.238281 233.601562 153.582031 C 233.601562 153.925781 233.324219 154.203125 232.980469 154.203125 " fill-opacity="1" fill-rule="nonzero"/><path fill="#645f80" d="M 234.546875 158.53125 L 220.914062 158.53125 C 220.574219 158.53125 220.296875 158.253906 220.296875 157.910156 C 220.296875 157.566406 220.574219 157.289062 220.914062 157.289062 L 234.546875 157.289062 C 234.886719 157.289062 235.164062 157.566406 235.164062 157.910156 C 235.164062 158.253906 234.886719 158.53125 234.546875 158.53125 " fill-opacity="1" fill-rule="nonzero"/><path fill="#645f80" d="M 105.457031 171.851562 C 105.203125 171.851562 104.964844 171.695312 104.875 171.441406 L 97.058594 149.796875 C 96.941406 149.472656 97.109375 149.117188 97.429688 149 C 97.753906 148.886719 98.109375 149.050781 98.222656 149.375 L 106.039062 171.023438 C 106.15625 171.34375 105.988281 171.699219 105.664062 171.816406 C 105.597656 171.839844 105.527344 171.851562 105.457031 171.851562 " fill-opacity="1" fill-rule="nonzero"/><path fill="#645f80" d="M 164.550781 185.925781 L 181.335938 185.925781 L 179.242188 180.125 L 162.457031 180.125 Z M 182.21875 187.167969 L 164.117188 187.167969 C 163.855469 187.167969 163.625 187.003906 163.535156 186.757812 L 160.992188 179.714844 C 160.921875 179.523438 160.953125 179.3125 161.066406 179.144531 C 161.183594 178.980469 161.371094 178.882812 161.574219 178.882812 L 179.675781 178.882812 C 179.9375 178.882812 180.167969 179.046875 180.257812 179.292969 L 182.800781 186.335938 C 182.867188 186.527344 182.839844 186.738281 182.722656 186.902344 C 182.609375 187.070312 182.417969 187.167969 182.21875 187.167969 " fill-opacity="1" fill-rule="nonzero"/><path fill="#645f80" d="M 185.148438 213.472656 L 174.300781 213.472656 L 172.777344 209.25 L 183.625 209.25 L 185.148438 213.472656 " fill-opacity="1" fill-rule="nonzero"/><path fill="#645f80" d="M 64.585938 144.445312 L 68.507812 155.308594 L 64.292969 155.308594 L 60.371094 144.445312 L 64.585938 144.445312 " fill-opacity="1" fill-rule="nonzero"/><path fill="#645f80" d="M 157.875 173.640625 L 179.148438 173.640625 L 176.457031 166.191406 L 155.1875 166.191406 Z M 180.03125 174.882812 L 157.441406 174.882812 C 157.179688 174.882812 156.945312 174.71875 156.859375 174.472656 L 153.71875 165.78125 C 153.652344 165.589844 153.679688 165.378906 153.796875 165.214844 C 153.910156 165.046875 154.101562 164.949219 154.304688 164.949219 L 176.890625 164.949219 C 177.152344 164.949219 177.386719 165.113281 177.472656 165.359375 L 180.613281 174.050781 C 180.679688 174.242188 180.652344 174.453125 180.535156 174.617188 C 180.417969 174.785156 180.230469 174.882812 180.03125 174.882812 " fill-opacity="1" fill-rule="nonzero"/><path fill="#645f80" d="M 186.964844 185.925781 L 194.324219 185.925781 L 191.320312 177.609375 L 183.960938 177.609375 Z M 195.207031 187.167969 L 186.53125 187.167969 C 186.269531 187.167969 186.035156 187.003906 185.949219 186.757812 L 182.5 177.199219 C 182.429688 177.007812 182.457031 176.796875 182.574219 176.632812 C 182.6875 176.464844 182.878906 176.367188 183.082031 176.367188 L 191.757812 176.367188 C 192.015625 176.367188 192.25 176.53125 192.339844 176.777344 L 195.789062 186.335938 C 195.859375 186.527344 195.828125 186.738281 195.714844 186.902344 C 195.597656 187.070312 195.40625 187.167969 195.207031 187.167969 " fill-opacity="1" fill-rule="nonzero"/><path fill="#645f80" d="M 143.355469 195.105469 L 148.933594 195.105469 L 138.433594 166.011719 L 132.855469 166.011719 Z M 149.558594 195.984375 L 143.046875 195.984375 C 142.863281 195.984375 142.699219 195.867188 142.636719 195.691406 L 131.816406 165.722656 C 131.769531 165.585938 131.789062 165.433594 131.871094 165.320312 C 131.953125 165.199219 132.085938 165.132812 132.230469 165.132812 L 138.742188 165.132812 C 138.925781 165.132812 139.09375 165.246094 139.15625 165.421875 L 149.972656 195.394531 C 150.023438 195.53125 150 195.679688 149.921875 195.796875 C 149.835938 195.914062 149.703125 195.984375 149.558594 195.984375 " fill-opacity="1" fill-rule="nonzero"/><path fill="#645f80" d="M 183.40625 166.417969 C 182.5625 166.417969 181.882812 166.71875 181.5 167.269531 C 181.066406 167.886719 181.015625 168.753906 181.359375 169.707031 C 182.085938 171.71875 184.386719 173.417969 186.378906 173.417969 C 187.222656 173.417969 187.898438 173.113281 188.285156 172.5625 C 188.71875 171.945312 188.765625 171.082031 188.425781 170.128906 C 187.699219 168.117188 185.398438 166.417969 183.40625 166.417969 Z M 186.378906 174.660156 C 183.832031 174.660156 181.113281 172.667969 180.195312 170.128906 C 179.71875 168.800781 179.820312 167.5 180.484375 166.558594 C 181.109375 165.667969 182.144531 165.175781 183.40625 165.175781 C 185.957031 165.175781 188.671875 167.164062 189.589844 169.707031 C 190.066406 171.03125 189.960938 172.332031 189.300781 173.277344 C 188.675781 174.167969 187.636719 174.660156 186.378906 174.660156 " fill-opacity="1" fill-rule="nonzero"/><path fill="#645f80" d="M 147.953125 166.417969 C 147.109375 166.417969 146.429688 166.71875 146.042969 167.269531 C 145.613281 167.886719 145.5625 168.753906 145.90625 169.707031 C 146.648438 171.753906 148.898438 173.417969 150.925781 173.417969 C 151.769531 173.417969 152.445312 173.113281 152.832031 172.5625 C 153.265625 171.945312 153.316406 171.082031 152.96875 170.128906 C 152.246094 168.117188 149.945312 166.417969 147.953125 166.417969 Z M 150.925781 174.660156 C 148.375 174.660156 145.660156 172.667969 144.742188 170.128906 C 144.265625 168.800781 144.371094 167.5 145.03125 166.558594 C 145.65625 165.664062 146.691406 165.175781 147.953125 165.175781 C 150.503906 165.175781 153.21875 167.164062 154.136719 169.707031 C 154.613281 171.03125 154.507812 172.332031 153.847656 173.277344 C 153.222656 174.167969 152.1875 174.660156 150.925781 174.660156 " fill-opacity="1" fill-rule="nonzero"/><path fill="#645f80" d="M 122.550781 137.308594 L 169.769531 137.308594 L 166.492188 128.226562 L 119.273438 128.226562 Z M 170.652344 138.550781 L 122.117188 138.550781 C 121.855469 138.550781 121.621094 138.386719 121.535156 138.140625 L 117.804688 127.816406 C 117.738281 127.625 117.765625 127.414062 117.882812 127.246094 C 117.996094 127.082031 118.1875 126.984375 118.390625 126.984375 L 166.925781 126.984375 C 167.1875 126.984375 167.417969 127.148438 167.507812 127.394531 L 171.234375 137.71875 C 171.304688 137.90625 171.277344 138.117188 171.160156 138.285156 C 171.042969 138.449219 170.851562 138.550781 170.652344 138.550781 " fill-opacity="1" fill-rule="nonzero"/><path fill="#645f80" d="M 113.839844 134.820312 L 120.375 134.820312 L 117.996094 128.226562 L 111.460938 128.226562 Z M 121.257812 136.0625 L 113.40625 136.0625 C 113.144531 136.0625 112.910156 135.898438 112.824219 135.652344 L 109.996094 127.816406 C 109.925781 127.625 109.953125 127.414062 110.070312 127.246094 C 110.1875 127.082031 110.375 126.984375 110.578125 126.984375 L 118.429688 126.984375 C 118.691406 126.984375 118.925781 127.148438 119.011719 127.394531 L 121.839844 135.230469 C 121.910156 135.417969 121.882812 135.632812 121.765625 135.796875 C 121.648438 135.964844 121.460938 136.0625 121.257812 136.0625 " fill-opacity="1" fill-rule="nonzero"/><path fill="#645f80" d="M 178.765625 125.085938 L 183.3125 125.085938 L 181.648438 120.480469 L 177.105469 120.480469 Z M 184.191406 126.328125 L 178.332031 126.328125 C 178.074219 126.328125 177.839844 126.164062 177.75 125.917969 L 175.640625 120.070312 C 175.570312 119.882812 175.597656 119.671875 175.714844 119.503906 C 175.832031 119.339844 176.019531 119.242188 176.222656 119.242188 L 182.082031 119.242188 C 182.34375 119.242188 182.574219 119.402344 182.664062 119.648438 L 184.773438 125.496094 C 184.84375 125.6875 184.816406 125.898438 184.699219 126.0625 C 184.582031 126.230469 184.394531 126.328125 184.191406 126.328125 " fill-opacity="1" fill-rule="nonzero"/><path fill="#645f80" d="M 118.429688 126.816406 L 128.582031 126.816406 L 120.554688 104.578125 L 110.40625 104.578125 Z M 129.464844 128.058594 L 117.996094 128.058594 C 117.734375 128.058594 117.5 127.894531 117.414062 127.648438 L 108.941406 104.167969 C 108.871094 103.980469 108.898438 103.769531 109.015625 103.601562 C 109.128906 103.4375 109.320312 103.339844 109.523438 103.339844 L 120.992188 103.339844 C 121.253906 103.339844 121.484375 103.5 121.574219 103.746094 L 130.046875 127.226562 C 130.117188 127.417969 130.089844 127.628906 129.972656 127.792969 C 129.855469 127.960938 129.667969 128.058594 129.464844 128.058594 " fill-opacity="1" fill-rule="nonzero"/><path fill="#645f80" d="M 131.6875 146.964844 L 137.183594 146.964844 L 135.167969 141.378906 L 129.671875 141.378906 Z M 138.070312 148.207031 L 131.253906 148.207031 C 130.992188 148.207031 130.757812 148.042969 130.671875 147.796875 L 128.207031 140.972656 C 128.136719 140.78125 128.164062 140.570312 128.28125 140.402344 C 128.398438 140.238281 128.585938 140.140625 128.789062 140.140625 L 135.601562 140.140625 C 135.863281 140.140625 136.097656 140.300781 136.1875 140.546875 L 138.652344 147.375 C 138.71875 147.566406 138.691406 147.777344 138.574219 147.945312 C 138.460938 148.109375 138.269531 148.207031 138.070312 148.207031 " fill-opacity="1" fill-rule="nonzero"/><path fill="#645f80" d="M 147.5625 146.964844 L 153.058594 146.964844 L 151.042969 141.378906 L 145.546875 141.378906 Z M 153.941406 148.207031 L 147.125 148.207031 C 146.867188 148.207031 146.632812 148.042969 146.546875 147.796875 L 144.082031 140.972656 C 144.011719 140.78125 144.039062 140.570312 144.15625 140.402344 C 144.269531 140.238281 144.460938 140.140625 144.664062 140.140625 L 151.476562 140.140625 C 151.738281 140.140625 151.972656 140.300781 152.058594 140.546875 L 154.523438 147.375 C 154.59375 147.566406 154.566406 147.777344 154.449219 147.945312 C 154.332031 148.109375 154.144531 148.207031 153.941406 148.207031 " fill-opacity="1" fill-rule="nonzero"/><path fill="#645f80" d="M 163.4375 146.964844 L 168.933594 146.964844 L 166.917969 141.378906 L 161.421875 141.378906 Z M 169.816406 148.207031 L 163 148.207031 C 162.738281 148.207031 162.507812 148.042969 162.417969 147.796875 L 159.957031 140.96875 C 159.886719 140.78125 159.914062 140.570312 160.03125 140.402344 C 160.144531 140.238281 160.335938 140.140625 160.539062 140.140625 L 167.351562 140.140625 C 167.613281 140.140625 167.847656 140.300781 167.933594 140.546875 L 170.398438 147.375 C 170.46875 147.566406 170.4375 147.777344 170.324219 147.941406 C 170.207031 148.109375 170.019531 148.207031 169.816406 148.207031 " fill-opacity="1" fill-rule="nonzero"/><path fill="#645f80" d="M 171.925781 117.070312 L 180.417969 117.070312 L 175.847656 104.414062 L 167.359375 104.414062 Z M 181.296875 118.308594 L 171.492188 118.308594 C 171.230469 118.308594 170.996094 118.144531 170.910156 117.902344 L 165.894531 104.003906 C 165.824219 103.8125 165.851562 103.601562 165.96875 103.433594 C 166.085938 103.269531 166.273438 103.171875 166.476562 103.171875 L 176.28125 103.171875 C 176.542969 103.171875 176.773438 103.335938 176.863281 103.582031 L 181.882812 117.476562 C 181.949219 117.667969 181.921875 117.878906 181.804688 118.046875 C 181.6875 118.210938 181.5 118.308594 181.296875 118.308594 " fill-opacity="1" fill-rule="nonzero"/><path fill="#645f80" d="M 200.152344 126.652344 L 208.640625 126.652344 L 200.792969 104.914062 L 192.304688 104.914062 Z M 209.523438 127.890625 L 199.71875 127.890625 C 199.457031 127.890625 199.222656 127.726562 199.132812 127.480469 L 190.839844 104.503906 C 190.769531 104.3125 190.800781 104.101562 190.914062 103.933594 C 191.03125 103.769531 191.21875 103.671875 191.421875 103.671875 L 201.230469 103.671875 C 201.492188 103.671875 201.722656 103.835938 201.8125 104.078125 L 210.105469 127.058594 C 210.175781 127.25 210.144531 127.460938 210.03125 127.628906 C 209.914062 127.792969 209.726562 127.890625 209.523438 127.890625 " fill-opacity="1" fill-rule="nonzero"/><path fill="#645f80" d="M 180.140625 112.664062 L 188.050781 112.664062 L 185.164062 104.664062 L 177.253906 104.664062 Z M 188.933594 113.90625 L 179.707031 113.90625 C 179.445312 113.90625 179.214844 113.742188 179.125 113.496094 L 175.789062 104.253906 C 175.71875 104.0625 175.75 103.851562 175.863281 103.683594 C 175.980469 103.519531 176.171875 103.421875 176.371094 103.421875 L 185.597656 103.421875 C 185.859375 103.421875 186.089844 103.585938 186.179688 103.832031 L 189.515625 113.074219 C 189.585938 113.261719 189.554688 113.472656 189.441406 113.640625 C 189.324219 113.804688 189.132812 113.90625 188.933594 113.90625 " fill-opacity="1" fill-rule="nonzero"/><path fill="#645f80" d="M 191.503906 143.21875 L 196.171875 143.21875 L 192.230469 132.300781 L 187.5625 132.300781 Z M 197.054688 144.460938 L 191.070312 144.460938 C 190.808594 144.460938 190.574219 144.296875 190.488281 144.050781 L 186.097656 131.894531 C 186.03125 131.703125 186.058594 131.492188 186.175781 131.324219 C 186.289062 131.160156 186.480469 131.0625 186.679688 131.0625 L 192.664062 131.0625 C 192.925781 131.0625 193.160156 131.226562 193.246094 131.472656 L 197.636719 143.628906 C 197.707031 143.820312 197.675781 144.03125 197.558594 144.195312 C 197.445312 144.363281 197.253906 144.460938 197.054688 144.460938 " fill-opacity="1" fill-rule="nonzero"/><path fill="#645f80" d="M 214.367188 150.378906 L 217.371094 150.378906 L 210.847656 132.304688 L 207.839844 132.304688 Z M 218.253906 151.621094 L 213.933594 151.621094 C 213.671875 151.621094 213.4375 151.457031 213.351562 151.210938 L 206.378906 131.894531 C 206.308594 131.703125 206.335938 131.492188 206.453125 131.324219 C 206.570312 131.160156 206.757812 131.0625 206.960938 131.0625 L 211.28125 131.0625 C 211.542969 131.0625 211.773438 131.226562 211.863281 131.472656 L 218.835938 150.789062 C 218.90625 150.980469 218.875 151.191406 218.761719 151.355469 C 218.644531 151.523438 218.457031 151.621094 218.253906 151.621094 " fill-opacity="1" fill-rule="nonzero"/><path fill="#645f80" d="M 200.621094 169.863281 L 215.179688 169.863281 L 212.921875 163.609375 L 198.363281 163.609375 Z M 216.0625 171.105469 L 200.1875 171.105469 C 199.925781 171.105469 199.695312 170.941406 199.605469 170.695312 L 196.902344 163.199219 C 196.832031 163.011719 196.859375 162.800781 196.976562 162.632812 C 197.09375 162.46875 197.28125 162.371094 197.480469 162.371094 L 213.355469 162.371094 C 213.617188 162.371094 213.851562 162.53125 213.941406 162.777344 L 216.644531 170.273438 C 216.714844 170.460938 216.683594 170.671875 216.570312 170.839844 C 216.453125 171.007812 216.261719 171.105469 216.0625 171.105469 " fill-opacity="1" fill-rule="nonzero"/><path fill="#645f80" d="M 124.605469 145.449219 C 124.355469 145.449219 124.117188 145.292969 124.023438 145.042969 L 122.222656 140.046875 C 122.105469 139.722656 122.273438 139.367188 122.59375 139.25 C 122.914062 139.136719 123.269531 139.300781 123.386719 139.625 L 125.1875 144.621094 C 125.304688 144.941406 125.140625 145.296875 124.816406 145.414062 C 124.746094 145.4375 124.675781 145.449219 124.605469 145.449219 " fill-opacity="1" fill-rule="nonzero"/><path fill="#645f80" d="M 127.851562 154.445312 C 127.601562 154.445312 127.363281 154.285156 127.269531 154.035156 L 125.46875 149.039062 C 125.351562 148.714844 125.515625 148.359375 125.839844 148.242188 C 126.160156 148.128906 126.515625 148.292969 126.632812 148.617188 L 128.433594 153.609375 C 128.550781 153.933594 128.386719 154.289062 128.0625 154.40625 C 127.996094 154.429688 127.921875 154.445312 127.851562 154.445312 " fill-opacity="1" fill-rule="nonzero"/><path fill="#645f80" d="M 131.097656 163.4375 C 130.84375 163.4375 130.605469 163.277344 130.515625 163.027344 L 128.714844 158.03125 C 128.597656 157.707031 128.761719 157.351562 129.085938 157.234375 C 129.40625 157.121094 129.761719 157.285156 129.878906 157.609375 L 131.679688 162.605469 C 131.796875 162.925781 131.628906 163.28125 131.308594 163.398438 C 131.238281 163.421875 131.167969 163.4375 131.097656 163.4375 " fill-opacity="1" fill-rule="nonzero"/><path fill="#645f80" d="M 251.632812 205.890625 L 101.902344 205.5625 C 101.71875 205.5625 101.550781 205.445312 101.488281 205.269531 L 89.769531 172.796875 C 89.683594 172.570312 89.804688 172.3125 90.035156 172.230469 C 90.265625 172.148438 90.519531 172.265625 90.601562 172.496094 L 102.214844 204.675781 L 250.988281 205.003906 L 238.613281 170.71875 C 238.53125 170.488281 238.648438 170.234375 238.878906 170.148438 C 239.105469 170.066406 239.363281 170.183594 239.445312 170.414062 L 252.042969 205.285156 C 252.097656 205.421875 252.082031 205.574219 251.996094 205.695312 C 251.917969 205.816406 251.777344 205.890625 251.632812 205.890625 " fill-opacity="1" fill-rule="nonzero"/><path fill="#645f80" d="M 143.046875 195.988281 L 87.726562 195.988281 C 87.539062 195.988281 87.375 195.871094 87.3125 195.695312 L 54.34375 104.359375 C 54.292969 104.222656 54.316406 104.070312 54.398438 103.953125 C 54.480469 103.835938 54.613281 103.765625 54.757812 103.765625 L 109.613281 103.765625 C 109.855469 103.765625 110.054688 103.964844 110.054688 104.207031 C 110.054688 104.453125 109.855469 104.652344 109.613281 104.652344 L 55.390625 104.652344 L 88.039062 195.101562 L 143.046875 195.101562 C 143.292969 195.101562 143.492188 195.296875 143.492188 195.542969 C 143.492188 195.789062 143.292969 195.988281 143.046875 195.988281 " fill-opacity="1" fill-rule="nonzero"/><path fill="#645f80" d="M 113.382812 152.414062 L 109.640625 152.414062 L 108.289062 148.667969 L 112.027344 148.667969 L 113.382812 152.414062 " fill-opacity="1" fill-rule="nonzero"/><path fill="#645f80" d="M 150.398438 118.195312 L 146.65625 118.195312 L 145.304688 114.449219 L 149.042969 114.449219 L 150.398438 118.195312 " fill-opacity="1" fill-rule="nonzero"/><path fill="#645f80" d="M 215.050781 153.289062 L 211.308594 153.289062 L 209.957031 149.542969 L 213.695312 149.542969 L 215.050781 153.289062 " fill-opacity="1" fill-rule="nonzero"/><path fill="#645f80" d="M 169.707031 171.773438 L 165.964844 171.773438 L 164.613281 168.023438 L 168.351562 168.023438 L 169.707031 171.773438 " fill-opacity="1" fill-rule="nonzero"/><path fill="#645f80" d="M 196.824219 120.066406 L 193.085938 120.066406 L 191.734375 116.320312 L 195.472656 116.320312 L 196.824219 120.066406 " fill-opacity="1" fill-rule="nonzero"/><path fill="#373547" d="M 114.402344 227.734375 L 106.332031 227.734375 L 106.332031 220.015625 L 114.402344 220.015625 L 114.402344 227.734375 " fill-opacity="1" fill-rule="nonzero"/><path fill="#474460" d="M 114.402344 220.109375 L 106.332031 220.109375 L 57.222656 83.304688 L 65.292969 83.304688 L 114.402344 220.109375 " fill-opacity="1" fill-rule="nonzero"/><path fill="#474460" d="M 30.730469 86.71875 L 31.910156 89.921875 L 40.886719 89.921875 L 39.707031 86.71875 L 30.730469 86.71875 " fill-opacity="1" fill-rule="nonzero"/><path fill="#474460" d="M 206.734375 86.714844 L 207.914062 89.921875 L 216.886719 89.921875 L 215.710938 86.714844 L 206.734375 86.714844 " fill-opacity="1" fill-rule="nonzero"/><path fill="#474460" d="M 215.019531 84.824219 L 216.199219 88.027344 L 31.222656 88.027344 L 30.042969 84.824219 L 215.019531 84.824219 " fill-opacity="1" fill-rule="nonzero"/><path fill="#474460" d="M 221.714844 103.871094 L 224.179688 110.683594 L 39.199219 110.683594 L 36.738281 103.871094 L 221.714844 103.871094 " fill-opacity="1" fill-rule="nonzero"/><g clip-path="url(#9ca219cb27)"><path fill="#373547" d="M 42.730469 153.316406 C 42.195312 153.316406 41.6875 153.417969 41.21875 153.609375 C 42.695312 154.207031 43.742188 155.660156 43.742188 157.355469 L 43.742188 234.898438 L 46.765625 234.898438 L 46.765625 157.355469 C 46.765625 155.125 44.960938 153.316406 42.730469 153.316406 " fill-opacity="1" fill-rule="nonzero"/></g><path fill="#d36380" d="M 144.644531 93.984375 C 144.023438 95.019531 145.195312 104.183594 147.257812 104.183594 C 147.257812 104.183594 149.253906 104.183594 148.152344 99.636719 C 148.152344 99.636719 149.253906 103.011719 150.695312 103.011719 C 152.140625 103.011719 155.582031 100.394531 154.960938 98.671875 C 154.34375 96.949219 154.34375 94.261719 154.890625 93.640625 L 147.1875 92.195312 L 144.644531 93.984375 " fill-opacity="1" fill-rule="nonzero"/><g clip-path="url(#e36abad21e)"><g clip-path="url(#bf52e51acd)"><g clip-path="url(#cbf56ad57e)"><g clip-path="url(#599e3ac841)"><path fill="url(#c128374b66)" d="M 145.40625 78.769531 L 134.28125 103.0625 L 161.65625 115.644531 L 172.78125 91.355469 Z M 145.40625 78.769531 " fill-rule="nonzero"/></g></g></g></g><path fill="#3c3d42" d="M 144.800781 101.539062 L 143.269531 102.007812 L 142.664062 100.523438 L 154.136719 76.3125 L 156.273438 77.328125 L 144.800781 101.539062 " fill-opacity="1" fill-rule="nonzero"/><path fill="#323336" d="M 155.59375 77.007812 L 143.824219 101.835938 L 144.800781 101.539062 L 156.273438 77.328125 L 155.59375 77.007812 " fill-opacity="1" fill-rule="nonzero"/><path fill="#a4a6b2" d="M 155.90625 78.230469 L 153.671875 77.164062 L 154.441406 75.542969 L 156.675781 76.605469 L 155.90625 78.230469 " fill-opacity="1" fill-rule="nonzero"/><path fill="#bbbcc7" d="M 156.628906 76.582031 L 154.488281 75.566406 L 155.195312 74.074219 C 155.230469 74 155.316406 73.96875 155.386719 74.003906 L 157.269531 74.898438 C 157.339844 74.933594 157.371094 75.015625 157.335938 75.089844 L 156.628906 76.582031 " fill-opacity="1" fill-rule="nonzero"/><path fill="#323336" d="M 142.515625 103.71875 L 142.417969 103.671875 L 142.503906 102.667969 L 143.238281 103.019531 L 142.515625 103.71875 " fill-opacity="1" fill-rule="nonzero"/><path fill="#a4a6b2" d="M 144.78125 101.523438 C 144.429688 101.425781 144.082031 101.632812 144.082031 101.632812 C 144.082031 101.632812 144.085938 101.222656 143.734375 101.027344 L 143.667969 100.992188 C 143.296875 100.847656 143.011719 101.125 143.011719 101.125 C 143.039062 100.8125 142.835938 100.625 142.730469 100.546875 L 142.664062 100.515625 L 142.496094 102.664062 L 143.246094 103.023438 L 144.804688 101.535156 L 144.78125 101.523438 " fill-opacity="1" fill-rule="nonzero"/><path fill="#a4a6b2" d="M 156.75 74.652344 L 156.28125 74.429688 C 156.636719 74.597656 156.789062 75.027344 156.621094 75.386719 L 156.257812 76.148438 L 154.589844 75.355469 L 154.488281 75.566406 L 156.628906 76.582031 L 157.089844 75.609375 C 157.261719 75.25 157.109375 74.820312 156.75 74.652344 " fill-opacity="1" fill-rule="nonzero"/><path fill="#93969d" d="M 143.246094 103.023438 L 144.804688 101.535156 L 144.78125 101.523438 C 144.429688 101.425781 144.082031 101.632812 144.082031 101.632812 L 143.085938 102.945312 L 143.246094 103.023438 " fill-opacity="1" fill-rule="nonzero"/><path fill="#bbbcc7" d="M 142.730469 100.546875 L 142.664062 100.515625 L 142.496094 102.664062 L 142.65625 102.742188 L 143.011719 101.125 C 143.039062 100.8125 142.835938 100.625 142.730469 100.546875 " fill-opacity="1" fill-rule="nonzero"/><path fill="#d8d9e2" d="M 156.585938 76.800781 L 154.347656 75.738281 L 154.441406 75.542969 L 156.675781 76.605469 L 156.585938 76.800781 " fill-opacity="1" fill-rule="nonzero"/><path fill="#93969d" d="M 155.90625 78.230469 L 155.175781 77.882812 L 155.945312 76.261719 L 156.675781 76.605469 L 155.90625 78.230469 " fill-opacity="1" fill-rule="nonzero"/><path fill="#bbbcc7" d="M 155.945312 76.261719 L 155.855469 76.457031 L 156.582031 76.800781 L 156.675781 76.605469 L 155.945312 76.261719 " fill-opacity="1" fill-rule="nonzero"/><path fill="#bbbcc7" d="M 155.910156 78.230469 L 153.671875 77.164062 L 153.765625 76.96875 L 156 78.035156 L 155.910156 78.230469 " fill-opacity="1" fill-rule="nonzero"/><path fill="#a4a6b2" d="M 155.269531 77.6875 L 155.175781 77.882812 L 155.90625 78.230469 L 156 78.035156 L 155.269531 77.6875 " fill-opacity="1" fill-rule="nonzero"/><path fill="#93969d" d="M 154.589844 76.609375 C 154.550781 76.691406 154.449219 76.730469 154.363281 76.691406 C 154.28125 76.648438 154.242188 76.546875 154.285156 76.460938 C 154.324219 76.375 154.425781 76.339844 154.511719 76.382812 C 154.59375 76.421875 154.632812 76.523438 154.589844 76.609375 " fill-opacity="1" fill-rule="nonzero"/><path fill="#93969d" d="M 155.328125 76.960938 C 155.289062 77.042969 155.1875 77.082031 155.101562 77.039062 C 155.015625 77 154.980469 76.898438 155.019531 76.8125 C 155.0625 76.726562 155.164062 76.691406 155.246094 76.730469 C 155.332031 76.773438 155.367188 76.875 155.328125 76.960938 " fill-opacity="1" fill-rule="nonzero"/><path fill="#707377" d="M 143.9375 99.507812 C 143.777344 99.429688 143.707031 99.238281 143.785156 99.074219 L 153.476562 78.625 C 153.554688 78.464844 153.746094 78.394531 153.90625 78.472656 C 154.066406 78.546875 154.136719 78.742188 154.058594 78.902344 L 144.367188 99.355469 C 144.289062 99.515625 144.097656 99.582031 143.9375 99.507812 " fill-opacity="1" fill-rule="nonzero"/><path fill="#d8d9e2" d="M 156.332031 74.933594 C 156.25 75.105469 155.996094 75.074219 155.730469 74.945312 C 155.460938 74.816406 155.257812 74.683594 155.359375 74.46875 C 155.457031 74.257812 155.691406 74.332031 155.960938 74.457031 C 156.226562 74.585938 156.414062 74.761719 156.332031 74.933594 " fill-opacity="1" fill-rule="nonzero"/><g clip-path="url(#9c0e92ae61)"><g clip-path="url(#74b5e27f22)"><g clip-path="url(#781ff1bc3b)"><g clip-path="url(#1da1af5af0)"><path fill="url(#ba032d2afe)" d="M 146.96875 92.90625 L 141.953125 103.851562 L 156.121094 110.363281 L 161.132812 99.417969 Z M 146.96875 92.90625 " fill-rule="nonzero"/></g></g></g></g><path fill="#d36380" d="M 143.152344 99.128906 L 143.164062 99.429688 C 143.226562 99.332031 143.292969 99.230469 143.355469 99.121094 L 143.152344 99.128906 " fill-opacity="1" fill-rule="nonzero"/><path fill="#d36380" d="M 149.023438 103.152344 C 151.039062 103.960938 157 104.851562 158.558594 105.035156 C 159.476562 105.21875 161.953125 106.183594 161.953125 106.183594 L 165.988281 96.675781 C 165.988281 96.675781 163.972656 95.9375 162.597656 95.203125 C 162.253906 95.023438 161.886719 94.722656 161.5 94.351562 C 162.785156 96.742188 161.035156 102.347656 157.367188 103.359375 C 155.148438 103.96875 153.027344 103.648438 149.941406 102.714844 C 145.996094 101.519531 144.621094 99.0625 144.621094 99.0625 C 144.4375 100.164062 146.730469 102.230469 149.023438 103.152344 " fill-opacity="1" fill-rule="nonzero"/><path fill="#7975b8" d="M 230.667969 174.214844 C 229.933594 159.148438 228.441406 118.367188 215.695312 105.769531 C 201.984375 92.21875 171.125 96.671875 164.039062 94.953125 C 164.039062 94.953125 160.554688 101.382812 159.824219 107.8125 C 159.824219 107.8125 194.007812 116.609375 198.453125 121.386719 C 200.84375 123.957031 201.320312 142.429688 201.320312 142.429688 L 230.667969 174.214844 " fill-opacity="1" fill-rule="nonzero"/><g clip-path="url(#40e86bd312)"><path fill="#9794d2" d="M 176.214844 142.703125 C 182.863281 141.1875 207.511719 132.644531 207.511719 132.644531 C 207.511719 132.644531 222.667969 138.613281 228.535156 157.910156 C 233.105469 172.925781 231.46875 208.441406 232.9375 234.898438 L 163.238281 234.898438 C 163.238281 234.898438 163.421875 224.976562 163.054688 210.828125 C 162.6875 196.679688 160.671875 186.207031 160.671875 186.207031 L 176.214844 142.703125 " fill-opacity="1" fill-rule="nonzero"/></g><path fill="#3d3537" d="M 163.324219 107.386719 C 163.597656 108.382812 164.304688 110.328125 165.84375 111.390625 C 166.859375 112.089844 168.097656 112.292969 169.53125 112.003906 C 170.765625 111.75 171.632812 111.1875 172.191406 110.277344 C 173.117188 108.761719 172.902344 106.683594 172.726562 105.691406 Z M 168.308594 113.425781 C 167.117188 113.425781 166.046875 113.101562 165.105469 112.449219 C 162.535156 110.675781 161.929688 107.125 161.90625 106.972656 C 161.847656 106.625 162.082031 106.296875 162.429688 106.234375 L 173.109375 104.3125 C 173.441406 104.253906 173.757812 104.453125 173.84375 104.769531 C 173.886719 104.917969 174.839844 108.414062 173.296875 110.945312 C 172.550781 112.164062 171.371094 112.945312 169.785156 113.269531 C 169.277344 113.375 168.785156 113.425781 168.308594 113.425781 " fill-opacity="1" fill-rule="nonzero"/><g clip-path="url(#584e767134)"><path fill="#7975b8" d="M 187.449219 185.289062 C 188.609375 200.375 185.515625 228.363281 178.625 234.898438 L 232.9375 234.898438 C 231.46875 208.441406 232.820312 172.089844 228.535156 156.988281 C 222.847656 136.960938 207.511719 132.644531 207.511719 132.644531 C 207.511719 132.644531 182.863281 141.1875 176.214844 142.703125 C 182.128906 142.839844 185.796875 163.789062 187.449219 185.289062 " fill-opacity="1" fill-rule="nonzero"/></g><g clip-path="url(#8d3a15c5ba)"><g clip-path="url(#b3737140f1)"><g clip-path="url(#ab9a39a1e0)"><path fill="url(#c58f832d07)" d="M 124.558594 100.0625 L 101.792969 100.0625 L 101.792969 128.09375 L 124.558594 128.09375 Z M 124.558594 100.0625 " fill-rule="nonzero"/></g></g></g><path fill="#d36380" d="M 124.546875 110.5625 C 123.917969 111.890625 121.96875 112.175781 120.777344 113.09375 C 119.585938 114.015625 119.585938 114.933594 117.933594 116.3125 C 116.28125 117.691406 114.171875 118.242188 113.53125 119.433594 C 112.890625 120.628906 113.347656 123.660156 108.671875 124.765625 C 105.433594 125.527344 103.296875 124.277344 102.46875 123.699219 C 102.554688 126.214844 102.617188 128.09375 102.617188 128.09375 L 115.6875 127.40625 C 115.6875 127.40625 114.585938 121.34375 114.929688 120.207031 C 115.101562 119.636719 116.390625 119.105469 117.679688 118 C 118.972656 116.894531 119.796875 115.363281 120.664062 114.417969 C 122.726562 112.167969 124.460938 111.699219 124.546875 110.5625 " fill-opacity="1" fill-rule="nonzero"/><g clip-path="url(#eb79f100d7)"><g clip-path="url(#2452e814d6)"><g clip-path="url(#a62c0838be)"><path fill="url(#f3e9253f11)" d="M 176.214844 145.839844 L 208.851562 145.839844 L 208.851562 103.382812 L 176.214844 103.382812 Z M 176.214844 145.839844 " fill-rule="nonzero"/></g></g></g><path fill="#d96c7f" d="M 204.414062 143.117188 C 209.550781 139.992188 209.519531 133.742188 207.511719 132.644531 C 206.523438 132.320312 204.507812 131.632812 204.507812 131.632812 C 204.507812 131.632812 202.078125 126.808594 204.210938 121.019531 L 183.953125 103.382812 L 174.769531 131.90625 C 179.929688 132.734375 183.890625 129.046875 186.121094 124.328125 C 186.121094 124.328125 188.472656 125.171875 189.558594 127.566406 C 191.394531 131.609375 191.789062 135.808594 190.199219 137.878906 C 186.53125 142.65625 181.398438 140.085938 176.214844 142.703125 C 176.214844 142.703125 179.789062 143.53125 188.046875 145.320312 C 192.277344 146.242188 199.894531 145.867188 204.414062 143.117188 " fill-opacity="1" fill-rule="nonzero"/><path fill="#8e5760" d="M 208.40625 83.445312 L 167.6875 92.402344 C 173.324219 94.882812 174.03125 108.511719 176.734375 108.960938 C 179.4375 109.410156 183.039062 105.738281 183.039062 105.738281 C 185.015625 103.761719 186.082031 119.691406 190.660156 122.445312 C 193.410156 124.097656 202.214844 123.546875 204.691406 121.753906 C 206.453125 120.480469 209.503906 115.691406 211.292969 103.703125 C 213.082031 91.710938 211.707031 84.683594 208.40625 83.445312 " fill-opacity="1" fill-rule="nonzero"/><path fill="#8e5760" d="M 194.097656 69.9375 C 181.136719 69.082031 175.941406 72.832031 170.160156 70.902344 C 170.160156 70.902344 170.710938 72.695312 172.636719 73.519531 C 172.636719 73.519531 170.839844 74.773438 166.035156 78.207031 C 161.832031 81.210938 159.707031 81.515625 157.917969 81.238281 C 156.816406 84.824219 164.796875 96.121094 176.765625 95.570312 L 208.40625 83.445312 C 208.40625 83.445312 210.742188 71.042969 194.097656 69.9375 " fill-opacity="1" fill-rule="nonzero"/><path fill="#7a4954" d="M 170.109375 94.636719 C 173.660156 99.921875 174.476562 108.585938 176.734375 108.960938 C 179.441406 109.410156 183.039062 105.738281 183.039062 105.738281 C 185.015625 103.761719 186.082031 119.691406 190.660156 122.445312 C 193.410156 124.097656 202.214844 123.546875 204.691406 121.753906 C 206.453125 120.480469 209.503906 115.691406 211.292969 103.703125 C 213.082031 91.710938 211.707031 84.683594 208.40625 83.445312 C 208.40625 83.445312 209.507812 77.59375 204.808594 73.570312 C 204.816406 77.511719 202.421875 83.1875 190.203125 86.636719 C 170.023438 92.332031 157.917969 81.238281 157.917969 81.238281 C 157.039062 84.105469 161.96875 91.914062 170.109375 94.636719 " fill-opacity="1" fill-rule="nonzero"/><g clip-path="url(#fec0ddace0)"><g clip-path="url(#afa09ff7d2)"><g clip-path="url(#64ba3b0bff)"><g clip-path="url(#53056b2c69)"><path fill="url(#c6b3a552b1)" d="M 181.710938 86.179688 L 156.828125 91.035156 L 165.425781 135.292969 L 190.3125 130.441406 Z M 181.710938 86.179688 " fill-rule="nonzero"/></g></g></g></g><path fill="#9794d2" d="M 100.96875 126.855469 C 100.96875 126.855469 109.21875 124.925781 117.199219 125.476562 C 117.199219 125.476562 125.386719 160.613281 133.433594 164.617188 C 140.675781 168.222656 156.230469 152.628906 163.972656 147.089844 C 169.105469 143.414062 176.214844 142.703125 176.214844 142.703125 L 163.421875 189.699219 C 163.421875 189.699219 137.007812 199.070312 125.179688 193.832031 C 111.445312 187.753906 102.34375 168.472656 100.96875 126.855469 " fill-opacity="1" fill-rule="nonzero"/><path fill="#7975b8" d="M 125.179688 193.832031 C 135.003906 198.179688 154.886719 192.453125 161.34375 190.386719 C 161.96875 194.714844 162.828125 202.070312 163.054688 210.828125 C 163.074219 211.503906 163.089844 212.171875 163.105469 212.824219 C 170.585938 204.695312 174.976562 180.507812 174.976562 180.507812 C 174.976562 180.507812 145.261719 199.621094 125.085938 191.902344 C 104.910156 184.183594 100.96875 126.855469 100.96875 126.855469 C 102.34375 168.472656 111.449219 187.753906 125.179688 193.832031 " fill-opacity="1" fill-rule="nonzero"/><path fill="#7a4954" d="M 164.46875 100.464844 C 164.617188 101.578125 164.839844 102.257812 165.890625 102.402344 C 167.238281 102.585938 168.164062 101.964844 168.117188 100.996094 C 168.066406 99.894531 167.273438 98.5625 165.695312 98.480469 C 164.671875 98.425781 164.3125 99.296875 164.46875 100.464844 " fill-opacity="1" fill-rule="nonzero"/><path fill="#7a4954" d="M 208.089844 84.386719 C 210.65625 82.378906 211.882812 78.246094 211.25 75.101562 C 211.171875 74.710938 210.5625 74.804688 210.566406 75.195312 C 210.574219 76.824219 210.558594 78.363281 210.03125 79.933594 C 209.507812 81.496094 208.59375 82.730469 207.699219 84.085938 C 207.53125 84.34375 207.882812 84.546875 208.089844 84.386719 " fill-opacity="1" fill-rule="nonzero"/><path fill="#8e5760" d="M 208.882812 83.628906 C 209.691406 77.351562 206.503906 71.292969 200.621094 68.710938 C 193.074219 65.394531 184.320312 70.144531 176.769531 71.28125 C 176.34375 71.347656 176.4375 72.078125 176.871094 72.042969 C 182.03125 71.652344 186.714844 69.886719 191.742188 68.914062 C 201.570312 67.015625 208.519531 74.027344 208.402344 83.628906 C 208.402344 83.945312 208.84375 83.921875 208.882812 83.628906 " fill-opacity="1" fill-rule="nonzero"/><path fill="#7a4954" d="M 210.414062 108.328125 C 212.859375 102.15625 218.519531 85.691406 207.847656 83.546875 C 207.324219 83.441406 207.097656 84.222656 207.625 84.351562 C 218.253906 86.992188 211.382812 101.675781 210.050781 108.226562 C 210.003906 108.46875 210.324219 108.550781 210.414062 108.328125 " fill-opacity="1" fill-rule="nonzero"/><path fill="#7a4954" d="M 163.058594 82.300781 C 172.703125 87.53125 184.058594 85.65625 193.964844 82.121094 C 194.382812 81.972656 194.214844 81.316406 193.777344 81.445312 C 183.386719 84.441406 173.617188 86.304688 163.292969 81.898438 C 163.027344 81.785156 162.785156 82.152344 163.058594 82.300781 " fill-opacity="1" fill-rule="nonzero"/><path fill="#7a4954" d="M 184.75 81.519531 C 188.941406 81.132812 193.460938 80.492188 197.265625 78.601562 C 197.574219 78.449219 197.351562 77.996094 197.039062 78.066406 C 192.890625 79.027344 188.929688 80.425781 184.691406 81.09375 C 184.453125 81.132812 184.507812 81.539062 184.75 81.519531 " fill-opacity="1" fill-rule="nonzero"/><path fill="#7a4954" d="M 172.015625 76.921875 C 174.523438 75.984375 176.90625 74.84375 179.523438 74.207031 C 182.140625 73.570312 184.796875 73.527344 187.433594 73.09375 C 187.699219 73.050781 187.707031 72.582031 187.433594 72.542969 C 182.441406 71.863281 175.960938 73.699219 171.871094 76.582031 C 171.714844 76.695312 171.804688 77 172.015625 76.921875 " fill-opacity="1" fill-rule="nonzero"/><path fill="#3d3537" d="M 185.167969 112.578125 C 185.097656 112.578125 185.023438 112.566406 184.953125 112.542969 C 184.617188 112.421875 184.441406 112.050781 184.5625 111.714844 C 186.65625 105.847656 182.824219 104.078125 182.660156 104.007812 C 182.335938 103.863281 182.1875 103.484375 182.324219 103.15625 C 182.464844 102.832031 182.84375 102.679688 183.167969 102.820312 C 183.222656 102.84375 188.289062 105.105469 185.777344 112.148438 C 185.683594 112.414062 185.433594 112.578125 185.167969 112.578125 " fill-opacity="1" fill-rule="nonzero"/><path fill="#3d3537" d="M 161.929688 107.625 C 161.621094 107.625 161.347656 107.402344 161.292969 107.085938 C 161.230469 106.734375 161.464844 106.402344 161.820312 106.339844 L 180.558594 103.097656 C 180.902344 103.035156 181.246094 103.273438 181.304688 103.625 C 181.367188 103.976562 181.128906 104.3125 180.777344 104.371094 L 162.039062 107.617188 C 162 107.621094 161.964844 107.625 161.929688 107.625 " fill-opacity="1" fill-rule="nonzero"/><g clip-path="url(#32c5b15639)"><g clip-path="url(#ed85b5a66c)"><g clip-path="url(#ffedb84fa9)"><g clip-path="url(#8dada9d6ea)"><path fill="url(#d87756c4d6)" d="M 184.773438 100.492188 L 176.105469 103.507812 L 180.023438 114.824219 L 188.695312 111.8125 Z M 184.773438 100.492188 " fill-rule="nonzero"/></g></g></g></g><path fill="#d36380" d="M 181.117188 107.742188 C 181.273438 109.421875 181.957031 110.726562 182.640625 110.660156 C 183.324219 110.597656 183.753906 109.1875 183.59375 107.507812 C 183.4375 105.832031 182.753906 104.527344 182.070312 104.589844 C 181.382812 104.65625 180.957031 106.066406 181.117188 107.742188 " fill-opacity="1" fill-rule="nonzero"/><g clip-path="url(#2175c22576)"><path fill="#3a364d" d="M 257.230469 234.832031 C 261.972656 224.257812 263.628906 209.738281 263.628906 193.710938 C 263.628906 161.375 253.753906 135.15625 231.609375 135.15625 C 209.460938 135.15625 199.585938 161.375 199.585938 193.710938 C 199.585938 209.738281 201.242188 224.257812 205.988281 234.832031 L 257.230469 234.832031 " fill-opacity="1" fill-rule="nonzero"/></g><g clip-path="url(#c5a950a813)"><path fill="#312e3f" d="M 263.472656 234.832031 C 268.28125 224.121094 269.957031 209.414062 269.957031 193.183594 C 269.957031 160.425781 259.957031 133.871094 237.523438 133.871094 C 215.089844 133.871094 205.089844 160.425781 205.089844 193.183594 C 205.089844 209.414062 206.765625 224.121094 211.574219 234.832031 L 263.472656 234.832031 " fill-opacity="1" fill-rule="nonzero"/></g><path fill="#4a4563" d="M 219.960938 159.816406 C 216.359375 157.648438 220.570312 150.886719 223.125 147.6875 C 226.425781 143.550781 232.066406 140.519531 234.542969 141.625 C 237.019531 142.726562 233.167969 146.722656 229.453125 152.371094 C 226.234375 157.265625 223.398438 161.882812 219.960938 159.816406 " fill-opacity="1" fill-rule="nonzero"/><path fill="#4a4563" d="M 219.132812 162.984375 C 222.796875 164.25 220.628906 171.265625 217.757812 170.839844 C 214.042969 170.289062 215.144531 161.605469 219.132812 162.984375 " fill-opacity="1" fill-rule="nonzero"/><g clip-path="url(#be4193ea21)"><path fill="#2c2a38" d="M 208.941406 194.976562 C 208.941406 162.21875 218.898438 135.664062 241.238281 135.664062 C 244.476562 135.664062 247.445312 136.238281 250.167969 137.292969 C 246.5 135.085938 242.296875 133.875 237.523438 133.875 C 215.089844 133.875 205.089844 160.425781 205.089844 193.183594 C 205.089844 209.414062 206.765625 224.121094 211.574219 234.832031 L 214.644531 234.832031 C 210.4375 224.300781 208.941406 210.320312 208.941406 194.976562 " fill-opacity="1" fill-rule="nonzero"/></g></svg>