<svg xmlns="http://www.w3.org/2000/svg" xmlns:xlink="http://www.w3.org/1999/xlink" width="400" zoomAndPan="magnify" viewBox="0 0 300 299.999988" height="400" preserveAspectRatio="xMidYMid meet" version="1.0"><defs><clipPath id="6d7d56f823"><path d="M 58.050781 30 L 241.800781 30 L 241.800781 270 L 58.050781 270 Z M 58.050781 30 " clip-rule="nonzero"/></clipPath></defs><path fill="#c3ddda" d="M 184.523438 178.226562 C 169.015625 167.210938 156.855469 169.273438 146.457031 178.226562 C 131.539062 184.875 111.390625 199.683594 99.492188 232.5625 C 95.957031 239.570312 92.875 246.730469 101.074219 255.285156 C 103.257812 263.847656 110.273438 267.0625 119.265625 268.09375 L 211.550781 268.09375 L 211.550781 268.066406 C 226.6875 267.585938 234.789062 262.464844 237.363281 253.695312 C 227.550781 205.71875 202.328125 186.160156 184.523438 178.226562 Z M 184.523438 178.226562 " fill-opacity="1" fill-rule="nonzero"/><path fill="#738fba" d="M 117.941406 71.140625 C 126.78125 137.421875 203.382812 127.292969 213.035156 71.140625 C 180.996094 51.757812 149.296875 51.789062 117.941406 71.140625 Z M 117.941406 71.140625 " fill-opacity="1" fill-rule="nonzero"/><path fill="#5d5560" d="M 213.035156 71.140625 C 216.117188 83.636719 215.472656 96.300781 212.222656 104.472656 L 212.210938 104.472656 C 198.457031 101.761719 191.214844 93.382812 194.695312 74.953125 C 196.417969 75.292969 198.203125 75.660156 200.070312 76.058594 C 201.828125 76.429688 203.671875 76.171875 205.261719 75.320312 Z M 213.035156 71.140625 " fill-opacity="1" fill-rule="nonzero"/><path fill="#5d5560" d="M 130.894531 76.0625 C 132.535156 75.71875 134.117188 75.394531 135.652344 75.09375 C 138.902344 90.726562 133.917969 100.855469 118.769531 104.472656 L 118.757812 104.472656 C 115.492188 96.300781 114.84375 83.613281 117.925781 71.105469 L 117.941406 71.140625 L 125.71875 75.324219 C 127.304688 76.171875 129.136719 76.429688 130.894531 76.0625 Z M 130.894531 76.0625 " fill-opacity="1" fill-rule="nonzero"/><path fill="#f9b132" d="M 189.898438 228.09375 C 193.660156 228.09375 196.710938 231.148438 196.710938 234.910156 C 196.710938 238.671875 193.660156 241.71875 189.898438 241.71875 C 186.140625 241.71875 183.097656 238.671875 183.097656 234.910156 C 183.097656 231.148438 186.140625 228.09375 189.898438 228.09375 Z M 189.898438 228.09375 " fill-opacity="1" fill-rule="nonzero"/><path fill="#9c9d9c" d="M 204.769531 220.539062 L 204.769531 244.636719 L 189.898438 253.695312 L 175.03125 245.386719 L 175.03125 220.539062 Z M 196.710938 234.910156 C 196.710938 231.148438 193.660156 228.09375 189.898438 228.09375 C 186.140625 228.09375 183.097656 231.148438 183.097656 234.910156 C 183.097656 238.671875 186.140625 241.71875 189.898438 241.71875 C 193.660156 241.71875 196.710938 238.671875 196.710938 234.910156 Z M 196.710938 234.910156 " fill-opacity="1" fill-rule="nonzero"/><path fill="#8ecaef" d="M 154.070312 167.429688 C 160.679688 173.089844 164.984375 180.425781 165.542969 190.488281 L 148.886719 199.160156 L 146.457031 178.226562 Z M 154.070312 167.429688 " fill-opacity="1" fill-rule="nonzero"/><path fill="#8ecaef" d="M 176.910156 167.429688 L 184.523438 178.222656 L 184.523438 178.226562 L 182.195312 199.160156 L 165.542969 190.488281 C 164.007812 179.914062 169.097656 172.929688 176.910156 167.429688 Z M 176.910156 167.429688 " fill-opacity="1" fill-rule="nonzero"/><path fill="#738fba" d="M 128.171875 231.804688 L 154.070312 231.804688 L 154.070312 242.683594 L 128.171875 242.683594 Z M 128.171875 231.804688 " fill-opacity="1" fill-rule="nonzero"/><path fill="#3b5489" d="M 128.171875 222.378906 L 154.070312 222.378906 L 154.070312 231.804688 L 128.171875 231.804688 Z M 128.171875 222.378906 " fill-opacity="1" fill-rule="nonzero"/><path fill="#3b5489" d="M 164.644531 31.910156 C 164.925781 31.902344 165.203125 31.902344 165.488281 31.902344 C 165.777344 31.902344 166.054688 31.902344 166.335938 31.910156 C 195.492188 32.015625 209.625 37.640625 215.996094 41.648438 C 218.90625 43.480469 220.25 47.007812 219.261719 50.304688 L 213.035156 71.140625 C 181.582031 58.480469 149.882812 58.5 117.941406 71.140625 L 117.925781 71.105469 L 117.925781 71.085938 L 111.707031 50.082031 C 110.726562 46.761719 112.09375 43.210938 115.042969 41.402344 C 121.453125 37.488281 135.585938 32.007812 164.644531 31.910156 Z M 164.644531 31.910156 " fill-opacity="1" fill-rule="nonzero"/><path fill="#f9b132" d="M 165.710938 40.703125 C 169.46875 40.703125 172.511719 43.75 172.511719 47.519531 C 172.511719 51.28125 169.46875 54.328125 165.710938 54.328125 C 161.949219 54.328125 158.898438 51.28125 158.898438 47.519531 C 158.898438 43.75 161.949219 40.703125 165.710938 40.703125 Z M 165.710938 40.703125 " fill-opacity="1" fill-rule="nonzero"/><path fill="#fec4b9" d="M 213.917969 104.957031 C 219.675781 107.246094 222.261719 114.78125 219.691406 121.777344 C 217.464844 127.828125 212.113281 131.488281 206.976562 130.878906 C 205.273438 122.3125 206.351562 112.746094 212.222656 104.476562 C 212.792969 104.582031 213.363281 104.734375 213.917969 104.957031 Z M 213.917969 104.957031 " fill-opacity="1" fill-rule="nonzero"/><path fill="#fec4b9" d="M 124.003906 130.878906 C 118.867188 131.488281 113.515625 127.828125 111.289062 121.777344 C 108.71875 114.78125 111.304688 107.246094 117.0625 104.957031 C 117.617188 104.734375 118.1875 104.582031 118.757812 104.472656 C 124.625 112.742188 125.707031 122.3125 124.003906 130.878906 Z M 124.003906 130.878906 " fill-opacity="1" fill-rule="nonzero"/><path fill="#ffd7d2" d="M 124.003906 130.878906 C 121.585938 123.863281 119.757812 114.570312 118.757812 104.472656 L 118.769531 104.472656 C 126.988281 96.804688 132.785156 87.152344 135.652344 75.09375 C 159.707031 70.308594 171.011719 70.234375 194.695312 74.953125 C 196.886719 87.199219 202.867188 96.953125 212.210938 104.472656 L 212.222656 104.472656 L 212.222656 104.476562 C 211.222656 114.574219 209.394531 123.863281 206.976562 130.878906 C 205.941406 133.902344 204.792969 136.503906 203.554688 138.570312 C 199.160156 145.902344 189.121094 155.5 176.910156 159.523438 C 173.265625 160.722656 169.429688 161.429688 165.488281 161.429688 C 161.550781 161.429688 157.714844 160.722656 154.070312 159.523438 C 141.859375 155.5 131.820312 145.902344 127.425781 138.570312 C 126.1875 136.503906 125.039062 133.902344 124.003906 130.878906 Z M 124.003906 130.878906 " fill-opacity="1" fill-rule="nonzero"/><path fill="#ffd7d2" d="M 154.070312 159.523438 L 154.070312 167.429688 L 165.542969 190.488281 L 176.910156 167.429688 L 176.910156 159.523438 Z M 154.070312 159.523438 " fill-opacity="1" fill-rule="nonzero"/><path fill="#ffd7d2" d="M 111.910156 259.253906 L 101.074219 255.285156 C 95.46875 259.160156 95.535156 263.464844 100.777344 268.09375 L 107.167969 268.09375 C 113.195312 267.886719 115.292969 264.859375 111.910156 259.253906 Z M 111.910156 259.253906 " fill-opacity="1" fill-rule="nonzero"/><path fill="#fec4b9" d="M 101.074219 255.285156 C 100.984375 247.875 100.453125 240.203125 99.492188 232.5625 C 98.832031 227.238281 97.957031 221.921875 96.875 216.726562 C 88.507812 210.703125 81.777344 210.390625 76.886719 216.5 C 66.699219 260.402344 69.839844 262.847656 74.859375 268.09375 L 100.777344 268.09375 C 101.03125 263.957031 101.125 259.667969 101.074219 255.285156 Z M 101.074219 255.285156 " fill-opacity="1" fill-rule="nonzero"/><path fill="#f7b6ad" d="M 100.207031 189.878906 C 99.566406 189.148438 98.828125 188.570312 97.984375 188.195312 C 97.402344 187.929688 96.765625 187.777344 96.082031 187.726562 L 96.078125 187.726562 C 73.878906 183.292969 70.640625 214.183594 89.445312 217.632812 C 91.375 217.761719 94.332031 217.613281 95.535156 217.242188 C 95.996094 217.113281 96.441406 216.945312 96.875 216.726562 C 98.679688 215.785156 100.144531 213.855469 100.792969 209.722656 L 101.820312 204.742188 L 102.550781 201.34375 L 102.871094 199.703125 C 103.421875 196.363281 102.367188 192.3125 100.207031 189.878906 Z M 100.207031 189.878906 " fill-opacity="1" fill-rule="nonzero"/><path fill="#ffd7d2" d="M 93.960938 181.347656 C 90.984375 170.285156 84.460938 170.617188 75.527344 178.675781 C 72.988281 178.945312 70.800781 181.679688 70.480469 185.171875 C 70.191406 188.160156 71.386719 190.855469 73.265625 192.074219 C 71.503906 193.109375 70.140625 195.292969 69.921875 197.972656 C 69.648438 200.988281 70.867188 203.683594 72.769531 204.886719 C 71.984375 206.003906 71.417969 207.4375 71.25 209.070312 C 71.015625 211.929688 72.085938 214.496094 73.796875 215.769531 C 73.988281 215.902344 74.164062 216.007812 74.335938 216.117188 C 74.421875 216.195312 74.511719 216.261719 74.597656 216.289062 L 76.886719 216.5 L 89.445312 217.632812 C 89.871094 217.421875 90.59375 216.742188 90.90625 216.378906 C 92.902344 214.210938 93.34375 209.855469 92.078125 207.386719 C 91.945312 207.125 91.832031 206.863281 91.648438 206.636719 C 91.953125 206.527344 92.265625 206.351562 92.535156 206.148438 C 94.121094 205.058594 95.3125 202.988281 95.539062 200.476562 C 95.558594 200.042969 95.574219 199.609375 95.539062 199.195312 C 95.433594 197.585938 94.953125 196.097656 94.160156 195 C 93.730469 194.433594 93.246094 193.976562 92.730469 193.609375 C 94.46875 192.582031 95.828125 190.402344 96.078125 187.726562 C 96.078125 187.722656 96.078125 187.71875 96.078125 187.714844 C 96.308594 185.125 95.445312 182.714844 93.960938 181.347656 Z M 93.960938 181.347656 " fill-opacity="1" fill-rule="nonzero"/><path fill="#9c9d9c" d="M 90.167969 82.082031 C 94.507812 81.667969 97.996094 86.507812 97.746094 92.015625 L 93.960938 181.347656 C 93.289062 180.734375 92.492188 180.332031 91.613281 180.222656 C 91.546875 180.195312 91.5 180.191406 91.457031 180.183594 L 90.414062 180.089844 L 88.714844 179.914062 L 80.570312 179.097656 L 80.53125 179.09375 L 78.972656 178.933594 L 78.226562 178.851562 L 77.738281 178.808594 L 66.457031 177.640625 C 62.484375 177.234375 60.160156 174.480469 60.53125 170.550781 C 60.902344 166.625 64.089844 165.09375 67.878906 165.472656 L 80.640625 166.738281 L 83.796875 90.542969 C 83.976562 86.234375 86.59375 82.507812 89.976562 82.097656 C 90.035156 82.09375 90.109375 82.085938 90.167969 82.082031 Z M 90.167969 82.082031 " fill-opacity="1" fill-rule="nonzero"/><path fill="#ffd7d2" d="M 237.367188 253.695312 L 237.363281 253.695312 L 219.699219 259.140625 C 215.671875 264.378906 217.039062 267.421875 223.875 268.09375 L 239.71875 268.09375 C 239.085938 263.03125 238.296875 258.238281 237.367188 253.695312 Z M 237.367188 253.695312 " fill-opacity="1" fill-rule="nonzero"/><path fill="#b8d3cf" d="M 214.992188 237.996094 C 214.859375 237.152344 214.136719 236.527344 213.28125 236.527344 C 212.324219 236.527344 211.550781 237.304688 211.550781 238.261719 L 211.550781 261.652344 L 219.699219 259.140625 C 217.679688 253.140625 216.226562 245.816406 214.992188 237.996094 Z M 214.992188 237.996094 " fill-opacity="1" fill-rule="nonzero"/><path fill="#fec4b9" d="M 211.550781 261.652344 L 211.550781 268.066406 L 223.875 268.09375 C 222.242188 265.667969 220.875 262.625 219.699219 259.140625 Z M 211.550781 261.652344 " fill-opacity="1" fill-rule="nonzero"/><path fill="#b8d3cf" d="M 117.804688 236.527344 C 117.085938 236.527344 116.476562 237.050781 116.363281 237.757812 C 115.050781 245.863281 113.660156 253.554688 111.910156 259.253906 L 119.257812 261.941406 L 119.265625 261.941406 L 119.265625 237.988281 C 119.265625 237.183594 118.609375 236.527344 117.804688 236.527344 Z M 117.804688 236.527344 " fill-opacity="1" fill-rule="nonzero"/><path fill="#fec4b9" d="M 111.910156 259.253906 C 110.582031 263.582031 109.042969 266.761719 107.167969 268.09375 L 119.265625 268.09375 L 119.265625 261.941406 L 119.257812 261.941406 Z M 111.910156 259.253906 " fill-opacity="1" fill-rule="nonzero"/><path fill="#f7b6ad" d="M 176.910156 159.523438 L 176.910156 166.832031 C 174.636719 167.433594 172.246094 167.75 169.785156 167.75 C 163.957031 167.75 158.542969 165.960938 154.070312 162.894531 L 154.070312 159.523438 C 157.714844 160.722656 161.550781 161.429688 165.488281 161.429688 C 169.429688 161.429688 173.265625 160.722656 176.910156 159.523438 Z M 176.910156 159.523438 " fill-opacity="1" fill-rule="nonzero"/><path fill="#3a322b" d="M 181.207031 86.222656 C 181.253906 86.210938 186.226562 85.398438 189.664062 87.824219 C 189.996094 88.058594 190.378906 88.171875 190.757812 88.171875 C 191.355469 88.171875 191.945312 87.890625 192.316406 87.363281 C 192.921875 86.503906 192.714844 85.316406 191.855469 84.710938 C 187.109375 81.359375 180.816406 82.421875 180.550781 82.46875 C 179.515625 82.652344 178.828125 83.636719 179.007812 84.671875 C 179.1875 85.703125 180.171875 86.394531 181.207031 86.222656 Z M 181.207031 86.222656 " fill-opacity="1" fill-rule="nonzero"/><path fill="#3a322b" d="M 150.429688 82.46875 C 150.164062 82.421875 143.871094 81.359375 139.125 84.710938 C 138.265625 85.316406 138.058594 86.503906 138.664062 87.363281 C 139.035156 87.890625 139.625 88.171875 140.222656 88.171875 C 140.601562 88.171875 140.984375 88.058594 141.316406 87.824219 C 144.746094 85.40625 149.695312 86.207031 149.773438 86.222656 C 150.808594 86.402344 151.792969 85.710938 151.976562 84.675781 C 152.15625 83.640625 151.464844 82.652344 150.429688 82.46875 Z M 150.429688 82.46875 " fill-opacity="1" fill-rule="nonzero"/><g clip-path="url(#6d7d56f823)"><path fill="#3a322b" d="M 241.609375 267.859375 C 238.308594 241.488281 230.4375 219.773438 218.210938 203.320312 C 209.359375 191.410156 198.453125 182.46875 185.792969 176.722656 L 178.8125 166.820312 L 178.8125 160.882812 C 191.257812 156.335938 201.0625 146.433594 205.1875 139.554688 C 206.296875 137.703125 207.339844 135.445312 208.300781 132.847656 C 213.910156 132.765625 219.183594 128.679688 221.476562 122.433594 C 224.386719 114.515625 221.339844 105.914062 214.691406 103.214844 C 217.550781 94.457031 217.6875 82.476562 215.003906 71.210938 L 221.085938 50.851562 C 222.308594 46.761719 220.632812 42.3125 217.007812 40.035156 C 209.792969 35.503906 195.152344 30.113281 166.335938 30.007812 C 165.773438 29.996094 165.214844 29.996094 164.65625 30.007812 C 135.914062 30.109375 121.277344 35.363281 114.050781 39.78125 C 110.375 42.03125 108.660156 46.488281 109.882812 50.621094 L 115.960938 71.164062 C 113.269531 82.460938 113.410156 94.460938 116.289062 103.214844 C 109.640625 105.917969 106.59375 114.515625 109.503906 122.433594 C 111.796875 128.679688 117.070312 132.765625 122.679688 132.847656 C 123.640625 135.445312 124.683594 137.703125 125.792969 139.554688 C 129.917969 146.433594 139.722656 156.335938 152.167969 160.882812 L 152.167969 166.816406 L 145.195312 176.710938 C 131.121094 183.097656 112.554688 196.632812 100.359375 225.171875 C 99.949219 222.628906 99.492188 220.105469 98.992188 217.609375 C 100.90625 216.089844 102.097656 213.625 102.664062 210.0625 L 103.675781 205.140625 L 104.417969 201.707031 L 104.738281 200.070312 C 104.742188 200.050781 104.746094 200.03125 104.75 200.015625 C 105.40625 196.035156 104.152344 191.453125 101.640625 188.628906 C 100.800781 187.667969 99.832031 186.933594 98.773438 186.460938 C 98.523438 186.347656 98.261719 186.253906 97.996094 186.167969 C 97.863281 183.980469 97.09375 182.03125 95.894531 180.617188 L 99.648438 92.097656 C 99.820312 88.328125 98.484375 84.710938 96.082031 82.421875 C 94.34375 80.769531 92.179688 79.976562 89.964844 80.1875 L 89.746094 80.210938 C 85.496094 80.726562 82.121094 85.132812 81.894531 90.460938 L 78.820312 164.640625 L 68.066406 163.574219 C 65.277344 163.296875 62.894531 163.898438 61.179688 165.308594 C 59.714844 166.515625 58.835938 168.269531 58.636719 170.371094 C 58.167969 175.335938 61.230469 179.019531 66.261719 179.535156 L 70.355469 179.960938 C 69.402344 181.339844 68.761719 183.074219 68.589844 184.984375 C 68.332031 187.628906 69.027344 190.167969 70.425781 191.992188 C 69.082031 193.503906 68.207031 195.574219 68.023438 197.800781 C 67.761719 200.714844 68.644531 203.480469 70.335938 205.308594 C 69.820312 206.40625 69.488281 207.625 69.351562 208.914062 C 69.070312 212.355469 70.335938 215.570312 72.660156 217.300781 C 72.683594 217.316406 72.703125 217.332031 72.726562 217.347656 C 72.898438 217.460938 73.054688 217.5625 73.21875 217.664062 C 73.457031 217.855469 73.707031 217.996094 73.96875 218.089844 C 74.117188 218.140625 74.269531 218.171875 74.425781 218.1875 L 74.539062 218.199219 C 65.257812 258.683594 67.472656 263.140625 73.261719 269.179688 L 73.484375 269.414062 C 73.492188 269.417969 73.496094 269.421875 73.5 269.425781 C 73.570312 269.496094 73.644531 269.558594 73.722656 269.617188 C 73.75 269.632812 73.769531 269.65625 73.792969 269.671875 C 73.898438 269.742188 74.007812 269.804688 74.121094 269.851562 C 74.164062 269.871094 74.210938 269.878906 74.253906 269.894531 C 74.332031 269.917969 74.402344 269.945312 74.484375 269.964844 C 74.605469 269.988281 74.726562 270 74.851562 270 C 74.855469 270 74.859375 270 74.863281 270 L 239.71875 270 C 240.265625 270 240.785156 269.765625 241.148438 269.355469 C 241.507812 268.945312 241.675781 268.402344 241.609375 267.859375 Z M 235.152344 252.382812 L 213.457031 259.074219 L 213.457031 236.527344 C 213.457031 235.476562 212.601562 234.621094 211.550781 234.621094 C 210.5 234.621094 209.648438 235.476562 209.648438 236.527344 L 209.648438 266.191406 L 162.089844 266.191406 L 162.089844 206.449219 L 166.625 193.199219 L 181.320312 200.851562 C 181.59375 200.996094 181.894531 201.066406 182.199219 201.066406 C 182.503906 201.066406 182.8125 200.992188 183.09375 200.839844 C 183.648438 200.546875 184.019531 199.996094 184.089844 199.371094 L 186.121094 181.078125 C 204.363281 189.96875 225.976562 209.507812 235.152344 252.382812 Z M 180.613281 196.1875 L 168.074219 189.660156 L 177.199219 171.140625 L 182.550781 178.730469 Z M 217.90625 121.117188 C 216.386719 125.25 213.125 128.207031 209.625 128.890625 C 211.46875 122.796875 212.929688 115.328125 213.863281 107.03125 C 218.195312 109.25 220.015625 115.375 217.90625 121.117188 Z M 119.585938 100.992188 C 117.378906 93.5 117.234375 83.609375 119.226562 73.996094 L 124.820312 77 C 126.210938 77.746094 127.761719 78.132812 129.324219 78.128906 C 129.980469 78.128906 130.632812 78.0625 131.28125 77.929688 C 131.871094 77.804688 132.449219 77.6875 133.023438 77.570312 C 130.417969 86.578125 125.910156 94.4375 119.585938 100.992188 Z M 135.34375 73.214844 C 135.335938 73.214844 135.328125 73.214844 135.320312 73.21875 C 133.769531 73.527344 132.167969 73.851562 130.503906 74.199219 C 129.183594 74.476562 127.800781 74.277344 126.621094 73.644531 L 122.519531 71.441406 C 151.285156 61 180.164062 60.996094 208.480469 71.429688 L 204.359375 73.640625 C 203.175781 74.277344 201.789062 74.472656 200.460938 74.191406 C 172.878906 68.367188 161.425781 68.039062 135.34375 73.214844 Z M 199.675781 77.917969 C 201.882812 78.382812 204.183594 78.058594 206.160156 76.996094 L 211.730469 74.007812 C 213.742188 83.695312 213.582031 93.6875 211.324219 101.21875 C 204.125 94.769531 199.375 86.769531 197.15625 77.390625 C 197.980469 77.5625 198.820312 77.738281 199.675781 77.917969 Z M 116.039062 43.03125 C 121.558594 39.65625 135.050781 34.039062 163.769531 33.820312 C 163.808594 33.824219 163.84375 33.832031 163.882812 33.828125 C 164.410156 33.8125 164.945312 33.808594 165.492188 33.8125 C 165.839844 33.8125 166.179688 33.816406 166.523438 33.816406 C 166.714844 33.820312 166.90625 33.824219 167.097656 33.828125 C 167.121094 33.828125 167.144531 33.832031 167.167969 33.832031 C 167.195312 33.832031 167.222656 33.824219 167.25 33.824219 C 196.007812 34.050781 209.476562 39.800781 214.980469 43.261719 C 217.164062 44.632812 218.175781 47.304688 217.441406 49.757812 L 211.804688 68.621094 C 181.308594 56.851562 150.167969 56.855469 119.179688 68.628906 L 113.53125 49.539062 C 112.796875 47.058594 113.828125 44.382812 116.039062 43.03125 Z M 113.074219 121.117188 C 110.964844 115.375 112.785156 109.25 117.117188 107.03125 C 118.050781 115.328125 119.511719 122.796875 121.355469 128.890625 C 117.855469 128.207031 114.59375 125.25 113.074219 121.117188 Z M 129.058594 137.59375 C 127.910156 135.683594 126.828125 133.230469 125.832031 130.34375 C 125.816406 130.292969 125.800781 130.242188 125.78125 130.191406 C 123.542969 123.644531 121.761719 114.902344 120.746094 105.207031 C 128.800781 97.453125 134.328125 87.882812 137.195312 76.730469 C 159.945312 72.269531 170.867188 72.21875 193.078125 76.570312 C 195.417969 88.082031 201.179688 97.730469 210.222656 105.289062 C 209.210938 114.953125 207.433594 123.664062 205.199219 130.195312 C 205.179688 130.242188 205.164062 130.292969 205.148438 130.34375 C 204.152344 133.226562 203.070312 135.683594 201.925781 137.59375 C 196.839844 146.074219 182.453125 159.527344 165.488281 159.527344 C 148.527344 159.527344 134.140625 146.074219 129.058594 137.59375 Z M 165.488281 163.335938 C 168.765625 163.335938 171.949219 162.871094 175.007812 162.070312 L 175.007812 166.980469 L 165.535156 186.199219 L 155.972656 166.976562 L 155.972656 162.070312 C 159.03125 162.871094 162.214844 163.335938 165.488281 163.335938 Z M 153.789062 171.128906 L 163.007812 189.660156 L 150.460938 196.195312 L 148.433594 178.730469 Z M 144.871094 181.078125 L 146.996094 199.382812 C 147.070312 200.003906 147.441406 200.550781 147.996094 200.84375 C 148.273438 200.992188 148.582031 201.066406 148.886719 201.066406 C 149.1875 201.066406 149.492188 200.996094 149.765625 200.851562 L 162.199219 194.375 L 158.386719 205.515625 C 158.316406 205.710938 158.28125 205.921875 158.28125 206.132812 L 158.28125 266.191406 L 121.167969 266.191406 L 121.167969 236.527344 C 121.167969 235.476562 120.316406 234.621094 119.265625 234.621094 C 118.214844 234.621094 117.363281 235.476562 117.363281 236.527344 L 117.363281 259.222656 L 102.949219 253.949219 C 102.816406 246.980469 102.3125 239.855469 101.445312 232.785156 C 112.523438 202.503906 130.707031 188 144.871094 181.078125 Z M 102.984375 258.015625 L 117.363281 263.277344 L 117.363281 266.191406 L 102.78125 266.191406 C 102.910156 263.507812 102.980469 260.78125 102.984375 258.015625 Z M 98.78125 191.148438 C 100.523438 193.101562 101.453125 196.554688 100.996094 199.367188 L 100.691406 200.941406 L 99.953125 204.355469 L 98.925781 209.339844 C 98.921875 209.367188 98.914062 209.398438 98.910156 209.429688 C 98.394531 212.722656 97.375 214.164062 96.269531 214.867188 C 96.058594 214.9375 95.863281 215.039062 95.695312 215.171875 C 95.472656 215.269531 95.25 215.347656 95.027344 215.40625 C 95.011719 215.414062 94.992188 215.417969 94.976562 215.421875 C 94.703125 215.507812 94.222656 215.585938 93.628906 215.644531 C 94.808594 213.136719 95.042969 209.84375 94.121094 207.332031 C 95.964844 205.816406 97.191406 203.367188 97.4375 200.644531 C 97.4375 200.613281 97.441406 200.578125 97.441406 200.546875 C 97.460938 200.066406 97.476562 199.574219 97.441406 199.066406 C 97.3125 197.101562 96.695312 195.261719 95.707031 193.886719 C 95.703125 193.878906 95.695312 193.875 95.691406 193.867188 C 95.683594 193.859375 95.683594 193.851562 95.675781 193.84375 C 95.636719 193.792969 95.597656 193.742188 95.558594 193.695312 C 96.433594 192.699219 97.109375 191.464844 97.53125 190.101562 C 97.972656 190.351562 98.390625 190.695312 98.78125 191.148438 Z M 62.425781 170.730469 C 62.53125 169.628906 62.914062 168.816406 63.601562 168.25 C 64.503906 167.507812 65.957031 167.191406 67.691406 167.367188 L 80.453125 168.632812 C 80.972656 168.683594 81.492188 168.519531 81.886719 168.175781 C 82.28125 167.832031 82.519531 167.339844 82.542969 166.816406 L 85.699219 90.621094 C 85.84375 87.191406 87.824219 84.28125 90.179688 83.996094 L 90.347656 83.976562 C 91.730469 83.84375 92.804688 84.558594 93.457031 85.183594 C 95.050781 86.699219 95.964844 89.28125 95.847656 91.933594 L 92.179688 178.390625 C 92.132812 178.382812 92.085938 178.367188 92.035156 178.359375 C 91.867188 178.3125 91.726562 178.296875 91.625 178.289062 L 80.628906 177.191406 L 66.652344 175.75 C 63.695312 175.441406 62.152344 173.613281 62.425781 170.730469 Z M 73.144531 209.269531 C 73.269531 208.035156 73.679688 206.898438 74.328125 205.980469 C 74.625 205.554688 74.738281 205.023438 74.636719 204.511719 C 74.535156 204 74.226562 203.554688 73.785156 203.273438 C 72.429688 202.417969 71.621094 200.308594 71.820312 198.128906 C 71.976562 196.214844 72.921875 194.484375 74.226562 193.722656 C 74.796875 193.386719 75.152344 192.785156 75.167969 192.121094 C 75.183594 191.460938 74.855469 190.839844 74.300781 190.480469 C 72.960938 189.605469 72.167969 187.5 72.378906 185.34375 C 72.632812 182.554688 74.28125 180.726562 75.699219 180.574219 C 75.828125 180.5625 76.007812 180.5625 76.175781 180.578125 L 88.515625 181.808594 L 91.152344 182.070312 C 91.226562 182.089844 91.300781 182.105469 91.378906 182.113281 C 93.113281 182.328125 94.421875 184.863281 94.179688 187.542969 C 94.027344 189.234375 93.273438 190.78125 92.214844 191.652344 L 85.335938 190.984375 C 84.289062 190.878906 83.359375 191.648438 83.257812 192.695312 C 83.253906 192.757812 83.25 192.820312 83.25 192.882812 C 83.25 193.851562 83.984375 194.679688 84.96875 194.777344 L 91.980469 195.457031 C 92.21875 195.664062 92.441406 195.886719 92.632812 196.136719 C 93.199219 196.941406 93.558594 198.066406 93.644531 199.335938 C 93.664062 199.628906 93.652344 199.980469 93.640625 200.351562 C 93.464844 202.152344 92.628906 203.769531 91.457031 204.578125 C 91.433594 204.597656 91.410156 204.613281 91.386719 204.628906 C 91.351562 204.65625 91.316406 204.679688 91.28125 204.703125 L 88.925781 204.527344 C 88.921875 204.527344 88.917969 204.527344 88.914062 204.527344 C 88.910156 204.527344 88.902344 204.527344 88.898438 204.523438 L 84.542969 204.175781 C 83.492188 204.085938 82.574219 204.867188 82.488281 205.917969 C 82.398438 206.964844 83.179688 207.886719 84.226562 207.972656 L 87.863281 208.277344 C 87.882812 208.28125 87.902344 208.28125 87.921875 208.285156 L 88.660156 208.328125 L 90.476562 208.460938 C 91.304688 210.371094 90.847656 213.632812 89.503906 215.09375 C 89.484375 215.109375 89.46875 215.128906 89.453125 215.148438 C 89.328125 215.292969 89.109375 215.503906 88.917969 215.671875 L 75.238281 214.4375 C 75.128906 214.367188 75.019531 214.300781 74.902344 214.222656 C 73.683594 213.289062 72.976562 211.289062 73.144531 209.269531 Z M 78.367188 218.542969 L 89.269531 219.53125 C 89.285156 219.53125 89.292969 219.53125 89.304688 219.53125 C 89.3125 219.53125 89.316406 219.535156 89.320312 219.535156 C 89.820312 219.566406 90.382812 219.582031 90.972656 219.582031 C 92.519531 219.582031 94.234375 219.46875 95.433594 219.226562 C 96.296875 223.621094 97.015625 228.101562 97.585938 232.609375 C 97.585938 232.773438 97.605469 232.929688 97.648438 233.085938 C 98.554688 240.40625 99.0625 247.792969 99.164062 254.988281 C 99.132812 255.191406 99.140625 255.390625 99.175781 255.585938 C 99.210938 259.183594 99.140625 262.726562 98.96875 266.191406 L 75.671875 266.191406 C 71.527344 261.835938 69.253906 258.179688 78.367188 218.542969 Z M 213.457031 266.191406 L 213.457031 263.058594 L 235.914062 256.136719 C 236.53125 259.359375 237.078125 262.710938 237.550781 266.191406 Z M 213.457031 266.191406 " fill-opacity="1" fill-rule="nonzero"/></g><path fill="#3a322b" d="M 169.789062 248.144531 C 169.789062 248.523438 169.714844 248.886719 169.570312 249.238281 C 169.425781 249.585938 169.21875 249.894531 168.953125 250.164062 C 168.683594 250.429688 168.375 250.636719 168.027344 250.78125 C 167.675781 250.929688 167.3125 251 166.933594 251 C 166.554688 251 166.191406 250.929688 165.839844 250.78125 C 165.492188 250.636719 165.183594 250.429688 164.914062 250.164062 C 164.648438 249.894531 164.441406 249.585938 164.296875 249.238281 C 164.152344 248.886719 164.078125 248.523438 164.078125 248.144531 C 164.078125 247.765625 164.152344 247.398438 164.296875 247.050781 C 164.441406 246.699219 164.648438 246.390625 164.914062 246.121094 C 165.183594 245.855469 165.492188 245.648438 165.839844 245.503906 C 166.191406 245.359375 166.554688 245.285156 166.933594 245.285156 C 167.3125 245.285156 167.675781 245.359375 168.027344 245.503906 C 168.375 245.648438 168.683594 245.855469 168.953125 246.121094 C 169.21875 246.390625 169.425781 246.699219 169.570312 247.050781 C 169.714844 247.398438 169.789062 247.765625 169.789062 248.144531 Z M 169.789062 248.144531 " fill-opacity="1" fill-rule="nonzero"/><path fill="#3a322b" d="M 169.789062 212.0625 C 169.789062 212.441406 169.714844 212.808594 169.570312 213.15625 C 169.425781 213.507812 169.21875 213.816406 168.953125 214.085938 C 168.683594 214.351562 168.375 214.558594 168.027344 214.703125 C 167.675781 214.847656 167.3125 214.921875 166.933594 214.921875 C 166.554688 214.921875 166.191406 214.847656 165.839844 214.703125 C 165.492188 214.558594 165.183594 214.351562 164.914062 214.085938 C 164.648438 213.816406 164.441406 213.507812 164.296875 213.15625 C 164.152344 212.808594 164.078125 212.441406 164.078125 212.0625 C 164.078125 211.683594 164.152344 211.320312 164.296875 210.96875 C 164.441406 210.621094 164.648438 210.3125 164.914062 210.042969 C 165.183594 209.777344 165.492188 209.570312 165.839844 209.425781 C 166.191406 209.277344 166.554688 209.207031 166.933594 209.207031 C 167.3125 209.207031 167.675781 209.277344 168.027344 209.425781 C 168.375 209.570312 168.683594 209.777344 168.953125 210.042969 C 169.21875 210.3125 169.425781 210.621094 169.570312 210.96875 C 169.714844 211.320312 169.789062 211.683594 169.789062 212.0625 Z M 169.789062 212.0625 " fill-opacity="1" fill-rule="nonzero"/><path fill="#3a322b" d="M 128.171875 244.59375 L 154.070312 244.59375 C 155.121094 244.59375 155.972656 243.738281 155.972656 242.6875 L 155.972656 222.382812 C 155.972656 221.332031 155.121094 220.476562 154.070312 220.476562 L 128.171875 220.476562 C 127.117188 220.476562 126.265625 221.332031 126.265625 222.382812 L 126.265625 242.6875 C 126.265625 243.738281 127.117188 244.59375 128.171875 244.59375 Z M 130.074219 240.78125 L 130.074219 233.710938 L 152.167969 233.710938 L 152.167969 240.78125 Z M 130.074219 224.289062 L 152.167969 224.289062 L 152.167969 229.902344 L 130.074219 229.902344 Z M 130.074219 224.289062 " fill-opacity="1" fill-rule="nonzero"/><path fill="#3a322b" d="M 175.03125 218.632812 C 173.980469 218.632812 173.128906 219.488281 173.128906 220.539062 L 173.128906 245.382812 C 173.128906 246.074219 173.503906 246.710938 174.105469 247.046875 L 188.972656 255.355469 C 189.261719 255.519531 189.582031 255.597656 189.902344 255.597656 C 190.246094 255.597656 190.589844 255.507812 190.890625 255.320312 L 205.761719 246.265625 C 206.328125 245.917969 206.675781 245.300781 206.675781 244.636719 L 206.675781 220.539062 C 206.675781 219.488281 205.820312 218.632812 204.769531 218.632812 Z M 202.867188 243.566406 L 189.859375 251.488281 L 176.9375 244.265625 L 176.9375 222.445312 L 202.867188 222.445312 Z M 202.867188 243.566406 " fill-opacity="1" fill-rule="nonzero"/><path fill="#3a322b" d="M 188.335938 104.289062 C 188.335938 104.792969 188.238281 105.277344 188.042969 105.746094 C 187.851562 106.210938 187.578125 106.625 187.21875 106.980469 C 186.863281 107.339844 186.449219 107.613281 185.984375 107.808594 C 185.519531 108 185.03125 108.097656 184.527344 108.097656 C 184.023438 108.097656 183.539062 108 183.070312 107.808594 C 182.605469 107.613281 182.191406 107.339844 181.835938 106.980469 C 181.480469 106.625 181.203125 106.210938 181.011719 105.746094 C 180.816406 105.277344 180.722656 104.792969 180.722656 104.289062 C 180.722656 103.78125 180.816406 103.296875 181.011719 102.828125 C 181.203125 102.363281 181.480469 101.949219 181.835938 101.59375 C 182.191406 101.238281 182.605469 100.960938 183.070312 100.769531 C 183.539062 100.574219 184.023438 100.476562 184.527344 100.476562 C 185.03125 100.476562 185.519531 100.574219 185.984375 100.769531 C 186.449219 100.960938 186.863281 101.238281 187.21875 101.59375 C 187.578125 101.949219 187.851562 102.363281 188.042969 102.828125 C 188.238281 103.296875 188.335938 103.78125 188.335938 104.289062 Z M 188.335938 104.289062 " fill-opacity="1" fill-rule="nonzero"/><path fill="#3a322b" d="M 150.269531 104.289062 C 150.269531 104.792969 150.171875 105.277344 149.980469 105.746094 C 149.785156 106.210938 149.511719 106.625 149.152344 106.980469 C 148.796875 107.339844 148.386719 107.613281 147.917969 107.808594 C 147.453125 108 146.964844 108.097656 146.460938 108.097656 C 145.957031 108.097656 145.472656 108 145.003906 107.808594 C 144.539062 107.613281 144.128906 107.339844 143.769531 106.980469 C 143.414062 106.625 143.136719 106.210938 142.945312 105.746094 C 142.75 105.277344 142.65625 104.792969 142.65625 104.289062 C 142.65625 103.78125 142.75 103.296875 142.945312 102.828125 C 143.136719 102.363281 143.414062 101.949219 143.769531 101.59375 C 144.128906 101.238281 144.539062 100.960938 145.003906 100.769531 C 145.472656 100.574219 145.957031 100.476562 146.460938 100.476562 C 146.964844 100.476562 147.453125 100.574219 147.917969 100.769531 C 148.386719 100.960938 148.796875 101.238281 149.152344 101.59375 C 149.511719 101.949219 149.785156 102.363281 149.980469 102.828125 C 150.171875 103.296875 150.269531 103.78125 150.269531 104.289062 Z M 150.269531 104.289062 " fill-opacity="1" fill-rule="nonzero"/><path fill="#3a322b" d="M 171.9375 113.679688 C 172.949219 113.394531 173.535156 112.34375 173.25 111.328125 C 172.960938 110.316406 171.910156 109.730469 170.898438 110.015625 C 167.445312 110.996094 163.96875 110.996094 160.515625 110.015625 C 159.503906 109.730469 158.453125 110.316406 158.167969 111.328125 C 157.878906 112.34375 158.46875 113.394531 159.480469 113.679688 C 161.542969 114.265625 163.636719 114.5625 165.707031 114.5625 C 167.777344 114.5625 169.875 114.265625 171.9375 113.679688 Z M 171.9375 113.679688 " fill-opacity="1" fill-rule="nonzero"/><path fill="#3a322b" d="M 189.902344 243.625 C 194.703125 243.625 198.613281 239.714844 198.613281 234.910156 C 198.613281 230.101562 194.707031 226.191406 189.902344 226.191406 C 185.097656 226.191406 181.191406 230.101562 181.191406 234.910156 C 181.191406 239.714844 185.097656 243.625 189.902344 243.625 Z M 189.902344 230 C 192.605469 230 194.804688 232.203125 194.804688 234.910156 C 194.804688 237.613281 192.605469 239.816406 189.902344 239.816406 C 187.199219 239.816406 185 237.613281 185 234.910156 C 185 232.203125 187.199219 230 189.902344 230 Z M 189.902344 230 " fill-opacity="1" fill-rule="nonzero"/><path fill="#3a322b" d="M 165.707031 56.234375 C 170.511719 56.234375 174.417969 52.324219 174.417969 47.515625 C 174.417969 42.710938 170.511719 38.800781 165.707031 38.800781 C 160.90625 38.800781 156.996094 42.710938 156.996094 47.515625 C 156.996094 52.324219 160.90625 56.234375 165.707031 56.234375 Z M 165.707031 42.609375 C 168.410156 42.609375 170.609375 44.8125 170.609375 47.515625 C 170.609375 50.222656 168.410156 52.421875 165.707031 52.421875 C 163.003906 52.421875 160.804688 50.222656 160.804688 47.515625 C 160.804688 44.8125 163.003906 42.609375 165.707031 42.609375 Z M 165.707031 42.609375 " fill-opacity="1" fill-rule="nonzero"/></svg>