<svg xmlns="http://www.w3.org/2000/svg" xmlns:xlink="http://www.w3.org/1999/xlink" width="400" zoomAndPan="magnify" viewBox="0 0 300 299.999988" height="400" preserveAspectRatio="xMidYMid meet" version="1.0"><defs><clipPath id="ba1392b77e"><path d="M 84 119 L 209 119 L 209 268.015625 L 84 268.015625 Z M 84 119 " clip-rule="nonzero"/></clipPath><clipPath id="e59359b3dc"><path d="M 189.3125 209.199219 L 230.003906 209.199219 L 230.003906 232.726562 L 189.3125 232.726562 Z M 189.3125 209.199219 " clip-rule="nonzero"/></clipPath></defs><path fill="#ea997d" d="M 215.082031 239.339844 L 213.996094 239.609375 C 205.988281 241.582031 201.070312 236.886719 199.097656 228.871094 L 176.242188 148.988281 C 174.566406 142.175781 178.765625 135.230469 185.570312 133.550781 L 191.027344 132.203125 C 197.835938 130.527344 206.132812 147.199219 207.808594 154.011719 L 223 222.460938 C 224.972656 230.476562 223.09375 237.363281 215.082031 239.339844 " fill-opacity="1" fill-rule="nonzero"/><path fill="#ea997d" d="M 158.972656 78.210938 C 158.972656 78.210938 153.886719 112.15625 154.386719 115.871094 C 154.890625 119.585938 162.253906 122.59375 175.515625 125.878906 C 175.515625 125.878906 156.882812 146.070312 134.28125 142.839844 C 111.683594 139.609375 107.007812 130.695312 104.039062 125.089844 C 104.039062 125.089844 124.605469 121.230469 125.863281 115.160156 C 127.375 107.894531 129.15625 74.574219 129.15625 74.574219 L 158.972656 78.210938 " fill-opacity="1" fill-rule="nonzero"/><path fill="#d87e66" d="M 132.882812 75.027344 L 158.972656 78.210938 C 158.972656 78.210938 155.277344 104.933594 154.355469 115.125 C 146.386719 115.925781 125.300781 103.273438 132.882812 75.027344 " fill-opacity="1" fill-rule="nonzero"/><path fill="#273782" d="M 173.992188 131.433594 C 161.324219 137.859375 163.546875 158.847656 177.339844 203.582031 C 177.339844 203.582031 204.21875 206.191406 223.320312 193.085938 C 223.320312 193.085938 207.886719 114.234375 173.992188 131.433594 " fill-opacity="1" fill-rule="nonzero"/><g clip-path="url(#ba1392b77e)"><path fill="#2b3990" d="M 98.316406 228.609375 C 99.539062 240.078125 99.292969 254.863281 98.609375 268.015625 L 208.695312 268.015625 C 206.148438 248.453125 203.554688 224.414062 202.820312 203.703125 C 202.230469 187.132812 196.273438 150.890625 193.90625 136.996094 C 193.324219 133.570312 190.90625 130.746094 187.613281 129.636719 C 177.820312 126.335938 163.851562 121.585938 163.851562 121.585938 C 163.851562 121.585938 167.988281 135.246094 150.164062 137.339844 C 126.480469 140.125 121.144531 119.117188 121.144531 119.117188 C 112.417969 121.839844 98.058594 127.296875 89.957031 130.433594 C 86.421875 131.800781 84.320312 135.449219 84.90625 139.195312 C 87.996094 159.035156 97.269531 218.769531 98.316406 228.609375 " fill-opacity="1" fill-rule="nonzero"/></g><path fill="#273782" d="M 177.96875 183.21875 C 177.96875 183.21875 177.800781 183.398438 177.480469 183.738281 C 177.164062 184.074219 176.695312 184.566406 176.082031 185.179688 C 175.46875 185.789062 174.71875 186.53125 173.832031 187.351562 C 173.398438 187.765625 172.917969 188.195312 172.417969 188.652344 C 171.910156 189.101562 171.375 189.566406 170.804688 190.046875 C 169.667969 191.003906 168.421875 192.019531 167.058594 193.050781 C 165.703125 194.078125 164.246094 195.132812 162.695312 196.164062 C 162.308594 196.417969 161.914062 196.675781 161.519531 196.933594 C 161.121094 197.1875 160.71875 197.441406 160.316406 197.695312 C 159.492188 198.195312 158.664062 198.683594 157.824219 199.179688 C 157.410156 199.433594 156.972656 199.660156 156.542969 199.898438 C 156.109375 200.132812 155.675781 200.371094 155.242188 200.609375 C 154.808594 200.851562 154.367188 201.074219 153.921875 201.292969 L 152.59375 201.964844 C 150.8125 202.835938 149 203.648438 147.195312 204.394531 C 146.296875 204.777344 145.382812 205.105469 144.492188 205.453125 C 143.601562 205.792969 142.703125 206.089844 141.824219 206.402344 C 140.945312 206.699219 140.070312 206.96875 139.21875 207.238281 C 138.359375 207.484375 137.519531 207.726562 136.695312 207.957031 C 135.871094 208.171875 135.070312 208.378906 134.296875 208.574219 C 133.515625 208.757812 132.761719 208.929688 132.035156 209.097656 C 131.308594 209.246094 130.613281 209.386719 129.949219 209.527344 C 129.28125 209.640625 128.648438 209.753906 128.054688 209.859375 C 126.863281 210.050781 125.824219 210.214844 124.96875 210.320312 C 124.109375 210.445312 123.433594 210.507812 122.972656 210.5625 C 122.511719 210.609375 122.265625 210.636719 122.265625 210.636719 C 122.265625 210.636719 122.507812 210.597656 122.96875 210.523438 C 123.425781 210.449219 124.09375 210.339844 124.945312 210.191406 C 125.800781 210.046875 126.828125 209.84375 128.007812 209.605469 C 128.59375 209.480469 129.222656 209.34375 129.882812 209.199219 C 130.539062 209.046875 131.230469 208.886719 131.949219 208.71875 C 132.664062 208.535156 133.410156 208.34375 134.183594 208.144531 C 134.953125 207.929688 135.746094 207.703125 136.5625 207.472656 C 137.371094 207.222656 138.199219 206.960938 139.050781 206.699219 C 139.890625 206.40625 140.757812 206.132812 141.628906 205.824219 C 142.496094 205.503906 143.382812 205.199219 144.265625 204.851562 C 144.707031 204.675781 145.152344 204.496094 145.597656 204.320312 C 146.046875 204.144531 146.496094 203.972656 146.941406 203.777344 C 148.730469 203.027344 150.523438 202.214844 152.289062 201.34375 L 153.613281 200.683594 C 154.054688 200.46875 154.496094 200.25 154.921875 200.007812 C 155.355469 199.777344 155.785156 199.542969 156.210938 199.3125 C 156.640625 199.078125 157.070312 198.855469 157.488281 198.605469 C 158.328125 198.113281 159.160156 197.628906 159.980469 197.148438 C 160.386719 196.898438 160.789062 196.652344 161.1875 196.40625 C 161.582031 196.152344 161.976562 195.902344 162.363281 195.65625 C 163.910156 194.644531 165.390625 193.640625 166.761719 192.644531 C 168.136719 191.65625 169.40625 190.675781 170.558594 189.746094 C 171.714844 188.820312 172.753906 187.949219 173.664062 187.160156 C 174.578125 186.375 175.351562 185.667969 175.988281 185.082031 C 176.621094 184.492188 177.121094 184.035156 177.453125 183.710938 C 177.792969 183.390625 177.96875 183.21875 177.96875 183.21875 " fill-opacity="1" fill-rule="nonzero"/><path fill="#273782" d="M 180.039062 203.726562 C 180.039062 203.726562 179.867188 203.804688 179.546875 203.957031 C 179.222656 204.109375 178.75 204.335938 178.144531 204.609375 C 176.933594 205.15625 175.214844 205.960938 173.132812 206.894531 C 172.089844 207.359375 170.964844 207.863281 169.773438 208.398438 C 168.578125 208.921875 167.316406 209.480469 166.011719 210.054688 C 164.707031 210.625 163.355469 211.210938 161.984375 211.808594 C 160.609375 212.402344 159.214844 213.003906 157.820312 213.605469 C 156.421875 214.199219 155.023438 214.792969 153.644531 215.375 C 152.269531 215.964844 150.90625 216.527344 149.59375 217.078125 C 146.964844 218.175781 144.503906 219.1875 142.394531 220.042969 C 140.28125 220.902344 138.507812 221.59375 137.277344 222.089844 C 136.65625 222.328125 136.171875 222.519531 135.835938 222.652344 C 135.503906 222.78125 135.328125 222.847656 135.328125 222.847656 C 135.328125 222.847656 135.5 222.765625 135.824219 222.617188 C 136.144531 222.464844 136.621094 222.246094 137.222656 221.964844 C 138.433594 221.414062 140.15625 220.609375 142.238281 219.675781 C 144.316406 218.738281 146.746094 217.660156 149.355469 216.519531 C 150.660156 215.949219 152.007812 215.351562 153.382812 214.761719 C 154.757812 214.171875 156.152344 213.570312 157.550781 212.96875 C 158.945312 212.375 160.347656 211.78125 161.722656 211.195312 C 163.101562 210.617188 164.460938 210.046875 165.773438 209.496094 C 167.089844 208.949219 168.363281 208.421875 169.570312 207.921875 C 170.777344 207.429688 171.921875 206.960938 172.976562 206.53125 C 175.089844 205.671875 176.859375 204.980469 178.09375 204.484375 C 178.710938 204.238281 179.199219 204.054688 179.53125 203.921875 C 179.863281 203.792969 180.039062 203.726562 180.039062 203.726562 " fill-opacity="1" fill-rule="nonzero"/><g clip-path="url(#e59359b3dc)"><path fill="#ea997d" d="M 190.632812 210.890625 C 190.632812 210.890625 211.558594 208.144531 219.210938 210.199219 C 222.367188 211.046875 230.605469 220.527344 229.972656 222.214844 C 229.339844 223.898438 226.171875 232.75 224.382812 232.570312 C 222.589844 232.390625 215.058594 231.480469 213.910156 229.597656 C 212.757812 227.71875 212.21875 225.457031 212.21875 225.457031 C 212.21875 225.457031 204.777344 228.234375 197.515625 225.980469 C 197.515625 225.980469 185.660156 222.324219 190.632812 210.890625 " fill-opacity="1" fill-rule="nonzero"/></g><path fill="#d35948" d="M 212.777344 224.933594 C 212.777344 224.933594 217.246094 221.984375 218.042969 221.109375 C 218.042969 221.109375 218.980469 223.269531 222.671875 224.472656 C 222.671875 224.472656 220.792969 225.765625 221.152344 227.890625 C 221.152344 227.890625 219.753906 226.070312 217.476562 227.199219 C 217.476562 227.199219 216.328125 223.59375 212.777344 224.933594 " fill-opacity="1" fill-rule="nonzero"/><path fill="#ea997d" d="M 75.1875 166.761719 C 75.1875 166.761719 75.1875 248.78125 100.972656 250.613281 C 120.523438 252.003906 195.660156 224.53125 195.660156 224.53125 L 194.976562 210.445312 C 194.976562 210.445312 136.300781 214.957031 110.085938 218.773438 L 108.488281 159.234375 C 108.488281 159.234375 90.71875 159.894531 75.1875 166.761719 " fill-opacity="1" fill-rule="nonzero"/><path fill="#fab496" d="M 225.148438 221.789062 C 222.421875 202.359375 182.8125 138.8125 182.8125 138.8125 L 174.226562 146.222656 C 174.226562 146.222656 188.757812 204.859375 194.882812 224.050781 C 203.132812 249.902344 228.03125 242.324219 225.148438 221.789062 " fill-opacity="1" fill-rule="nonzero"/><path fill="#273782" d="M 90.90625 130.066406 C 77.066406 133.230469 69.730469 153.890625 72.300781 200.632812 C 72.300781 200.632812 97.75 209.675781 119.449219 201.585938 C 119.449219 201.585938 127.953125 121.589844 90.90625 130.066406 " fill-opacity="1" fill-rule="nonzero"/><path fill="#273782" d="M 118.671875 125.355469 C 118.671875 125.355469 118.710938 125.496094 118.777344 125.757812 C 118.851562 126.019531 118.964844 126.402344 119.113281 126.886719 C 119.269531 127.367188 119.46875 127.949219 119.734375 128.605469 C 120 129.257812 120.332031 129.976562 120.730469 130.746094 C 121.132812 131.507812 121.613281 132.3125 122.1875 133.121094 C 122.328125 133.324219 122.480469 133.523438 122.632812 133.722656 C 122.785156 133.925781 122.945312 134.125 123.113281 134.324219 C 123.191406 134.421875 123.277344 134.53125 123.359375 134.621094 C 123.449219 134.71875 123.535156 134.816406 123.625 134.917969 C 123.804688 135.117188 123.980469 135.320312 124.164062 135.515625 C 124.910156 136.285156 125.738281 137.035156 126.632812 137.71875 C 127.542969 138.390625 128.507812 139.007812 129.523438 139.546875 C 130.53125 140.09375 131.585938 140.554688 132.644531 140.949219 C 133.707031 141.339844 134.777344 141.652344 135.832031 141.894531 C 136.882812 142.136719 137.910156 142.328125 138.890625 142.46875 C 139.871094 142.605469 140.804688 142.691406 141.667969 142.738281 C 143.398438 142.839844 144.847656 142.820312 145.859375 142.761719 C 146.871094 142.707031 147.445312 142.636719 147.445312 142.636719 C 147.445312 142.636719 147.300781 142.660156 147.035156 142.703125 C 146.765625 142.742188 146.371094 142.800781 145.863281 142.851562 C 145.359375 142.902344 144.742188 142.945312 144.035156 142.980469 C 143.328125 143.015625 142.53125 143.03125 141.660156 143 C 139.917969 142.945312 137.875 142.769531 135.742188 142.285156 C 134.671875 142.046875 133.582031 141.742188 132.5 141.351562 C 131.417969 140.960938 130.339844 140.503906 129.304688 139.953125 C 128.277344 139.394531 127.292969 138.753906 126.375 138.058594 C 125.460938 137.351562 124.628906 136.585938 123.867188 135.78125 C 123.679688 135.582031 123.507812 135.375 123.332031 135.175781 C 123.242188 135.074219 123.15625 134.976562 123.070312 134.875 C 122.976562 134.769531 122.902344 134.664062 122.820312 134.558594 C 122.65625 134.351562 122.496094 134.148438 122.347656 133.9375 C 122.199219 133.726562 122.046875 133.519531 121.910156 133.308594 C 121.351562 132.472656 120.886719 131.644531 120.5 130.859375 C 119.722656 129.292969 119.296875 127.886719 119.027344 126.914062 C 118.894531 126.421875 118.8125 126.03125 118.753906 125.765625 C 118.703125 125.496094 118.671875 125.355469 118.671875 125.355469 " fill-opacity="1" fill-rule="nonzero"/><path fill="#273782" d="M 103.421875 132.019531 C 103.421875 132.019531 103.726562 132.203125 104.246094 132.535156 C 104.503906 132.710938 104.828125 132.898438 105.175781 133.15625 C 105.527344 133.40625 105.933594 133.683594 106.355469 134.007812 C 106.769531 134.34375 107.234375 134.6875 107.6875 135.097656 C 108.140625 135.511719 108.632812 135.929688 109.089844 136.417969 C 109.566406 136.886719 110.023438 137.410156 110.480469 137.945312 C 110.703125 138.214844 110.914062 138.5 111.128906 138.78125 C 111.355469 139.058594 111.554688 139.355469 111.753906 139.652344 C 112.164062 140.238281 112.511719 140.863281 112.867188 141.472656 C 113.027344 141.785156 113.183594 142.09375 113.339844 142.402344 C 113.496094 142.707031 113.621094 143.023438 113.761719 143.328125 C 113.828125 143.480469 113.894531 143.632812 113.960938 143.785156 C 114.019531 143.9375 114.078125 144.089844 114.136719 144.238281 C 114.246094 144.542969 114.367188 144.832031 114.460938 145.125 C 114.652344 145.707031 114.839844 146.25 114.96875 146.769531 C 115.039062 147.027344 115.105469 147.273438 115.171875 147.507812 C 115.222656 147.746094 115.273438 147.96875 115.324219 148.179688 C 115.421875 148.601562 115.503906 148.96875 115.558594 149.273438 C 115.675781 149.882812 115.738281 150.234375 115.738281 150.234375 C 115.738281 150.234375 115.636719 149.890625 115.472656 149.296875 C 115.394531 148.996094 115.285156 148.636719 115.15625 148.222656 C 115.09375 148.019531 115.027344 147.800781 114.957031 147.566406 C 114.878906 147.339844 114.800781 147.097656 114.71875 146.847656 C 114.558594 146.34375 114.34375 145.8125 114.136719 145.242188 C 114.035156 144.957031 113.90625 144.675781 113.785156 144.382812 C 113.722656 144.234375 113.660156 144.089844 113.597656 143.9375 C 113.53125 143.789062 113.460938 143.644531 113.394531 143.496094 C 113.246094 143.199219 113.117188 142.890625 112.957031 142.59375 C 112.796875 142.292969 112.636719 141.988281 112.476562 141.6875 C 112.125 141.089844 111.777344 140.480469 111.375 139.910156 C 111.179688 139.617188 110.984375 139.324219 110.769531 139.050781 C 110.554688 138.773438 110.355469 138.492188 110.136719 138.222656 C 109.914062 137.960938 109.691406 137.699219 109.472656 137.441406 C 109.261719 137.175781 109.019531 136.945312 108.796875 136.699219 C 108.359375 136.210938 107.890625 135.777344 107.457031 135.351562 C 107.246094 135.136719 107.015625 134.953125 106.804688 134.761719 C 106.59375 134.570312 106.386719 134.386719 106.191406 134.214844 C 105.789062 133.871094 105.410156 133.570312 105.078125 133.292969 C 104.75 133.011719 104.4375 132.800781 104.195312 132.609375 C 103.699219 132.238281 103.421875 132.019531 103.421875 132.019531 " fill-opacity="1" fill-rule="nonzero"/><path fill="#fab496" d="M 116.285156 79.5625 C 120.121094 91.722656 135.527344 104.835938 143.933594 107.894531 C 149.847656 110.046875 154.96875 110.414062 159.332031 109.058594 C 173.265625 104.734375 171.734375 87.65625 166.511719 66.46875 C 158.886719 35.527344 150.140625 36.292969 132.925781 41.640625 C 113.742188 47.597656 109.761719 58.902344 116.285156 79.5625 " fill-opacity="1" fill-rule="nonzero"/><path fill="#221a1e" d="M 165.222656 67.105469 C 165.410156 67.0625 165.625 66.96875 165.78125 66.789062 C 166.121094 66.40625 166.097656 65.964844 165.832031 65.679688 C 164.695312 64.484375 160.472656 63.105469 157.402344 65.265625 C 156.582031 65.84375 156.734375 66.6875 156.914062 67.058594 C 157.179688 67.597656 158.125 67.429688 158.578125 67.316406 C 162.199219 66.433594 164.566406 67.054688 164.609375 67.0625 C 164.933594 67.125 165.007812 67.152344 165.222656 67.105469 " fill-opacity="1" fill-rule="nonzero"/><path fill="#221a1e" d="M 146.078125 67.03125 C 146.273438 66.933594 146.375 66.855469 146.460938 66.632812 C 146.652344 66.160156 146.421875 65.625 145.949219 65.433594 C 143.953125 64.628906 139.097656 64.742188 136.164062 68.464844 C 135.847656 68.867188 135.9375 69.453125 136.34375 69.757812 C 136.753906 70.0625 137.195312 69.824219 137.636719 69.574219 C 141.851562 67.1875 145.214844 67.148438 145.261719 67.148438 C 145.589844 67.125 145.847656 67.140625 146.078125 67.03125 " fill-opacity="1" fill-rule="nonzero"/><path fill="#221a1e" d="M 122.574219 56.476562 L 170.140625 46.839844 C 168.066406 44.457031 164.957031 42.867188 161.703125 41.707031 C 154.6875 39.195312 146.585938 38.453125 138.835938 40.054688 C 131.082031 41.65625 117.082031 52.949219 112.464844 58.609375 C 108.769531 63.140625 109.472656 66.191406 109.472656 66.191406 C 109.890625 71.445312 114.167969 77.8125 116.644531 82.511719 C 117.917969 84.933594 122.753906 91.128906 122.753906 91.128906 C 122.753906 91.128906 123.558594 91.484375 124.585938 90.707031 C 126.71875 89.097656 126.824219 89.328125 125.953125 87.277344 L 121.429688 78.238281 C 121.429688 78.238281 129.148438 71.035156 122.824219 62.386719 C 121.976562 61.777344 119.765625 58.59375 122.574219 56.476562 " fill-opacity="1" fill-rule="nonzero"/><path fill="#221a1e" d="M 175.875 109.097656 C 174.296875 114.796875 160.878906 118.105469 159.484375 118.425781 C 150.089844 120.585938 140.796875 118.34375 134.722656 109.644531 C 132.667969 106.699219 131.21875 104.890625 129.167969 101.945312 C 127.113281 98.996094 124.058594 93.96875 122.554688 90.722656 C 122.085938 89.707031 123.367188 89.050781 124.265625 88.324219 C 125.199219 87.570312 125.648438 86.863281 126.207031 87.886719 C 126.769531 88.914062 127.882812 91.636719 128.5625 92.589844 C 129.980469 94.566406 135.523438 98.878906 141.109375 94.65625 C 146.40625 90.660156 151.585938 88.667969 158.945312 86.640625 C 162.996094 85.523438 169.660156 87.125 169.648438 82.152344 C 169.644531 80.304688 176.738281 105.980469 175.875 109.097656 " fill-opacity="1" fill-rule="nonzero"/><path fill="#221a1e" d="M 112.625 58.332031 C 110.5 54.445312 110.457031 49.546875 112.050781 45.539062 C 113.640625 41.527344 117.113281 38.535156 121.101562 37.742188 C 123.140625 37.335938 125.300781 37.46875 127.246094 36.734375 C 127.246094 36.734375 132.742188 33.679688 137.003906 33.082031 C 146.457031 31.765625 144.980469 34.855469 151.386719 34.226562 C 154.578125 33.914062 163.09375 37.183594 165.207031 37.21875 C 165.207031 37.21875 169.523438 36.84375 168.308594 34.421875 C 168.308594 34.421875 178.183594 43.398438 169.554688 56.632812 C 167.132812 60.351562 161.535156 59.96875 157.382812 58.648438 C 153.632812 57.460938 149.878906 54.78125 146.179688 55.820312 C 142.34375 56.898438 139.953125 61.730469 135.957031 61.835938 C 133.863281 61.890625 131.917969 60.585938 130.085938 59.394531 C 128.25 58.207031 126.1875 57.039062 124.132812 57.40625 C 122.078125 57.773438 120.539062 59.1875 121.773438 61.085938 L 112.625 58.332031 " fill-opacity="1" fill-rule="nonzero"/><path fill="#000000" d="M 120.410156 61.128906 C 120.460938 61.09375 119.734375 60.222656 119.011719 58.332031 C 118.339844 56.46875 117.714844 53.425781 118.632812 50.003906 C 118.839844 49.144531 119.203125 48.308594 119.628906 47.472656 C 120.078125 46.65625 120.644531 45.875 121.324219 45.167969 C 122.691406 43.746094 124.527344 42.683594 126.597656 42.0625 C 128.671875 41.445312 130.980469 41.253906 133.351562 41.515625 C 135.726562 41.773438 138.15625 42.429688 140.597656 43.277344 C 145.472656 44.988281 150.046875 47.121094 154.460938 47.988281 C 156.65625 48.4375 158.789062 48.582031 160.753906 48.394531 C 162.71875 48.203125 164.507812 47.628906 165.949219 46.726562 C 167.390625 45.828125 168.457031 44.582031 169.035156 43.289062 C 169.628906 42 169.808594 40.726562 169.769531 39.703125 C 169.730469 38.671875 169.492188 37.890625 169.28125 37.398438 C 169.070312 36.902344 168.898438 36.675781 168.898438 36.675781 C 168.816406 36.695312 169.550781 37.671875 169.59375 39.699219 C 169.605469 40.695312 169.402344 41.921875 168.808594 43.15625 C 168.230469 44.394531 167.191406 45.570312 165.785156 46.421875 C 162.957031 48.171875 158.828125 48.464844 154.519531 47.542969 C 150.167969 46.664062 145.628906 44.539062 140.714844 42.808594 C 138.257812 41.957031 135.796875 41.292969 133.375 41.035156 C 130.957031 40.777344 128.59375 40.980469 126.472656 41.628906 C 124.347656 42.277344 122.460938 43.386719 121.0625 44.863281 C 120.363281 45.605469 119.78125 46.421875 119.324219 47.273438 C 118.894531 48.140625 118.53125 49.007812 118.324219 49.890625 C 117.421875 53.429688 118.117188 56.527344 118.847656 58.402344 C 119.246094 59.347656 119.632812 60.039062 119.929688 60.480469 C 120.234375 60.917969 120.398438 61.136719 120.410156 61.128906 " fill-opacity="1" fill-rule="nonzero"/><path fill="#000000" d="M 171.617188 44.527344 C 171.566406 44.503906 171.316406 45.460938 170.519531 46.988281 C 169.722656 48.496094 168.28125 50.578125 165.859375 52.273438 C 164.652344 53.113281 163.207031 53.839844 161.554688 54.28125 C 159.902344 54.714844 158.050781 54.804688 156.125 54.523438 C 152.238281 53.996094 148.230469 52.003906 144.101562 49.859375 C 142.027344 48.796875 139.972656 47.785156 137.914062 47.03125 C 135.863281 46.269531 133.792969 45.796875 131.8125 45.707031 C 129.832031 45.609375 127.945312 45.890625 126.308594 46.546875 C 124.679688 47.210938 123.300781 48.234375 122.367188 49.476562 C 120.445312 51.941406 120.078125 54.769531 120.3125 56.550781 C 120.410156 57.460938 120.652344 58.136719 120.828125 58.578125 C 121.03125 59.011719 121.144531 59.234375 121.160156 59.226562 C 121.234375 59.199219 120.644531 58.328125 120.488281 56.535156 C 120.3125 54.796875 120.722656 52.066406 122.613281 49.707031 C 123.53125 48.523438 124.863281 47.558594 126.449219 46.929688 C 128.039062 46.3125 129.878906 46.050781 131.8125 46.160156 C 135.714844 46.320312 139.804688 48.167969 143.925781 50.300781 C 148.046875 52.441406 152.117188 54.457031 156.089844 54.972656 C 158.058594 55.246094 159.964844 55.140625 161.660156 54.679688 C 163.347656 54.207031 164.820312 53.441406 166.039062 52.566406 C 168.492188 50.796875 169.914062 48.640625 170.671875 47.085938 C 170.878906 46.699219 171.019531 46.335938 171.144531 46.019531 C 171.277344 45.710938 171.371094 45.441406 171.433594 45.214844 C 171.566406 44.769531 171.632812 44.535156 171.617188 44.527344 " fill-opacity="1" fill-rule="nonzero"/><path fill="#fab496" d="M 148.894531 96.691406 C 148.917969 98.351562 152.175781 100.734375 153.621094 101.300781 C 154.804688 101.761719 156.015625 102.1875 157.398438 101.253906 C 158.800781 100.304688 159.515625 99.605469 160.554688 99.28125 C 162.042969 98.816406 163.898438 99.480469 164.839844 98.933594 C 165.738281 98.414062 165.792969 97.109375 165.578125 96.097656 C 165.269531 94.628906 164.507812 93.511719 163.710938 93.046875 C 159.648438 90.671875 148.800781 91.019531 148.894531 96.691406 " fill-opacity="1" fill-rule="nonzero"/><path fill="#a55d4c" d="M 155.246094 71.128906 C 155.527344 71.058594 163.085938 84.832031 163.128906 85.855469 C 163.179688 86.882812 154.910156 88.277344 154.808594 87.859375 C 154.707031 87.441406 161.722656 86.140625 161.691406 85.257812 C 161.65625 84.375 154.511719 71.3125 155.246094 71.128906 " fill-opacity="1" fill-rule="nonzero"/><path fill="#fab496" d="M 120.15625 81.402344 C 119.789062 81.1875 118.6875 81.160156 117.015625 81.628906 C 115.164062 82.148438 113.660156 83.46875 113.09375 84.632812 C 110.976562 88.988281 119.0625 97.226562 123.300781 95.96875 C 125.117188 95.429688 126.171875 93.453125 125.785156 92.539062 C 123.804688 87.898438 122.285156 82.617188 120.15625 81.402344 " fill-opacity="1" fill-rule="nonzero"/><path fill="#221a1e" d="M 147.820312 74.972656 C 148.078125 76.015625 147.609375 77.035156 146.773438 77.238281 C 145.9375 77.445312 145.050781 76.761719 144.792969 75.714844 C 144.535156 74.667969 145.003906 73.652344 145.839844 73.449219 C 146.675781 73.242188 147.558594 73.921875 147.820312 74.972656 " fill-opacity="1" fill-rule="nonzero"/><path fill="#221a1e" d="M 164.011719 70.4375 C 164.269531 71.484375 163.800781 72.5 162.964844 72.703125 C 162.132812 72.910156 161.246094 72.230469 160.988281 71.179688 C 160.730469 70.132812 161.199219 69.117188 162.035156 68.914062 C 162.871094 68.707031 163.753906 69.390625 164.011719 70.4375 " fill-opacity="1" fill-rule="nonzero"/><path fill="#fafafa" d="M 150.078125 93.78125 L 162.859375 92.984375 C 162.859375 92.984375 159.6875 99.679688 155.488281 99.011719 C 151.289062 98.34375 150.078125 93.78125 150.078125 93.78125 " fill-opacity="1" fill-rule="nonzero"/><path fill="#a55d4c" d="M 142.738281 79.191406 C 142.65625 79.082031 144.042969 77.421875 146.265625 76.820312 C 148.007812 76.351562 149.65625 76.699219 149.660156 76.816406 C 149.660156 76.910156 148.511719 76.820312 146.949219 77.207031 C 144.308594 77.859375 142.816406 79.304688 142.738281 79.191406 " fill-opacity="1" fill-rule="nonzero"/><path fill="#a55d4c" d="M 160.496094 74.144531 C 160.441406 74.023438 161.546875 72.570312 163.242188 72.277344 C 164.570312 72.046875 165.796875 72.609375 165.792969 72.726562 C 165.792969 72.820312 164.933594 72.574219 163.742188 72.75 C 161.730469 73.042969 160.550781 74.265625 160.496094 74.144531 " fill-opacity="1" fill-rule="nonzero"/><path fill="#ea997d" d="M 171.726562 112.726562 C 171.753906 114.296875 171.910156 116.070312 172.234375 118.0625 L 176.179688 118.238281 L 179.082031 123.492188 C 178.566406 121.027344 177.15625 115.144531 177.144531 113.589844 C 177.132812 111.953125 177.183594 110.34375 177.433594 108.859375 C 178.050781 105.191406 179.328125 102.285156 178.023438 101.859375 C 176.433594 101.339844 173.304688 102.679688 172.160156 107.890625 C 171.863281 109.230469 171.699219 110.835938 171.726562 112.726562 " fill-opacity="1" fill-rule="nonzero"/><path fill="#fab496" d="M 155.109375 109.148438 C 160.820312 109.953125 163.371094 109.394531 166.265625 112.929688 C 166.90625 113.714844 167.4375 114.5625 167.796875 115.484375 C 167.824219 115.539062 167.84375 115.589844 167.863281 115.644531 C 167.863281 115.644531 165.511719 124.675781 163.078125 128.464844 C 162.882812 128.773438 162.765625 129.136719 162.722656 129.550781 C 162.230469 133.34375 167.386719 141.210938 170.992188 144.417969 C 171.035156 144.453125 171.074219 144.492188 171.113281 144.527344 C 171.464844 144.832031 171.808594 145.144531 172.144531 145.472656 C 173.527344 146.808594 174.738281 148.285156 175.703125 149.914062 C 177.089844 152.25 184.109375 141.042969 183.332031 139.25 C 181.515625 135.050781 181.398438 128.121094 179.078125 123.242188 C 173.933594 112.425781 174.53125 104.867188 157.019531 104.816406 C 153.066406 104.804688 150.234375 108.457031 155.109375 109.148438 " fill-opacity="1" fill-rule="nonzero"/><path fill="#fab496" d="M 153.5 123.632812 C 154.175781 123.832031 155.015625 123.699219 155.835938 123.097656 C 157.4375 121.933594 159.359375 118.992188 161.214844 118.898438 C 166.957031 118.601562 171.417969 122.261719 172.378906 123.113281 C 172.5 123.21875 172.566406 123.285156 172.566406 123.285156 L 173.992188 117.441406 C 159.871094 108.996094 156.207031 114.25 153.628906 118.128906 C 153.316406 118.597656 152.46875 120.25 152.351562 120.507812 C 151.65625 122.035156 152.339844 123.3125 153.5 123.632812 " fill-opacity="1" fill-rule="nonzero"/><path fill="#fab496" d="M 154.390625 128.613281 C 154.648438 128.691406 154.929688 128.71875 155.226562 128.6875 C 155.707031 128.640625 156.222656 128.453125 156.734375 128.082031 C 158.339844 126.917969 159.4375 123.464844 161.292969 123.367188 C 165.652344 123.148438 169.652344 125.4375 171.800781 126.960938 C 172.851562 127.703125 173.464844 128.265625 173.464844 128.265625 L 174.847656 122.980469 C 160.726562 114.539062 157.296875 118.714844 154.53125 123.105469 C 154.355469 123.390625 153.371094 125.226562 153.25 125.488281 C 152.558594 127.007812 153.238281 128.285156 154.390625 128.613281 " fill-opacity="1" fill-rule="nonzero"/><path fill="#fab496" d="M 176.5 128.390625 C 162.375 119.945312 159.066406 124.3125 156.300781 128.710938 C 156.125 128.988281 154.898438 131.507812 154.777344 131.769531 C 153.679688 134.183594 156.15625 135.109375 158.386719 133.488281 C 159.988281 132.324219 161.089844 128.875 162.941406 128.78125 C 165.855469 128.632812 166.734375 129.933594 168.878906 131.046875 C 171.160156 132.230469 175.875 130.769531 176.484375 128.445312 L 176.5 128.390625 " fill-opacity="1" fill-rule="nonzero"/></svg>