<svg xmlns="http://www.w3.org/2000/svg" xmlns:xlink="http://www.w3.org/1999/xlink" width="400" zoomAndPan="magnify" viewBox="0 0 300 299.999988" height="400" preserveAspectRatio="xMidYMid meet" version="1.0"><defs><clipPath id="7d0a4b4c8a"><path d="M 174 41.699219 L 270 41.699219 L 270 109 L 174 109 Z M 174 41.699219 " clip-rule="nonzero"/></clipPath><clipPath id="a2b05cd85f"><path d="M 174 191 L 270 191 L 270 258.449219 L 174 258.449219 Z M 174 191 " clip-rule="nonzero"/></clipPath></defs><path fill="#f7ab15" d="M 72.46875 106.402344 C 81.925781 106.402344 89.589844 98.730469 89.589844 89.269531 C 89.589844 79.808594 81.925781 72.136719 72.46875 72.136719 C 63.015625 72.136719 55.351562 79.808594 55.351562 89.269531 C 55.351562 98.730469 63.015625 106.402344 72.46875 106.402344 " fill-opacity="1" fill-rule="nonzero"/><path fill="#f7ab15" d="M 147.292969 82.300781 C 145.007812 79.152344 140.605469 78.453125 137.460938 80.734375 L 109.710938 100.886719 L 75.757812 109.636719 C 75.253906 109.585938 74.742188 109.558594 74.222656 109.558594 L 70.714844 109.558594 C 68.515625 109.558594 66.425781 110.03125 64.527344 110.875 C 63.691406 111.058594 62.871094 111.394531 62.113281 111.898438 L 39.792969 126.773438 C 38.046875 127.9375 36.910156 129.820312 36.691406 131.90625 L 32.972656 167.640625 C 32.570312 171.511719 35.378906 174.976562 39.246094 175.378906 C 39.492188 175.40625 39.742188 175.414062 39.984375 175.414062 C 43.542969 175.414062 46.601562 172.722656 46.976562 169.101562 L 50.355469 136.664062 L 55.351562 133.335938 L 55.351562 164.570312 C 55.351562 165.433594 55.4375 166.277344 55.605469 167.089844 C 55.589844 167.363281 55.589844 167.640625 55.601562 167.917969 L 57.082031 199.730469 L 57.082031 242.777344 C 57.082031 247.445312 60.863281 251.230469 65.527344 251.230469 C 70.195312 251.230469 73.976562 247.445312 73.976562 242.777344 L 73.976562 199.535156 C 73.976562 199.40625 73.972656 199.273438 73.96875 199.144531 L 72.953125 177.304688 L 75.851562 177.304688 L 86.84375 202.429688 L 88.484375 243.121094 C 88.667969 247.667969 92.410156 251.230469 96.917969 251.230469 C 97.035156 251.230469 97.148438 251.230469 97.265625 251.226562 C 101.925781 251.039062 105.554688 247.101562 105.367188 242.4375 L 103.664062 200.15625 C 103.621094 199.105469 103.382812 198.070312 102.960938 197.105469 L 89.472656 166.277344 C 89.546875 165.714844 89.589844 165.148438 89.589844 164.570312 L 89.589844 124.9375 C 89.589844 123.496094 89.382812 122.097656 89.007812 120.773438 L 114.519531 114.199219 C 115.375 113.976562 116.183594 113.597656 116.898438 113.078125 L 145.730469 92.140625 C 148.875 89.855469 149.574219 85.449219 147.292969 82.300781 " fill-opacity="1" fill-rule="nonzero"/><path fill="#1a323d" d="M 72.46875 74.777344 C 64.484375 74.777344 57.988281 81.28125 57.988281 89.269531 C 57.988281 97.261719 64.484375 103.761719 72.46875 103.761719 C 80.457031 103.761719 86.953125 97.261719 86.953125 89.269531 C 86.953125 81.28125 80.457031 74.777344 72.46875 74.777344 Z M 72.46875 109.039062 C 61.578125 109.039062 52.714844 100.171875 52.714844 89.269531 C 52.714844 78.371094 61.578125 69.5 72.46875 69.5 C 83.363281 69.5 92.226562 78.371094 92.226562 89.269531 C 92.226562 100.171875 83.363281 109.039062 72.46875 109.039062 " fill-opacity="1" fill-rule="nonzero"/><path fill="#1a323d" d="M 72.953125 174.664062 L 75.851562 174.664062 C 76.898438 174.664062 77.847656 175.285156 78.265625 176.246094 L 89.261719 201.367188 C 89.390625 201.671875 89.464844 201.992188 89.480469 202.320312 L 91.117188 243.011719 C 91.246094 246.222656 93.925781 248.714844 97.160156 248.589844 C 100.359375 248.460938 102.859375 245.746094 102.730469 242.542969 L 101.027344 200.261719 C 101 199.535156 100.835938 198.828125 100.542969 198.164062 L 87.054688 167.332031 C 86.863281 166.890625 86.792969 166.402344 86.859375 165.921875 C 86.921875 165.457031 86.953125 165.003906 86.953125 164.570312 L 86.953125 124.9375 C 86.953125 123.777344 86.789062 122.621094 86.472656 121.492188 C 86.277344 120.808594 86.367188 120.074219 86.722656 119.457031 C 87.074219 118.839844 87.664062 118.394531 88.351562 118.21875 L 113.859375 111.640625 C 114.398438 111.503906 114.898438 111.269531 115.347656 110.941406 L 144.179688 90.003906 C 146.148438 88.578125 146.582031 85.820312 145.15625 83.851562 C 143.734375 81.882812 140.972656 81.445312 139.007812 82.871094 L 111.257812 103.019531 C 110.992188 103.21875 110.6875 103.359375 110.367188 103.441406 L 76.414062 112.195312 C 76.113281 112.269531 75.800781 112.292969 75.492188 112.261719 C 75.070312 112.21875 74.640625 112.199219 74.222656 112.199219 L 70.714844 112.199219 C 68.945312 112.199219 67.222656 112.566406 65.597656 113.285156 C 65.433594 113.359375 65.261719 113.417969 65.085938 113.453125 C 64.546875 113.570312 64.039062 113.785156 63.578125 114.09375 L 41.253906 128.972656 C 40.160156 129.703125 39.453125 130.871094 39.316406 132.179688 L 35.597656 167.914062 C 35.472656 169.085938 35.816406 170.234375 36.554688 171.144531 C 37.296875 172.0625 38.347656 172.632812 39.519531 172.753906 C 39.675781 172.769531 39.832031 172.777344 39.984375 172.777344 C 42.242188 172.777344 44.121094 171.078125 44.355469 168.828125 L 47.730469 136.390625 C 47.8125 135.609375 48.238281 134.90625 48.890625 134.464844 L 53.890625 131.136719 C 54.699219 130.597656 55.738281 130.546875 56.597656 131.007812 C 57.453125 131.464844 57.988281 132.359375 57.988281 133.335938 L 57.988281 164.570312 C 57.988281 165.238281 58.054688 165.910156 58.1875 166.566406 C 58.234375 166.78125 58.25 167.003906 58.238281 167.222656 C 58.226562 167.417969 58.226562 167.609375 58.238281 167.796875 L 59.714844 199.609375 C 59.71875 199.648438 59.71875 199.691406 59.71875 199.730469 L 59.71875 242.777344 C 59.71875 245.984375 62.324219 248.59375 65.527344 248.59375 C 68.734375 248.59375 71.339844 245.984375 71.339844 242.777344 L 71.339844 199.535156 C 71.339844 199.445312 71.335938 199.355469 71.332031 199.265625 L 70.320312 177.425781 C 70.285156 176.707031 70.546875 176.003906 71.046875 175.484375 C 71.542969 174.960938 72.230469 174.664062 72.953125 174.664062 Z M 96.917969 253.871094 C 90.953125 253.871094 86.089844 249.195312 85.847656 243.226562 L 84.230469 203.03125 L 75.902344 184.003906 L 76.601562 199.019531 C 76.609375 199.191406 76.613281 199.363281 76.613281 199.535156 L 76.613281 242.777344 C 76.613281 248.894531 71.640625 253.871094 65.527344 253.871094 C 59.417969 253.871094 54.445312 248.894531 54.445312 242.777344 L 54.445312 199.792969 L 52.96875 168.039062 C 52.957031 167.796875 52.953125 167.546875 52.957031 167.296875 C 52.796875 166.394531 52.714844 165.480469 52.714844 164.570312 L 52.714844 139.464844 L 49.601562 169.375 C 49.085938 174.324219 44.949219 178.054688 39.984375 178.054688 C 39.648438 178.054688 39.308594 178.039062 38.972656 178.003906 C 36.402344 177.734375 34.089844 176.480469 32.460938 174.472656 C 30.832031 172.460938 30.082031 169.9375 30.351562 167.367188 L 34.070312 131.632812 C 34.371094 128.753906 35.921875 126.183594 38.332031 124.578125 L 60.652344 109.699219 C 61.589844 109.078125 62.613281 108.625 63.699219 108.359375 C 65.929688 107.40625 68.289062 106.921875 70.714844 106.921875 L 74.222656 106.921875 C 74.65625 106.921875 75.097656 106.9375 75.535156 106.96875 L 108.566406 98.457031 L 135.910156 78.601562 C 140.230469 75.464844 146.292969 76.429688 149.425781 80.75 C 150.945312 82.847656 151.558594 85.40625 151.152344 87.960938 C 150.746094 90.515625 149.371094 92.757812 147.277344 94.277344 L 118.445312 115.214844 C 117.457031 115.929688 116.355469 116.449219 115.175781 116.753906 L 92.085938 122.703125 C 92.179688 123.445312 92.226562 124.191406 92.226562 124.9375 L 92.226562 164.570312 C 92.226562 164.996094 92.207031 165.425781 92.167969 165.863281 L 105.375 196.046875 C 105.933594 197.316406 106.242188 198.664062 106.296875 200.050781 L 108 242.332031 C 108.246094 248.441406 103.480469 253.617188 97.371094 253.863281 C 97.21875 253.871094 97.070312 253.871094 96.917969 253.871094 " fill-opacity="1" fill-rule="nonzero"/><path fill="#b2b2b2" d="M 261.460938 181.023438 L 181.796875 181.023438 C 178.996094 181.023438 176.722656 178.75 176.722656 175.945312 L 176.722656 124.183594 C 176.722656 121.378906 178.996094 119.105469 181.796875 119.105469 L 261.460938 119.105469 C 264.265625 119.105469 266.539062 121.378906 266.539062 124.183594 L 266.539062 175.945312 C 266.539062 178.75 264.265625 181.023438 261.460938 181.023438 " fill-opacity="1" fill-rule="nonzero"/><path fill="#1a323d" d="M 181.796875 121.746094 C 180.453125 121.746094 179.359375 122.835938 179.359375 124.183594 L 179.359375 175.945312 C 179.359375 177.289062 180.453125 178.382812 181.796875 178.382812 L 261.460938 178.382812 C 262.808594 178.382812 263.902344 177.289062 263.902344 175.945312 L 263.902344 124.183594 C 263.902344 122.835938 262.808594 121.746094 261.460938 121.746094 Z M 261.460938 183.660156 L 181.796875 183.660156 C 177.546875 183.660156 174.085938 180.199219 174.085938 175.945312 L 174.085938 124.183594 C 174.085938 119.925781 177.546875 116.464844 181.796875 116.464844 L 261.460938 116.464844 C 265.714844 116.464844 269.175781 119.925781 269.175781 124.183594 L 269.175781 175.945312 C 269.175781 180.199219 265.714844 183.660156 261.460938 183.660156 " fill-opacity="1" fill-rule="nonzero"/><path fill="#2b98be" d="M 262.191406 106.246094 L 182.527344 106.246094 C 179.722656 106.246094 177.453125 103.972656 177.453125 101.167969 L 177.453125 49.40625 C 177.453125 46.601562 179.722656 44.328125 182.527344 44.328125 L 262.191406 44.328125 C 264.992188 44.328125 267.265625 46.601562 267.265625 49.40625 L 267.265625 101.167969 C 267.265625 103.972656 264.992188 106.246094 262.191406 106.246094 " fill-opacity="1" fill-rule="nonzero"/><path fill="#2b98be" d="M 262.191406 255.800781 L 182.527344 255.800781 C 179.722656 255.800781 177.453125 253.523438 177.453125 250.71875 L 177.453125 198.960938 C 177.453125 196.15625 179.722656 193.878906 182.527344 193.878906 L 262.191406 193.878906 C 264.992188 193.878906 267.265625 196.15625 267.265625 198.960938 L 267.265625 250.71875 C 267.265625 253.523438 264.992188 255.800781 262.191406 255.800781 " fill-opacity="1" fill-rule="nonzero"/><path fill="#b2b2b2" d="M 192.078125 255.714844 L 210.855469 224.738281 L 228.363281 235.910156 L 245.367188 210.515625 L 267.265625 231.855469 L 267.265625 246.964844 L 265.144531 255.59375 L 228.941406 255.800781 L 192.078125 255.714844 " fill-opacity="1" fill-rule="nonzero"/><g clip-path="url(#7d0a4b4c8a)"><path fill="#1a323d" d="M 182.527344 46.96875 C 181.179688 46.96875 180.085938 48.0625 180.085938 49.40625 L 180.085938 101.167969 C 180.085938 102.511719 181.179688 103.609375 182.527344 103.609375 L 262.191406 103.609375 C 263.535156 103.609375 264.628906 102.511719 264.628906 101.167969 L 264.628906 49.40625 C 264.628906 48.0625 263.535156 46.96875 262.191406 46.96875 Z M 262.191406 108.886719 L 182.527344 108.886719 C 178.273438 108.886719 174.8125 105.421875 174.8125 101.167969 L 174.8125 49.40625 C 174.8125 45.152344 178.273438 41.691406 182.527344 41.691406 L 262.191406 41.691406 C 266.441406 41.691406 269.902344 45.152344 269.902344 49.40625 L 269.902344 101.167969 C 269.902344 105.421875 266.441406 108.886719 262.191406 108.886719 " fill-opacity="1" fill-rule="nonzero"/></g><g clip-path="url(#a2b05cd85f)"><path fill="#1a323d" d="M 182.527344 196.519531 C 181.179688 196.519531 180.085938 197.613281 180.085938 198.960938 L 180.085938 250.71875 C 180.085938 252.066406 181.179688 253.160156 182.527344 253.160156 L 262.191406 253.160156 C 263.535156 253.160156 264.628906 252.066406 264.628906 250.71875 L 264.628906 198.960938 C 264.628906 197.613281 263.535156 196.519531 262.191406 196.519531 Z M 262.191406 258.4375 L 182.527344 258.4375 C 178.273438 258.4375 174.8125 254.976562 174.8125 250.71875 L 174.8125 198.960938 C 174.8125 194.703125 178.273438 191.242188 182.527344 191.242188 L 262.191406 191.242188 C 266.441406 191.242188 269.902344 194.703125 269.902344 198.960938 L 269.902344 250.71875 C 269.902344 254.976562 266.441406 258.4375 262.191406 258.4375 " fill-opacity="1" fill-rule="nonzero"/></g><path fill="#ffffff" d="M 236.6875 74.996094 L 214.492188 58.335938 C 214.25 58.15625 213.90625 58.328125 213.90625 58.628906 L 213.90625 91.945312 C 213.90625 92.246094 214.25 92.421875 214.492188 92.238281 L 236.6875 75.578125 C 236.882812 75.433594 236.882812 75.140625 236.6875 74.996094 " fill-opacity="1" fill-rule="nonzero"/><path fill="#1a323d" d="M 235.101562 77.105469 C 235.101562 77.105469 235.105469 77.105469 235.105469 77.105469 Z M 216.542969 63.175781 L 216.542969 87.402344 L 232.683594 75.285156 Z M 214.277344 94.953125 C 213.820312 94.953125 213.359375 94.847656 212.929688 94.632812 C 211.90625 94.121094 211.269531 93.089844 211.269531 91.945312 L 211.269531 58.628906 C 211.269531 57.484375 211.90625 56.453125 212.929688 55.941406 C 213.953125 55.429688 215.160156 55.539062 216.074219 56.222656 L 238.269531 72.882812 C 239.023438 73.445312 239.472656 74.347656 239.472656 75.285156 C 239.472656 76.226562 239.023438 77.128906 238.269531 77.691406 L 216.074219 94.351562 C 215.542969 94.75 214.914062 94.953125 214.277344 94.953125 " fill-opacity="1" fill-rule="nonzero"/><path fill="#f7ab15" d="M 202.453125 210.589844 C 202.453125 215.074219 198.816406 218.714844 194.328125 218.714844 C 189.84375 218.714844 186.210938 215.074219 186.210938 210.589844 C 186.210938 206.101562 189.84375 202.460938 194.328125 202.460938 C 198.816406 202.460938 202.453125 206.101562 202.453125 210.589844 " fill-opacity="1" fill-rule="nonzero"/><path fill="#1a323d" d="M 194.328125 205.101562 C 191.304688 205.101562 188.847656 207.5625 188.847656 210.589844 C 188.847656 213.613281 191.304688 216.074219 194.328125 216.074219 C 197.355469 216.074219 199.816406 213.613281 199.816406 210.589844 C 199.816406 207.5625 197.355469 205.101562 194.328125 205.101562 Z M 194.328125 221.351562 C 188.398438 221.351562 183.570312 216.523438 183.570312 210.589844 C 183.570312 204.652344 188.398438 199.824219 194.328125 199.824219 C 200.261719 199.824219 205.089844 204.652344 205.089844 210.589844 C 205.089844 216.523438 200.261719 221.351562 194.328125 221.351562 " fill-opacity="1" fill-rule="nonzero"/><path fill="#ffffff" d="M 220.179688 133.804688 L 201.613281 141.363281 C 201.476562 141.417969 201.371094 141.519531 201.308594 141.648438 C 201.203125 141.5625 201.074219 141.515625 200.9375 141.515625 L 193.921875 141.515625 C 193.597656 141.515625 193.328125 141.78125 193.328125 142.109375 L 193.328125 157.226562 C 193.328125 157.558594 193.597656 157.824219 193.921875 157.824219 L 200.9375 157.824219 C 201.074219 157.824219 201.203125 157.773438 201.308594 157.6875 C 201.371094 157.816406 201.476562 157.917969 201.613281 157.972656 L 220.179688 165.535156 C 220.570312 165.691406 220.996094 165.40625 220.996094 164.980469 L 220.996094 134.355469 C 220.996094 133.929688 220.570312 133.644531 220.179688 133.804688 " fill-opacity="1" fill-rule="nonzero"/><path fill="#1a323d" d="M 203.667969 142.824219 C 203.667969 142.824219 203.667969 142.828125 203.667969 142.828125 C 203.667969 142.828125 203.667969 142.824219 203.667969 142.824219 Z M 203.667969 156.511719 Z M 203.054688 155.710938 L 218.359375 161.945312 L 218.359375 137.394531 L 203.054688 143.625 C 202.71875 143.921875 202.3125 144.128906 201.867188 144.226562 C 201.398438 144.328125 200.917969 144.300781 200.476562 144.152344 L 195.964844 144.152344 L 195.964844 155.183594 L 200.476562 155.183594 C 200.917969 155.039062 201.398438 155.007812 201.867188 155.109375 C 202.3125 155.207031 202.71875 155.414062 203.054688 155.710938 Z M 220.40625 168.21875 C 219.992188 168.21875 219.578125 168.136719 219.1875 167.976562 L 200.730469 160.460938 L 193.921875 160.460938 C 192.140625 160.460938 190.691406 159.011719 190.691406 157.226562 L 190.691406 142.109375 C 190.691406 140.324219 192.140625 138.875 193.921875 138.875 L 200.730469 138.875 L 219.1875 131.359375 C 220.183594 130.953125 221.3125 131.070312 222.207031 131.671875 C 223.101562 132.273438 223.632812 133.277344 223.632812 134.355469 L 223.632812 164.980469 C 223.632812 166.0625 223.101562 167.0625 222.207031 167.664062 C 221.664062 168.03125 221.039062 168.21875 220.40625 168.21875 " fill-opacity="1" fill-rule="nonzero"/><path fill="#1a323d" d="M 232.667969 157.5 C 232.039062 157.5 231.40625 157.273438 230.898438 156.816406 C 229.820312 155.839844 229.738281 154.171875 230.714844 153.089844 C 231.441406 152.289062 231.839844 151.25 231.839844 150.167969 C 231.839844 149.089844 231.441406 148.050781 230.714844 147.246094 C 229.738281 146.167969 229.820312 144.5 230.898438 143.519531 C 231.976562 142.542969 233.648438 142.625 234.625 143.703125 C 236.230469 145.480469 237.117188 147.777344 237.117188 150.167969 C 237.117188 152.5625 236.230469 154.855469 234.625 156.632812 C 234.105469 157.210938 233.386719 157.5 232.667969 157.5 " fill-opacity="1" fill-rule="nonzero"/><path fill="#1a323d" d="M 240.492188 166.882812 C 239.6875 166.882812 238.898438 166.519531 238.378906 165.828125 C 237.503906 164.660156 237.738281 163.007812 238.90625 162.132812 C 242.714844 159.273438 244.902344 154.914062 244.902344 150.167969 C 244.902344 145.425781 242.714844 141.0625 238.90625 138.207031 C 237.738281 137.332031 237.503906 135.675781 238.378906 134.511719 C 239.253906 133.34375 240.90625 133.109375 242.070312 133.984375 C 247.144531 137.792969 250.175781 143.84375 250.175781 150.167969 C 250.175781 156.496094 247.144531 162.546875 242.070312 166.355469 C 241.597656 166.710938 241.042969 166.882812 240.492188 166.882812 " fill-opacity="1" fill-rule="nonzero"/><path fill="#1a323d" d="M 194.335938 257.082031 L 189.824219 254.347656 L 208.601562 223.367188 C 208.96875 222.761719 209.566406 222.328125 210.257812 222.167969 C 210.949219 222.007812 211.675781 222.132812 212.273438 222.511719 L 227.609375 232.296875 L 243.175781 209.046875 C 243.609375 208.398438 244.3125 207.976562 245.089844 207.894531 C 245.871094 207.8125 246.644531 208.082031 247.207031 208.625 L 269.105469 229.964844 L 265.425781 233.746094 L 245.792969 214.617188 L 230.554688 237.378906 C 229.757812 238.570312 228.15625 238.90625 226.949219 238.132812 L 211.710938 228.414062 L 194.335938 257.082031 " fill-opacity="1" fill-rule="nonzero"/></svg>