<svg xmlns="http://www.w3.org/2000/svg" xmlns:xlink="http://www.w3.org/1999/xlink" width="400" zoomAndPan="magnify" viewBox="0 0 300 299.999988" height="400" preserveAspectRatio="xMidYMid meet" version="1.0"><defs><clipPath id="92aa1c2ed3"><path d="M 1 70 L 140 70 L 140 282.476562 L 1 282.476562 Z M 1 70 " clip-rule="nonzero"/></clipPath><clipPath id="3632c33363"><path d="M 160 70 L 299 70 L 299 282.476562 L 160 282.476562 Z M 160 70 " clip-rule="nonzero"/></clipPath></defs><path fill="#ffb004" d="M 119.355469 96.539062 C 120.144531 97.742188 121.476562 98.460938 122.917969 98.460938 C 123.746094 98.460938 124.550781 98.21875 125.246094 97.761719 C 127.207031 96.472656 127.757812 93.828125 126.46875 91.867188 L 79.515625 20.265625 C 78.894531 19.3125 77.9375 18.664062 76.824219 18.433594 C 75.710938 18.203125 74.574219 18.417969 73.625 19.042969 C 71.664062 20.332031 71.117188 22.976562 72.402344 24.9375 Z M 119.355469 96.539062 " fill-opacity="1" fill-rule="nonzero"/><path fill="#ffb004" d="M 118.273438 21.011719 C 117.398438 18.835938 114.917969 17.777344 112.742188 18.652344 C 111.6875 19.074219 110.863281 19.886719 110.414062 20.933594 C 109.96875 21.976562 109.957031 23.136719 110.382812 24.191406 L 132.707031 79.75 C 133.359375 81.371094 134.90625 82.417969 136.652344 82.417969 C 137.199219 82.417969 137.730469 82.316406 138.238281 82.109375 C 139.292969 81.683594 140.121094 80.875 140.566406 79.828125 C 141.011719 78.78125 141.023438 77.625 140.597656 76.570312 Z M 118.273438 21.011719 " fill-opacity="1" fill-rule="nonzero"/><path fill="#ffb004" d="M 174.710938 97.761719 C 175.40625 98.21875 176.210938 98.460938 177.039062 98.460938 C 178.480469 98.460938 179.8125 97.742188 180.601562 96.539062 L 227.554688 24.9375 C 228.839844 22.976562 228.292969 20.332031 226.332031 19.042969 C 224.371094 17.753906 221.726562 18.300781 220.441406 20.265625 L 173.488281 91.867188 C 172.199219 93.828125 172.75 96.472656 174.710938 97.761719 Z M 174.710938 97.761719 " fill-opacity="1" fill-rule="nonzero"/><path fill="#ffb004" d="M 163.304688 82.417969 C 165.050781 82.417969 166.601562 81.371094 167.253906 79.75 L 189.578125 24.191406 C 190.453125 22.011719 189.394531 19.527344 187.21875 18.652344 C 185.039062 17.777344 182.558594 18.835938 181.683594 21.011719 L 159.359375 76.570312 C 158.484375 78.75 159.542969 81.234375 161.71875 82.109375 C 162.226562 82.316406 162.761719 82.417969 163.304688 82.417969 Z M 163.304688 82.417969 " fill-opacity="1" fill-rule="nonzero"/><g clip-path="url(#92aa1c2ed3)"><path fill="#ffb004" d="M 123.378906 152.734375 C 114.371094 152.058594 105.726562 155.488281 98.351562 162.640625 C 97.277344 146.742188 95.046875 114.144531 94.277344 106.289062 C 93.105469 94.339844 86.515625 86.757812 77.523438 87.039062 C 77.515625 87.039062 77.511719 87.039062 77.503906 87.039062 C 76.566406 87.039062 73.648438 87.171875 70.546875 88.652344 L 70.28125 85.355469 C 70.085938 82.902344 69.5 80.640625 68.535156 78.636719 C 65.746094 72.828125 60.652344 69.839844 54.214844 70.222656 C 48.058594 70.589844 43.429688 74.253906 41.171875 80.535156 C 40.128906 83.4375 39.765625 86.59375 40.089844 89.914062 C 37.539062 89.066406 34.71875 88.945312 31.820312 89.570312 C 20.664062 91.976562 18.9375 101.636719 19.578125 106.371094 L 19.84375 109.117188 C 17.820312 108.347656 15.535156 108.089844 13.035156 108.347656 C 9.308594 108.738281 6.242188 110.371094 4.171875 113.070312 C 0.449219 117.914062 1.175781 124.449219 1.351562 125.667969 L 8.691406 195.527344 C 9.390625 202.179688 11.433594 208.492188 14.765625 214.292969 L 27.207031 235.933594 C 27.964844 237.25 29.378906 238.066406 30.898438 238.066406 C 31.636719 238.066406 32.371094 237.871094 33.015625 237.5 C 35.050781 236.332031 35.753906 233.722656 34.582031 231.6875 L 22.140625 210.046875 C 19.402344 205.285156 17.726562 200.101562 17.152344 194.640625 L 9.800781 124.683594 L 9.777344 124.488281 C 9.574219 123.203125 9.585938 119.988281 10.914062 118.257812 C 11.558594 117.421875 12.511719 116.964844 13.917969 116.816406 C 15.625 116.640625 19.625 116.21875 21.027344 124.636719 C 21.261719 126.039062 23.171875 144.488281 24.964844 162.125 C 24.964844 162.167969 24.96875 162.210938 24.972656 162.253906 L 25.121094 163.6875 C 23.21875 163.894531 22.175781 163.742188 22.171875 163.742188 C 19.898438 163.308594 17.671875 164.804688 17.207031 167.074219 C 16.738281 169.375 18.226562 171.628906 20.527344 172.097656 C 20.78125 172.148438 21.734375 172.316406 23.3125 172.316406 C 25.140625 172.316406 27.113281 172.097656 29.1875 171.660156 C 35.695312 170.292969 42.566406 166.988281 49.609375 161.835938 C 63.625 151.585938 75.734375 151.890625 76.214844 151.90625 C 77.351562 151.972656 78.441406 151.597656 79.289062 150.84375 C 80.144531 150.085938 80.648438 149.042969 80.714844 147.90625 C 80.855469 145.566406 79.066406 143.542969 76.722656 143.402344 C 76.582031 143.398438 75.957031 143.367188 74.929688 143.402344 L 71.457031 100.015625 C 72.148438 95.796875 76.636719 95.558594 77.589844 95.554688 C 77.605469 95.554688 77.683594 95.554688 77.695312 95.554688 C 81.941406 95.398438 85.09375 99.84375 85.808594 107.121094 C 86.726562 116.519531 89.894531 163.683594 90.410156 171.40625 C 74.488281 172.082031 65.980469 180.59375 61.625 187.699219 C 56.636719 195.84375 55.855469 204.101562 55.824219 204.449219 C 55.621094 206.78125 57.351562 208.847656 59.679688 209.058594 C 62.015625 209.265625 64.082031 207.539062 64.300781 205.207031 C 64.398438 204.144531 67.011719 179.179688 93.578125 179.886719 C 95.207031 179.9375 96.726562 179.023438 97.46875 177.582031 C 97.558594 177.40625 106.773438 160.039062 122.742188 161.226562 C 128.035156 161.621094 129.664062 162.9375 130.121094 163.484375 C 130.261719 163.65625 130.59375 164.058594 130.480469 165.105469 C 130.292969 166.824219 129.105469 168.386719 127.378906 169.1875 C 120.6875 172.277344 109.496094 178.980469 109.691406 189.089844 L 109.707031 189.875 C 109.835938 196.515625 109.996094 204.78125 108.707031 206.070312 C 108.496094 206.28125 108.207031 206.5625 107.855469 206.902344 L 107.753906 207 C 99.878906 214.65625 90.792969 224.4375 90.449219 232.207031 C 89.433594 255.449219 93.058594 277.949219 93.210938 278.894531 C 93.554688 280.964844 95.316406 282.464844 97.40625 282.464844 C 97.632812 282.464844 97.863281 282.445312 98.101562 282.410156 C 99.222656 282.222656 100.203125 281.613281 100.867188 280.691406 C 101.53125 279.765625 101.792969 278.640625 101.609375 277.515625 C 101.574219 277.296875 97.960938 255.148438 98.949219 232.578125 C 99.039062 230.566406 101.070312 225.363281 113.683594 213.109375 L 113.785156 213.007812 C 114.175781 212.632812 114.492188 212.320312 114.722656 212.089844 C 118.570312 208.238281 118.4375 201.265625 118.210938 189.710938 L 118.195312 188.929688 C 118.109375 184.457031 124.726562 179.789062 130.945312 176.914062 C 135.367188 174.871094 138.429688 170.699219 138.941406 166.03125 C 139.269531 162.992188 138.484375 160.230469 136.660156 158.039062 C 134.089844 154.941406 129.746094 153.207031 123.378906 152.734375 Z M 66.492188 144.601562 C 62.417969 145.566406 58.34375 147.050781 54.351562 149.023438 L 50.535156 104.125 C 50.425781 102.824219 50.179688 101.539062 49.800781 100.304688 L 48.578125 89.308594 C 48.339844 87.167969 48.542969 85.183594 49.179688 83.414062 C 50.78125 78.957031 53.644531 78.785156 54.722656 78.71875 C 57.648438 78.550781 59.601562 79.695312 60.867188 82.328125 C 61.375 83.382812 61.691406 84.628906 61.800781 86.035156 Z M 35.476562 97.675781 C 37.3125 97.675781 38.800781 98.386719 40.070312 99.84375 C 40.640625 100.5 41.105469 101.289062 41.453125 102.199219 L 43.070312 116.757812 L 46.21875 153.8125 C 45.675781 154.179688 45.136719 154.5625 44.589844 154.960938 C 40.796875 157.734375 37.050781 159.898438 33.441406 161.402344 L 28.039062 105.464844 L 28.019531 105.289062 C 27.875 104.289062 27.46875 99.21875 33.613281 97.890625 C 34.273438 97.75 34.894531 97.675781 35.476562 97.675781 Z M 77.667969 94.5625 Z M 77.667969 94.5625 " fill-opacity="1" fill-rule="nonzero"/></g><g clip-path="url(#3632c33363)"><path fill="#ffb004" d="M 295.785156 113.066406 C 293.714844 110.371094 290.648438 108.734375 286.921875 108.347656 C 284.414062 108.089844 282.136719 108.34375 280.113281 109.113281 L 280.375 106.40625 C 281.019531 101.636719 279.289062 91.976562 268.136719 89.570312 C 265.242188 88.945312 262.417969 89.066406 259.867188 89.914062 C 260.191406 86.59375 259.828125 83.441406 258.785156 80.535156 C 256.527344 74.253906 251.898438 70.589844 245.742188 70.222656 C 239.3125 69.835938 234.214844 72.828125 231.421875 78.636719 C 230.457031 80.644531 229.871094 82.90625 229.675781 85.355469 L 229.410156 88.648438 C 227.257812 87.628906 224.757812 87.039062 222.460938 87.039062 C 213.417969 86.777344 206.847656 94.355469 205.679688 106.289062 C 204.910156 114.144531 202.679688 146.742188 201.605469 162.640625 C 194.238281 155.492188 185.578125 152.066406 176.582031 152.730469 C 170.214844 153.207031 165.867188 154.941406 163.292969 158.039062 C 161.472656 160.230469 160.683594 162.992188 161.015625 166.027344 C 161.523438 170.699219 164.585938 174.871094 169.007812 176.914062 C 175.226562 179.789062 181.84375 184.457031 181.757812 188.925781 L 181.742188 189.714844 C 181.519531 201.265625 181.382812 208.238281 185.230469 212.085938 C 185.460938 212.320312 185.777344 212.625 186.164062 213 L 186.273438 213.105469 C 198.882812 225.359375 200.914062 230.566406 201.003906 232.578125 C 201.988281 254.984375 198.382812 277.292969 198.347656 277.515625 C 197.964844 279.832031 199.539062 282.027344 201.855469 282.40625 C 202.085938 282.445312 202.320312 282.460938 202.546875 282.460938 C 204.640625 282.460938 206.402344 280.960938 206.742188 278.894531 C 206.894531 277.949219 210.523438 255.492188 209.503906 232.203125 C 209.164062 224.433594 200.078125 214.652344 192.152344 206.953125 C 191.777344 206.589844 191.46875 206.289062 191.246094 206.066406 C 189.960938 204.78125 190.121094 196.519531 190.25 189.878906 L 190.265625 189.089844 C 190.460938 178.976562 179.265625 172.277344 172.578125 169.183594 C 170.847656 168.386719 169.660156 166.824219 169.472656 165.105469 C 169.359375 164.054688 169.691406 163.65625 169.832031 163.484375 C 170.289062 162.9375 171.917969 161.621094 177.210938 161.226562 C 183.789062 160.742188 189.980469 163.25 195.625 168.695312 C 200.054688 172.976562 202.464844 177.535156 202.484375 177.578125 C 203.238281 179.042969 204.726562 179.925781 206.378906 179.886719 C 232.96875 179.171875 235.558594 204.15625 235.65625 205.199219 C 235.757812 206.332031 236.292969 207.359375 237.167969 208.089844 C 238.035156 208.816406 239.140625 209.160156 240.265625 209.0625 C 242.601562 208.855469 244.335938 206.789062 244.128906 204.449219 C 244.097656 204.101562 243.316406 195.84375 238.328125 187.699219 C 233.976562 180.589844 225.46875 172.082031 209.542969 171.40625 C 210.058594 163.683594 213.226562 116.519531 214.144531 107.121094 C 214.859375 99.835938 217.96875 95.417969 222.277344 95.554688 L 222.398438 95.554688 C 223.667969 95.5625 227.824219 95.902344 228.5 100.015625 L 225.023438 143.402344 C 223.945312 143.363281 223.316406 143.398438 223.230469 143.40625 C 220.902344 143.542969 219.113281 145.554688 219.242188 147.886719 C 219.371094 150.230469 221.398438 152.027344 223.703125 151.90625 C 224.21875 151.890625 236.382812 151.625 250.34375 161.835938 C 262.800781 170.945312 272.214844 172.308594 276.71875 172.308594 C 278.320312 172.308594 279.257812 172.132812 279.429688 172.097656 C 281.726562 171.628906 283.214844 169.375 282.746094 167.074219 C 282.519531 165.960938 281.871094 165.003906 280.925781 164.375 C 279.976562 163.746094 278.84375 163.527344 277.757812 163.75 C 277.746094 163.753906 276.722656 163.914062 274.832031 163.707031 L 274.976562 162.269531 C 274.980469 162.253906 274.980469 162.234375 274.984375 162.21875 L 274.996094 162.070312 C 276.65625 145.734375 278.679688 126.117188 278.929688 124.613281 C 280.328125 116.222656 284.324219 116.640625 286.039062 116.820312 C 287.433594 116.964844 288.382812 117.417969 289.027344 118.246094 C 290.449219 120.082031 290.328125 123.460938 290.167969 124.539062 L 282.800781 194.640625 C 282.226562 200.101562 280.546875 205.289062 277.808594 210.046875 L 265.371094 231.6875 C 264.804688 232.675781 264.65625 233.820312 264.949219 234.917969 C 265.246094 236.019531 265.953125 236.933594 266.9375 237.5 C 267.582031 237.871094 268.3125 238.070312 269.054688 238.070312 C 270.574219 238.070312 271.988281 237.25 272.746094 235.933594 L 285.183594 214.292969 C 288.519531 208.496094 290.5625 202.183594 291.261719 195.527344 L 298.59375 125.710938 C 298.78125 124.449219 299.511719 117.917969 295.785156 113.066406 Z M 266.34375 97.890625 C 272.238281 99.164062 272.117188 103.890625 271.933594 105.335938 L 266.53125 161.257812 L 266.515625 161.414062 C 262.914062 159.910156 259.167969 157.742188 255.367188 154.960938 C 254.820312 154.5625 254.277344 154.179688 253.738281 153.8125 L 256.886719 116.773438 L 258.503906 102.199219 C 258.851562 101.292969 259.316406 100.5 259.886719 99.84375 C 261.558594 97.921875 263.613281 97.304688 266.34375 97.890625 Z M 237.019531 100.210938 C 237.019531 100.210938 237.019531 100.210938 237.019531 100.207031 L 238.15625 86.035156 C 238.265625 84.632812 238.582031 83.382812 239.089844 82.328125 C 240.355469 79.691406 242.308594 78.550781 245.234375 78.71875 C 246.3125 78.785156 249.175781 78.957031 250.777344 83.414062 C 251.414062 85.183594 251.617188 87.167969 251.378906 89.308594 L 250.15625 100.304688 C 249.78125 101.539062 249.535156 102.824219 249.421875 104.125 L 245.605469 149.023438 C 241.613281 147.050781 237.539062 145.566406 233.464844 144.601562 Z M 237.019531 100.210938 " fill-opacity="1" fill-rule="nonzero"/></g></svg>