<svg xmlns="http://www.w3.org/2000/svg" xmlns:xlink="http://www.w3.org/1999/xlink" width="400" zoomAndPan="magnify" viewBox="0 0 300 299.999988" height="400" preserveAspectRatio="xMidYMid meet" version="1.0"><path fill="#ffffff" d="M 225.828125 124.417969 L 226.605469 124.273438 C 232.496094 125.570312 236.667969 132.253906 233.324219 137.78125 C 234.476562 141.625 232.675781 144.300781 230.1875 147.039062 C 228.117188 146.15625 226.136719 145.359375 223.828125 145.464844 C 224.21875 149.019531 223.65625 152.160156 222.820312 155.597656 L 220.742188 155.714844 C 220.242188 158.863281 219.671875 162 219.089844 165.128906 C 223.832031 171.929688 229.558594 178.003906 233.6875 185.238281 C 240.203125 196.65625 240.941406 210.714844 229.667969 219.875 C 219.234375 228.363281 202.632812 228.636719 191.199219 222.023438 C 186.460938 219.28125 182.617188 215.253906 180.910156 209.75 C 178.609375 202.355469 180.484375 195.214844 184.074219 188.628906 C 188.078125 181.277344 193.804688 175.195312 199.171875 168.867188 C 194.828125 168.496094 190.464844 168.332031 186.101562 168.40625 C 186.191406 171.984375 186.136719 175.558594 186.015625 179.136719 C 184.925781 179.503906 183.847656 179.886719 182.730469 180.171875 C 179.0625 189.6875 176.050781 199.472656 173.628906 209.375 C 169.804688 225.023438 167.574219 240.910156 167.300781 257.03125 C 174.121094 259.8125 178.941406 263.050781 183.988281 268.851562 C 176.589844 269.777344 169.992188 269.070312 162.757812 267.601562 L 162.730469 268.640625 C 158.652344 268.210938 154.253906 267.722656 150.175781 267.292969 C 145.957031 267.757812 141.734375 268.195312 137.515625 268.640625 L 137.488281 267.601562 C 130.25 269.070312 123.859375 269.675781 116.257812 268.851562 C 121.332031 263.253906 126.179688 259.773438 133.050781 256.984375 C 132.609375 230.726562 127.054688 204.640625 117.617188 180.167969 C 116.511719 179.878906 115.441406 179.5 114.359375 179.136719 C 114.238281 175.558594 114.183594 171.988281 114.273438 168.40625 C 109.910156 168.332031 105.546875 168.496094 101.199219 168.867188 C 106.570312 175.195312 112.296875 181.277344 116.296875 188.628906 C 119.890625 195.214844 121.761719 202.355469 119.464844 209.75 C 115.675781 221.933594 101.523438 226.925781 90.054688 226.625 C 82.90625 226.429688 75.917969 224.117188 70.703125 219.875 C 59.429688 210.714844 60.167969 196.65625 66.683594 185.238281 C 70.8125 178.003906 76.539062 171.929688 81.285156 165.128906 C 80.699219 161.996094 80.128906 158.863281 79.632812 155.714844 L 77.554688 155.597656 C 76.707031 152.121094 76.148438 149.078125 76.539062 145.464844 C 74.238281 145.359375 72.253906 146.160156 70.1875 147.039062 C 67.753906 144.363281 65.898438 141.632812 67.050781 137.78125 C 63.703125 132.253906 67.839844 125.667969 73.730469 124.375 L 74.546875 124.417969 C 76.644531 122.175781 79.53125 121.203125 82.546875 121.328125 C 83.242188 121.449219 83.78125 121.515625 84.410156 121.933594 C 90.238281 125.832031 93.613281 132.53125 95.113281 139.195312 C 96.597656 139.519531 98.03125 140.113281 99.328125 140.890625 C 101.96875 141.59375 104.628906 142.230469 107.253906 142.980469 C 111.488281 130.492188 115.492188 117.921875 119.445312 105.347656 C 123.140625 105.710938 127.007812 106.125 130.609375 104.972656 C 126.511719 101.167969 123.539062 96.242188 122.148438 90.824219 C 118.34375 89.914062 116.042969 85.800781 116.417969 82.058594 C 116.710938 79.15625 118.484375 76.332031 121.390625 75.472656 C 121.480469 73.039062 121.617188 70.613281 121.816406 68.191406 C 118.535156 67.085938 115.273438 65.105469 113.90625 61.757812 C 112.96875 59.457031 113.117188 56.75 114.355469 54.589844 C 116.492188 50.859375 119.757812 52.148438 123.441406 54.148438 C 123.558594 52.597656 123.695312 51.042969 123.863281 49.496094 C 124.457031 44.0625 126.535156 39.242188 130.867188 35.738281 C 135.070312 32.339844 141.316406 30.28125 150.28125 30.28125 C 159.746094 30.28125 166.269531 32.167969 170.660156 35.46875 C 175.226562 38.910156 177.402344 43.75 178.09375 49.527344 C 178.261719 50.957031 178.375 52.394531 178.46875 53.832031 C 181.914062 52.023438 184.949219 51.054688 186.972656 54.589844 C 188.210938 56.75 188.359375 59.457031 187.417969 61.757812 C 186.113281 64.957031 183.0625 66.917969 179.925781 68.046875 C 180.125 70.546875 180.207031 73.054688 180.230469 75.566406 C 183.125 76.574219 184.851562 79.542969 185.011719 82.503906 C 185.207031 86.175781 182.804688 90.078125 179.082031 90.863281 C 177.675781 96.359375 174.632812 101.34375 170.4375 105.167969 C 173.871094 106.066406 177.445312 105.6875 180.929688 105.347656 C 184.882812 117.921875 188.886719 130.492188 193.121094 142.980469 C 195.742188 142.230469 198.402344 141.59375 201.042969 140.890625 C 202.34375 140.113281 203.777344 139.519531 205.261719 139.195312 C 206.753906 132.53125 210.644531 124.335938 217.234375 121.242188 C 220.683594 120.898438 223.746094 122.191406 225.828125 124.417969 " fill-opacity="1" fill-rule="evenodd"/><path fill="#37aa83" d="M 208.179688 142.828125 C 208.179688 142.828125 210.273438 129.9375 217.882812 125.242188 C 219 124.554688 222.84375 126.414062 224.5625 128.4375 C 225.15625 128.230469 225.769531 128.042969 226.40625 127.886719 C 232.277344 130.246094 231.605469 135.085938 229.175781 137.195312 C 229.175781 137.195312 231.265625 140.503906 229.242188 142.726562 C 229.242188 142.726562 222.792969 139.859375 216.113281 144.480469 L 210.640625 143.921875 L 208.179688 142.828125 " fill-opacity="1" fill-rule="evenodd"/><path fill="#0d0d0d" d="M 226.125 126.722656 C 231.011719 127.796875 234.113281 133.296875 230.636719 137.414062 C 231.78125 139.988281 231.429688 142.105469 229.554688 144.164062 C 225.308594 142.351562 220.730469 142.746094 216.792969 145.464844 L 215.667969 143.722656 C 221.429688 139.472656 226.640625 140.648438 228.753906 141.285156 C 229.378906 139.765625 228.15625 137.835938 228.152344 137.832031 C 224.867188 137.914062 221.921875 138.671875 217.992188 140 C 221.964844 137.71875 224.550781 136.445312 228.355469 136.054688 C 231.3125 133.488281 228.453125 129.828125 226.078125 129.316406 C 219.015625 131.207031 213.460938 137.527344 211.0625 144.15625 L 209.605469 143.96875 C 212.535156 135.925781 217.960938 129.367188 226.125 126.722656 " fill-opacity="1" fill-rule="nonzero"/><path fill="#37aa83" d="M 207.167969 163.769531 C 203.453125 172.671875 178.691406 190.507812 184.347656 208.691406 C 190.03125 226.960938 228.015625 229.222656 234.058594 207.097656 C 238.617188 190.421875 222.386719 177.316406 214.527344 164.746094 C 214.433594 164.601562 207.253906 163.917969 207.167969 163.769531 " fill-opacity="1" fill-rule="evenodd"/><path fill="#0d0d0d" d="M 138.699219 257.554688 C 137.125 257.929688 126.789062 261.328125 121.492188 266.863281 C 125.269531 267.167969 132.964844 266.257812 139.816406 264.632812 L 139.851562 265.984375 C 142.402344 265.714844 144.679688 265.460938 147.230469 265.191406 C 147.121094 262.847656 147.027344 258.886719 145.394531 257.554688 C 144.507812 256.828125 141.273438 256.941406 138.699219 257.554688 " fill-opacity="1" fill-rule="evenodd"/><path fill="#0d0d0d" d="M 144.75 254.621094 L 139.316406 254.621094 C 139.316406 255.746094 139.316406 256.867188 139.316406 257.992188 C 140.703125 258.769531 143.59375 258.667969 144.75 257.992188 L 144.75 254.621094 " fill-opacity="1" fill-rule="evenodd"/><path fill="#0d0d0d" d="M 161.539062 257.554688 C 163.117188 257.929688 173.457031 261.328125 178.753906 266.863281 C 174.976562 267.167969 167.277344 266.257812 160.425781 264.632812 L 160.394531 265.984375 C 157.839844 265.714844 155.566406 265.460938 153.007812 265.191406 C 153.125 262.847656 153.214844 258.886719 154.851562 257.554688 C 155.734375 256.828125 158.972656 256.941406 161.539062 257.554688 " fill-opacity="1" fill-rule="evenodd"/><path fill="#0d0d0d" d="M 155.492188 254.621094 L 160.925781 254.621094 C 160.925781 255.746094 160.925781 256.867188 160.925781 257.992188 C 159.542969 258.769531 156.652344 258.667969 155.492188 257.992188 L 155.492188 254.621094 " fill-opacity="1" fill-rule="evenodd"/><path fill="#0d0d0d" d="M 180.386719 179.589844 C 176.179688 190.507812 165.511719 221.203125 164.921875 255.773438 C 161.816406 256.3125 157.902344 256.582031 152.773438 255.773438 C 152.773438 255.773438 152.234375 208.828125 150.339844 196.28125 C 148.453125 183.734375 143.726562 175.371094 143.726562 175.371094 L 181.105469 176.03125 L 157.609375 178.472656 C 167.390625 179.917969 175.566406 179.921875 180.386719 179.589844 " fill-opacity="1" fill-rule="evenodd"/><path fill="#37aa83" d="M 92.191406 142.828125 C 92.191406 142.828125 90.097656 129.9375 82.492188 125.242188 C 81.375 124.554688 77.53125 126.414062 75.8125 128.4375 C 75.214844 128.230469 74.601562 128.042969 73.964844 127.886719 C 68.09375 130.246094 68.769531 135.085938 71.199219 137.195312 C 71.199219 137.195312 69.109375 140.503906 71.132812 142.726562 C 71.132812 142.726562 77.578125 139.859375 84.261719 144.480469 L 89.734375 143.921875 L 92.191406 142.828125 " fill-opacity="1" fill-rule="evenodd"/><path fill="#0d0d0d" d="M 74.25 126.722656 C 69.359375 127.796875 66.261719 133.296875 69.738281 137.414062 C 68.59375 139.988281 68.945312 142.105469 70.816406 144.164062 C 75.0625 142.351562 79.644531 142.746094 83.578125 145.464844 L 84.707031 143.722656 C 78.945312 139.472656 73.730469 140.648438 71.621094 141.285156 C 70.996094 139.765625 72.214844 137.835938 72.21875 137.832031 C 75.507812 137.914062 78.453125 138.671875 82.378906 140 C 78.410156 137.71875 75.824219 136.445312 72.019531 136.054688 C 69.0625 133.488281 71.921875 129.828125 74.296875 129.316406 C 81.359375 131.207031 86.914062 137.527344 89.308594 144.15625 L 90.765625 143.96875 C 87.835938 135.925781 82.414062 129.367188 74.25 126.722656 " fill-opacity="1" fill-rule="nonzero"/><path fill="#37aa83" d="M 93.207031 163.769531 C 96.917969 172.671875 121.679688 190.507812 116.023438 208.691406 C 110.339844 226.960938 72.355469 229.222656 66.316406 207.097656 C 61.757812 190.421875 77.984375 177.316406 85.847656 164.746094 C 85.941406 164.601562 93.117188 163.917969 93.207031 163.769531 " fill-opacity="1" fill-rule="evenodd"/><path fill="#0d0d0d" d="M 121.15625 107.925781 C 121.15625 107.925781 113.828125 131.226562 108.78125 145.949219 C 105.335938 144.839844 102.925781 144.347656 97.671875 142.933594 C 91.9375 144.46875 89.71875 161.382812 95.597656 167.03125 C 101.808594 166.296875 108.074219 165.847656 115.414062 166.039062 C 115.640625 161.519531 116.554688 153.363281 117.71875 145.960938 C 119.070312 137.398438 120.4375 127.753906 121.417969 122.625 C 122.292969 117.5 122.175781 122.796875 122.175781 122.796875 L 121.097656 142.386719 L 118.386719 166.144531 C 118.863281 166.167969 119.34375 166.191406 119.832031 166.21875 C 122.410156 146.175781 128.777344 127.421875 121.15625 107.925781 " fill-opacity="1" fill-rule="evenodd"/><path fill="#ffffff" d="M 80.21875 145.074219 C 83.539062 144.484375 86.648438 143.96875 89.78125 143.90625 C 92.585938 142.46875 93.820312 142.71875 98.851562 145.277344 C 99.117188 148.453125 99.1875 153.375 97.902344 163.152344 C 97.902344 163.152344 91.355469 165.109375 84.742188 164.03125 C 84.742188 164.03125 83.1875 155.734375 82.785156 152.292969 C 81.992188 152.25 81.207031 152.203125 80.421875 152.15625 C 79.957031 150.25 79.8125 148.042969 80.21875 145.074219 " fill-opacity="1" fill-rule="evenodd"/><path fill="#0d0d0d" d="M 89.460938 142.714844 C 86.324219 142.804688 83.269531 143.3125 80.011719 143.894531 L 79.144531 144.050781 L 79.03125 144.917969 C 78.816406 146.46875 78.75 147.828125 78.796875 149.058594 C 78.84375 150.300781 79.007812 151.410156 79.253906 152.441406 L 79.460938 153.304688 L 80.355469 153.355469 L 81.722656 153.433594 C 82.253906 157.273438 83.554688 164.226562 83.558594 164.246094 L 83.714844 165.078125 L 84.550781 165.214844 C 91.4375 166.335938 98.222656 164.3125 98.242188 164.304688 L 98.992188 164.082031 L 99.09375 163.308594 C 99.742188 158.375 100.046875 154.664062 100.160156 151.78125 C 100.273438 148.851562 100.1875 146.789062 100.050781 145.179688 L 99.984375 144.394531 C 97.597656 142.007812 92.082031 139.847656 89.460938 142.714844 Z M 81.304688 146.105469 C 84.164062 145.605469 86.871094 145.183594 89.527344 145.109375 C 89.988281 145.097656 90.445312 145.09375 90.902344 145.101562 C 91.734375 142.820312 96.570312 144.203125 97.707031 146.171875 C 97.804688 147.605469 97.847656 149.375 97.757812 151.695312 C 97.65625 154.355469 97.386719 157.746094 96.816406 162.199219 C 95.070312 162.628906 90.511719 163.558594 85.765625 162.964844 C 85.425781 161.117188 84.617188 156.523438 84.179688 153.519531 C 84.882812 153.273438 86.296875 153.441406 88.226562 153.390625 C 89.210938 153.367188 87.144531 151.488281 87.117188 151.246094 L 83.859375 151.152344 L 82.851562 151.097656 L 81.40625 151.015625 C 81.292969 150.378906 81.21875 149.703125 81.191406 148.972656 C 81.160156 148.109375 81.191406 147.164062 81.304688 146.105469 " fill-opacity="1" fill-rule="nonzero"/><path fill="#0d0d0d" d="M 88.875 143.96875 C 87.851562 147.148438 87.273438 149.566406 85 152.03125 C 87.792969 153.5625 89.535156 155.066406 92.488281 158.167969 C 98.417969 156.308594 98.316406 145.628906 92.34375 148.730469 C 95.765625 149.445312 95.195312 153.535156 92.933594 155.273438 C 91.433594 153.710938 90.226562 152.488281 88.378906 151.347656 C 90.351562 148.464844 90.921875 145.511719 91.195312 143.949219 L 88.875 143.96875 " fill-opacity="1" fill-rule="nonzero"/><path fill="#0d0d0d" d="M 93.382812 163.78125 C 93.386719 163.773438 94.304688 161.097656 93.710938 159.121094 C 93.859375 158.554688 94.171875 157.285156 94.140625 156.582031 L 92.207031 155.917969 C 92.234375 156.546875 92.15625 156.867188 92.054688 157.089844 L 83.550781 157.683594 L 84.136719 159.394531 L 91.914062 159.59375 C 92.433594 161.710938 91.851562 162.90625 91.542969 163.621094 L 93.382812 163.78125 " fill-opacity="1" fill-rule="nonzero"/><path fill="#0d0d0d" d="M 93.253906 142.464844 C 93.253906 142.4375 92.535156 135.386719 88.421875 129.339844 C 86.925781 127.140625 84.988281 125.082031 82.699219 123.699219 C 79 123.519531 76.1875 125.265625 74.632812 128.597656 L 76.8125 129.605469 C 77.839844 127.390625 79.535156 126.105469 82.015625 126.109375 C 89.730469 131.535156 90.859375 142.683594 90.863281 142.71875 L 93.253906 142.464844 " fill-opacity="1" fill-rule="nonzero"/><path fill="#0d0d0d" d="M 92.09375 164.230469 C 93.289062 167.09375 96.390625 170.667969 100.007812 174.832031 C 108.007812 184.046875 118.628906 196.277344 114.875 208.335938 C 111.867188 218 100.019531 221.878906 90.902344 221.84375 C 78.59375 221.800781 66.398438 214.523438 66.734375 200.792969 C 66.964844 191.394531 73.535156 183.019531 79.722656 175.132812 C 82.445312 171.667969 85.09375 168.292969 87.144531 164.933594 L 85.09375 163.683594 C 83.105469 166.949219 80.503906 170.261719 77.832031 173.660156 C 71.410156 181.84375 64.597656 190.53125 64.320312 200.589844 C 63.910156 215.773438 77.167969 224.1875 90.902344 224.238281 C 101.128906 224.277344 113.832031 219.773438 117.171875 209.046875 C 121.316406 195.71875 110.199219 182.910156 101.820312 173.261719 C 98.347656 169.261719 95.363281 165.824219 94.316406 163.3125 L 92.09375 164.230469 " fill-opacity="1" fill-rule="nonzero"/><path fill="#0d0d0d" d="M 102.40625 215.019531 C 105.125 216.277344 110.539062 213.386719 110.726562 210.203125 C 110.765625 209.539062 110.390625 209.507812 110.125 210.0625 C 108.972656 212.421875 105.152344 214.34375 102.597656 214.257812 C 101.660156 214.222656 101.492188 214.59375 102.40625 215.019531 " fill-opacity="1" fill-rule="evenodd"/><path fill="#0d0d0d" d="M 92.132812 211.851562 C 93.945312 214.460938 100.84375 213.546875 101.972656 210.308594 C 102.125 209.875 101.722656 209.808594 101.441406 210.09375 C 99.507812 212.058594 94.882812 212.5625 92.566406 211.421875 C 92.203125 211.242188 91.875 211.480469 92.132812 211.851562 " fill-opacity="1" fill-rule="evenodd"/><path fill="#0d0d0d" d="M 88.121094 216.65625 C 89.289062 219.605469 96.191406 220.492188 98.039062 217.597656 C 98.292969 217.203125 98.164062 216.914062 97.738281 217.199219 C 95.433594 218.757812 90.648438 218.03125 88.644531 216.285156 C 88.035156 215.753906 87.789062 215.824219 88.121094 216.65625 " fill-opacity="1" fill-rule="evenodd"/><path fill="#0d0d0d" d="M 74.597656 213.359375 C 74.371094 216.664062 81.152344 219.6875 83.859375 217.371094 C 84.40625 216.910156 84.242188 216.710938 83.671875 216.882812 C 80.921875 217.710938 76.332031 215.609375 75.054688 213.324219 C 74.863281 212.976562 74.628906 212.882812 74.597656 213.359375 " fill-opacity="1" fill-rule="evenodd"/><path fill="#0d0d0d" d="M 78.058594 208.523438 C 78.46875 211.699219 85.035156 214.289062 87.5 211.832031 C 87.722656 211.605469 87.769531 211.222656 87.386719 211.378906 C 84.792969 212.441406 80.210938 210.53125 78.664062 208.304688 C 78.238281 207.6875 77.945312 207.664062 78.058594 208.523438 " fill-opacity="1" fill-rule="evenodd"/><path fill="#0d0d0d" d="M 68.71875 202.582031 C 67.339844 205.449219 71.847656 210.730469 75.210938 210.089844 C 76.027344 209.941406 75.953125 209.628906 75.203125 209.472656 C 72.464844 208.898438 69.46875 205.261719 69.226562 202.726562 C 69.175781 202.15625 69.023438 201.957031 68.71875 202.582031 " fill-opacity="1" fill-rule="evenodd"/><path fill="#0d0d0d" d="M 93.984375 165.761719 C 93.984375 165.761719 93.476562 166.566406 93.15625 166.140625 C 92.367188 165.097656 91.390625 165.273438 91.84375 166.328125 C 92.589844 168.074219 94.28125 171.554688 97.054688 174.898438 C 97.054688 174.898438 93.460938 173.019531 90.675781 167.578125 C 90.320312 166.875 89.890625 165.992188 89.539062 165.984375 C 89.1875 165.972656 88.917969 166.835938 88.722656 167.667969 C 88.199219 169.882812 86.984375 173.933594 84.5 177.496094 C 84.5 177.496094 86.535156 171.511719 87.523438 167.425781 C 87.78125 166.34375 86.917969 165.308594 86.167969 166.425781 C 86.003906 166.667969 85.589844 165.878906 85.308594 165.761719 L 85.714844 164.109375 L 93.175781 164.175781 L 93.984375 165.761719 " fill-opacity="1" fill-rule="evenodd"/><path fill="#ffffff" d="M 178.433594 78.824219 C 177.804688 78.742188 177.179688 78.871094 176.621094 79.164062 C 176.695312 74.636719 176.535156 69.460938 176.042969 65.34375 C 174.816406 55.046875 168.429688 48.222656 150.621094 48.222656 C 133.878906 48.222656 126.765625 55.625 125.714844 65.285156 C 125.214844 69.890625 124.96875 74.773438 124.878906 79.21875 C 124.296875 78.890625 123.632812 78.738281 122.964844 78.824219 C 121.03125 79.070312 119.710938 81.191406 120.019531 83.554688 C 120.320312 85.917969 122.136719 87.628906 124.070312 87.378906 C 124.429688 87.332031 124.765625 87.222656 125.074219 87.054688 C 126.792969 99.609375 137.578125 109.285156 150.621094 109.285156 C 163.671875 109.285156 174.566406 99.441406 176.171875 86.96875 C 176.523438 87.183594 176.914062 87.324219 177.328125 87.378906 C 179.261719 87.628906 181.078125 85.917969 181.382812 83.554688 C 181.6875 81.191406 180.371094 79.070312 178.433594 78.824219 " fill-opacity="1" fill-rule="evenodd"/><path fill="#0d0d0d" d="M 177.835938 77.605469 C 181.09375 77.429688 182.945312 80.804688 182.574219 83.703125 C 182.230469 86.34375 180.070312 88.9375 177.175781 88.566406 L 177.132812 88.5625 C 176.015625 94.558594 172.84375 99.890625 168.378906 103.792969 C 163.621094 107.949219 157.398438 110.488281 150.621094 110.488281 C 137.753906 110.488281 126.5 101.191406 124.109375 88.582031 C 121.261719 88.867188 119.164062 86.304688 118.824219 83.703125 C 118.449219 80.769531 120.28125 77.273438 123.71875 77.617188 C 123.835938 73.460938 124.070312 69.296875 124.519531 65.15625 C 126.007812 51.496094 138.503906 47.019531 150.621094 47.019531 C 163.449219 47.019531 175.535156 50.902344 177.234375 65.203125 C 177.726562 69.308594 177.851562 73.476562 177.835938 77.605469 Z M 178.289062 80.007812 C 177.292969 79.886719 176.285156 80.269531 175.390625 81.171875 C 175.476562 75.929688 175.472656 70.703125 174.847656 65.484375 C 173.300781 52.488281 162.171875 49.421875 150.621094 49.421875 C 139.789062 49.421875 128.253906 53.054688 126.910156 65.410156 C 126.335938 70.683594 126.109375 75.964844 126.035156 81.261719 C 124.019531 78.296875 120.828125 80.492188 121.207031 83.40625 C 121.324219 84.296875 121.714844 85.0625 122.257812 85.570312 C 123.621094 86.859375 125.414062 86.171875 126.03125 85.1875 C 126.289062 87.070312 126.550781 88.917969 127.113281 90.742188 C 130.246094 100.96875 139.875 108.082031 150.621094 108.082031 C 156.800781 108.082031 162.46875 105.769531 166.800781 101.988281 C 172.023438 97.425781 174.554688 91.53125 175.21875 84.992188 C 177.167969 87.128906 179.847656 86.058594 180.191406 83.40625 C 180.359375 82.113281 179.8125 80.207031 178.289062 80.007812 " fill-opacity="1" fill-rule="nonzero"/><path fill="#0d0d0d" d="M 179.21875 107.925781 C 179.21875 107.925781 186.542969 131.226562 191.59375 145.949219 C 195.039062 144.839844 197.449219 144.347656 202.699219 142.933594 C 208.433594 144.46875 210.65625 161.382812 204.777344 167.03125 C 198.5625 166.296875 192.300781 165.847656 184.960938 166.039062 C 184.734375 161.519531 183.820312 153.363281 182.652344 145.960938 C 181.300781 137.398438 179.933594 127.753906 178.957031 122.625 C 178.082031 117.5 178.199219 122.796875 178.199219 122.796875 L 179.277344 142.386719 L 181.988281 166.144531 C 181.507812 166.167969 181.03125 166.191406 180.542969 166.21875 C 177.964844 146.175781 171.59375 127.421875 179.21875 107.925781 " fill-opacity="1" fill-rule="evenodd"/><path fill="#0d0d0d" d="M 119.964844 179.589844 C 124.175781 190.507812 134.84375 221.203125 135.433594 255.773438 C 138.539062 256.3125 142.453125 256.582031 147.582031 255.773438 C 147.582031 255.773438 148.121094 208.828125 150.011719 196.28125 C 151.902344 183.734375 156.628906 175.371094 156.628906 175.371094 L 119.269531 176.03125 L 142.765625 178.472656 C 132.96875 179.917969 124.785156 179.921875 119.964844 179.589844 " fill-opacity="1" fill-rule="evenodd"/><path fill="#0d0d0d" d="M 176.277344 63.632812 C 176.351562 59.105469 176.191406 53.925781 175.699219 49.808594 C 174.476562 39.511719 168.089844 32.683594 150.28125 32.683594 C 133.535156 32.683594 127.304688 40.089844 126.25 49.75 C 125.75 54.359375 125.507812 59.242188 125.417969 63.6875 C 135.75 66.609375 166.21875 66.304688 176.277344 63.632812 " fill-opacity="1" fill-rule="evenodd"/><path fill="#0d0d0d" d="M 150.664062 68.9375 C 142.519531 68.9375 132.25 68.667969 123.625 66.238281 C 115.003906 63.8125 114.933594 58.414062 116.441406 55.785156 C 117.945312 53.15625 121.914062 56.1875 125.886719 58.210938 C 129.855469 60.234375 137.039062 62.460938 150.660156 62.460938 C 164.285156 62.460938 171.46875 60.234375 175.441406 58.210938 C 179.410156 56.1875 183.378906 53.15625 184.886719 55.785156 C 186.390625 58.414062 186.324219 63.8125 177.699219 66.238281 C 169.074219 68.667969 158.808594 68.9375 150.664062 68.9375 " fill-opacity="1" fill-rule="evenodd"/><path fill="#0d0d0d" d="M 150.1875 109.40625 C 141.816406 109.40625 135.671875 104.886719 135.671875 104.886719 C 133.171875 106.980469 129.324219 108.734375 121.15625 107.925781 C 121.957031 121.371094 119.726562 134.671875 118.21875 147.683594 C 117.164062 156.773438 116.355469 167.1875 116.699219 177.398438 C 123.046875 179.554688 139.65625 180.632812 150.183594 180.632812 C 160.71875 180.632812 177.328125 179.554688 183.675781 177.398438 C 184.019531 167.1875 183.210938 156.773438 182.15625 147.683594 C 180.648438 134.671875 178.414062 121.371094 179.21875 107.925781 C 171.050781 108.734375 167.199219 106.980469 164.703125 104.886719 C 164.703125 104.886719 158.5625 109.40625 150.1875 109.40625 " fill-opacity="1" fill-rule="evenodd"/><path fill="#0d0d0d" d="M 150.183594 88.765625 C 150.183594 88.765625 152.3125 87.238281 155.699219 87.789062 C 161.859375 88.78125 162.589844 96.183594 169.492188 95.277344 C 169.132812 96.222656 165.804688 99.359375 160.792969 98.933594 C 157.785156 98.679688 153.832031 97.097656 150.183594 93.042969 C 146.542969 97.097656 142.585938 98.679688 139.578125 98.933594 C 134.5625 99.359375 131.238281 96.222656 130.878906 95.277344 C 137.78125 96.183594 138.515625 88.78125 144.671875 87.789062 C 148.058594 87.238281 150.183594 88.765625 150.183594 88.765625 " fill-opacity="1" fill-rule="evenodd"/><path fill="#0d0d0d" d="M 165.796875 78.460938 C 165.796875 75.207031 163.152344 72.566406 159.894531 72.566406 C 156.632812 72.566406 153.988281 75.207031 153.988281 78.460938 C 153.988281 81.710938 156.632812 84.351562 159.894531 84.351562 C 163.152344 84.351562 165.796875 81.710938 165.796875 78.460938 Z M 159.894531 70.761719 C 164.152344 70.761719 167.605469 74.207031 167.605469 78.460938 C 167.605469 82.707031 164.152344 86.15625 159.894531 86.15625 C 155.636719 86.15625 152.183594 82.707031 152.183594 78.460938 C 152.183594 74.207031 155.636719 70.761719 159.894531 70.761719 " fill-opacity="1" fill-rule="nonzero"/><path fill="#ffffff" d="M 150.179688 82.265625 C 152.644531 82.265625 154.636719 83.964844 154.636719 86.054688 C 154.636719 88.148438 152.644531 89.84375 150.179688 89.84375 C 147.722656 89.84375 145.730469 88.148438 145.730469 86.054688 C 145.730469 83.964844 147.722656 82.265625 150.179688 82.265625 " fill-opacity="1" fill-rule="evenodd"/><path fill="#ffffff" d="M 140.332031 111.273438 L 140.332031 121.902344 L 150.183594 117.433594 L 160.035156 121.902344 L 160.035156 111.273438 L 150.183594 115.542969 L 140.332031 111.273438 " fill-opacity="1" fill-rule="evenodd"/><path fill="#ffffff" d="M 220.15625 145.074219 C 216.828125 144.484375 213.722656 143.96875 210.59375 143.90625 C 207.789062 142.46875 206.554688 142.71875 201.523438 145.277344 C 201.253906 148.453125 201.183594 153.375 202.46875 163.152344 C 202.46875 163.152344 209.019531 165.109375 215.632812 164.03125 C 215.632812 164.03125 217.183594 155.734375 217.589844 152.292969 C 218.375 152.25 219.167969 152.203125 219.953125 152.15625 C 220.417969 150.25 220.5625 148.042969 220.15625 145.074219 " fill-opacity="1" fill-rule="evenodd"/><path fill="#0d0d0d" d="M 210.914062 142.714844 C 214.046875 142.804688 217.105469 143.3125 220.363281 143.894531 L 221.226562 144.050781 L 221.34375 144.917969 C 221.554688 146.46875 221.625 147.828125 221.578125 149.058594 C 221.53125 150.300781 221.367188 151.410156 221.117188 152.441406 L 220.90625 153.304688 L 220.019531 153.355469 L 218.652344 153.433594 C 218.117188 157.273438 216.816406 164.226562 216.8125 164.246094 L 216.65625 165.078125 L 215.824219 165.214844 C 208.9375 166.335938 202.152344 164.3125 202.132812 164.304688 L 201.378906 164.082031 L 201.277344 163.308594 C 200.632812 158.375 200.328125 154.664062 200.214844 151.78125 C 200.101562 148.851562 200.1875 146.789062 200.324219 145.179688 L 200.390625 144.394531 C 202.773438 142.007812 208.289062 139.847656 210.914062 142.714844 Z M 219.070312 146.105469 C 216.207031 145.605469 213.503906 145.183594 210.847656 145.109375 C 210.386719 145.097656 209.925781 145.09375 209.472656 145.101562 C 208.640625 142.820312 203.804688 144.203125 202.660156 146.171875 C 202.566406 147.605469 202.523438 149.375 202.613281 151.695312 C 202.714844 154.355469 202.988281 157.746094 203.558594 162.199219 C 205.300781 162.628906 209.859375 163.558594 214.609375 162.964844 C 214.949219 161.117188 215.753906 156.523438 216.195312 153.519531 C 215.488281 153.273438 214.074219 153.441406 212.148438 153.390625 C 211.160156 153.367188 213.230469 151.488281 213.257812 151.246094 L 216.515625 151.152344 L 217.523438 151.097656 L 218.96875 151.015625 C 219.078125 150.378906 219.152344 149.703125 219.183594 148.972656 C 219.214844 148.109375 219.183594 147.164062 219.070312 146.105469 " fill-opacity="1" fill-rule="nonzero"/><path fill="#0d0d0d" d="M 211.5 143.96875 C 212.519531 147.148438 213.097656 149.566406 215.371094 152.03125 C 212.578125 153.5625 210.839844 155.066406 207.886719 158.167969 C 201.957031 156.308594 202.058594 145.628906 208.03125 148.730469 C 204.605469 149.445312 205.179688 153.535156 207.441406 155.273438 C 208.941406 153.710938 210.148438 152.488281 211.996094 151.347656 C 210.019531 148.464844 209.453125 145.511719 209.179688 143.949219 L 211.5 143.96875 " fill-opacity="1" fill-rule="nonzero"/><path fill="#0d0d0d" d="M 206.984375 163.78125 C 206.984375 163.773438 206.070312 161.097656 206.664062 159.121094 C 206.515625 158.554688 206.203125 157.285156 206.234375 156.582031 L 208.164062 155.917969 C 208.136719 156.546875 208.210938 156.867188 208.316406 157.089844 L 216.820312 157.683594 L 216.238281 159.394531 L 208.457031 159.59375 C 207.941406 161.710938 208.523438 162.90625 208.828125 163.621094 L 206.984375 163.78125 " fill-opacity="1" fill-rule="nonzero"/><path fill="#0d0d0d" d="M 207.121094 142.464844 C 207.84375 135.527344 211.59375 127.496094 217.675781 123.691406 C 219.546875 123.570312 221.320312 124.023438 222.636719 124.855469 C 223.941406 125.683594 224.96875 126.933594 225.742188 128.597656 L 223.5625 129.605469 C 222.984375 128.367188 222.257812 127.457031 221.347656 126.886719 C 220.53125 126.371094 219.535156 126.109375 218.355469 126.109375 C 210.644531 131.535156 209.515625 142.683594 209.511719 142.71875 L 207.121094 142.464844 " fill-opacity="1" fill-rule="nonzero"/><path fill="#0d0d0d" d="M 208.273438 164.230469 C 207.082031 167.09375 203.980469 170.667969 200.367188 174.832031 C 192.367188 184.046875 181.746094 196.277344 185.496094 208.335938 C 188.503906 218 200.355469 221.878906 209.472656 221.84375 C 221.78125 221.800781 233.972656 214.523438 233.640625 200.792969 C 233.410156 191.394531 226.835938 183.019531 220.652344 175.132812 C 217.929688 171.667969 215.277344 168.292969 213.230469 164.933594 L 215.277344 163.683594 C 217.269531 166.949219 219.867188 170.261719 222.539062 173.660156 C 228.960938 181.84375 235.777344 190.53125 236.050781 200.589844 C 236.464844 215.773438 223.207031 224.1875 209.472656 224.238281 C 199.246094 224.277344 186.542969 219.773438 183.203125 209.046875 C 179.058594 195.71875 190.175781 182.910156 198.550781 173.261719 C 202.027344 169.261719 205.011719 165.824219 206.058594 163.3125 L 208.273438 164.230469 " fill-opacity="1" fill-rule="nonzero"/><path fill="#0d0d0d" d="M 197.96875 215.019531 C 195.25 216.277344 189.828125 213.386719 189.648438 210.203125 C 189.609375 209.539062 189.980469 209.507812 190.25 210.0625 C 191.398438 212.421875 195.222656 214.34375 197.777344 214.257812 C 198.714844 214.222656 198.882812 214.59375 197.96875 215.019531 " fill-opacity="1" fill-rule="evenodd"/><path fill="#0d0d0d" d="M 208.238281 211.851562 C 206.429688 214.460938 199.53125 213.546875 198.398438 210.308594 C 198.246094 209.875 198.652344 209.808594 198.933594 210.09375 C 200.867188 212.058594 205.488281 212.5625 207.808594 211.421875 C 208.167969 211.242188 208.496094 211.480469 208.238281 211.851562 " fill-opacity="1" fill-rule="evenodd"/><path fill="#0d0d0d" d="M 212.253906 216.65625 C 211.078125 219.605469 204.179688 220.492188 202.332031 217.597656 C 202.082031 217.203125 202.210938 216.914062 202.632812 217.199219 C 204.941406 218.757812 209.722656 218.03125 211.730469 216.285156 C 212.339844 215.753906 212.578125 215.824219 212.253906 216.65625 " fill-opacity="1" fill-rule="evenodd"/><path fill="#0d0d0d" d="M 225.777344 213.359375 C 226.003906 216.664062 219.222656 219.6875 216.515625 217.371094 C 215.96875 216.910156 216.132812 216.710938 216.695312 216.882812 C 219.453125 217.710938 224.035156 215.609375 225.316406 213.324219 C 225.507812 212.976562 225.746094 212.882812 225.777344 213.359375 " fill-opacity="1" fill-rule="evenodd"/><path fill="#0d0d0d" d="M 222.316406 208.523438 C 221.90625 211.699219 215.335938 214.289062 212.875 211.832031 C 212.648438 211.605469 212.601562 211.222656 212.988281 211.378906 C 215.578125 212.441406 220.164062 210.53125 221.710938 208.304688 C 222.136719 207.6875 222.425781 207.664062 222.316406 208.523438 " fill-opacity="1" fill-rule="evenodd"/><path fill="#0d0d0d" d="M 231.65625 202.582031 C 233.035156 205.449219 228.527344 210.730469 225.15625 210.089844 C 224.347656 209.941406 224.421875 209.628906 225.167969 209.472656 C 227.910156 208.898438 230.902344 205.261719 231.144531 202.726562 C 231.199219 202.15625 231.351562 201.957031 231.65625 202.582031 " fill-opacity="1" fill-rule="evenodd"/><path fill="#0d0d0d" d="M 206.390625 165.761719 C 206.390625 165.761719 206.894531 166.566406 207.21875 166.140625 C 208.007812 165.097656 208.984375 165.273438 208.527344 166.328125 C 207.78125 168.074219 206.09375 171.554688 203.320312 174.898438 C 203.320312 174.898438 206.910156 173.019531 209.695312 167.578125 C 210.054688 166.875 210.480469 165.992188 210.832031 165.984375 C 211.179688 165.972656 211.457031 166.835938 211.652344 167.667969 C 212.175781 169.882812 213.390625 173.933594 215.875 177.496094 C 215.875 177.496094 213.835938 171.511719 212.851562 167.425781 C 212.589844 166.34375 213.457031 165.308594 214.207031 166.425781 C 214.371094 166.667969 214.785156 165.878906 215.066406 165.761719 L 214.660156 164.109375 L 207.199219 164.175781 L 206.390625 165.761719 " fill-opacity="1" fill-rule="evenodd"/></svg>